<?xml version="1.0" encoding="UTF-8"?>
<!-- Generator: Adobe Illustrator 19.0.0, SVG Export Plug-In . SVG Version: 6.00 Build 0)  -->
<svg version="1.1" id="Camada_1" xmlns="http://www.w3.org/2000/svg" xmlns:xlink="http://www.w3.org/1999/xlink" x="0px" y="0px" viewBox="-364 598.2 236.2 171" style="enable-background:new -364 598.2 236.2 171;" xml:space="preserve">
<style type="text/css">
	.st0{fill:#E81C88;}
	.st1{fill:#256AAF;}
	.st2{fill:#7CB124;}
	.st3{display:none;}
	.st4{display:inline;}
	.st5{fill:#FDFDFD;}
	.st6{fill:#EFF1EB;}
	.st7{fill:#314F4F;}
	.st8{fill:#6F6F6F;}
	.st9{fill:#EBEFEA;}
	.st10{fill:#737372;}
	.st11{fill:#656565;}
	.st12{fill:#B2B2B1;}
	.st13{fill:#B9BAB5;}
	.st14{fill:#A5A5A5;}
	.st15{fill:#47DDE4;}
	.st16{fill:#FF0000;}
	.st17{fill:#FEF3ED;}
	.st18{fill:#9AE6E6;}
	.st19{fill:#D6D6D2;}
	.st20{fill:#F0F1EB;}
	.st21{fill:#FFFFFF;}
	.st22{fill:#5B5B5B;stroke:#FFFFFF;stroke-width:2;stroke-miterlimit:10;}
	.st23{fill:#00E0DE;}
	.st24{fill:#E8B97C;}
	.st25{fill:#ADACAC;}
	.st26{fill:none;stroke:#232322;stroke-width:3;stroke-miterlimit:10;}
	.st27{fill:#72C4B4;}
	.st28{fill:#C9C9C9;}
	.st29{fill:#D690A5;}
	.st30{fill:#90BDD3;}
	.st31{fill:#5B5B5B;stroke:#FFFFFF;stroke-width:2.909;stroke-miterlimit:10;}
	.st32{fill:#CDDFF9;}
	.st33{fill:#EAE134;}
	.st34{fill:#050505;}
</style>
<path class="st0" d="M-281.9,664.3h5.3c2.3,0,4.2,1.9,4.2,4.2v5.2c0,2.3-1.9,4.2-4.2,4.2h-5.3c-2.3,0-4.2-1.9-4.2-4.2v-5.2  C-286.1,666.1-284.2,664.3-281.9,664.3z"/>
<path class="st1" d="M-260.9,664.3h5.3c2.3,0,4.2,1.9,4.2,4.2v5.2c0,2.3-1.9,4.2-4.2,4.2h-5.3c-2.3,0-4.2-1.9-4.2-4.2v-5.2  C-265.1,666.2-263.2,664.3-260.9,664.3z"/>
<path class="st2" d="M-240.3,664.3h5.3c2.3,0,4.2,1.9,4.2,4.2v5.2c0,2.3-1.9,4.2-4.2,4.2h-5.3c-2.3,0-4.2-1.9-4.2-4.2v-5.2  C-244.5,666.2-242.6,664.3-240.3,664.3z"/>
<g id="Camada_3" class="st3">
	<g class="st4">
		<path class="st5" d="M316.9,854.9c-52.7,0-105.3,0-158,0.1c-3.4,0-4.1-0.7-4.1-4.1c0.1-79.3,0.1-158.7,0-238    c0-3.4,0.7-4.1,4.1-4.1c105.7,0.1,211.3,0.1,317,0c3.4,0,4.1,0.7,4.1,4.1c-0.1,79.3-0.1,158.7,0,238c0,3.4-0.7,4.1-4.1,4.1    C422.9,854.8,369.9,854.9,316.9,854.9z M421.8,619.9L421.8,619.9c0,0.3,0,0.6-0.1,0.9c-1.9,1.4-4.1,1-6.3,1    c-49.8,0-99.6,0-149.3,0c-1.3,0-2.7,0.1-4,0c-2.3-0.1-3.2,0.9-3.2,3.3c0,24.5,0,48.9,0,73.4c0,1.8,0.3,3.4,2.6,3.3    c9.1-0.3,18.3,0.8,27.4-0.6c9.4,0,18.7,0,28.1,0c2.3,2.2,4.7,4.4,7,6.6c0,0.7,0,1.3,0,2c-1.1,0.8-0.9,1.5,0.2,2.1    c-0.1,0.6-0.2,1.3-0.3,1.9c-1.8,2.2-0.6,4.7-0.9,7.1c0,0.6,0,1.2,0,1.9c0,9,0.1,18-0.2,27c-0.1,3.7,1.2,4.4,4.6,4.3    c12-0.2,24,0,36-0.1c1,0,2.4,0.8,3.1-1.4c-8.1-2.7-10.9-8.5-9.8-16.9c0.4-3.1,1.4-3.9,4.2-3.8c8.5,0.1,17,0.1,25.5,0    c1.5,0,3.4,1,4.4-1c0-0.3,0-0.7,0-1c0-2.3,0-4.7,0-7c0-0.6,0-1.2,0-1.9c0-3.7,0-7.4,0.1-11.2c0-0.3,0.1-0.6,0.2-1    c3.9-2,8.1-2.1,12.4-2.1c6.2,0.1,12.5-0.1,18.7-0.1c9.8,0,8.4,1.3,8.4-8.4c0.1-24.4,0-48.8,0-73.2c0-2.8,0.1-5.7-0.2-8.5    c-0.3-3.2-1.8-5.4-5.5-4.7c-28,0-56,0-84,0c-0.7,0-1.3,0-2,0c-28.3-0.1-56.6-0.2-84.9-0.3c-3.7,0-5,2.2-5,5.4    c-0.1,27-0.1,54-0.3,80.9c0,3.8,1.8,4,4.9,4.2c3.5,0.2,3.6-1.3,3.6-4.1c-0.1-19.8-0.2-39.6,0-59.5c0.1-6.3-0.5-12.6,0.6-18.9    c27.7,0,55.5-0.1,83.2-0.1c0.8-0.1,1.6-0.1,2.4-0.2c2.6,0.1,5.3,0.4,7.9,0.4C374.9,619.9,398.4,619.9,421.8,619.9z M372.2,840.1    c-0.1,0.2-0.2,0.3,0,0.5c0.1,3.6-2.1,7.8,2.8,10l0.4,0.2l0.5-0.1c9.7,0,19.4,0,29,0l0.5,0.1l0.5-0.2c3-0.9,3.5-3.1,2.9-5.8    c0.1-18.7,0.1-37.3,0.2-56c0.6,0,1.2,0,1.9,0c6.2,2.1,12.6,0.5,18.9,0.9c0.8,0.3,1,1,1.1,1.7c-6.1,0.8-12.5-0.6-18.6,1.2    c4.1,1.6,8.4,0.7,12.6,1.1c-3,2-6.4,0.5-9.6,1c-1.5,0.2-4-0.8-4,1.5c0,2.4,2.5,1.4,4,1.5c2,0.1,4-0.2,5.9,0.1    c1.9,0.3,4.4-1.3,5.7,1.4c-3.6,0.9-7.2-0.5-10.8-0.3c-1.6,0.1-3.9-1.1-4.2,1.9c0,1,0.1,2,0.1,3c-2.1,8.4-1.6,9.2,6.8,9.1    c16,0,32-0.3,48-0.2c4.5,0,6.4-1.8,6.4-6.2c-0.1-30.5-0.1-61,0-91.5c0-4.8-2.1-6.6-6.6-6.6c-22.2,0-44.3-0.1-66.5,0    c-5.3,0-6.7,1.5-6.7,6.9c0,10.2,0.2,20.3,0.3,30.5c0,11.2,0.1,22.3-0.2,33.5c-0.1,3.6,1.3,4.8,4.5,4.6c1.3-0.1,2.6-0.2,3.9-0.3    c1.7,0,3.4,0,5.1,0c0,0.3,0,0.6,0.1,0.9c-0.1,0.6-0.2,1.2-0.2,1.8c-10.3-0.6-20.6-0.1-30.9,0.2c-0.8-0.2-1.6-0.2-2.1,0.7    c-1.7,1.2-1.9,2.9-1.9,4.8c0,15.5,0.1,31,0.1,46.6c0,0.1-0.2,0.3-0.1,0.4C371.9,839.6,372.1,839.8,372.2,840.1z M162.8,798.9    c-0.3,0-0.6,0.1-1,0.1c-2.7,5.6-1.8,7.8,3.2,7.8c53.9,0,107.7,0,161.6,0c5.7,0,6.8-2,4.1-7.8c-0.3-0.1-0.6-0.1-0.9-0.2    c-2-0.1-4-0.2-6-0.2c-45.7,0-91.4,0-137.1,0C178.8,798.7,170.8,798.8,162.8,798.9z M172.9,707.9c0,0.3-0.1,0.7-0.1,1    c-0.1,27.3-0.1,54.6-0.3,81.9c0,4.2,2.4,5.3,6.1,5.3c16.3-0.1,32.6,0,48.9,0c28.6,0,57.2,0,85.9,0c2.6,0,5.6,0.5,6.3-3.2    c0-0.3,0.1-0.7,0.1-1c0-27,0.1-54,0.1-80.9c1-2,0.5-3.6-1.1-5.1c-0.4-0.9-1.1-1.1-2-1c-0.3,0-0.7-0.1-1-0.1    c-1.8-0.1-3.6-0.2-5.5-0.2c-21.1,0-42.2,0.1-63.3,0.2c-22.6,0-45.2,0-67.8,0.1C176.6,704.7,173.7,704.2,172.9,707.9z M345.7,756.5    c-6.5,0-13,0-19.5,0c-1.3,0-3.2-0.7-3.4,1.7c-0.1,2.7,1.8,2.3,3.4,2.3c12.8,0,25.6,0,38.4,0c1.4,0,3.2,0.4,3.2-2s-1.8-2-3.2-2    C358.3,756.5,352,756.5,345.7,756.5z"/>
		<path class="st6" d="M390.8,709.8c0,3.7,0,7.4-0.1,11.2c-22.6,0-45.2,0-67.9,0c0.3-2.4-0.9-4.9,0.9-7.1c5.5,0,11,0,16.5,0    c0-0.6,0-1.3-0.1-1.9c-5.4,0-10.8,0-16.2,0c-1.1-0.6-1.3-1.2-0.2-2.1c10.2,0,20.3,0,30.5,0c0-0.7,0-1.3,0-2c-10.1,0-20.3,0-30.4,0    c-2.3-2.2-4.7-4.4-7-6.6c-1.3-2.9-4.3-0.7-6.1-1.9c-0.3-0.8-0.6-1.5-0.9-2.3c0-1.4-0.7-2.1-2.1-2.1c-5.6,0-11.2,0-16.8,0    c-1.4,0-2.2,0.6-2.1,2.1c0,0.8,0,1.6,0,2.4c0,0.6,0,1.2,0,1.8c-9.1,1.3-18.2,0.2-27.4,0.6c-2.3,0.1-2.6-1.5-2.6-3.3    c0-24.5,0-48.9,0-73.4c0-2.3,0.9-3.4,3.2-3.3c1.3,0.1,2.7,0,4,0c49.8,0,99.6,0,149.3,0c2.1,0,4.4,0.4,6.3-1c0.1,2,0.3,4,0.3,5.9    c0.1,25.7,0.1,51.4,0.2,77.1c0,0.9,0,1.9,0,2.8c-6.2,0.1-12.5,0.2-18.7,0.1c-4.3-0.1-8.5,0.1-12.4,2.1c-1-1.2-2.4-1-3.7-1    c-8.3,0-16.6,0-24.9,0c-1,0-2.3-0.5-3.4,1.9C369.9,709.8,380.4,709.8,390.8,709.8z M355,700.9c0.3-0.4,0.6-0.8,0.9-1.2    c-0.8-1-0.5-1.9,0-2.9c-0.2-1.1-0.7-1.8-1.9-1.9c-9.7,0-19.4,0-29.1,0c-1.6,0-2.1,0.8-0.9,2.2c0,0.9,0,1.8-0.1,2.7    c0,0.4,0,0.8,0,1.2c0,1,0,2,0,2.9c0.2,1.1,0.7,1.8,1.9,1.8c6.3,0,12.6,0,18.9,0c1.4,0,2.2-0.6,2.2-2c0.3-0.8,0.6-1.5,0.9-2.3    C350.2,701.2,352.6,701,355,700.9z M290.9,638.8c-0.8,0.2-1.6,0.3-1.9,1.2c0,9.6,0,19.2-0.1,28.8c0,0.3-0.1,0.6,0,1    c1.4,1.8,3.4,1.1,5.1,1.1c30.2,0,60.5,0,90.7,0c1.8,0,3.7,0.6,5.2-0.9c0-0.3,0.1-0.6,0.1-0.9c1.8-8.2,0.2-16.5,0.8-24.7    c0.3-3.8-1.1-4.8-4.8-4.8c-19.6,0.2-39.2,0.1-58.8,0.1c-1.8,0-3.7,0.4-5.4-0.5c-0.3-0.9-0.7-0.8-1,0c-1,0.4-2,0.7-3,0.1    C308.8,636.9,299.9,637.5,290.9,638.8z M358.9,699.9c0.1,0.3,0.1,0.6,0,0.9c0,1,0,2,0,3.1c0.3,0.6,0.6,1.6,0.9,1.6    c9.7,0.1,19.5,0.1,29.2,0.1c0.5,0,1.5-0.5,1-1.2c-0.4-0.5-1.4-0.6-2.2-0.9c-0.3-0.8-0.6-1.5-0.9-2.3c0-0.6,0-1.1,0-1.7    c0-0.8-0.1-1.6-0.1-2.3c1.1-0.5,3,0.4,4-2.2c-10.4,0-20.2,0-30.1,0c-1.2,0-1.7,0.8-1.9,1.9C358.9,697.8,358.9,698.9,358.9,699.9z     M318.8,690.9c0.3-0.3,0.7-0.7,1-1c-0.4-5.7,1.4-11.5-1-17c-9,0-18,0-27.1,0c-1.7-0.2-3.1,0.2-3,2.3c0.2,4.9-0.7,9.9,0.5,14.8    c1.3,1.4,3.1,1,4.7,1c7.6,0,15.2,0,22.8-0.1C317.5,690.9,318.2,690.9,318.8,690.9z M359.2,688.9c-0.1,1.9,1.3,2,2.6,2    c8.7,0,17.4,0,26.1,0c1.4,0,2.7-0.2,2.7-2c0.1-4.1,0-8.3,0.2-12.4c0.2-3.2-1-4.5-4.3-4.5c-7.8,0.1-15.6,0.1-23.4,0    c-2.9,0-4.4,0.9-4.2,4C359.1,680.3,359.1,684.6,359.2,688.9z M340.2,672.7L340.2,672.7c-1,0-2,0-3,0c-14.8,0-14.7,0-13.4,15.1    c0.2,2.3,1,3.2,3.3,3.2c8.5-0.1,17-0.1,25.4,0c2.4,0,3.2-1.1,3.2-3.3c-0.1-4-0.1-8,0-12c0.1-2.7-1-3.3-3.7-3.1    C348.2,672.9,344.1,672.7,340.2,672.7z M305.2,634.8c4.3,0,8.6-0.2,12.9,0.1c3.7,0.2,4.1-1.8,3.9-4.6c-0.2-2.5,0.9-5.5-3.6-5.4    c-8.8,0.2-17.6,0.2-26.4,0c-4.1-0.1-3.3,2.7-3.4,5.1c-0.1,2.5-0.4,5.1,3.6,4.9C296.6,634.6,300.9,634.8,305.2,634.8z M359.5,712.9    c3.9,1.2,7.8,1.4,11.7-0.1C367.4,711.9,363.5,711.7,359.5,712.9z"/>
		<path class="st7" d="M319.8,792.8c-0.8,3.7-3.7,3.2-6.3,3.2c-28.6,0-57.2,0-85.9,0c-16.3,0-32.6,0-48.9,0c-3.7,0-6.1-1.1-6.1-5.3    c0.1-27.3,0.2-54.6,0.3-81.9c0.6-0.3,0.9-0.6,0.1-1c0.8-3.6,3.8-3.1,6.4-3.1c22.6,0,45.2,0,67.8-0.1c21.1,0,42.2-0.1,63.3-0.2    c1.8,0,3.6,0.2,5.5,0.2c0.3,0.7,0.6,0.9,1,0.1c0.9-0.1,1.6,0.2,2,1c-0.3,1.8-0.5,3.6,1.1,5.1c0,27-0.1,54-0.1,80.9    c-0.1,0.1-0.4,0.2-0.4,0.2C319.5,792.3,319.7,792.6,319.8,792.8z M179.4,713.8c-2.2,0.8-1.5,2.7-1.5,4.3c0,22.1,0,44.3,0,66.4    c0,1.6-0.6,3.4,1.5,4.3c0.3-0.1,0.4,0,0.5,0.3c0.5,2.4,2.5,1.7,4.1,1.7c41.6,0,83.3,0,124.9,0c1.6,0,3.5,0.5,4-1.9l0.1-0.1    c2.4-0.5,1.8-2.5,1.8-4c0-22.3,0-44.6,0-66.9c0-1.6,0.6-3.5-1.7-4.2c-20.1-1-40.2-0.3-60.3-0.5c-7.6-0.1-15.3,0.2-22.9,0.3    c-1-0.5-2.1-0.5-3.1,0c-0.3-0.2-0.6-0.2-0.9,0c-8.4-0.8-16.8-0.7-25.1,0C193.6,713.1,186.5,713,179.4,713.8z"/>
		<path class="st8" d="M401.8,783.8c-1.3,0.1-2.6,0.2-3.9,0.3c-3.3,0.2-4.6-1-4.5-4.6c0.3-11.2,0.2-22.3,0.2-33.5    c0-10.2-0.3-20.3-0.3-30.5c0-5.4,1.4-6.9,6.7-6.9c22.2,0,44.3,0.1,66.5,0c4.5,0,6.6,1.8,6.6,6.6c-0.1,30.5-0.1,61,0,91.5    c0,4.4-1.9,6.2-6.4,6.2c-16-0.1-32,0.2-48,0.2c-8.4,0-9-0.8-6.8-9.1c12.3,0,24.6-0.1,36.9-0.1c5,0,10.1,0,15.1-0.1    c0.4,0,0.8,0,1.1,0c2.4-0.5,1.8-2.4,1.8-4c0-26,0-52.1,0-78.1c0-1.6,0.5-3.5-1.9-3.9l0,0c-0.2-1.1-0.7-1.9-1.9-1.9    c-8.5,0-16.9,0-25.4,0.1c-0.7,0-1.3,0.8-2,1.3c-1.5,0-3,0-4.5,0c-0.6-0.9-1.4-1.4-2.4-1.4c-7.9,0-15.7,0-23.6,0    c-1.1,0-1.9,0.4-2.2,1.5c-0.4,0.1-0.7,0.3-1.1,0.4c-2.1,0.3-1.9,1.9-1.9,3.5c0,18.5,0,37,0,55.4c0,1.4-0.1,2.7,1.7,3.1    C401.6,781.2,401.7,782.5,401.8,783.8z"/>
		<path class="st9" d="M401.8,717.8c0.4-0.1,0.7-0.3,1.1-0.4c9.4,0.3,18.8,0.5,28.2-0.1c1.5,0,3,0,4.5,0c9.8,0.2,19.5,0.3,29.3,0.5    l0,0c0,3.8,0,7.6,0,11.4c-0.1,22.9-0.2,45.7-0.2,68.6c-0.5,0.3-1.5,0.7-1.5,1c0.1,4-2.5,4-5.5,4.1s-6.2-1.2-8.9,1    c-12.3,0-24.6,0.1-36.9,0.1c0-1-0.1-2-0.1-3c6.4,0,12.8,0,19.1,0c0-0.3,0-0.6,0.1-0.9c-1.4-0.3-2.8-0.5-4.2-0.8    c-1.3-2.7-3.8-1.2-5.7-1.4c-1.9-0.3-4,0.1-5.9-0.1c-1.5-0.1-4,0.8-4-1.5s2.6-1.3,4-1.5c3.2-0.5,6.5,1,9.6-1c1.8,0,3.5,0,5.3-0.2    c1.6-0.2,1.9-1,0.7-2.2c0-0.8-0.3-1.4-1.1-1.7c-0.3-0.6-0.5-1.6-0.8-1.6c-6.1-0.1-12.2-1.4-18.2,0.7c-0.6,0-1.2,0-1.9,0    c-0.8-0.8-1.5-1.5-2.3-2.3c0.1-0.6,0.2-1.2,0.2-1.8c5.5,1.7,10.9,1.3,16.3,0.6c0-0.5,0-1,0-1.5c-5.4,0-10.9,0-16.3,0    c-1.7,0-3.4,0-5.1,0c-0.1-1.3-0.1-2.7-0.2-4C401.6,759.2,401.7,738.5,401.8,717.8z M456.9,795.5c-1,0-2.1,0-3.1,0    c0-0.6,0-1.3,0-1.9c0-0.6,0.1-1.1,0.1-1.7c0-0.6,0-1.3,0-1.9c2-0.1,4-0.2,6-0.2c1.2-0.6,1.1-1.1,0-1.7c-7.1,0-14.1-0.1-21.2-0.1    c-1.5,0-3.5-0.7-3.8,1.9c0,0.7,0,1.4,0,2.1c0,0.6,0.1,1.1,0.1,1.7c0,0.7-0.1,1.4-0.1,2.2c0,0.4,0,0.9,0,1.3c0.1,1.1,0,2.6,1.5,2.6    c3.7,0.1,7.5,0.1,11.2-0.1c1.2-0.1,1.2-1.3,1.2-2.3c3.2-0.1,6.4-0.2,9.6-0.4c0.9,0,2.2,0.1,1.3-1.5    C458.8,793.3,457.9,793.3,456.9,795.5z M431.8,732.9c0-0.8,0-1.6,0-2.4c3.4-1.9,2.1-5,1.6-7.5c-0.5-2.3-3.1-1.3-4.8-1.3    c-5.8-0.1-11.7-0.1-17.5,0c-1.7,0-4.3-0.9-4.8,1.3c-0.5,2.5-1.8,5.7,1.6,7.5c0.7,2,2.4,1.3,3.8,1.4c3.5,0.1,6.9,0,10.4,0    c1.6,0,3.5-0.3,3.7,2.2c-5.2,0.1-10.3,0.1-15.5,0.2c-1.7,0-4.3-0.3-4.3,2.3c0.1,8.3-1.1,16.6,0.7,24.8c-0.8,0.8-0.4,1.7,0,2.5    c-1.8,4.7-0.6,9.5-0.8,14.3c-0.1,1.5,0.8,2.7,2.4,2.6c7.9-0.2,15.9,1.1,23.8-0.8c0.8,0,1.7,0,2.5,0c7.9,1.9,15.8,0.6,23.7,0.8    c1.3,0,2.3-0.9,2.3-2.2c-0.1-4.9,1-9.9-0.8-14.8c0-0.8,0-1.6-0.1-2.5c1.7-9,1.5-18.1,0.1-27.1c-0.2-1.2-0.6-2.4-2.1-2.1    C449.2,733.8,440.5,732.4,431.8,732.9z M461.4,785.4c-5.7-2.2-23.4-1.9-26.1,0C443.7,785.4,452,785.4,461.4,785.4z"/>
		<path class="st8" d="M390.7,730.8c-1.1,2-3,1-4.4,1c-8.5,0.1-17,0.1-25.5,0c-2.9,0-3.8,0.8-4.2,3.8c-1.2,8.4,1.6,14.2,9.8,16.9    c-0.8,2.2-2.2,1.4-3.1,1.4c-12,0.1-24-0.1-36,0.1c-3.3,0.1-4.7-0.6-4.6-4.3c0.3-9,0.2-18,0.2-27c22.6,0,45.2,0,67.9,0    c0,2.3,0,4.7,0,7c-0.1,0.1-0.4,0.2-0.3,0.3C390.5,730.4,390.6,730.6,390.7,730.8z"/>
		<path class="st8" d="M330.8,799.1c2.7,5.7,1.6,7.8-4.1,7.8c-53.9,0-107.7,0-161.6,0c-5,0-5.9-2.2-3.2-7.8c0.4,0.5,0.7,0.4,1-0.1    c8-0.1,15.9-0.2,23.9-0.2c45.7,0,91.4,0,137.1,0c2,0,4,0.1,6,0.2C330.1,799.4,330.4,799.6,330.8,799.1z"/>
		<path class="st8" d="M257.8,619.7c-1.1,6.3-0.6,12.6-0.6,18.9c-0.2,19.8-0.1,39.6,0,59.5c0,2.8-0.2,4.2-3.6,4.1    c-3.1-0.2-4.9-0.3-4.9-4.2c0.2-27,0.2-54,0.3-80.9c0-3.2,1.3-5.5,5-5.4c28.3,0.1,56.6,0.2,84.9,0.3c0,0.6,0,1.2,0,1.8    c0,1,0,2.1,0,3.1c-2.7,0.8-5.5,1-8.3,1c-22.6-0.1-45.1-0.1-67.7,0C261,617.9,258.6,616.8,257.8,619.7z"/>
		<path class="st10" d="M338.8,616.9c0-1,0-2.1,0-3.1c1.2,0,1.9-0.6,2-1.8c28,0,56,0,84,0c0.2,0.8,0.3,2.2,0.5,2.2    c5,0.2,3.4,4,3.4,6.5c0.1,26.4,0,52.8,0.1,79.2c0,3.9-1.1,5.6-5,5c0-26.6,0-53.1-0.1-79.7c0-1.8,1.4-4.6-2-5.2l0.1,0.1    c-0.4-2.8-2.6-2.1-4.2-2.1c-23.1,0-46.1,0-69.2,0c-1.8,0-3.7-0.5-4.9,1.5c-0.8,0.1-1.6,0.1-2.4,0.2    C341,618.2,340.5,617,338.8,616.9z"/>
		<path class="st11" d="M406.7,786.6c0.8,0.8,1.5,1.5,2.3,2.3c-0.1,18.7-0.1,37.3-0.2,56c-2.3-2.7-5.2-3.4-8.6-3    c-1.5,0.2-3.1,0.1-3.3-2c1.8-0.1,3.6-0.3,5.4-0.1c3.8,0.4,5.4-0.8,5-4.9c-0.4-4.2,0-8.5,0-12.8c0.5-0.4,0.5-0.9,0-1.3    c0-7.5-0.2-15,0-22.5c0.1-2.9-0.9-3.7-3.7-3.7c-8.6,0.1-17.3,0.2-25.9,0c-3.5-0.1-4.1,1.3-4.1,4.4c0.2,7.5-0.1,15,0.1,22.5    c0.1,6.1-0.7,12.3,0.5,18.4c-0.7,0.3-1.3,0.6-2,0.9c-0.1-0.2-0.1-0.4,0-0.5c0.5-0.5,0.3-0.9-0.2-1.2c0-15.5-0.1-31-0.1-46.6    c0-1.9,0.1-3.6,1.9-4.8c0.2,1.3,0,2.8,0.6,3.9c1.2,2.2,3.5,1.5,5.4,1.4c2.6,0,1.5-2.4,1.5-3.4c0.1-2.4-2.1-1.3-3.3-1.5    c-0.8-0.2-1.6-0.3-2.1-1.1C386.1,786.5,396.4,786,406.7,786.6z M397.8,790c-4.9-0.7-9.6-0.5-14.4,0.7c4.8,0.8,9.6,2,14.3,0.1    c2.2,2.9,5.2,2.2,7.8,1.1c0.9-0.4,0.9-2.9-0.4-3.4C402.5,787.5,399.6,786.7,397.8,790z"/>
		<path class="st8" d="M396.8,839.8c0.2,2.1,1.8,2.2,3.3,2c3.4-0.4,6.3,0.3,8.6,3c0.5,2.7,0,4.9-2.9,5.8c-0.4-0.5-0.7-0.4-0.9,0.1    c-9.7,0-19.4,0-29,0c-0.2-0.5-0.5-0.6-0.9-0.2c-4.9-2.2-2.7-6.5-2.8-10c0.7-0.3,1.3-0.6,2-0.9c1.6,0,3.1,0,4.7,0.1    c0.1,1,0.4,2,1.7,1.9c1.1-0.1,1.1-1,1.3-1.8c1.3,0,2.7,0,4,0c0,1.2-0.1,2.4,1.2,3.1c-0.4,1.8,0,3.2,1.7,4.1    c1.2,0.6,2.2,0.2,3.1-0.7c1.5-1.5,0.7-3-0.2-4.4c0.9-0.4,1.1-1.2,1.2-2.1C394.2,839.8,395.5,839.8,396.8,839.8z"/>
		<path class="st7" d="M423.9,704.9c3.9,0.6,5-1,5-5c-0.2-26.4-0.1-52.8-0.1-79.2c0-2.6,1.6-6.3-3.4-6.5c-0.2,0-0.4-1.5-0.5-2.2    c3.7-0.6,5.2,1.5,5.5,4.7c0.3,2.8,0.2,5.6,0.2,8.5c0,24.4,0.1,48.8,0,73.2c0,9.7,1.4,8.4-8.4,8.4c0-0.9,0-1.9,0-2.8    C422.7,704.2,423.3,704.5,423.9,704.9z"/>
		<path class="st11" d="M345.7,756.5c6.3,0,12.6,0,19,0c1.4,0,3.2-0.4,3.2,2s-1.7,2-3.2,2c-12.8,0-25.6,0-38.4,0    c-1.6,0-3.6,0.4-3.4-2.3c0.1-2.4,2.1-1.7,3.4-1.7C332.7,756.5,339.2,756.5,345.7,756.5z"/>
		<path class="st11" d="M338.8,616.9c1.7,0.1,2.1,1.3,2.2,2.7c-27.7,0-55.5,0.1-83.2,0.1c0.8-2.9,3.2-1.8,5-1.8    c22.6-0.1,45.1-0.1,67.7,0C333.4,617.9,336.1,617.7,338.8,616.9z"/>
		<path class="st11" d="M423.9,704.9c-0.6-0.3-1.2-0.7-1.8-1c0-25.7-0.1-51.4-0.1-77.1c0-2-0.2-4-0.3-5.9c0.1-0.3,0.2-0.6,0.1-0.9    c3.4,0.7,2,3.4,2,5.2C423.9,651.7,423.9,678.3,423.9,704.9z"/>
		<path class="st11" d="M343.5,619.4c1.2-2,3.1-1.5,4.9-1.5c23.1,0,46.1,0,69.2,0c1.7,0,3.9-0.8,4.2,2.1c-23.5,0-46.9-0.1-70.4-0.1    C348.8,619.8,346.1,619.6,343.5,619.4z"/>
		<path class="st10" d="M390.8,722.9c-22.6,0-45.2,0-67.9,0c0-0.6,0-1.2,0-1.9c22.6,0,45.2,0,67.9,0    C390.8,721.6,390.8,722.2,390.8,722.9z"/>
		<path class="st12" d="M390.8,709.8c-10.5,0-20.9,0-31.8,0c1-2.4,2.3-1.9,3.4-1.9c8.3,0,16.6,0,24.9,0c1.3,0,2.7-0.2,3.7,1    C390.9,709.2,390.9,709.5,390.8,709.8z"/>
		<path class="st12" d="M323.9,707.9c10.1,0,20.3,0,30.4,0c0,0.7,0,1.3,0,2c-10.2,0-20.3,0-30.5,0    C323.9,709.2,323.9,708.5,323.9,707.9z"/>
		<path class="st13" d="M430.8,791.5c1.2,1.2,0.9,2-0.7,2.2c-1.7,0.2-3.5,0.1-5.3,0.2c-4.2-0.4-8.5,0.5-12.6-1.1    C418.3,790.9,424.7,792.3,430.8,791.5z"/>
		<path class="st8" d="M375.8,786.8c0.5,0.7,1.3,0.9,2.1,1.1c1.2,0.3,3.5-0.9,3.3,1.5c-0.1,1,1,3.4-1.5,3.4c-1.9,0-4.2,0.8-5.4-1.4    c-0.6-1.1-0.4-2.6-0.6-3.9C374.2,786.6,375,786.6,375.8,786.8z"/>
		<path class="st13" d="M410.8,788.9c6-2.1,12.1-0.8,18.2-0.7c0.3,0,0.5,1,0.8,1.6C423.4,789.3,417,791,410.8,788.9z"/>
		<path class="st12" d="M324.1,711.9c5.4,0,10.8,0,16.2,0c0,0.6,0,1.3,0.1,1.9c-5.5,0-11,0-16.5,0    C323.9,713.2,324,712.6,324.1,711.9z"/>
		<path class="st13" d="M406.8,783.9c5.4,0,10.9,0,16.3,0c0,0.5,0,1,0,1.5c-5.4,0.8-10.8,1.2-16.3-0.6    C406.9,784.5,406.8,784.2,406.8,783.9z"/>
		<path class="st14" d="M310.8,699.3c1.9,1.2,4.8-1,6.1,1.9c-9.4,0-18.7,0-28.1,0c0-0.6,0-1.2,0-1.8    C296.1,699.7,303.4,699.9,310.8,699.3z"/>
		<path class="st14" d="M426.8,799.4c1.4,0.3,2.8,0.5,4.2,0.8c0,0.3,0,0.6-0.1,0.9c-6.4,0-12.8,0-19.1,0c0.4-3,2.7-1.8,4.2-1.9    C419.6,798.9,423.2,800.3,426.8,799.4z"/>
		<path class="st11" d="M320,710.9c-1.6-1.4-1.5-3.2-1.1-5.1C320.5,707.3,321,708.9,320,710.9z"/>
		<path class="st11" d="M340.8,611.9c0,1.3-0.7,1.9-2,1.8c0-0.6,0-1.2,0-1.8C339.5,611.9,340.2,611.9,340.8,611.9z"/>
		<path class="st11" d="M319.8,792.8c-0.1-0.2-0.2-0.5-0.3-0.7c0-0.1,0.3-0.2,0.4-0.2C319.8,792.2,319.8,792.5,319.8,792.8z"/>
		<path class="st11" d="M162.8,798.9c-0.3,0.5-0.6,0.7-1,0.1C162.2,799,162.5,798.9,162.8,798.9z"/>
		<path class="st11" d="M330.8,799.1c-0.4,0.5-0.7,0.3-0.9-0.2C330.2,798.9,330.5,799,330.8,799.1z"/>
		<path class="st10" d="M390.7,730.8c-0.1-0.2-0.3-0.5-0.3-0.7c0-0.1,0.2-0.2,0.3-0.3C390.8,730.2,390.8,730.5,390.7,730.8z"/>
		<path class="st11" d="M316.9,704.8c-0.4,0.8-0.7,0.6-1-0.1C316.2,704.8,316.5,704.8,316.9,704.8z"/>
		<path class="st8" d="M372,838.9c0.4,0.4,0.7,0.7,0.2,1.2c-0.1-0.3-0.2-0.5-0.3-0.8C371.8,839.2,372,839,372,838.9z"/>
		<path class="st11" d="M172.9,707.9c0.8,0.4,0.5,0.8-0.1,1C172.8,708.5,172.8,708.2,172.9,707.9z"/>
		<path class="st11" d="M374.9,850.6c0.4-0.5,0.7-0.4,0.9,0.2l-0.5,0.1L374.9,850.6z"/>
		<path class="st11" d="M404.9,850.8c0.3-0.5,0.6-0.6,0.9-0.1l-0.5,0.2L404.9,850.8z"/>
		<path class="st15" d="M288.9,668.8c0-9.6,0-19.2,0.1-28.8c0.7-0.2,1.4-0.4,2.1-0.5c8.9-0.1,17.8,0.6,26.6-0.3c1,0.6,2,0.3,3-0.1    c0.3,0,0.7,0,1,0c1.7,0.9,3.6,0.5,5.4,0.5c19.6,0,39.2,0.1,58.8-0.1c3.7,0,5.1,1,4.8,4.8c-0.6,8.2,0.9,16.5-0.8,24.7    c-0.4,0.2-0.8,0.4-1.2,0.6c-32.6,0-65.2,0-97.8,0C290.3,669.3,289.6,669.1,288.9,668.8z"/>
		<path class="st12" d="M340.2,672.7c4,0,8,0.2,12-0.1c2.6-0.2,3.7,0.4,3.7,3.1c-0.1,4-0.1,8,0,12c0,2.3-0.8,3.3-3.2,3.3    c-8.5-0.1-17-0.1-25.4,0c-2.3,0-3.1-0.9-3.3-3.2c-1.4-15.1-1.4-15.1,13.4-15.1C338.2,672.7,339.2,672.7,340.2,672.7L340.2,672.7z"/>
		<path class="st12" d="M359.2,688.9c-0.1-4.3-0.1-8.6-0.3-12.9c-0.1-3.1,1.4-4.1,4.2-4c7.8,0.1,15.6,0.1,23.4,0    c3.3-0.1,4.4,1.3,4.3,4.5c-0.2,4.1-0.2,8.3-0.2,12.4C380.2,690.4,369.7,690.4,359.2,688.9z"/>
		<path class="st12" d="M318.9,672.8c2.4,5.5,0.6,11.3,1,17c-0.3,0.3-0.7,0.7-1,1c-0.7,0-1.3,0-2,0c-1.1-1.4-2.7-1-4.1-1    c-7.8,0-15.6,0-23.4,0.1c-1.2-4.9-0.3-9.9-0.5-14.8c-0.1-2.1,1.3-2.5,3-2.3c2.6,2.1,5.8,1.1,8.6,0.9    C306.5,673.5,312.8,675,318.9,672.8z"/>
		<path class="st16" d="M305.2,634.8c-4.3,0-8.6-0.2-12.9,0c-4,0.2-3.6-2.4-3.6-4.9c0.1-2.4-0.8-5.2,3.4-5.1    c8.8,0.1,17.6,0.2,26.4,0c4.5-0.1,3.4,2.9,3.6,5.4c0.2,2.8-0.2,4.8-3.9,4.6C313.9,634.6,309.5,634.8,305.2,634.8z"/>
		<path class="st17" d="M290.9,669.6c32.6,0,65.2,0,97.8,0c0.4,0.1,0.7,0.2,1.1,0.3c-1.5,1.6-3.4,0.9-5.2,0.9c-30.2,0-60.5,0-90.7,0    c-1.7,0-3.7,0.7-5.1-1.1C289.6,669.7,290.3,669.7,290.9,669.6z"/>
		<path class="st5" d="M323.8,699.8c0-0.9,0-1.8,0.1-2.7c10.6-0.1,21.3-0.2,31.9-0.3c-0.5,1-0.8,2,0,2.9c-0.3,0-0.5,0-0.8,0    C344.7,699.7,334.2,699.7,323.8,699.8z"/>
		<path class="st5" d="M358.9,703.9c0-1,0-2,0-3.1c9.3,0.1,18.7,0.3,28,0.4c0.3,0.8,0.6,1.5,0.9,2.3    C378.2,703.6,368.5,703.7,358.9,703.9z"/>
		<path class="st5" d="M386.8,697.1c0,0.8,0.1,1.6,0.1,2.4c-9.3,0.1-18.7,0.3-28,0.4c0-1,0-2.1,0-3.1    C368.2,696.9,377.5,697,386.8,697.1z"/>
		<path class="st5" d="M347.8,701.3c-0.3,0.8-0.6,1.5-0.9,2.3c-7.7,0.1-15.4,0.2-23,0.2c0-1,0-2,0-2.9    C331.8,701.1,339.8,701.2,347.8,701.3z"/>
		<path class="st13" d="M355.8,696.8c-10.6,0.1-21.3,0.2-31.9,0.3c-1.2-1.4-0.7-2.1,0.9-2.2c9.7-0.1,19.4,0,29.1,0    C355.1,694.9,355.6,695.7,355.8,696.8z"/>
		<path class="st5" d="M310.8,699.3c-7.3,0.6-14.6,0.4-22,0.1c0-0.8,0-1.6,0-2.4c7,0,14,0,21,0C310.2,697.8,310.5,698.6,310.8,699.3    z"/>
		<path class="st13" d="M386.8,697.1c-9.3-0.1-18.6-0.2-27.9-0.3c0.2-1.1,0.6-1.9,1.9-1.9c9.8,0,19.7,0,30.1,0    C389.8,697.5,387.9,696.6,386.8,697.1z"/>
		<path class="st12" d="M358.9,703.9c9.6-0.1,19.3-0.2,28.9-0.4c0.7,0.3,1.8,0.3,2.2,0.9c0.5,0.7-0.5,1.2-1,1.2    c-9.7,0-19.5,0-29.2-0.1C359.4,705.4,359.1,704.4,358.9,703.9z"/>
		<path class="st17" d="M317.8,639.1c-8.9,0.9-17.8,0.3-26.6,0.4c-0.1-0.2-0.2-0.5-0.2-0.7C299.9,637.5,308.8,636.9,317.8,639.1z"/>
		<path class="st14" d="M323.9,703.9c7.7-0.1,15.4-0.2,23-0.2c0,1.5-0.9,2-2.2,2c-6.3,0-12.6,0-18.9,0    C324.6,705.7,324,705,323.9,703.9z"/>
		<path class="st12" d="M309.9,697c-7,0-14,0-21,0c-0.1-1.4,0.7-2.1,2.1-2.1c5.6,0,11.2,0,16.8,0C309.1,694.9,309.9,695.6,309.9,697    z"/>
		<path class="st14" d="M359.2,688.9c10.5,1.5,21,1.5,31.4,0c0,1.9-1.3,2-2.7,2c-8.7,0-17.4,0-26.1,0    C360.5,690.9,359.1,690.9,359.2,688.9z"/>
		<path class="st14" d="M347.8,701.3c-8-0.1-16-0.2-24-0.4c0-0.4,0-0.8,0-1.2c10.4,0,20.8,0,31.2-0.1c0,0.4-0.1,0.8-0.1,1.2    C352.6,701,350.2,701.2,347.8,701.3z"/>
		<path class="st14" d="M358.9,699.9c9.3-0.1,18.7-0.3,28-0.4c0,0.6,0,1.1,0,1.7c-9.3-0.1-18.7-0.3-28-0.4    C358.9,700.5,358.9,700.2,358.9,699.9z"/>
		<path class="st14" d="M318.9,672.8c-6.1,2.2-12.3,0.7-18.5,0.9c-2.8,0.1-5.9,1.1-8.6-0.9C300.8,672.8,309.9,672.8,318.9,672.8z"/>
		<path class="st14" d="M289.4,689.9c7.8,0,15.6-0.1,23.4-0.1c1.4,0,3-0.4,4.1,1c-7.6,0-15.2,0.1-22.8,0.1    C292.4,690.9,290.7,691.3,289.4,689.9z"/>
		<path class="st12" d="M359.5,712.9c3.9-1.2,7.8-1.1,11.7-0.1C367.3,714.4,363.4,714.2,359.5,712.9z"/>
		<path class="st18" d="M290.9,638.8c0.1,0.2,0.2,0.5,0.2,0.7c-0.7,0.2-1.4,0.4-2.1,0.5C289.3,639.1,290.1,638.9,290.9,638.8z"/>
		<path class="st18" d="M290.9,669.6c-0.7,0.1-1.4,0.1-2.1,0.2c0-0.3,0-0.6,0-1C289.6,669.1,290.3,669.3,290.9,669.6z"/>
		<path class="st18" d="M389.9,669.9c-0.4-0.1-0.7-0.2-1.1-0.3c0.4-0.2,0.8-0.4,1.2-0.6C389.9,669.3,389.9,669.6,389.9,669.9z"/>
		<path class="st19" d="M355,700.9c0-0.4,0.1-0.8,0.1-1.2c0.3,0,0.5,0,0.8,0C355.6,700.1,355.3,700.5,355,700.9z"/>
		<path class="st17" d="M321.8,639c-0.3,0-0.7,0-1,0C321.2,638.3,321.5,638.2,321.8,639z"/>
		<path class="st14" d="M318.8,690.9c0.3-0.3,0.7-0.7,1-1C319.5,690.2,319.2,690.5,318.8,690.9z"/>
		<path class="st20" d="M200.8,713.7c8.4-0.7,16.8-0.8,25.1,0c0.1,0.2,0.3,0.5,0.4,0.7c0.1-0.2,0.3-0.5,0.4-0.7c1-0.5,2.1-0.5,3.1,0    c1.3,2.1,3.3,1.1,5,1.1c26,0.1,52,0.1,78,0.1c0,24.7,0.1,49.4,0.1,74l-0.1,0.1c-44.3,0-88.7,0.1-133,0.1c-0.1-0.3-0.3-0.4-0.5-0.3    c0-5.2,0.1-10.3,0.1-15.5c0.1-19.5,0.2-39,0.2-58.4c4.7,0,9.5,0.1,14.2-0.1C196.2,714.7,198.8,716,200.8,713.7z M200.9,782    c0,0.6,0,1.2,0,1.8c0.2,2.7,2.2,2,3.7,2c6.3,0.1,12.6,0.1,19,0c1,0,2.5,0.6,2.7-1.7c-2.1-0.1-4.2-0.3-6.4-0.4c0-0.6,0-1.2,0-1.8    c-0.1-1.1-0.5-2-1.7-2c-5.5-0.1-11.1-0.1-16.6,0C200.2,780,200.1,781,200.9,782z M262.8,784.7c8.4,2.5,16.9,1,25.4,0.7    c0.6,0,0.1-1.1-0.4-1.6c0-0.5,0-1.1,0-1.6c1.2-0.5,2.9,0.3,4.3-2.1c-9.6,0-18.4,0-27.2,0.1c-0.9,0-2,0.7-1,2    C263.5,782.9,263.2,783.8,262.8,784.7z M259.8,784.1l0.1-0.3c0-0.6,0-1.1-0.1-1.7c1.1-1.8-0.4-2.1-1.5-2.1    c-8.1-0.1-16.1-0.1-24.2-0.1c-2,0-2.8,0.8-1.4,2.7c0,0.4,0.1,0.8,0.1,1.2c-1.1,3.3,1.7,1.9,2.7,2c8.1,0.1,16.2,0,24.3,0    C260.9,785.2,261,784.6,259.8,784.1z M291.8,757.8c0-0.3,0-0.6,0-1c0.1-7.5,0-15,0.3-22.4c0.1-3.4-1.5-4.2-4.5-4.2    c-13.5,0.2-26.9,0.3-40.4,0.3c-5.5,0-11,0.6-16.4-0.5c0-0.7,0-1.5,0-2.2c-0.5-0.4-1-0.9-1.4-1.3c3.3-6.7,1.9-9.3-4.9-9.3    c-5.2,0-10.3,0-15.5,0c-8.8,0-8.8,0-8.1,9c0.3,0.5,0.6,1.1,0.9,1.6c0,0.7,0,1.5,0.1,2.2c-2.1,9-1.7,18-0.3,27.1    c0.1,0.3,0.1,0.5,0.2,0.8c0.3,0.6,0.7,1.2,1,1.8c-1.3,0.3-2,1-2,2.4c0,4,0,8,0,12c0,2.7,1.7,2.8,3.7,2.8c7,0,14-0.1,20.9,0    c3,0.1,3.7-1.3,3.6-4c-0.2-4.3-0.1-8.6-0.2-13c1.3-1.6,2.7-1.6,4.1-0.1c-1.8,4.3-0.5,8.9-0.9,13.3c-0.3,2.9,1,3.8,3.8,3.7    c5.8-0.1,11.7,0,17.5,0c7.6,0,7.6,0,7.6-7.7c0-9.1,0-9.1-8.9-9.4c2.2-2.4,5.8,0.7,7.9-2.1c1.7-0.6,3.4-0.6,5.2,0    c1.3,2.6,4.4,0,5.9,2.1c-7,0.3-7,0.3-7,7.5c0,2.2,0.1,4.3,0,6.5c-0.1,2.3,1,3.2,3.3,3.2c4.3-0.1,8.6,0,12.9,0    c12.1,0,12.2,0,12-12.3c0-1.8,0.9-4.2-2.1-4.8C290.5,759.1,291.2,758.4,291.8,757.8z"/>
		<path class="st11" d="M179.9,789.1c44.3,0,88.7-0.1,133-0.1c-0.5,2.4-2.4,1.9-4,1.9c-41.6,0-83.3,0-124.9,0    C182.4,790.8,180.4,791.5,179.9,789.1z"/>
		<path class="st5" d="M312.9,714.9c-26,0-52,0-78-0.1c-1.7,0-3.7,1-5-1.1c7.6-0.1,15.3-0.4,22.9-0.3c20.1,0.2,40.2-0.6,60.3,0.5    C313.1,714.2,313,714.5,312.9,714.9z"/>
		<path class="st11" d="M312.9,714.9c0.1-0.4,0.2-0.7,0.3-1.1c2.3,0.7,1.7,2.6,1.7,4.2c0,22.3,0,44.6,0,66.9c0,1.6,0.5,3.5-1.8,4    C313,764.2,312.9,739.5,312.9,714.9z"/>
		<path class="st11" d="M179.7,714.9c-0.1,19.5-0.2,39-0.2,58.4c0,5.2-0.1,10.3-0.1,15.5c-2.1-0.9-1.5-2.8-1.5-4.3    c0-22.1,0-44.3,0-66.4c0-1.5-0.7-3.5,1.5-4.3C179.5,714.2,179.6,714.5,179.7,714.9z"/>
		<path class="st5" d="M179.7,714.9c-0.1-0.4-0.2-0.7-0.3-1.1c7.1-0.8,14.3-0.7,21.4-0.1c-2,2.3-4.6,1-6.9,1.1    C189.2,715,184.4,714.9,179.7,714.9z"/>
		<path class="st5" d="M226.8,713.7c-0.1,0.2-0.3,0.5-0.4,0.7c-0.1-0.2-0.3-0.5-0.4-0.7C226.2,713.5,226.5,713.5,226.8,713.7z"/>
		<path class="st11" d="M464.7,797.9c0.1-22.9,0.2-45.7,0.2-68.6c0-3.8,0-7.6,0-11.4c2.4,0.4,1.9,2.3,1.9,3.9c0,26,0,52.1,0,78.1    c0,1.6,0.5,3.5-1.8,4c-0.1-0.7-0.2-1.3-0.3-2C464.7,800.5,464.7,799.2,464.7,797.9z"/>
		<path class="st11" d="M401.8,717.8c-0.1,20.7-0.1,41.3-0.2,62c-1.8-0.3-1.7-1.7-1.7-3.1c0-18.5,0-37,0-55.4    C399.9,719.8,399.7,718.2,401.8,717.8z"/>
		<path class="st11" d="M464.9,717.8c-9.8-0.2-19.5-0.3-29.3-0.5c0.7-0.4,1.3-1.3,2-1.3c8.5-0.1,16.9-0.1,25.4-0.1    C464.1,715.9,464.6,716.7,464.9,717.8z"/>
		<path class="st11" d="M431.1,717.3c-9.4,0.6-18.8,0.4-28.2,0.1c0.3-1.1,1.1-1.5,2.2-1.5c7.9,0,15.7,0,23.6,0    C429.8,715.9,430.6,716.4,431.1,717.3z"/>
		<path class="st5" d="M464.7,797.9c0,1.3,0,2.7,0,4c-0.7,0.5-0.8,1.2-0.8,2c-5,0-10.1,0-15.1,0.1c2.7-2.2,5.9-1,8.9-1    c3-0.1,5.6-0.1,5.5-4.1C463.2,798.5,464.2,798.2,464.7,797.9z"/>
		<path class="st9" d="M463.9,803.9c0-0.8,0.1-1.5,0.8-2c0.1,0.7,0.2,1.3,0.3,2C464.6,803.9,464.2,803.9,463.9,803.9z"/>
		<path class="st15" d="M406.8,761.2c-1.8-8.2-0.6-16.5-0.7-24.8c0-2.5,2.5-2.2,4.3-2.3c5.2-0.1,10.3-0.1,15.5-0.2c2,0,4,0,6,0    c9.4,0.5,18.7,0.7,28.1,0.1c1.4,9,1.6,18.1-0.1,27.1C442.1,761.2,424.5,761.2,406.8,761.2z"/>
		<path class="st12" d="M432.1,779.9c-7.9,1.9-15.9,0.6-23.8,0.8c-1.6,0-2.4-1.2-2.4-2.6c0.2-4.8-1-9.6,0.8-14.3    c8.4,0,16.8,0.1,25.1,0.1C432,769.2,432.1,774.5,432.1,779.9z"/>
		<path class="st12" d="M459.9,763.7c1.9,4.8,0.7,9.8,0.8,14.8c0,1.3-1,2.2-2.3,2.2c-7.9-0.2-15.9,1.1-23.7-0.8    c0.1-5.3,0.1-10.7,0.2-16C443.2,763.8,451.5,763.8,459.9,763.7z"/>
		<path class="st16" d="M407.9,730.5c-3.4-1.9-2.1-5-1.6-7.5c0.5-2.3,3.1-1.3,4.8-1.3c5.8-0.1,11.7-0.1,17.5,0    c1.7,0,4.3-0.9,4.8,1.3c0.5,2.5,1.8,5.7-1.6,7.5C423.8,730,415.9,729.9,407.9,730.5z"/>
		<path class="st17" d="M459.9,763.7c-8.3,0-16.7,0.1-25,0.1c-1,0-2,0-2.9,0c-8.4,0-16.8-0.1-25.1-0.1c-0.5-0.8-0.8-1.6,0-2.5    c17.7,0,35.4,0,53,0C459.8,762.1,459.9,762.9,459.9,763.7z"/>
		<path class="st5" d="M407.9,730.5c8-0.5,15.9-0.4,23.9,0c0,0.8,0,1.6,0,2.4c0,0.4,0,0.8,0,1.1c-2,0-4,0-6,0    c-0.2-2.5-2-2.2-3.7-2.2c-3.5,0-6.9,0-10.4,0C410.4,731.8,408.6,732.5,407.9,730.5z"/>
		<path class="st13" d="M461.4,785.4c-9.5,0-17.7,0-26.1,0C438.1,783.5,455.7,783.2,461.4,785.4z"/>
		<path class="st12" d="M434.9,789.8c0.3-2.6,2.3-1.9,3.8-1.9c7.1,0,14.1,0,21.2,0.1c0,0.6,0,1.1,0,1.7c-2,0.1-4,0.2-6,0.2    C447.5,789.8,441.2,789.8,434.9,789.8z"/>
		<path class="st5" d="M431.9,763.8c1,0,2,0,2.9,0c-0.1,5.3-0.1,10.7-0.2,16c-0.8,0-1.7,0-2.5,0C432.1,774.5,432,769.2,431.9,763.8z    "/>
		<path class="st17" d="M431.8,734c0-0.4,0-0.8,0-1.1c8.7-0.5,17.4,0.9,26-0.8c1.6-0.3,1.9,0.8,2.1,2.1    C450.6,734.7,441.2,734.5,431.8,734z"/>
		<path class="st5" d="M448.8,797.3c-0.1,1,0,2.3-1.2,2.3c-3.7,0.2-7.5,0.2-11.2,0.1c-1.5,0-1.4-1.5-1.5-2.6    C439.5,797.1,444.2,797.2,448.8,797.3z"/>
		<path class="st5" d="M434.9,789.8c6.3,0,12.6,0.1,19,0.1c0,0.7,0,1.3,0,1.9c-6.3,0-12.7,0-19,0    C434.9,791.2,434.9,790.5,434.9,789.8z"/>
		<path class="st5" d="M434.8,795.7c0-0.7,0.1-1.4,0.1-2.2c6.3,0,12.6,0,18.8,0c0,0.6,0,1.3,0,1.9    C447.5,795.6,441.2,795.7,434.8,795.7z"/>
		<path class="st14" d="M453.8,793.6c-6.3,0-12.6,0-18.8,0c0-0.6-0.1-1.1-0.1-1.7c6.3,0,12.7,0,19,0    C453.8,792.4,453.8,793,453.8,793.6z"/>
		<path class="st14" d="M434.8,795.7c6.3-0.1,12.6-0.2,19-0.3c1,0,2.1,0,3.1,0c0.9,0,1.9,0,2.8,0c0.8,1.6-0.4,1.5-1.3,1.5    c-3.2,0.1-6.4,0.2-9.6,0.4c-4.7-0.1-9.3-0.2-14-0.3C434.8,796.6,434.8,796.2,434.8,795.7z"/>
		<path class="st5" d="M459.8,795.4c-0.9,0-1.9,0-2.8,0C457.9,793.3,458.8,793.3,459.8,795.4z"/>
		<path class="st13" d="M459.8,789.6c0-0.6,0-1.1,0-1.7C460.9,788.5,461,789.1,459.8,789.6z"/>
		<path class="st6" d="M378.8,839.8c-1.6,0-3.1,0-4.7-0.1c-1.3-6.1-0.4-12.2-0.5-18.4c-0.2-7.5,0.1-15-0.1-22.5    c-0.1-3.1,0.6-4.5,4.1-4.4c8.6,0.2,17.3,0.2,25.9,0c2.8,0,3.8,0.8,3.7,3.7c-0.1,7.5,0,15,0,22.5c0,0.4,0,0.9,0,1.3    c0,4.3-0.3,8.6,0,12.8c0.3,4.1-1.2,5.3-5,4.9c-1.8-0.2-3.6,0.1-5.4,0.1c-1.3,0-2.7,0-4,0c-2.3,0-4.7,0-7,0c-1.3,0-2.7,0-4,0    C380.9,839.8,379.8,839.8,378.8,839.8z M402.9,822.7c-8.4-1.2-16.8-1.2-25.1,0c-2,3.6-0.5,7.5-0.9,11.2c-0.3,2.8,1,3.9,3.8,3.9    c6.5-0.1,13,0,19.5,0c1.7,0,3.7-0.2,3.6-2.4C403.6,831.1,405,826.8,402.9,822.7z M390.6,807c-1.5,0-3,0-4.5,0    c-10.9,0.3-9-2.3-9.4,10c-0.1,2.8,0.8,3.8,3.7,3.7c6.5-0.2,13-0.2,19.5,0c3.3,0.1,4.2-1.1,4.2-4.3c0-9.4,0.1-9.4-9.5-9.4    C393.3,807,391.9,807,390.6,807z M389.9,805.6c3.5,0,7-0.2,10.4,0c3.9,0.3,3.6-2.1,3.7-4.8c0.1-2.8-0.5-4.3-3.8-4.2    c-6.3,0.2-12.6,0.2-18.9,0c-3.2-0.1-4.8,0.5-4.8,4.2c0,3.8,1.2,5.1,4.9,4.7C384.3,805.4,387.1,805.6,389.9,805.6z"/>
		<path class="st8" d="M397.8,790c1.8-3.3,4.7-2.5,7.3-1.5c1.2,0.4,1.2,3,0.4,3.4c-2.6,1.1-5.5,1.9-7.8-1.1    C397.7,790.5,397.8,790.3,397.8,790z"/>
		<path class="st19" d="M397.8,790c-0.1,0.3-0.1,0.5-0.1,0.8c-4.7,1.9-9.5,0.7-14.3-0.1C388.2,789.5,392.9,789.3,397.8,790z"/>
		<path class="st14" d="M407.2,822c0-0.4,0-0.9,0-1.3C407.7,821.1,407.7,821.6,407.2,822z"/>
		<path class="st20" d="M391.7,841.9c0.8,1.4,1.7,2.9,0.2,4.4c-0.9,0.9-1.9,1.2-3.1,0.7c-1.8-0.8-2.1-2.3-1.7-4.1    C388.4,841.7,389.9,841.3,391.7,841.9z"/>
		<path class="st11" d="M391.7,841.9c-1.8-0.6-3.3-0.3-4.7,1c-1.3-0.7-1.1-2-1.2-3.1c2.3,0,4.7,0,7,0    C392.8,840.7,392.6,841.5,391.7,841.9z"/>
		<path class="st11" d="M378.8,839.8c1,0,2,0,3,0c-0.1,0.8-0.2,1.7-1.3,1.8C379.2,841.8,379,840.8,378.8,839.8z"/>
		<path class="st15" d="M201.7,757.1c-1.4-9-1.9-18.1,0.3-27.1c9.6,0.4,19.3,0.9,28.9,0c5.4,1.1,10.9,0.4,16.4,0.5    c13.5,0,26.9-0.1,40.4-0.3c3,0,4.6,0.8,4.5,4.2c-0.2,7.5-0.2,14.9-0.3,22.4c-0.4,0.2-0.7,0.4-1.1,0.6c-8.6-0.2-17.2-0.7-25.8,0.2    c-1.7-0.6-3.4-0.6-5.2,0c-18.9-0.9-37.8-0.3-56.7-0.3C202.6,757.3,202.1,757.2,201.7,757.1z"/>
		<path class="st12" d="M251.9,759.8c8.9,0.3,8.9,0.3,8.9,9.4c0,7.7,0,7.7-7.6,7.7c-5.8,0-11.7-0.1-17.5,0c-2.8,0.1-4-0.8-3.8-3.7    c0.4-4.4-0.9-9,0.9-13.3c1,0,2-0.1,3-0.1c1.6,0,3.3,0,4.9,0C244.5,759.8,248.2,759.8,251.9,759.8z"/>
		<path class="st12" d="M289.9,759.8c3,0.6,2,3,2.1,4.8c0.2,12.3,0.2,12.3-12,12.3c-4.3,0-8.6-0.1-12.9,0c-2.3,0-3.4-0.9-3.3-3.2    c0.1-2.1,0-4.3,0-6.5c0-7.2,0-7.2,7-7.5C277.2,759.8,283.5,759.8,289.9,759.8z"/>
		<path class="st12" d="M228.8,760c0,4.3,0,8.6,0.2,13c0.1,2.6-0.6,4-3.6,4c-7-0.1-14-0.1-20.9,0c-2,0-3.7-0.1-3.7-2.8    c0.1-4,0-8,0-12c0-1.4,0.8-2.1,2-2.4c1,0,2,0,3,0s2,0,3,0c4.3,0,8.7,0,13,0c1.3,0,2.6,0,4,0C226.8,759.8,227.8,759.9,228.8,760z"/>
		<path class="st16" d="M200.9,726.2c-0.8-9-0.8-9,8.1-9c5.2,0,10.3,0,15.5,0c6.9,0,8.3,2.7,4.9,9.3    C219.9,726.4,210.4,726.3,200.9,726.2z"/>
		<path class="st17" d="M205.9,759.7c-1,0-2,0-3,0c-0.3-0.6-0.7-1.2-1-1.8c0.4-0.2,0.8-0.4,1.2-0.6c18.9,0.1,37.8-0.6,56.7,0.3    c-2.1,2.9-5.7-0.3-7.9,2.1c-3.7,0-7.4,0-11.1,0c-1.6-1.3-3.3-1.3-4.9,0c-1,0-2,0.1-3,0.1c-1.4-1.5-2.8-1.4-4.1,0.1    c-1-0.1-2-0.2-2.9-0.3c-1.3-1.3-2.6-1.3-4,0c-4.3,0-8.7,0-13,0C207.9,758.6,206.9,758.6,205.9,759.7z"/>
		<path class="st17" d="M230.8,730.1c-9.6,0.9-19.3,0.5-28.9,0c0-0.7,0-1.5-0.1-2.2c9.7,0,19.3,0,29,0    C230.8,728.6,230.8,729.3,230.8,730.1z"/>
		<path class="st17" d="M289.9,759.8c-6.3,0-12.7,0-19,0c-1.5-2.1-4.6,0.4-5.9-2.1c8.6-0.8,17.2-0.4,25.8-0.2    c0.4,0.1,0.7,0.2,1.1,0.3C291.2,758.4,290.5,759.1,289.9,759.8z"/>
		<path class="st13" d="M232.8,782.7c-1.4-1.9-0.6-2.7,1.4-2.7c8.1,0,16.1,0,24.2,0.1c1.1,0,2.5,0.3,1.5,2.1    C250.8,782.2,241.7,781.3,232.8,782.7z"/>
		<path class="st13" d="M263.9,782.1c-1-1.3,0-2,1-2c8.8-0.1,17.6-0.1,27.2-0.1c-1.4,2.3-3.1,1.6-4.3,2.1    C279.8,782.1,271.9,782.1,263.9,782.1z"/>
		<path class="st12" d="M259.8,785.8c-8.1,0-16.2,0.1-24.3,0c-1,0-3.8,1.4-2.7-2c9,0,18,0,27,0l-0.1,0.3    C259.8,784.7,259.8,785.2,259.8,785.8z"/>
		<path class="st5" d="M259.9,783.8c-9,0-18,0-27,0c0-0.4-0.1-0.8-0.1-1.2c9-1.4,18-0.5,27-0.6C259.8,782.7,259.8,783.3,259.9,783.8    z"/>
		<path class="st12" d="M219.8,783.8c2.1,0.1,4.2,0.2,6.4,0.4c-0.2,2.3-1.7,1.7-2.7,1.7c-6.3,0.1-12.6,0.1-19,0    c-1.5,0-3.6,0.7-3.7-2C207.2,783.8,213.5,783.8,219.8,783.8z"/>
		<path class="st5" d="M263.9,782.1c8,0,15.9,0,23.9,0.1c0,0.5,0,1.1,0,1.6c-8.3,0.6-16.7-0.8-25,0.9    C263.2,783.8,263.5,782.9,263.9,782.1z"/>
		<path class="st12" d="M262.8,784.7c8.3-1.7,16.7-0.2,25-0.9c0.5,0.5,1,1.6,0.4,1.6C279.7,785.7,271.2,787.1,262.8,784.7z"/>
		<path class="st13" d="M200.9,782c-0.8-1-0.7-2,0.6-2c5.5-0.1,11.1,0,16.6,0c1.2,0,1.6,0.9,1.7,2C213.5,782,207.2,782,200.9,782z"/>
		<path class="st5" d="M200.9,782c6.3,0,12.6,0,19-0.1c0,0.6,0,1.2,0,1.8c-6.3,0-12.7,0-19,0.1C200.9,783.3,200.9,782.6,200.9,782z"/>
		<path class="st5" d="M230.8,727.8c-9.7,0-19.3,0-29,0c-0.3-0.5-0.6-1.1-0.9-1.6c9.5,0.1,19,0.2,28.5,0.3    C229.9,727,230.4,727.4,230.8,727.8z"/>
		<path class="st13" d="M259.8,785.8c0-0.5,0-1.1-0.1-1.6C261,784.6,260.9,785.2,259.8,785.8z"/>
		<path class="st18" d="M291.8,757.8c-0.4-0.1-0.7-0.2-1.1-0.3c0.4-0.2,0.7-0.4,1.1-0.6C291.8,757.2,291.8,757.5,291.8,757.8z"/>
		<path class="st18" d="M203.1,757.3c-0.4,0.2-0.8,0.4-1.2,0.6c-0.1-0.3-0.1-0.5-0.2-0.8C202.1,757.2,202.6,757.3,203.1,757.3z"/>
		<path class="st12" d="M402.9,822.7c2.1,4.1,0.7,8.4,0.8,12.7c0.1,2.2-1.9,2.4-3.6,2.4c-6.5,0-13,0-19.5,0c-2.7,0-4.1-1.1-3.8-3.9    c0.4-3.7-1.1-7.6,0.9-11.2c6.2,2.5,12.7,0.6,19.1,1.1C398.9,823.9,401.2,824.7,402.9,822.7z"/>
		<path class="st15" d="M390.6,807c1.3,0,2.7,0,4,0c9.6,0,9.5,0,9.5,9.4c0,3.2-0.9,4.4-4.2,4.3c-6.5-0.2-13-0.2-19.5,0    c-2.9,0.1-3.8-0.9-3.7-3.7c0.3-12.3-1.6-9.7,9.4-10C387.6,807,389.1,807,390.6,807z"/>
		<path class="st16" d="M389.9,805.6c-2.8,0-5.7-0.2-8.5,0c-3.7,0.3-4.9-0.9-4.9-4.7c0-3.8,1.6-4.3,4.8-4.2c6.3,0.2,12.6,0.2,18.9,0    c3.3-0.1,3.9,1.4,3.8,4.2c-0.1,2.7,0.1,5-3.7,4.8C396.9,805.4,393.4,805.6,389.9,805.6z"/>
		<path class="st13" d="M402.9,822.7c-1.7,2-4.1,1.2-6.1,1.1c-6.4-0.5-12.8,1.5-19.1-1.1C386.2,821.5,394.5,821.5,402.9,822.7z"/>
		<path class="st20" d="M235.9,759.8c1.7-1.3,3.3-1.3,4.9,0C239.2,759.8,237.5,759.8,235.9,759.8z"/>
		<path class="st20" d="M221.9,759.8c1.3-1.3,2.6-1.3,4,0C224.5,759.8,223.2,759.8,221.9,759.8z"/>
		<path class="st20" d="M205.9,759.7c1-1.1,2-1.1,3,0C207.8,759.8,206.9,759.8,205.9,759.7z"/>
	</g>
</g>
<g id="mobile" class="st3">
	<g class="st4">
		<g>
			<path class="st7" d="M-217.1,839.5h-190c-6.6,0-12-5.4-12-12V560.2c0-6.6,5.4-12,12-12h190c6.6,0,12,5.4,12,12v267.3     C-205.1,834.1-210.5,839.5-217.1,839.5z"/>
			<rect x="-400" y="574.1" class="st21" width="175.8" height="239.3"/>
			<circle class="st21" cx="-312.1" cy="559" r="5"/>
			<path class="st22" d="M-296.5,830.2h-31.2c-2.4,0-4.4-2-4.4-4.4l0,0c0-2.4,2-4.4,4.4-4.4h31.1c2.4,0,4.4,2,4.4,4.4l0,0     C-292.1,828.2-294.1,830.2-296.5,830.2z"/>
		</g>
		<g>
			<path class="st23" d="M-250.7,798.5h-19c-6.6,0-12-5.4-12-12v-17.1c0-6.6,5.4-12,12-12h19c6.6,0,12,5.4,12,12v17.1     C-238.7,793.1-244.1,798.5-250.7,798.5z"/>
			<path class="st24" d="M-302.6,798.5h-19c-6.6,0-12-5.4-12-12v-17.1c0-6.6,5.4-12,12-12h19c6.6,0,12,5.4,12,12v17.1     C-290.6,793.1-296,798.5-302.6,798.5z"/>
			<path class="st16" d="M-354.5,798.5h-19c-6.6,0-12-5.4-12-12v-17.1c0-6.6,5.4-12,12-12h19c6.6,0,12,5.4,12,12v17.1     C-342.5,793.1-347.9,798.5-354.5,798.5z"/>
		</g>
		<path class="st23" d="M-250.7,745.1h-19c-6.6,0-12-5.4-12-12V716c0-6.6,5.4-12,12-12h19c6.6,0,12,5.4,12,12v17.1    C-238.7,739.7-244.1,745.1-250.7,745.1z"/>
		<path class="st24" d="M-302.6,745.1h-19c-6.6,0-12-5.4-12-12V716c0-6.6,5.4-12,12-12h19c6.6,0,12,5.4,12,12v17.1    C-290.6,739.7-296,745.1-302.6,745.1z"/>
		<path class="st25" d="M-354.5,745.1h-19c-6.6,0-12-5.4-12-12V716c0-6.6,5.4-12,12-12h19c6.6,0,12,5.4,12,12v17.1    C-342.5,739.7-347.9,745.1-354.5,745.1z"/>
		<path class="st25" d="M-250.7,691.7h-19c-6.6,0-12-5.4-12-12v-17.1c0-6.6,5.4-12,12-12h19c6.6,0,12,5.4,12,12v17.1    C-238.7,686.3-244.1,691.7-250.7,691.7z"/>
		<path class="st24" d="M-302.6,691.7h-19c-6.6,0-12-5.4-12-12v-17.1c0-6.6,5.4-12,12-12h19c6.6,0,12,5.4,12,12v17.1    C-290.6,686.3-296,691.7-302.6,691.7z"/>
		<path class="st16" d="M-354.5,691.7h-19c-6.6,0-12-5.4-12-12v-17.1c0-6.6,5.4-12,12-12h19c6.6,0,12,5.4,12,12v17.1    C-342.5,686.3-347.9,691.7-354.5,691.7z"/>
		<g>
			<path class="st25" d="M-250.7,638.3h-19c-6.6,0-12-5.4-12-12v-17.1c0-6.6,5.4-12,12-12h19c6.6,0,12,5.4,12,12v17.1     C-238.7,632.9-244.1,638.3-250.7,638.3z"/>
			<path class="st25" d="M-302.6,638.3h-19c-6.6,0-12-5.4-12-12v-17.1c0-6.6,5.4-12,12-12h19c6.6,0,12,5.4,12,12v17.1     C-290.6,632.9-296,638.3-302.6,638.3z"/>
			<path class="st25" d="M-354.5,638.3h-19c-6.6,0-12-5.4-12-12v-17.1c0-6.6,5.4-12,12-12h19c6.6,0,12,5.4,12,12v17.1     C-342.5,632.9-347.9,638.3-354.5,638.3z"/>
		</g>
		<path class="st15" d="M-300.3,634.8h-170.4c-3.5,0-6.5-2.9-6.5-6.5v-16.8c0-3.5,2.9-6.5,6.5-6.5h170.4c3.5,0,6.5,2.9,6.5,6.5v16.9    C-293.8,631.9-296.7,634.8-300.3,634.8z"/>
		<line class="st26" x1="-226.4" y1="645.6" x2="-195.3" y2="638"/>
		<g>
			<path class="st7" d="M-120.3,827.4l-84.4,20.8c-6.4,1.6-12.9-2.4-14.5-8.8l-46.5-188.1c-1.6-6.4,2.4-12.9,8.8-14.5l84.5-20.8     c6.4-1.6,12.9,2.4,14.5,8.8l46.4,188.1C-109.9,819.3-113.9,825.8-120.3,827.4z"/>
			
				<rect x="-233.4" y="651.2" transform="matrix(0.9709 -0.2395 0.2395 0.9709 -181.5781 -23.5725)" class="st21" width="91.2" height="168.3"/>
			<circle class="st21" cx="-175.4" cy="632.4" r="3.8"/>
			
				<rect x="-238.6" y="658.5" transform="matrix(0.9709 -0.2395 0.2395 0.9709 -173.8662 -26.5038)" class="st27" width="85.2" height="87.3"/>
			<g>
				<path class="st23" d="M-141.7,800.2l-1,0.2c-6.1,1.5-12.3-2.2-13.7-8.3l0,0c-1.5-6.1,2.2-12.3,8.3-13.7l1-0.2      c6.1-1.5,12.3,2.2,13.7,8.3l0,0C-131.9,792.5-135.6,798.7-141.7,800.2z"/>
				<path class="st24" d="M-169.5,807.1l-1,0.2c-6.1,1.5-12.3-2.2-13.7-8.3l0,0c-1.5-6.1,2.2-12.3,8.3-13.7l1-0.2      c6.1-1.5,12.3,2.2,13.7,8.3l0,0C-159.7,799.4-163.4,805.6-169.5,807.1z"/>
				<path class="st16" d="M-197.3,814l-1,0.2c-6.1,1.5-12.3-2.2-13.7-8.3l0,0c-1.5-6.1,2.2-12.3,8.3-13.7l1-0.2      c6.1-1.5,12.3,2.2,13.7,8.3l0,0C-187.5,806.3-191.3,812.5-197.3,814z"/>
			</g>
			
				<rect x="-224.8" y="749.9" transform="matrix(0.9709 -0.2395 0.2395 0.9709 -186.8794 -21.5638)" class="st28" width="85.2" height="16.5"/>
			<path class="st29" d="M-118.9,746.9l-18.4,4.6c-6.4,1.6-12.9-2.4-14.5-8.8l-4.1-16.6c-1.6-6.4,2.4-12.9,8.8-14.5l18.4-4.6     c6.4-1.6,12.9,2.4,14.5,8.8l4.1,16.6C-108.5,738.8-112.5,745.3-118.9,746.9z"/>
			<path class="st30" d="M-114.2,691.8l-18.4,4.6c-6.4,1.6-12.9-2.4-14.5-8.8l-4.1-16.6c-1.6-6.4,2.4-12.9,8.8-14.5l18.4-4.6     c6.4-1.6,12.9,2.4,14.5,8.8l4.1,16.6C-103.8,683.7-107.8,690.2-114.2,691.8z"/>
		</g>
	</g>
</g>
<g>
	<g>
		<path class="st7" d="M-354.3,730.2V622.2c0-4.8,3.9-8.6,8.6-8.6h153.4c4.8,0,8.6,3.9,8.6,8.6v108.1c0,4.8-3.9,8.6-8.6,8.6h-153.4    C-350.5,738.8-354.3,734.9-354.3,730.2z"/>
		<rect x="-339.1" y="624.7" class="st21" width="140.2" height="103"/>
		<circle class="st21" cx="-190" cy="676.1" r="2.9"/>
		<path class="st31" d="M-348.9,685.3v-18.2c0-1.5,1.2-2.6,2.6-2.6l0,0c1.5,0,2.6,1.2,2.6,2.6v18.2c0,1.5-1.2,2.6-2.6,2.6l0,0    C-347.8,687.9-348.9,686.8-348.9,685.3z"/>
	</g>
	<g>
		<rect x="-334.5" y="648.2" class="st32" width="131.6" height="9.3"/>
		<path class="st33" d="M-302.5,664.3h5.3c2.3,0,4.2,1.9,4.2,4.2v5.2c0,2.3-1.9,4.2-4.2,4.2h-5.3c-2.3,0-4.2-1.9-4.2-4.2v-5.2    C-306.7,666.1-304.8,664.3-302.5,664.3z"/>
		<rect x="-339.1" y="624.7" class="st34" width="140.2" height="7.9"/>
		<path class="st0" d="M-281.9,664.3h5.3c2.3,0,4.2,1.9,4.2,4.2v5.2c0,2.3-1.9,4.2-4.2,4.2h-5.3c-2.3,0-4.2-1.9-4.2-4.2v-5.2    C-286.1,666.1-284.2,664.3-281.9,664.3z"/>
		<path class="st1" d="M-260.9,664.3h5.3c2.3,0,4.2,1.9,4.2,4.2v5.2c0,2.3-1.9,4.2-4.2,4.2h-5.3c-2.3,0-4.2-1.9-4.2-4.2v-5.2    C-265.1,666.2-263.2,664.3-260.9,664.3z"/>
		<path class="st2" d="M-240.3,664.3h5.3c2.3,0,4.2,1.9,4.2,4.2v5.2c0,2.3-1.9,4.2-4.2,4.2h-5.3c-2.3,0-4.2-1.9-4.2-4.2v-5.2    C-244.5,666.2-242.6,664.3-240.3,664.3z"/>
		<path class="st33" d="M-323.6,683.1h5.3c2.3,0,4.2,1.9,4.2,4.2v5.2c0,2.3-1.9,4.2-4.2,4.2h-5.3c-2.3,0-4.2-1.9-4.2-4.2v-5.2    C-327.8,685-325.9,683.1-323.6,683.1z"/>
		<path class="st0" d="M-302.9,683.1h5.3c2.3,0,4.2,1.9,4.2,4.2v5.2c0,2.3-1.9,4.2-4.2,4.2h-5.3c-2.3,0-4.2-1.9-4.2-4.2v-5.2    C-307.1,685-305.3,683.1-302.9,683.1z"/>
		<path class="st1" d="M-281.9,683.2h5.3c2.3,0,4.2,1.9,4.2,4.2v5.2c0,2.3-1.9,4.2-4.2,4.2h-5.3c-2.3,0-4.2-1.9-4.2-4.2v-5.2    C-286.1,685.1-284.2,683.2-281.9,683.2z"/>
		<path class="st33" d="M-323.6,664.3h5.3c2.3,0,4.2,1.9,4.2,4.2v5.2c0,2.3-1.9,4.2-4.2,4.2h-5.3c-2.3,0-4.2-1.9-4.2-4.2v-5.2    C-327.8,666.2-325.9,664.3-323.6,664.3z"/>
	</g>
</g>
<g>
	<g>
		<g>
			<g>
				<g>
					<path class="st7" d="M-149.3,761.4l-48.7,6.2c-4.1,0.5-8-2.5-8.5-6.6l-14.4-113.1c-0.5-4.1,2.5-8,6.6-8.5l48.7-6.2       c4.1-0.5,8,2.5,8.5,6.6l14.4,113.1C-142.2,757-145.1,760.8-149.3,761.4z"/>
					
						<rect x="-207.8" y="652.4" transform="matrix(0.9921 -0.1258 0.1258 0.9921 -89.8232 -17.2468)" class="st21" width="52.8" height="99.9"/>
					
						<ellipse transform="matrix(-0.992 0.1261 -0.1261 -0.992 -253.0458 1301.0311)" class="st21" cx="-167.7" cy="642.5" rx="2.2" ry="2.3"/>
				</g>
				<g>
					
						<rect x="-206.2" y="693.9" transform="matrix(0.9922 -0.125 0.125 0.9922 -89.3834 -17.1493)" class="st24" width="49.8" height="19.4"/>
					
						<rect x="-203.3" y="716.7" transform="matrix(0.9922 -0.125 0.125 0.9922 -92.2132 -16.612)" class="st2" width="49.8" height="19.4"/>
				</g>
			</g>
			<path class="st2" d="M-170.6,674.6l4.2-0.5c1.8-0.2,3.5,1.1,3.7,2.9l0.5,4c0.2,1.8-1.1,3.5-2.9,3.7l-4.2,0.5     c-1.8,0.2-3.5-1.1-3.7-2.9l-0.5-4C-173.6,676.5-172.4,674.8-170.6,674.6z"/>
			
				<rect x="-213.8" y="652.7" transform="matrix(-0.9922 0.1246 -0.1246 -0.9922 -291.5509 1328.7908)" class="st34" width="52.9" height="5.1"/>
		</g>
		<path class="st0" d="M-203,678.6l4.2-0.5c1.8-0.2,3.5,1.1,3.7,2.9l0.5,4c0.2,1.8-1.1,3.5-2.9,3.7l-4.2,0.5    c-1.8,0.2-3.5-1.1-3.7-2.9l-0.5-4C-206.1,680.5-204.8,678.9-203,678.6z"/>
		<path class="st1" d="M-186.6,676.6l4.2-0.5c1.8-0.2,3.5,1.1,3.7,2.9l0.5,4c0.2,1.8-1.1,3.5-2.9,3.7l-4.2,0.5    c-1.8,0.2-3.5-1.1-3.7-2.9l-0.5-4C-189.7,678.5-188.4,676.9-186.6,676.6z"/>
	</g>
	
		<rect x="-211" y="662" transform="matrix(-0.9922 0.1246 -0.1246 -0.9922 -287.7988 1349.1489)" class="st32" width="49.8" height="7.1"/>
</g>
</svg>