<?xml version="1.0" encoding="utf-8"?>
<!-- Generator: Adobe Illustrator 19.0.0, SVG Export Plug-In . SVG Version: 6.00 Build 0)  -->
<svg version="1.1" id="Camada_1" xmlns="http://www.w3.org/2000/svg" xmlns:xlink="http://www.w3.org/1999/xlink" x="0px" y="0px"
	 viewBox="0 0 488.5 238.4" style="enable-background:new 0 0 488.5 238.4;" xml:space="preserve">
<style type="text/css">
	.st0{fill:#5B2B17;}
	.st1{fill:#DB7262;}
	.st2{fill:#C8A268;}
	.st3{fill:#AD8853;}
	.st4{fill:#AC8953;}
	.st5{fill:#C8A267;}
	.st6{fill:#93703F;}
	.st7{fill:#283E44;}
	.st8{fill:#B5BB87;}
	.st9{fill:#B6BD87;}
	.st10{fill:#9E988B;}
	.st11{fill:#F8B482;}
	.st12{fill:#FFFFFF;}
	.st13{fill:#7BA196;}
	.st14{fill:#C8A368;}
	.st15{fill:#D67063;}
	.st16{fill:#DBBE8E;}
	.st17{fill:#ADA795;}
	.st18{fill:#A09A87;}
	.st19{fill:#ACA795;}
	.st20{fill:#7F7C69;}
	.st21{fill:#EF9A86;}
	.st22{fill:#698988;}
	.st23{fill:#CC4D4B;}
	.st24{fill:#807D6B;}
	.st25{fill:#827D6A;}
	.st26{fill:#73B954;}
	.st27{fill:#846846;}
	.st28{fill:#283379;}
	.st29{fill:#FEFEFD;}
	.st30{fill:#273E44;}
	.st31{fill:#867E71;}
	.st32{fill:#857E70;}
	.st33{fill:#BF7836;}
	.st34{fill:#517371;}
	.st35{fill:#F39669;}
	.st36{fill:#CB5C4C;}
	.st37{fill:#9F9986;}
	.st38{fill:#517271;}
	.st39{fill:#668786;}
	.st40{fill:#C9C5B4;}
	.st41{fill:#FEFEFE;}
	.st42{fill:#C9C6B5;}
	.st43{fill:#856846;}
	.st44{fill:#FDFDFB;}
	.st45{fill:#C7A267;}
	.st46{fill:#A39083;}
	.st47{fill:#E6BE67;}
	.st48{fill:#C4C88E;}
	.st49{fill:#E5BF68;}
	.st50{fill:#DDB966;}
	.st51{fill:#B6BC88;}
	.st52{fill:#C2C78E;}
	.st53{fill:#C6C3B3;}
	.st54{fill:#B68D43;}
	.st55{fill:#A87E29;}
	.st56{fill:#CC1426;}
	.st57{fill:#FCF9F9;}
	.st58{fill:#323B57;}
	.st59{fill:#FAFAFA;}
	.st60{opacity:0.19;fill:#010202;}
</style>
<g>
	<path class="st0" d="M482.4,210.9c3.8,0.7,6.3,3.9,6.2,7.3c-0.1,3.8-3.1,7-7.1,7.4c-1.1,0.1-2.3,0.1-3.5,0.1
		c-156.1,0-312.1,0-468.2,0c-2.2,0-4.4,0.3-6.4-1.1c-3.1-2.1-3.8-5.1-3.3-8.5c0.7-4.1,4-5.6,7.4-5.7
		C11.5,210.4,474.8,209.6,482.4,210.9z"/>
	<path class="st1" d="M392,217.4h-33.9c-12.1,0-21.9-9.8-21.9-21.9v0c0-12.1,9.8-21.9,21.9-21.9H392c12.1,0,21.9,9.8,21.9,21.9v0
		C413.9,207.5,404.1,217.4,392,217.4z"/>
	<path class="st2" d="M26.3,140c1.2,2.5,3.4,1.2,5,1.2c2.6,0,4,0.4,4.2,3.3c0.1,1.7,0.8,3.5,1.2,5.2c-6.4,0-12.9,0.1-19.3,0.1
		c-2.7,0-4.8-0.8-4.9-4.1c-0.1-3.5,2-4.2,4.9-4.5C20.3,140.9,23.6,142.4,26.3,140z"/>
	<path class="st2" d="M87.8,210.2c-0.3,7.2-1,7.8-8.3,7.8c-20.1,0-40.3,0-60.4,0c-6,0-6.6-0.7-6.6-6.7c0-12.3-0.1-24.5-0.1-36.8
		c0.9-3,3.2-3.8,6-3.8c7.4,0,14.7,0,22.1-0.1c0.6-0.5,1.1-1.2,1.9-1.2c5.7-0.3,11.5-1.1,17.2,0.5c1.2,1.2,2.6,0.8,4,0.8
		c5.8,0,11.6,0,17.4,0c5.2,0,6.7,1.5,6.7,6.6C87.7,188.3,87.8,199.3,87.8,210.2z"/>
	<path class="st2" d="M42.7,149.8c-0.2-0.3-0.5-0.6-0.7-0.9c-3.6-6.6-3.1-7.7,4.2-7.7c11.7,0,23.5-0.1,35.2-0.1
		c2.2,0,4.4,0.1,5.7,2.4c1.6,2.8-0.6,6.2-4.3,6.2c-7.8,0.1-15.7,0.1-23.5,0.1C53.7,152.6,48.2,152,42.7,149.8z"/>
	<path class="st3" d="M59.5,170c-4.6,1.6-9.4,0.4-14.1,0.8c-1.7,0.1-3.3,0-5,0c-0.8-2.4-0.5-4.5,1.5-6.2c0.5-1.1,1.4-1.9,2.6-2.1
		c4.1-0.7,8.1,0.2,12.1,0.5c0.8,0.1,1.2,0.8,1.4,1.6C59.6,166,60.2,167.8,59.5,170z"/>
	<path class="st4" d="M42.7,149.8c5.5,0,11,0,16.5,0c0.8,2.2,1,4.4-1.1,6.1c-1.3,1.2-3.1-0.2-4.5,0.7
		C48.9,156.1,45.3,153.8,42.7,149.8z"/>
	<path class="st5" d="M53.7,156.6c1.4-1.1,3-0.5,4.5-0.7c1.7,2.9,2.4,5.7-0.1,8.6c-5.4-1.3-10.7-1.2-16.1,0c-1.9-2.6-3-5.2,0-7.8
		c3.3,2.2,6.8,4.2,10.9,4.6c1.8,0.2,4.3,0.9,4.6-2C57.7,156.6,55.4,156.9,53.7,156.6z"/>
	<path class="st6" d="M50.2,180c8.4,0.1,14.4,6.5,14.2,15.1c-0.1,7.7-6.9,14.3-14.5,14.2c-8.2-0.2-14.8-6.8-14.8-14.9
		C35.1,186.5,42.1,179.9,50.2,180z"/>
	<g>
		<path class="st7" d="M41.9,156.7c-1.7-2.3-3.5-4.7-5.2-7c-0.3-0.2-0.7-0.4-0.9-0.7c-1.5-3.9-3.8-6.9-8.5-6.9c-0.9,0-1.4-1-1-2.1
			c1.6-11.5,10-18.1,21.5-16.3c2.8,0.4,2.6-0.7,2.7-2.5c0.4-5.7,1-11.5,1.5-17.4c8.6,6.4,16.9,6.4,25.5,0c1.2,12.6,2,25,3.8,37.3
			c-1.3,1.9-3.4,1.7-5.3,1.7c-9.8,0.1-19.6,0-29.5,0c-5.1,0-5.4,0.6-3.2,5.4c2.3,4.6,6.6,6.1,11.1,7.3c2.4,0.4,3.9,1.8,3.6,4.2
			c-0.3,2.6-2.5,3.1-4.7,2.9C48.9,162.1,44.1,161.9,41.9,156.7z"/>
		<path class="st8" d="M57.8,123.3c-1.3-0.3-2-1-2-2.2c0-1.2,0.7-2,1.9-1.9c1.3,0.1,2.2,0.8,2,2.3C59.6,122.6,58.7,123.1,57.8,123.3
			z"/>
		<path class="st9" d="M73,121.3c-0.1,1.3-1,1.9-2,1.9c-1.4,0-2.1-1-1.9-2.4c0.1-1.3,1.1-1.7,2.2-1.7C72.4,119.2,73,120.1,73,121.3z
			"/>
	</g>
	<path class="st10" d="M274.6,26c0.1-3.8,1.6-5.5,5.4-5.5c20.7-0.1,41.3-0.1,62,0c4.1,0,5.5,1.6,5.5,5.8c0,15.4,0,30.7,0,46.1
		c0,4.5-1.4,5.9-6.1,6c-1.5,0-3.1,0-4.6,0c-5.5,0-7.2,2.5-5.6,7.9c0.5,1.8,1.8,1.6,3,1.6c5.3,0,10.6,0.1,15.9,0
		c3.5,0,5.4,1.5,5.1,5.1c-0.5,6.5,1.1,13.1-1,19.6c-0.7,1-1.8,1.5-3,1.5c-12.7,0-25.4,0.5-38.1-0.3c-2.3-0.9-3-2.9-3.6-5.1
		c0-0.4,0-0.8,0.1-1.2c2.4-3.7,3-3.8,5.3-0.2c0.1,0.2,0.2,0.5,0.4,0.7c2,2.3,13.8,2.3,15.2-0.3c1.6-2.9,3.8-3.5,6.7-3.3
		c1.5,0.1,3.1,0,4.6,0c2.9,0,4.3,1.4,3.6,4.4c4-1,4-1.2,2.4-7c-0.1-0.6-0.2-1.1-0.1-1.7c2.1-9,1.3-7-6.3-8.2c-0.7-0.1-1.5,0-2,0
		c1.8,0.4,5.2-1.2,5.6,1.9c0.5,3.5-3.2,2.2-5.1,3c-0.6,0.2-1.1,0.7-1.7,0.9c-0.7,0.2-1.5,0.3-2.2,0.2c-2.2-0.4-4.2-1.2-5.4-3.3
		c-0.6-1-1.5-1.4-2.5-1.7c-1.1-0.4-2.5-0.5-2.5-2c0-1.3,1.2-1.9,2.3-2.3c1.1-0.4,1.4-1,1.1-2.1c-0.7-7.4-0.7-7.4-8-7.4
		c-8.8,0.1-17.5-0.3-26.3,0.3c-0.9,0.1-1.8-0.1-2.6-0.4c-0.8-0.2-1.6-0.3-2.5-0.4c-1.9-0.4-3-1.9-4.1-3.3c-3.6-4.6-6.5-9.9-11.7-13
		c-0.4-0.3-0.5-0.8-0.7-1.4C273,58.4,274.5,31,274.6,26z"/>
	<path class="st11" d="M203.2,82.4c4.1-5.5,8.2-10.9,12.2-16.4c2.4-3.3,5.5-5,9.6-4.3c1.2,0.3,1.9,1.2,2.6,2.1
		c5.7,7.8,11.7,15.3,17.2,23.2c2.8,4,2.8,6,0.2,8.8c-8.1,1-16.2,0.7-24.3,0.2c-1.5-0.7-2.8-2.6-4.5-0.3c-6.7,2.1-7.1,2.6-7.8,9.6
		c-0.1,0.9-0.2,1.8-0.5,2.6c-3,4.6-5.5,9.7-11,11.9c-6.4,1.3-10.3-1-12.7-7.3c-0.8-3.5,0-6.6,2.2-9.4c4-5.2,7.8-10.7,11.8-15.9
		C199.8,85.5,200.5,83,203.2,82.4z"/>
	<path class="st12" d="M459,211.1c0.1,0.2,0.2,0.5,0.4,0.7c3.1,5.9,2.9,6.3-3.7,6.3c-12.5,0-25,0-37.5,0c-5,0-5.4-0.6-3.1-5.2
		c0.3-0.7,0.8-1.3,1.3-1.9c1.1-4.1,4.6-4.4,7.9-5c4-0.8,4.1-0.7,2.4-4.6c-9.4-21.4-18.7-42.9-28.2-64.2c-1.4-3.2-2.1-6.7-4.1-9.6
		c-3-6.4-5.9-12.9-8.2-19.6c-0.9-2.5-0.6-4.9,1.8-6.5c2.1-1.4,4.2-1.1,6.1,0.5c1.5,1.3,2.1,3.1,1.6,5.2
		c12.8,29.2,25.5,58.4,38.3,87.5c0.1,0.2,0.2,0.5,0.3,0.7c2.4,8.3,6.3,14.2,16.6,12C453.9,206.7,456.7,208.9,459,211.1z"/>
	<path class="st13" d="M185.4,112.6c-14.2,0-28.3,0-42.5,0c-4.1-0.8-7.9-2.3-9.7-6.6c0-2.8-2-5-2-7.8c0.2-11.8,6.5-18.2,18.1-18.5
		c3.5-0.1,6.9-0.3,10.4-0.5c1.2-0.6,2.4-0.6,3.6-0.5c4.6-0.8,9.4,0.2,14-0.7c1.4-0.5,2.8,0.3,4.2,0.2c3.5,2.1,7.5,1.2,11.2,1.5
		c3.7,0.3,7.1,0.7,10.3,2.7c-1.3,1.8-2.6,3.6-4,5.4c-1.5,1.1-3.2,0.7-4.8,0.7c-6.2,0.1-9.6,4.9-7.6,10.8c0.5,1.3,1.1,2.6,1.1,4.1
		C185.9,106.2,185,109.2,185.4,112.6z"/>
	<path class="st5" d="M185.4,112.6c3.1,5.6,5.5,6.9,11.6,6.2c3.9-1.2,7.7-2.7,11.8-0.5c2,1.9,2.4,4,0.8,6.4c-0.7,0.6-1.5,1-2.4,1.1
		c-7.7,0.1-15.5,0.6-23.2-0.3c-21.2,1-42.4,0.2-63.6,0.5c-2.3,0-4.6,0-6.9-0.2c-3.7-0.1-7.7,1.4-11-1.5c-2.4-0.1-4.8-0.3-7.2-0.2
		c-4.4,0.1-7.1-1.6-7.5-4.8c-0.4-3.9,1.3-5.7,6.2-6.5c3.7-2.8,7.8-1.4,11.8-1.3c1.3,0.1,2.6-0.3,3.9,0.2c1.8,0.4,3.5,0.2,5.3,0
		c3.7-0.9,7.8,0.6,11.1-2.2c0.4,0,0.8,0.2,1.1,0.5c0.5,0.6,1,1.3,1.8,1.3c4.8-0.3,9.6,1,14.5,0c12.1,0.1,24.2,0,36.2,0
		C181.8,111,183.9,110.8,185.4,112.6z"/>
	<path class="st12" d="M102.4,124.1c3.6,0,7.3,0,10.9,0.1c2.3,3.9,0.8,8.1,0.5,12c-0.6,7.8-1.2,15.6-2,23.4c-1,11.1-1.8,22.3-3,33.4
		c-0.3,2.7-0.2,5.4-0.4,8.1c-0.4,3.9-1,7.8-2.8,11.4c-0.5,1.8,0.9,4.5-1.4,5.2c-2.8,0.9-6.1,1.1-8.7-0.1c-1.9-0.9-0.5-3.8-0.8-5.7
		c1.4-4.6,0.9-9.4,1.3-14.1c2.1-20.9,3.7-41.9,5.5-62.9C101.9,131.3,102.1,127.7,102.4,124.1z"/>
	<path class="st12" d="M363.8,174.7c0.9,11.4,1.7,22.7,2.6,34.1c0.2,2.8,0.4,5.6,0.6,8.4c-2.9,1.6-6,0.6-9.1,0.7
		c-1.4,0-1.1-1.6-1.8-2.3c-2.8-2.6-6.3-74.3-7.7-91.3c10.3-0.5,10.5-0.5,11.4,9.2c1.2,11.9,2.1,23.9,3.1,35.8
		C363.2,171.1,363.5,172.9,363.8,174.7z"/>
	<path class="st10" d="M395.6,107.1c-0.2-0.5-0.4-1-0.6-1.4c-1-2.9-2.7-5.1-6-3.7c-3.4,1.4-2.5,4.3-1.3,6.9c2.7,6.1,5.3,12.2,8,18.4
		c2.4,6.7,1.9,13.6,1.8,20.5c-0.1,4.2-0.2,8.5,0.3,12.7c0.5,4.1-0.6,8.2-0.3,12.3c0.1,1-0.5,2-1.5,2.6c-1.1,1.1-0.2,2.1,0.1,3.2
		c0.3,1,0.9,2.2,0.5,3c-1.8,3.6-0.2,7.2-0.2,10.8c0.2,3.7-2.2,6.1-5.9,6.1c-4,0-7.5-3.4-7.1-6.9c0.1-1,0.6-1.9,1.1-2.8
		c0.8-1.5,1.5-2.8,0.6-4.6c-1-2-1-4.3,0.1-6.3c0.8-1.4,0-2.1-0.6-3.1c1.4-5.4,0.4-11,0.4-16.4c0-4,1.4-8.4-0.3-12.5
		c-0.1-0.3-0.3-0.8-0.2-1.1c1.7-4.8-1.2-9.8,0.8-14.6c0.8-1.9-1.7-4-0.8-5.9c2.1-4.4-1.5-9,0.9-13.5c0.7-1.4-1.2-3.7-0.9-5.9
		c0.5-3.5,3.5-5.9,6.8-5.3c3.3,0.5,5.4,3.4,4.8,6.7C396.2,106.5,395.8,106.8,395.6,107.1z"/>
	<path class="st14" d="M311.8,112.5c14.1,0,28.3,0,42.4,0c4.5,0,9,0,13.5,0.1c4.1,0.1,6,1.7,6.3,5.2c0.3,3.3-1.7,5.8-5.6,6
		c-5.6,0.2-11.3-0.3-17-0.3c-1.9,0-3.9-0.4-5.7,0.6c-19.8,0-39.7,0-59.5,0c-1.8-2.1-0.9-4,0.5-5.9c3.4-2.2,7.1-0.6,10.7-0.7
		c5.4,0.9,9.2-2,12.7-5.5C310.8,112,311.3,112.1,311.8,112.5z"/>
	<path class="st15" d="M228.2,60.6c1.3-1,2.6-2.1,3.8-3.1c7.6-8.2,20.8-6.7,28.1-3.3c1.6,0.7,2.4,2.3,3.7,3.3c1.3,1,2.5,2.1,3.8,3.1
		c0.3,0.3,0.4,0.6,0.5,1c0,1.5-0.9,2.6-1.8,3.8c-4.9,6.6-9.8,13.3-14.9,19.8c-2.9,3.8-4.3,3.8-7.1,0.2c-5.1-6.6-10.1-13.4-15.1-20.1
		c-0.8-1.1-1.9-2.2-1.3-3.8C228,61.1,228.1,60.9,228.2,60.6z"/>
	<path class="st16" d="M227.9,61.4c6.1,8,12.2,16,18.2,24.1c1.5,2,2.1,1.8,3.5-0.1c6-8.1,12.1-16.1,18.2-24.1c1-1,2.2-1.1,3.4-0.4
		c1.4,2.4-0.5,3.9-1.6,5.4c-4.9,6.5-9.5,13.1-14.7,19.3c-2.5,3-3,7-5.6,9.9c-1.4,0.4-2.6,0.5-3.5-0.9c0.5-3-0.8-5.4-2.6-7.7
		c-5.2-6.7-10.2-13.5-15.3-20.3c-1.2-1.5-2.1-3.2-2.9-4.9C226,61.6,227,61.5,227.9,61.4z"/>
	<path class="st17" d="M93,79.8c7.9-0.9,15.9-0.3,23.8-0.5c2.1-0.1,4.1,0,6.2,0c0.9,0,2.1,0,1.1,1.5c-1.9,0.6-3.8,1.1-5.7,0.5
		c-2.3,0.3-4.6,0.4-6.9,0.3c-2.7-0.1-3.6,1.1-3.6,3.7c0,2.8,0.7,5.7-1.2,8.2c-2.4,1.8-4.9,1.5-7.4,0.6c-1.4-2.9-1.7-6.2-3.9-8.7
		C93.7,83.8,92.7,82.1,93,79.8z"/>
	<path class="st18" d="M106.3,93.2c0-3.4,0.1-6.7,0-10.1c-0.1-2.4,0.9-3.2,3.2-3.1c3.1,0.1,6.2,0.1,9.3,0.1c1.3,1.9,0.4,3.7-0.4,5.4
		c-1,2.2-2.5,4.2-3.5,6.4c0,0.4,0.1,0.8,0.1,1.2c-1.2,1.7-2.9,1.5-4.7,1.3C108.8,94.5,107.3,94.6,106.3,93.2z"/>
	<path class="st19" d="M106.3,112.6c-4.1,0-8.3,0-12.4,0c1.7-4.5,3.1-9,5.5-13.2c2.4-2.1,4.8-2,7.3-0.3
		C108.4,103.6,108.9,108.1,106.3,112.6z"/>
	<path class="st20" d="M93,79.8c1.4,1.6,2.4,3.3,2.3,5.5c-1.9,0.3-1.4,1.9-1.4,3c-0.1,3,0,5.9,0,8.9c0,1.7-0.6,3.1-2.6,3.1
		c-2.2,0-2.8-1.3-2.8-3.2c0-3.9,0-7.7,0-11.6C88.5,82.4,89.9,80.4,93,79.8z"/>
	<path class="st21" d="M110.3,93.2c1.6,0,3.1-0.1,4.7-0.1c2.3,0,4.6,0.2,6.8,0c3.7-0.4,5.2,0.9,4.7,4.6c-0.2,0.1-0.4,0.1-0.6,0.2
		c-0.6-0.2-1.1-0.6-1.6-1.1c-1.9-1.9-4.4-1.5-6.5-0.9c-2,0.7-1.3,2.8-1.4,4.4c-0.1,2.6,0,5.1,0,7.7c0,1.7-0.1,3.4-1.6,4.5
		c-1.5,0.7-3.1,1.3-4.6,0c-2.5-2.6-1.3-5.8-1.6-8.8c-0.1-1.4,0.1-2.8,0.2-4.2C108.6,97.3,108.2,94.9,110.3,93.2z"/>
	<path class="st22" d="M181.6,78.3c-0.9,2.7-2,1.5-3,0.1c-1.3-0.1-2-1.1-2.8-1.9c-3.6-3.1-7.4-2.9-10.3,0.9
		c-0.7,0.9-1.5,1.7-2.4,2.5c-1.1,0-2.4,0.3-3.3-0.7c0.8-5.6,5.3-9.7,10.7-9.9C175.8,69.2,180.2,72.7,181.6,78.3z"/>
	<path class="st23" d="M131.3,98.2c2.5,1.9,3.4,4.4,2.9,7.4c-1,4.6-3.7,5.9-7.7,3.8l0.1-0.2c-1.8-1.3-2.2-2.8-0.8-4.6
		c0.5-0.5,1.9-0.2,1.9-0.9c0-1-1.5-0.4-2-1.2c-1.2-1.8-1.4-3.5,0.9-4.6l0-0.3C128.1,97.8,129.7,97.6,131.3,98.2z"/>
	<path class="st24" d="M110.3,93.2c-0.1,2-0.1,4.1-0.2,6.1c-1.2,1.2-2.5,1.1-3.8,0c-2.3,0-4.6,0-6.9,0c0-1.8-0.1-3.6-0.1-5.4
		c2.2-1.5,4.7-0.4,7.1-0.8C107.6,93.2,108.9,93.2,110.3,93.2z"/>
	<path class="st25" d="M114.9,91.9c0.3-4.3,3.1-7.8,3.9-11.9c1.8,0.2,3.7-0.7,5.3,0.7C121,84.5,117.9,88.2,114.9,91.9z"/>
	<path class="st26" d="M105.6,212.6c1.2-13.6,2.5-27.1,3.6-40.7c0.9-10.5,1.6-21,2.5-31.6c0.4-5.4,1-10.8,1.5-16.1
		c20.9,0,41.8-0.1,62.7,0c2.7,0,5.3-1.3,8-0.2c-0.1,0.4-0.3,0.8-0.5,1.1c-1.3,1.3-0.8,2.9-0.8,4.4c0,14.1-0.1,28.2,0,42.2
		c0,2.4-0.5,4.6-1.4,6.7c-0.4,0.8-0.7,1.8-1.5,2.2c-3.4,1.5-5.3-1-7.2-3c-1.7-1.8-3.9-3.8-1.5-6.3c2.8-2.9,1.7-6.3,1.6-9.5
		c0-1.2-1-1.8-2.1-1.9c-1.7-0.2-3.4-0.2-5-0.1c-1.7,0.1-2.5,1.1-2.6,2.8c-0.1,1.7-0.1,3.4,0,5c0,1.6,0.7,2.7,2.4,3
		c2.4,0.4,3.8,1.9,4.9,4c1.2,2.2,3,3.8,4.9,5.4c2.9,2.4,2.9,4.6-0.2,6.7c-3.4,2.3-7.1,3.6-11.2,3.6c-3.2,0.1-6.4,0-9.7,0.2
		c-2.1-0.6-2.5-2.5-2.9-4.2c-1-4.3-0.8-8.7-0.7-13c0-1.3,0.8-2.1,1.8-2.8c2.5-1.9,3.5-5,2.6-8c-0.5-1.6-1.6-1.9-3-1.9
		c-2,0.1-4.3-0.9-5.7,1.2c-1.4,1.9-0.3,7,1.7,8.3c1.7,1.1,2.6,2.4,2.5,4.4c-0.4,4.6,0.6,9.2,0.5,13.8c-1.1,1.5-2.6,1.5-4.2,1.1
		c-6-1.3-12-7.4-12.9-13.4c-0.3-2.2-0.4-4.3,2.4-5.3c2.9-1,1.6-3.7,1.7-5.8c0.1-1.7,0.9-4.1-1.3-4.8c-2.4-0.8-5.2-0.8-7.6,0.2
		c-1.4,0.6-1.1,2.2-1.1,3.5c0,3.2-0.8,6.6,3.6,7.8c1.1,0.3,1.8,1.5,2,2.7c1.4,9.5,7.4,14.2,16.3,15.9c0.9,0.2,1.8,0.2,2.6,0.6
		c5.6,7.2,13.2,9.4,22.1,9c6.5-0.3,13.1-0.5,19.6,0.2c0.8,0.4,1.3,1,1.9,1.6c0.7,1,1.8,1.6,2.3,2.7c0.4,1.1,0.2,2.2-0.5,3.1
		c-3.7,2.9-7.6,5-12.6,4.2c-1.4-0.2-2.8-0.2-3.8-1.5c-24,0-48.1,0-72.1-0.1C107.6,210.2,106.4,210.9,105.6,212.6z"/>
	<path class="st26" d="M263.6,210.2c-10.6,0-21.2,0-31.7,0c-2.9-4.1-1.4-8.2-0.1-12.3c4.2-3.5,7.9-7.2,9.3-12.7
		c0.2-0.8,0.9-1.2,1.6-1.5c6.4-0.1,12.8-0.7,19.1,0.3c1.8,1.3,2,3.3,2.2,5.2c0.6,5.6,0.4,11.3,1.1,17
		C265.3,207.6,265.1,209.2,263.6,210.2z"/>
	<path class="st26" d="M286.4,207.3c-2.1,4.9-6.4,2.4-9.8,3c-2.6,0.5-2.7-1.7-3.5-3.1c-1-0.5-1.4-1.5-1.5-2.5
		c-0.9-6.8-1-13.6-1.4-20.3c0-0.5,0.2-1,0.4-1.5c5.1-3,8.6-7.4,11.3-12.6c3-1.1,4.3-4.5,7.3-5.6c3.5,0.6,3.3,3.3,3,5.7
		c-1.2,8.5-2,17.1-3.3,25.7c-0.4,2.6-0.6,5.3-1.3,7.9c0.1,0.1,0.2,0.3,0.4,0.4c0.8,0.9,0.7,1.9,0.1,2.8
		C287.5,207.6,287,207.6,286.4,207.3z"/>
	<path class="st2" d="M271.5,182.3c0.5,8.3,1.1,16.6,1.6,24.8c-0.4,2.6,0.5,5.1,0.6,7.7c0.1,2.2-0.5,3.2-3,3.3
		c-6.7,0.2-6.7,0.3-7.2-7.9c-0.5-8.5-1.1-17.1-1.6-25.6c-0.6-0.7-1-1.4-1.1-2.3c-0.6-4.1-2.5-8.3,0.6-12.2c3.1-1.3,6.1-1.4,9.2,0.1
		c2.5,2.8,2.4,6.2,1.9,9.6C272.6,180.8,272.2,181.6,271.5,182.3z"/>
	<path class="st5" d="M232.7,197.9c-0.8,4.1-1,8.2-0.8,12.4c-0.2,1.5-0.7,3-0.7,4.5c0.1,2.5-1,3.3-3.4,3.3c-6.2,0.1-6.8-0.5-5.7-6.7
		c0.4-1.9,0.5-3.8,0.3-5.7c-1.5-1.2-1.4-2.8-1.2-4.4c0-0.9,0-1.8,0.1-2.6c0.7-4.6,0.1-9.2,0.8-13.8c0-0.6,0-1.3,0.1-1.9
		c0.5-2.6,0.1-5.3,0.5-7.9c0.3-1.9,0.5-3.8,2.3-5c3-1.1,5.9-1.2,8.8,0.1c1.9,1.5,1.6,3.6,1.4,5.6c-0.2,2.2-0.3,4.3-0.7,6.5
		c0,0.8,0,1.7-0.1,2.5c0.2,3.7-0.8,7.3-0.8,11C233.8,196.5,233.3,197.2,232.7,197.9z"/>
	<path class="st13" d="M181.6,210.3c2.5,0,4.9,0,7.4-0.1c1.9-0.1,4,0.7,4.9-2.2c0.4-1.5,2.6-0.4,3.9-0.9c3.1-2.5,6.6-1.4,10-1.1
		c2.3,0.6,3.7,1.7,2.4,4.3c-0.2,7.9-0.2,7.9-8.4,7.9c-7.3,0-14.7,0-22-0.1c-1.2,0-2.8,0.7-3.4-0.8c-0.5-1.2,0.5-2.4,1.1-3.6
		C178.4,211.9,180.2,211.4,181.6,210.3z"/>
	<path class="st13" d="M286.4,207.3c0.5-0.1,0.9-0.1,1.4-0.2c3.4-2.2,6.7-2.2,10,0.1c1.9,0.4,4.6-0.8,5,2.7c0,0.2,1.6,0.4,2.5,0.4
		c2.9,0.1,5.9,0.1,8.8,0.1c2.4,1.2,4.5,2.6,5.3,5.3c0.5,1.5,0.1,2.5-1.7,2.5c-9.8,0-19.6,0.1-29.4,0.1c-1.7,0-2.3-0.9-2.2-2.4
		C286.1,212.9,286.2,210.1,286.4,207.3z"/>
	<path class="st26" d="M210.2,210.3c-0.4-1.3-0.2-3.1-2.3-3.2c-0.9-1-1-2.2-0.4-3.4c3.2-4.3,10.1-5.6,15.2-2.8
		c0,1.6-0.1,3.1-0.1,4.7c-0.2,4.4-3,5.1-6.6,4.7C214,210.1,212.1,210.3,210.2,210.3z"/>
	<path class="st27" d="M245.8,94.6c1.3,0,2.6,0,4,0c1-0.9,2.1-1.4,3.5-1.4c7.4,0,14.8-0.3,22.3,0.2c1.2,0.1,2.3,0.1,3.5,0
		c7.2-0.4,11.6,3.8,11.3,10.9c-0.1,1.3-0.1,2.6-0.4,3.8c-1.1,3.6,0.1,7.7-2.8,10.8c-0.2,1.8-0.5,3.5-0.7,5.3
		c-0.9,4.3-0.1,9.1-3.9,12.4c-0.2,0.9-0.7,1.5-1.5,1.9c-1.3,0.8-2.7,1.1-4.3,0.9c-2.4,0.2-4.7,0.5-7,0.7c-2.8,0.5-5.5,0.6-8.2-0.1
		c-6.1-1.4-12.3-0.5-18.5-0.8c-2.9-0.3-5.8,0.5-8.7,0.7c-2.9,0.4-5.8,0.6-8.7,0.1c-2.5-0.1-5-0.9-7.6-0.6c-7.4-1.3-11-8-8.4-15.4
		c0.1-1.8-0.3-3.5-0.8-5.2c-2.5-3.4-2.4-7.2-1.5-11c0-1,0-2,0-3.1c-0.1-7.1,2.3-9.6,9.4-10.2c1-0.5,1.9-0.8,2.9,0
		C228.2,94.6,237,94.6,245.8,94.6z"/>
	<path class="st28" d="M287.6,203.9c-1.8-0.8-0.9-2.2-0.7-3.4c1.2-10.4,2.6-20.7,3.8-31.1c0.2-1.6,1.7-4.5-2.2-4.3
		c-3.7-4-8.6-3.8-13.4-4c-5-0.3-5.5-0.9-5.6-5.8c0-1.2,0-2.3,0-3.5c0-5.5,0-5.5,5.4-7.1c0.4,0,0.9-0.1,1.3-0.1
		c1.5-0.4,3.1-0.4,4.6,0c1,0,1.7,0.5,2.3,1.1c5,0.1,10.1,0.1,15.1,0.2c9.5,0.1,13.4,4.9,11.6,14.1c-2.7,13.5-5.4,27-7.9,40.5
		c-0.5,2.5-1.4,3.1-3.8,3C294.5,203.4,291,203.1,287.6,203.9z"/>
	<path class="st29" d="M283.1,145.9c-0.8,0-1.5,0-2.3,0c-2.4-2.8-2-5.5,0.1-8.3c0.5-0.3,1-0.6,1.5-0.9
		C283.8,139.6,282.8,142.8,283.1,145.9z"/>
	<path class="st30" d="M311.1,29.9c8.1,0,16.2,0,24.4,0c2.5,0,3.5,1.1,3.5,3.5c0,10.6-0.1,21.2,0,31.7c0,2.8-1.4,3.7-3.8,3.7
		c-16.1,0-32.2-0.1-48.3-0.1c-2.4,0-3.5-1-3.5-3.5c0.1-10.6,0-21.2,0-31.7c0-2.2,0.7-3.6,3.4-3.5c8.1,0.2,16.2,0.1,24.3,0.1
		C311.1,30,311.1,30,311.1,29.9z"/>
	<path class="st11" d="M287.6,107.9c0-0.8,0-1.5,0-2.3c0.8-7.4-1.9-10.6-9.2-11c-1-0.5-2-1.4-3,0c-8.6,0-17.2,0-25.8,0
		c-0.3-3,0.7-5.4,2.5-7.8c6.3-8.3,12.4-16.8,18.6-25.2c0.8-0.9,1.6-0.9,2.4,0c3.5,0.7,5.5,3.2,7.5,6c2.4,3.4,5,6.8,7.5,10.1
		c1.1,0.9,2.3,1.5,3.2,2.7c1.8,2.5,3.6,5.2,5.4,7.7c3.4,4.7,6.7,9.5,10.2,14.2c1.2,1.7,2.3,3.4,1.8,5.6c0,0.3,0,0.6,0.1,0.8
		c0.3,1.3,0.8,2.6-0.1,3.8c-2.9,5.5-5.4,6.9-11.4,6.2C291.6,117.5,289.6,112.7,287.6,107.9z"/>
	<path class="st10" d="M310.3,107.9c-3-5.9-7.6-10.6-11.2-16.1c-0.7-1.1-1.4-2.2-2.1-3.2c1.1-1.6,2.8-1.5,4.5-1.6
		c8.6-0.2,17.1,0.3,25.7-0.3c1.2-0.1,2.3,0.3,3.2,1.1c0.5,0.9,2.6,2.2-0.4,2.2c-1.3,0-2.5-0.4-4.1,1.8c5.7-1.8,5.8,4.7,9.9,5.3
		c-0.1,0.1-0.1,0.2-0.2,0.3c-0.9,1.5-4,1.7-3.1,4.2c0.9,2.4,3.5,1.5,5.4,1.8c3.8,0.5,7.4-0.6,11-1.7c0.2,0.5,0.2,1,0.5,1.5
		c2.5,5.1,1.2,7.1-4.3,7.1c-0.6,0-1.3,0-2.1,0c-0.1-1.6,2.8-2.2,1.4-3.9c-1-1.3-2.6-0.7-4-0.8c-1.9-0.1-3.9,0-5.8,0
		c-1.3,0-2.7,0.5-2.4,1.9c0.8,3.3-1.9,3.1-3.4,3.2c-3.7,0.3-7.5,0.3-11.2,0.1c-3-0.2-5.4-1.4-4.1-5.2
		C311.3,105.4,311.3,107.3,310.3,107.9z"/>
	<path class="st31" d="M330.4,87.7c-11.1,1.7-22.2,0.4-33.4,0.8c-2.2-2.3-4-4.8-5.4-7.6c-0.6-1.1-0.9-2.2,0-3.2
		c3.4,0.8,6.9-0.1,10.4,0c7.9,0.2,15.7,0.3,23.6,0c4.1-0.2,5.3,1.3,4.8,5.1C330.2,84.3,330.4,86,330.4,87.7z"/>
	<path class="st32" d="M349,101.7c-1.5,2.5-3.5,3.5-6.4,3.2c-2.2-0.2-4.4-0.1-6.6,0c-2.7,0.1-5.3-0.4-5.4-3.6
		c-0.1-3.2,2.3-4.3,5.2-4.2c0.8,0,1.6,0,2.3,0c2.4-1.3,5-0.8,7.5-0.9c2.4-0.1,2.8,2.2,3.3,4C349,100.7,349,101.2,349,101.7z"/>
	<path class="st10" d="M349,100.2c-2.5-4.7-7.1-2.7-10.8-3.2c1-1.9,2.8-1.4,4.5-1.5c0.8-0.1,1.7-0.1,1.8-1c0.1-1.1-0.8-1.7-1.7-1.8
		c-2.4-0.2-4.8-0.3-7.3-0.7c3.9-0.4,7.9-0.3,11.8-1c1.9-0.3,3.3,0.7,3.2,3.3C350.3,96.4,349.4,98.2,349,100.2z"/>
	<path class="st33" d="M291.6,77.7c0,1.1,0,2.2,0,3.2c-1.2-0.7-2-1.8-2.4-3.2C290,77.7,290.8,77.7,291.6,77.7z"/>
	<path class="st10" d="M310.2,112.6c0-1.3,0.1-2.5,0.1-3.8c0.4,1.3,2.1,2.1,1.4,3.8C311.3,112.6,310.7,112.6,310.2,112.6z"/>
	<path class="st34" d="M187.8,103.4c-3.7-3.8-4.3-7.9-1.9-12.1c2-3.5,6.1-5,10.6-4.1c0.9,0.2,1.7,0.4,2.6,0.6
		C195.6,93.2,192,98.5,187.8,103.4z"/>
	<path class="st35" d="M207.1,107.8c1.1,3.6,1.6,7.3,1.5,11c-3.9,0-7.7-0.1-11.6-0.1C201.7,116.3,203.4,111.2,207.1,107.8z"/>
	<path class="st33" d="M219.4,94.6c-1,0-1.9,0-2.9,0c0.7-1.2,1.2-2.5,2.6-3.3C219.9,92.4,219.4,93.5,219.4,94.6z"/>
	<path class="st36" d="M384.6,188.6c0.2,1.9-0.4,3.9,0.9,5.6c1.4,1.9,3.2,3,5.6,2.8c3-0.2,4.5-2.1,5.5-4.7c0.3-0.8,0.7-1.6,1-2.4
		c4.8,4.1,3.1,10.7,0.1,13.8c-3.7,4-10.6,3.5-14.5-0.7C379.4,198.9,380,192.7,384.6,188.6z"/>
	<path class="st26" d="M209.5,124.1c0.3,2.2,0.6,4.3,0.9,6.5c0.7,4.6,3,6.9,7.8,7.7c3.2,1.9,3.6,3.6,1.7,7.8
		c-1.6,1.5-3.5,1.4-5.5,1.4c-5.4,0-10.8-0.1-16.2,0c-8.1,0.1-11.5,4.3-10,12.2c1,5.6,2,11.1,3.1,16.7c0.4,2.2,1.4,4.6-0.6,6.6
		c-0.9,0.6-2,0.5-3,0.6c-6.8,0.2-7.6-0.8-5.5-7.3c0.5-1.5,0.5-3,0.5-4.6c0-14.2,0-28.4,0-42.6c0-1.6-0.4-3.4,1-4.7
		c0.1-0.1,0.2-0.2,0.3-0.3C192.5,124,201,124.1,209.5,124.1z"/>
	<path class="st1" d="M126.3,104.9c-1.2,1.5,0.4,2.9,0.2,4.4c-0.7,2.8-2.4,3.8-5.3,3.4c-2.1-0.3-4.3-0.1-6.5-0.1
		c0-5.2,0.1-10.3,0-15.5c0-2.3,0.8-3.4,3.1-3.2c0.8,0.1,1.6,0.1,2.3,0c3.3-0.5,5.7,0.4,6.2,4.1c-0.8,1.5-1.2,2.9-0.2,4.5
		C127.2,103.2,127.1,104,126.3,104.9z"/>
	<path class="st26" d="M126.4,109.5c3.4,0.5,6-0.8,7.7-3.8c2.1,3.3,5.6,5,8.8,6.9c-4.5,0-9,0-13.6,0.1
		C127,112.7,126,111.8,126.4,109.5z"/>
	<path class="st37" d="M106.3,99.4c1.3,0,2.5,0,3.8,0c0,4.4,0.1,8.8,0.1,13.2c-1.3,0-2.6,0-3.9,0
		C106.3,108.2,106.3,103.8,106.3,99.4z"/>
	<path class="st38" d="M147.7,105.6c-4.9,0-9.3-4.2-9.4-8.9c-0.1-5.4,4.3-9.8,9.8-9.8c5.6,0.1,9.5,4,9.4,9.5
		C157.4,102,153.5,105.7,147.7,105.6z"/>
	<path class="st39" d="M170.8,104c-9.5,0-9.4,0-9.5-9.7c0-3.4,1-4.6,4.4-4.4c4,0.3,8,0.1,12,0c2.1,0,3.2,0.7,3,2.9
		c0,0.3,0,0.5,0,0.8C181,104,181,104,170.8,104z"/>
	<path class="st26" d="M163.1,79.9c0.3-4,2.5-6.4,6.4-7c4.2-0.7,6.7,0.9,9.1,5.5c-0.7,1.8-2.2,1.4-3.6,1.4
		C171.1,79.9,167.1,79.9,163.1,79.9z"/>
	<path class="st35" d="M288.5,107.9c1.9,1.1,2.7,3.1,3.9,4.7c1.7,2.5,3.6,4.6,6.2,6.2c-3.9,0-7.7,0.1-11.6,0.1
		C287.1,115.2,287.7,111.5,288.5,107.9z"/>
	<path class="st26" d="M126.3,104.9c0-0.8,0-1.6,0-2.4c1.2-1.2,2.5-1.1,3.6,0.1c0.6,0.6,0.6,1.5,0,2.1
		C128.8,105.8,127.6,106,126.3,104.9z"/>
	<path class="st28" d="M190.7,182.4c-1.4-7.4-2.8-14.9-4.3-22.3c-1.8-8.9,2.3-13.9,11.4-14c7.2-0.1,14.4-0.1,21.6-0.2
		c1.9-1.3,3.6-0.7,5.4,0.2c0.3,0.3,0.6,0.6,0.8,1c0.7,3.4,0.3,6.9,0.3,10.3c0,2.2-1.2,3.2-3.3,3.5c-1.8,0.2-3.6,0.7-5.3,0.4
		c-4.3-0.6-7.5,0.8-9.6,4.6c-0.7,0.6-1.1,1.3-0.9,2.4c0.9,5.5,1.4,11.1,2,16.7c0.7,4.7,1.9,9.4,1.6,14.3c-1.4,5-1.7,5.2-7.4,5.3
		c-2.9,0-5.7-0.2-8.4-1.4c-0.1-0.7-0.2-1.4-0.3-2c-0.6-0.8-1.5-1.4-1.7-2.5c-1.3-4.9-2.6-9.8-2.5-15
		C190.4,183.1,190.5,182.7,190.7,182.4z"/>
	<path class="st12" d="M190.7,182.4c0.2,0.2,0.2,0.4,0.2,0.7c0.7,2.5-1.3,3.2-2.8,3c-5.8-0.9-10.2,2.2-14.9,4.8
		c-5.6,3.1-11.8,3.1-17.9,1.6c-0.8-0.5-1.3-1.3-1.1-2.3c2.5-1.6,5.3-0.7,7.9-0.8c4.5-0.2,8.7-1,12.4-3.7c1.9-1.4,3.1-2.7,0.2-4.6
		c-1.9-1.2-3.7-3-4.9-4.9c-1.6-2.6-3.1-4.6-6.6-4.1c-1.2,0.2-1.9-0.6-1.9-1.9c0-0.9,0-1.8,0-2.7c0-9.7,0.9-10.5,10.5-9.1
		c1.7,0.2,2.6,1,2.6,2.7c0,2.8,0,5.7,0,8.5c0,0.8-0.1,1.8-0.9,2c-4.4,1.1-1.8,3.2-0.6,4.7c1.5,1.9,3.5,4.3,5.9,3.6
		c1.9-0.6,1.9-3.7,2.4-5.8c0.3-1.2,0.2-2.6,0.2-3.9c0-14.2,0-28.4,0-42.6c0-1.5-0.6-3.7,2.2-3.5c0,16.3,0.1,32.7,0.1,49
		c0,2.1-0.7,4-1.4,6c-0.9,2.2-0.1,3.1,2.2,3.1C186.6,182.3,188.7,182.4,190.7,182.4z"/>
	<path class="st40" d="M154.2,190.1c0.3,0.5,0.7,1,1,1.5c6.4,4,13.1,6.3,20.9,5.6c4.2-0.4,8.5-0.1,12.8-0.1c1.8,0,3.6,0,5,1.6
		c0.2,0.8,0.4,1.6,0.6,2.4c-7.2,0-14.5-0.2-21.7,0c-8.6,0.3-15.7-2.4-20.9-9.4c-1-0.7-2.2-1.4-1.5-3c-1.2-4.4-0.6-9-0.7-13.4
		c-0.1-1.8-0.1-3.6-2.4-3.6c-2.8,0-3.1-1.5-3-3.7c0.3-10.3-1.7-8.6,9.1-8.8c2.5-0.1,3.5,0.9,3.4,3.4c-0.1,1.8-0.1,3.6,0,5.4
		c0.1,2.2-0.2,3.8-3,3.7c-1.5,0-2.3,0.9-2.4,2.5C151.2,179.6,151.2,185.1,154.2,190.1z"/>
	<path class="st41" d="M150.4,188.7c0.5,1,1,2,1.5,3c-10.9-1-16.8-6-19.4-16.6c-0.4-1.7-1.1-2.9-3-2.8c-2.4,0.1-3.1-1.3-3-3.5
		c0-0.3,0-0.5,0-0.8c0.2-11.1-2-9.4,10.4-9.6c2,0,2.8,0.8,2.7,2.8c-0.1,2.3-0.1,4.6,0,7c0.1,2.5-0.1,4.4-3.4,4.1
		c-2.2-0.2-1.5,1.7-1.3,2.8C135.8,182.5,142.2,188.1,150.4,188.7z"/>
	<path class="st42" d="M194.8,203c4.3,0.9,8.6,0.4,12.9,0.3c3.4-0.1,1.1-3.2,1.8-4.7c4.4-2.5,8.8-2.4,13.2,0c0,0.8,0,1.5-0.1,2.3
		c-5.2,0-10.6-1.1-14.9,3.3c-3.2,2.1-6.5,2.1-9.7,0C196.8,204,195.5,204.4,194.8,203z"/>
	<path class="st12" d="M198,204.2c3.2,0,6.5,0,9.7,0c0.1,1,0.1,1.9,0.2,2.9c-3.3,0-6.7,0-10,0C197.9,206.2,197.9,205.2,198,204.2z"
		/>
	<path class="st12" d="M233.5,184.7c0-0.7,0.1-1.5,0.1-2.2c1.9-2.1,4.3-1.7,6.7-1.4c1,0,1.9,0,2.9-0.1c5-0.5,10-0.2,15.1-0.2
		c1.5,0,2.8,0.4,3.8,1.6c0,0.7,0,1.5,0,2.2c-6.7,0-13.4,0.1-20.1,0.1c-0.7,0.7-1.5,1.1-2.5,1.1C237.3,186.3,235.2,186.5,233.5,184.7
		z"/>
	<path class="st42" d="M239.7,184.8c0.8,0,1.5,0,2.3,0c-0.5,6.2-4.1,10.2-9.2,13.1c0-0.8,0-1.6,0.1-2.4
		C234.9,191.7,237,188.1,239.7,184.8z"/>
	<path class="st43" d="M207.2,165.1c1.4-4.3,4.2-6.1,8.8-5.4c2.4,0.3,4.8-0.3,7.3-0.2c1.9,0,47.4,0,53.8,0.3c1.2,0.1,2.3,0.1,3.5,0
		c4.2-0.5,7,1.1,7.9,5.4c-0.8,3.3-2.6,5.4-6.2,5.7c-0.8,0.6-1.5,1.1-2.6,1c-3,0.2-6.2,1.4-8.9-1c-3.2,0-6.3,0-9.5,0
		c-1.1,1.1-2.4,1.5-3.8,1.5c-4.7,0-9.5,0.3-14.2-0.2c-1-0.1-1.9,0-2.9-0.1c-2.2,0.3-4.3,0.6-6.1-1.2c-3.2,0-6.3,0-9.5,0
		c-4.7,2.5-9.7,2-14.4,0.4C207.8,170.4,206.3,168.1,207.2,165.1z"/>
	<path class="st44" d="M280,170.8c0.8,0,1.5,0,2.3,0c-2.1,5.2-4.4,10.2-10.7,11.5c0-0.7,0-1.5,0-2.2
		C274.2,176.9,276.5,173.3,280,170.8z"/>
	<path class="st26" d="M242.8,170.8c6.2,0,12.4,0,18.5,0c0.2,3.9,0.5,7.7,0.7,11.6c-6.4-0.1-12.9-0.1-19.3-0.2
		C241,178.4,240.9,174.6,242.8,170.8z"/>
	<path class="st26" d="M280,170.8c-2,3.9-4.2,7.5-8.4,9.3c-0.3-3.1-0.5-6.2-0.8-9.2C273.9,170.8,276.9,170.8,280,170.8z"/>
	<path class="st26" d="M207.2,165.1c1.3,4.4,4.2,6,8.7,5.7c2.9-0.2,5.9,0,8.9,0.1c-0.8,4.1,0,8.3-1.4,12.3
		c-3.6,0.7-7.1,0.2-10.7,0.4c-1.4,0.1-2.9-0.5-4,0.8c-0.3,0.3-0.7,0.4-1.1,0.5c-0.7-5.8-1.5-11.6-2.2-17.5
		C205.3,166,205.6,165.1,207.2,165.1z"/>
	<path class="st26" d="M222.7,198.6c-4.4,0-8.8,0-13.2,0c-1-4.5-1.5-9.2-1.8-13.8c0.1-0.1,0.2-0.2,0.4-0.3
		c5.1-1.5,10.2-1.8,15.3,0.2C223.5,189.4,223.6,194,222.7,198.6z"/>
	<path class="st26" d="M234.3,170.8c2,0,4.1,0,6.1,0c1.9,3.8,1.8,7.6,0.1,11.4c-2.3,0-4.6,0.1-6.9,0.1
		C233.8,178.5,234.1,174.7,234.3,170.8z"/>
	<path class="st26" d="M239.7,184.8c-0.8,4.5-3.2,8-6.9,10.7c-0.4-3.6,0.4-7.2,0.7-10.8C235.6,184.7,237.6,184.7,239.7,184.8z"/>
	<path class="st41" d="M223.4,184.7c-5.1-0.1-10.2-0.1-15.3-0.2c-0.1-0.9-0.1-2,1.1-2c4.8,0.2,9.6-1.1,14.3,0.7
		C223.4,183.7,223.4,184.2,223.4,184.7z"/>
	<path class="st5" d="M270.2,146.7c-0.1,3.7-0.3,7.4-0.2,11.1c0,2.6-0.8,3.8-3.2,3.5c-2-0.3-4.1,0.6-6.1-0.2
		c-2.6-2.5-1.5-5.8-1.7-8.8c-0.1-1.6,0.2-3.1,0.3-4.7c0.1-1.8,0.1-3.6,0-5.4c-0.1-1.6,0.2-3,1.9-3.5c2.9,0,5.9,0.1,8.8,0.1
		C272.1,141.4,271.8,144.1,270.2,146.7z"/>
	<path class="st45" d="M234.5,147.3c-0.1,3.6-0.2,7.3-0.2,10.9c0,3.7-2.5,2.8-4.4,2.8c-1.9,0-4.2,0.8-4.3-2.9
		c-0.1-3.6,0.8-7.2-0.6-10.7l0.1-0.3c-1.4-2.9-1.5-5.6,0.5-8.3c2.9,0,5.8,0,8.7,0C236.5,141.6,236.3,144.4,234.5,147.3z"/>
	<path class="st15" d="M225.6,138.8c0,2.5,0.5,5.1-0.5,7.6c-1.9,0.2-3.8-0.1-5.6-0.6c-0.6-2.5,1.3-5.4-1.3-7.5
		C220.6,138.3,223.2,137.8,225.6,138.8z"/>
	<path class="st15" d="M270.2,146c-0.1-2.4-0.1-4.8-0.2-7.2c2.2-1,4.5-0.6,6.8-0.4c1.2,2.6,1.2,5-0.6,7.4
		C276,145.9,271.9,146,270.2,146z"/>
	<path class="st26" d="M276.3,145.8c0.4-2.4-0.8-5,0.6-7.4c1.3-0.3,2.7-0.5,4-0.8c0,2.8-0.1,5.5-0.1,8.3
		C279.3,146.1,277.8,146.1,276.3,145.8z"/>
	<path class="st46" d="M276.2,94.6c0-1,0-1.9,0-3.2c2,0.5,2.3,2,3,3.2C278.2,94.6,277.2,94.6,276.2,94.6z"/>
	<path class="st47" d="M315.6,37.4c-3.7,0-7.5,0-11.2,0c-0.9,0-1.9,0.2-2-1.2c-0.1-1.4,0.6-1.8,1.9-1.8c7.9,0,15.7,0,23.6,0
		c1,0,1.7,0.3,1.8,1.5c0.1,1.6-1,1.5-2.1,1.5C323.6,37.4,319.6,37.4,315.6,37.4z"/>
	<path class="st48" d="M304.5,59.9c3.3,0,6.7,0,10,0c1.2,0,2.8-0.4,2.8,1.6c0,1.8-1.5,1.4-2.5,1.5c-6.9,0-13.9,0-20.8,0
		c-1.1,0-2.5,0.3-2.4-1.6c0.1-1.8,1.4-1.5,2.5-1.5C297.5,59.9,301,59.9,304.5,59.9z"/>
	<path class="st49" d="M302.4,54.5c-3,0-5.9,0-8.9,0c-1.1,0-2.1-0.1-2-1.7c0.1-1.2,0.8-1.5,1.8-1.5c6.1,0,12.1,0,18.2,0
		c1,0,1.7,0.3,1.8,1.5c0.1,1.5-0.9,1.6-2,1.6C308.3,54.6,305.4,54.5,302.4,54.5z"/>
	<path class="st48" d="M320.7,46c-2.2,0-4.4,0-6.5,0c-1,0-1.7-0.3-1.7-1.5c0-1.2,0.6-1.6,1.7-1.6c4.6,0,9.2,0,13.8,0
		c1,0,1.7,0.4,1.7,1.6c0,1.2-0.7,1.5-1.7,1.5C325.6,46,323.1,46,320.7,46z"/>
	<path class="st48" d="M300.2,46c-2.3,0-4.6,0-6.9,0c-1,0-1.7-0.3-1.7-1.5c0-1.2,0.6-1.6,1.7-1.6c4.6,0,9.2,0,13.8,0
		c1,0,1.7,0.4,1.7,1.6c0,1.2-0.7,1.5-1.7,1.5C304.8,46,302.5,46,300.2,46z"/>
	<path class="st50" d="M324.9,63.3c-1.6-0.8-4.7,1.1-4.8-1.5c-0.2-3.3,3.1-1.7,4.8-1.7c1.8,0,5.2-1.7,5.1,1.6
		C329.9,64.5,326.6,62.4,324.9,63.3z"/>
	<path class="st51" d="M320.1,54.7c-1.3-0.7-3.9,1.1-4-1.6c0-2.6,2.5-1.5,4-1.5c1.4,0,4-1.1,3.8,1.6
		C323.8,55.6,321.4,54.1,320.1,54.7z"/>
	<path class="st52" d="M295.4,37.3c-0.9,0-1.8,0-2.7,0c-1,0-1.4-0.7-1.2-1.5c0.6-2.6,2.7-1.3,4.1-1.4c1.3,0,3.3-1.1,3.7,1.4
		c0.1,0.9-0.2,1.5-1.2,1.5C297.2,37.3,296.3,37.3,295.4,37.3z"/>
	<path class="st53" d="M328,101c-0.1,1.4-0.9,2.2-2.2,2.2c-1.4,0-2.2-0.7-2.2-2.1c0-1.6,0.9-2.4,2.4-2.3
		C327.3,98.8,328,99.7,328,101z"/>
	<path class="st26" d="M193.9,198.6c-8.1,0-16.2,0.1-24.4,0c-5.8-0.1-10.8-2.1-14.3-7c6.5,0.1,13.1,0.8,19-2.8c4.1-2.5,9-3.8,13.6-4
		c1.3-0.1,2.6,0,3-1.6C192.1,188.2,193.3,193.4,193.9,198.6z"/>
	<path class="st42" d="M240.5,182.3c0-3.8,0-7.6-0.1-11.4c0.8,0,1.6,0,2.4,0c0,3.8,0,7.6-0.1,11.4
		C242,182.3,241.2,182.3,240.5,182.3z"/>
	<path class="st15" d="M203.2,82.4l13.4,12.2l2.6-3.3l0.4,3.3l56.7,0v-3.2l3,3.2l13.2-11.5l-12.1-17.2c-1.3-1.3-3.9-3.7-7.9-4.5
		c-1.2-0.3-2.4-0.3-3.3-0.3c-1.7-1.2-3.4-2.4-5.2-3.5l-6.3-2.7c-1.7,0.9-5,2.5-9.5,2.6c-4.9,0.1-8.6-1.5-10.3-2.4
		c-3.3,2.1-6.5,4.3-9.8,6.4c-1.3-0.2-7.1-1-11,2.6c-0.5,0.5-1.1,1.1-1.6,1.9C211.3,71.5,207.2,76.9,203.2,82.4z"/>
	<path class="st54" d="M248.4,0c12.9,1.1,21.4,7.8,18,18.7c-2.7-0.3-4.3,1.2-5.4,3.4c-1.8,3.5-1.2,7.2-0.6,10.9
		c1.1,6.7-1.9,11-8.7,11.4c-5.4,0.4-10.3-1.2-13.4-6c-2.6-4-3.7-7.9,1.8-10.4c-1.8-2.4-6.3-4.3-4.4-6.9c4.6-6.2-1.3-8.6-3.2-12.5
		c0.4-0.8,0.8-1.7,1.2-2.5c0.6-0.7,1.1-1.3,1.7-2c0.2-1,0.9-1.3,1.8-1.4c-0.2,7.4,5.3,2.1,7.8,3.4c0.5,0.3,1,0.6,1.5,0.9
		c0.1-0.2,0.2-0.4,0.2-0.6c-0.6-0.1-1.1-0.1-1.7-0.2C245.1,3.5,248,2.5,248.4,0z"/>
	<path class="st55" d="M232.5,8.6c1.9,3.9,7.8,6.3,3.2,12.5c-1.9,2.6,2.7,4.5,4.4,6.9c-5.5,2.6-4.5,6.5-1.8,10.4
		c3.2,4.8,8.1,6.4,13.4,6c6.7-0.5,9.7-4.7,8.7-11.4c-0.6-3.7-1.2-7.4,0.6-10.9c1.1-2.1,2.7-3.6,5.4-3.4c-0.4,3.4-0.9,6.7-1.3,10.1
		c-1,4.5-2,8.9-3,13.4l0.2,0c-9,7.9-15.9,9-23.7,3.8c-4.7-4.7-4.5-11.7-7.5-17.2C229.9,22,225.9,14.9,232.5,8.6z"/>
	<path class="st11" d="M238.7,45.9c7.8,5.2,14.7,4.1,23.7-3.8c-0.2,4.2-1.9,8.3-1.4,12.7c-7.9,2.4-15.7,3-23.5-0.4
		C237.7,51.6,236.7,48.5,238.7,45.9z"/>
	<path class="st35" d="M237.5,54.4c-0.3,0.2-0.6,0.3-0.9,0.3c0-6.2-2.5-11.5-5.5-16.8c-1.5-2.6-4.7-6.1,0.1-9
		c3,5.5,2.8,12.4,7.5,17.2C236.7,48.5,237.7,51.6,237.5,54.4z"/>
	<path class="st55" d="M245,6.1c-2.5-1.3-8,4-7.8-3.4c3.6-1.7,7.3-2.8,11.3-2.7C248,2.5,245.1,3.5,245,6.1L245,6.1z"/>
	<path class="st35" d="M262.2,42.2c1-4.5,2-8.9,3-13.4c1.8,0.3,3.7,1.5,2.8,3.1C266.2,35.4,266.6,40.2,262.2,42.2z"/>
	<path class="st54" d="M235.4,4.1c-0.6,0.7-1.1,1.3-1.7,2C233.8,5.1,234,4.1,235.4,4.1z"/>
	<polygon class="st15" points="234.9,146.7 234.3,138.8 261.3,138.7 260.6,146.5 	"/>
	<path class="st12" d="M287.9,203c3.2,0,6.5,0,9.7,0c0.1,1.3,0.1,2.6,0.2,3.9c-3.3,0-6.7,0-10,0C287.8,205.5,287.9,204.2,287.9,203z
		"/>
	<polygon class="st28" points="234.9,146.7 233.7,160.5 260.7,161.1 260.6,146.5 	"/>
	<g>
		<circle class="st56" cx="52.9" cy="186.8" r="51.7"/>
		<ellipse class="st57" cx="52.9" cy="186.8" rx="42.4" ry="41.9"/>
		<circle class="st56" cx="52.9" cy="186.8" r="33.2"/>
		<circle class="st58" cx="52.9" cy="186.8" r="24.7"/>
		<path class="st59" d="M53,166.7c0.7,2,1.4,3.9,2,5.9c1,2.8,1.9,5.5,2.9,8.3c0.2,0.6,0.6,0.8,1.2,0.8c4.6,0.1,9.1,0.2,13.7,0.3
			c0.1,0,0.2,0,0.2,0c0.3,0,0.7-0.1,0.8,0.2c0.1,0.3-0.3,0.4-0.5,0.6c-3.8,2.9-7.5,5.8-11.3,8.7c-0.4,0.3-0.4,0.6-0.3,1.1
			c1.3,4.5,2.7,9,4,13.5c0.1,0.2,0.3,0.6,0,0.8c-0.2,0.2-0.5-0.1-0.7-0.3c-3.9-2.7-7.7-5.4-11.6-8c-0.4-0.3-0.7-0.3-1.1,0
			c-3.9,2.7-7.8,5.4-11.7,8.1c-0.2,0.1-0.4,0.4-0.7,0.2c-0.2-0.2,0-0.5,0-0.7c1.3-4.4,2.6-8.8,3.9-13.1c0.3-0.8,0.2-1.3-0.6-1.9
			c-3.7-2.8-7.4-5.6-11-8.4c-0.2-0.1-0.5-0.2-0.4-0.5c0.1-0.3,0.4-0.2,0.6-0.2c4.7-0.1,9.5-0.2,14.2-0.3c0.7,0,0.9-0.2,1.1-0.8
			c1.5-4.4,3.1-8.9,4.7-13.3C52.6,167.2,52.6,166.9,53,166.7z"/>
		<path class="st60" d="M16.3,150.3l36.6,36.4l-27.7,43.6c-2.3-1.4-21.8-14.2-23.9-39.1C-0.8,167.9,14.1,152.4,16.3,150.3z"/>
		<path class="st60" d="M43.6,136.2l9.2,50.8l6.8-51.2c-2.2-0.6-5.4-1.1-9.2-0.9C47.7,135.2,45.4,135.7,43.6,136.2z"/>
		<path class="st60" d="M43.6,237.2l9.2-50.8l6.8,51.2c-2.2,0.6-5.4,1.1-9.2,0.9C47.7,238.2,45.4,237.7,43.6,237.2z"/>
		<path class="st60" d="M89.9,150.3l-36.6,36.4L81,230.4c2.3-1.4,21.8-14.2,23.9-39.1C107,167.9,92.1,152.4,89.9,150.3z"/>
	</g>
</g>
</svg>
