<?xml version="1.0" encoding="utf-8"?>
<!-- Generator: Adobe Illustrator 19.0.0, SVG Export Plug-In . SVG Version: 6.00 Build 0)  -->
<svg version="1.1" id="Camada_1" xmlns="http://www.w3.org/2000/svg" xmlns:xlink="http://www.w3.org/1999/xlink" x="0px" y="0px"
	 viewBox="0 0 1186.9 992.2" enable-background="new 0 0 1186.9 992.2" xml:space="preserve">
<g>
	<path fill="#85B03D" d="M736.4,807.5c35.8,6.7,70.5,16.8,102.4,35c11.5,6.6,22.1,14.4,30.3,25.1c12.5,16.4,12.8,33.5,0.6,50.2
		c-9.4,12.8-22.2,21.6-36,28.8c-40.2,21.2-83.9,31.1-128.4,37.7c-55,8.2-110.3,10-165.8,5.8c-56.4-4.3-112-12.8-164.5-35.3
		c-16.8-7.2-32.6-15.8-45.7-28.9c-21.6-21.5-21.5-45.4,0.7-66.4c19.6-18.6,44.1-28.6,69.1-37.4c16.8-5.9,34.1-10.2,51.5-13.9
		c2.4,28.6-7.2,50.7-34.2,63.6c-5.7,2.7-10.1,7.5-8.7,15c0.1,9.2,4.4,13.9,14.6,14.1c6.8,0.2,13.7-0.9,20.5-1.8
		c19-2.7,36.6-8.7,49.9-23.2c4-4.4,10.1-8.5,7.8-16.3c4.2-9.4,7-19.2,7.4-29.5c0.4-10.5,0.2-21.1,0.3-31.6
		c5.6-0.4,11.3-0.8,16.9-1.2c0.1,12.5,1.1,25.1,0.2,37.6c-1.7,22.5-5,44.6-22.7,61.5c-4.8,4.6-6.3,11.3-3.2,17.4c3,6,9.5,5.3,15,4.5
		c37.6-5.3,64.5-33.7,69.4-71.9c2.2-17.4,0-34.9,1.8-52.3c0.6,0,1.3-0.1,1.8-0.4c4,0,8,0,12,0c0.6,0.3,1.2,0.5,1.9,0.4
		c0.2,13.2,0.4,26.4,0.5,39.6c0.7,44.7,27.6,77.3,69.7,84.4c5.9,1,12.7,2,15.9-4.4c3.2-6.4,1.3-13.1-3.9-18.1
		c-11.1-10.5-15.9-23.9-19.1-38.3c-4.4-20.2-3.1-40.7-2.9-61.1c5,0.5,10,1.1,15,1.6c0.7,0.1,1.3,0.3,2,0.4
		c0.9,20.7-2.2,41.8,7.8,61.3c-3.3,3.7,0.3,6,1.9,8.5c13.3,21.2,54.9,38.5,79.3,32.6c6.6-1.6,14-4.1,11.7-13.8
		c1.5-7.5-2.9-12.3-8.6-15C743.3,858.7,733.9,836.3,736.4,807.5z"/>
	<path fill="#253039" d="M407.7,886.8c-1.4-7.5,3-12.3,8.7-15c27.1-13,36.6-35,34.2-63.6c0.2-25.4,0-50.8,0.7-76.2
		c0.2-8.5-3.4-7.9-9.3-6.7c-27.1,5.3-54.4,6.8-81.4-0.2c-37.5-9.7-64.3-31.9-78.7-68.5c-11.9-30.3-28.7-57.1-57.7-74.4
		c-2.5-1.5-4.8-3.5-6.9-5.6c-4.1-4.1-10.3-7.9-7.8-14.7c2.4-6.4,9.6-6.5,15.3-7c15-1.3,28.7,3.4,41.5,10.7
		c17.9,10.2,31.3,25,41.8,42.5c16,26.7,37.9,45.7,69.5,50.7c26.6,4.2,51.8-1.6,75.2-12.4c12.6,19,29.7,29.9,52,32
		c3.8,0.4,6.2-0.5,5.5,4.6c-5.4,38.4-1.5,77-2,115.5c-0.1,10.5,0,21.1-0.3,31.6c-0.4,10.3-3.2,20.1-7.4,29.5
		c-16.1,22.9-39.9,30.9-66.2,33.3C425.1,893.7,415,895.6,407.7,886.8z"/>
	<path fill="#253039" d="M686.5,859.6c-9.9-19.5-6.9-40.7-7.8-61.3c0-0.7-0.1-1.3-0.1-2c0.1-39.4,3.5-78.9-2.4-117.8
		c22.6,1,39.6-11.4,54.9-27.1c0.7,0,1.3,0.1,2,0.1c2.6,10.3,2.8,20.8,2.8,31.4c0.2,41.6,0.4,83.1,0.5,124.7
		c-2.5,28.9,6.9,51.2,34.3,64.3c5.7,2.7,10.1,7.5,8.6,15c-3.9,3.8-8,6.4-13.8,6.4C734.3,893.1,706.1,886.4,686.5,859.6z"/>
	<path fill="#242F38" d="M661.6,796.2c-0.2,20.4-1.5,40.9,2.9,61.1c3.1,14.4,8,27.8,19.1,38.3c5.2,5,7.1,11.7,3.9,18.1
		c-3.2,6.4-10,5.4-15.9,4.4c-42.1-7.1-69.1-39.7-69.7-84.4c-0.2-13.2-0.4-26.4-0.5-39.6c0-0.6-0.1-1.3-0.1-1.9
		c0.1-13.1,0.5-26.3,0.3-39.4c-0.1-5.5,0.6-8,7.1-8.2c18-0.7,35.9-2.8,53-13.6C661.6,753.7,661.6,774.9,661.6,796.2z"/>
	<path fill="#242F38" d="M585.6,794.1c-1.7,17.4,0.5,34.9-1.8,52.3c-4.9,38.2-31.8,66.5-69.4,71.9c-5.5,0.8-12,1.5-15-4.5
		c-3-6.1-1.6-12.8,3.2-17.4c17.6-16.9,21-39,22.7-61.5c0.9-12.5-0.1-25.1-0.2-37.6c0-21.4,0-42.8,0-65.6
		c15.9,10.4,32.8,12.2,49.9,13.2c7.7,0.4,11.2,3.1,10.5,11.8c-0.9,11.8,0,23.7,0.2,35.5C585.3,792.8,585.3,793.5,585.6,794.1z"/>
	<path fill="#FDFCFC" d="M457.9,635c0.1,0.3,0.4,0.5,0.4,0.8c0,0.2-0.3,0.5-0.5,0.7C457.8,636,457.8,635.5,457.9,635z"/>
	<path fill="#C4AEA3" d="M490.5,581.7c0.7,0.2,1.4,0.4,2.2,0.6c-0.6,1.7-2,2.4-3.7,2.4c0,0-0.5-0.5-0.5-0.5
		C489.1,583.3,489.8,582.5,490.5,581.7z"/>
	<path fill="#C4AEA3" d="M484.8,588.5c-0.7,0.6-1.4,1.2-2.2,1.8l-0.1-0.1c0.6-0.7,1.3-1.4,1.9-2.1
		C484.4,588.1,484.8,588.5,484.8,588.5z"/>
	<path fill="#C4AEA3" d="M475.6,599.5c-0.2-0.2-0.5-0.4-0.5-0.6c0-0.2,0.3-0.4,0.5-0.5c0.2,0.2,0.4,0.4,0.4,0.6
		C476,599.2,475.7,599.4,475.6,599.5z"/>
	<path fill="#C4AEA3" d="M479,594.5c-0.4,0.5-0.7,0.9-1.1,1.4c-1.3-1.1-0.1-1.4,0.6-1.9C478.5,594,479,594.5,479,594.5z"/>
	<polygon fill="#C4AEA3" points="519.2,663.8 519.4,664.5 518.8,664.5 	"/>
	<path fill="#C4AEA3" d="M480.7,592.3c-0.6,0.7-1.2,1.5-1.7,2.2c0,0-0.5-0.5-0.5-0.5c0.7-0.6,1.4-1.3,2-1.9
		C480.5,592.1,480.7,592.3,480.7,592.3z"/>
	<path fill="#C4AEA3" d="M482.6,590.3c-0.1,1.2-0.7,1.9-2,2c0,0-0.1-0.1-0.1-0.1c0.7-0.7,1.3-1.3,2-2
		C482.5,590.2,482.6,590.3,482.6,590.3z"/>
	<path fill="#C4AEA3" d="M486.9,586.6c-0.7,0.6-1.4,1.2-2.1,1.9c0,0-0.4-0.4-0.4-0.4c0.7-0.7,1.3-1.3,2-2L486.9,586.6z"/>
	<path fill="#C4AEA3" d="M486.4,586.1c0.7-0.6,1.3-1.3,2-1.9c0,0,0.5,0.5,0.5,0.5c-0.7,0.7-1.3,1.3-2,2
		C486.9,586.6,486.4,586.1,486.4,586.1z"/>
	<path fill="#F7DBCD" d="M855.5,411.9c-1.9,11-3.2,22.2-5.7,33.1c-11.8,49.7-44.1,79.4-92.1,93.7c-28,8.4-56.8,12-85.8,13
		c-59.6,2-119.3,3.7-178.8-3.3c-30.9-3.6-61.1-10-89.5-23.4c-48.2-22.8-73-61.6-77.9-114.1c-0.5-5.6-1-11.1-1.4-16.7
		c0.7-3.5,1.3-7,2.2-11.5c5.3,5.5,5.9,11.9,7.4,17.9c5.1,20.8,10.8,41.4,21,60.5c9.8,18.5,24.7,30.5,44.8,36.2
		c26.7,7.7,53.3,6.1,80.2,0.6c31.1-6.4,53.9-23.4,69.8-50.4c7.2-12.2,13.6-24.9,18.2-38.3c2-5.8,4.5-11,10.9-13.1
		c6.6,0,13.1,0,19.7,0c7.4,1.8,10.3,7.6,12.5,14c5.8,17,14.1,32.7,24.3,47.4c13.2,19.1,30.7,32.2,53.2,38.8
		c23.5,6.8,47.3,9,71.5,6.4c33.7-3.7,57.7-20.5,70.4-52.7c6.9-17.6,11.9-35.6,16.3-53.9c1.2-4.9,2.2-10,7.6-13.8
		C856.8,393,854.8,402.5,855.5,411.9z M591.9,525.9c13.2,0.1,26.8-8.7,31.2-20.3c1.1-2.9,2.3-5.9-1.2-7.7c-3.7-1.9-5,1-6.7,3.6
		c-13.3,21.1-32,20.9-46.2-0.4c-1.5-2.3-2.9-4.9-6.1-3.5c-3.4,1.5-3.1,4.2-2,7.4C565.2,516.6,578.6,525.8,591.9,525.9z M605.9,467.8
		c0-7.6-6.2-13.9-13.6-13.9c-7.3,0-13.7,6.6-13.6,14c0,7.6,6.2,13.7,13.7,13.7C600.1,481.6,606,475.6,605.9,467.8z"/>
	<path fill="#162634" d="M855.5,411.9c-0.6-9.4,1.3-19-1.2-29.6c-5.4,3.9-6.4,8.9-7.6,13.8c-4.4,18.3-9.4,36.4-16.3,53.9
		c-12.7,32.2-36.7,49-70.4,52.7c-24.2,2.6-48,0.5-71.5-6.4c-22.6-6.5-40-19.6-53.2-38.8c-10.2-14.7-18.4-30.5-24.3-47.4
		c-2.2-6.5-5.1-12.2-12.5-14c3.7-14.5,7.3-29.1,11-43.6c40.1-7.3,80.2-14.3,120.9-16.9c33.5-2.1,67-0.1,100.5,0.5
		c2.3,0.4,4.7,1.5,6.1-1.5c0.7,0,1.3,0,2,0c0,0,0,0,0,0c0.7,0.7,1.4,1.3,2.1,2c7-1,13.6,1.8,20.5,2.3c6.1,0.4,6.9,6.7,6.7,10.6
		c-0.5,11.5,3.4,24.5-8.7,33.1c-2.8,2-0.5,4.9-0.9,7.3C857.3,397.2,862.7,405.5,855.5,411.9z M797.5,473.4
		c16.4-11.7,23.8-28.7,28.5-47.4c5.2-18.5,10.6-36.9,1.4-55.7c-7.2-15.4-21.5-19.5-36.4-21.4c-23.9-3.1-48-2.4-72-1.1
		c-20.7,1.1-41.4,3.1-61.4,9.1c-11,3.3-22.3,6.7-26.6,19.4c-3.4,5.6-3.9,11.8-3.2,18.1c2.1,19.7,8.4,38,19.7,54.3
		c12.6,18.2,28.8,31.5,50.8,36.9c24.2,8.5,48.7,6.5,73,1C781,484.5,790.2,480.7,797.5,473.4z M845.7,346.2
		c-4.9,0.5-11.8-0.2-11.9,5.9c-0.2,6,6.6,6.3,11.5,6.2c4.8-0.1,11.5,0,11.4-6.4C856.6,346.3,850.2,346.8,845.7,346.2z"/>
	<path fill="#162634" d="M578.8,396.2c-6.4,2.1-8.9,7.3-10.9,13.1c-4.6,13.4-11,26.1-18.2,38.3c-16,27-38.8,44-69.8,50.4
		c-26.9,5.5-53.5,7.1-80.2-0.6c-20-5.8-34.9-17.8-44.8-36.2c-10.2-19.1-15.9-39.7-21-60.5c-1.5-6-2.1-12.3-7.4-17.9
		c-0.9,4.4-1.5,8-2.2,11.5c-6-14.5-15.8-27.6-12.5-45c1.3-6.8,2-10.4,10-11c5.9-0.4,12.4-0.5,18-3.6c0.9,1.6,2.4,2,4,2
		c2-0.2,4.1-0.3,6.1-0.5c5.6-0.1,11.2-0.2,16.8-0.4c38.9-1.5,77.7-2.2,116.3,3.1c29.6,4.1,59.2,9,88.7,13.6
		C574.9,367,574.9,381.9,578.8,396.2z M448.9,489.2c8.6,0.8,17-0.3,25.3-2.7c42.5-8.5,78.9-54.6,77-97.7c-0.3-5.8-0.8-11.8-5.3-16.4
		c-3.9-7.7-11.3-10.7-18.6-13.5c-22.2-8.4-45.6-9.8-69-11c-26.3-1.3-52.7-2.4-78.8,3c-18.5,3.8-30.1,14.6-31.3,31
		c-2.2,30.6,5.3,58.9,24.9,83c8.7,10.7,20.6,17.3,34.2,20.2C420.9,489.5,434.8,490.3,448.9,489.2z M334.8,358.5
		c4.5-0.7,11-0.5,10.9-6.1c-0.1-6.4-6.8-6-11.6-6c-4.8,0-11.7-0.2-11.3,6.2C323.1,358.4,330,357.9,334.8,358.5z"/>
	<path fill="#0D2234" d="M841.1,336.7c-0.7-0.7-1.4-1.3-2.1-2C839.7,335.4,840.4,336,841.1,336.7z"/>
	<path fill="#6B8736" d="M407.7,886.8c7.3,8.8,17.4,6.9,26.6,6.1c26.3-2.4,50.1-10.4,66.2-33.3c2.3,7.7-3.8,11.9-7.8,16.3
		c-13.3,14.5-30.9,20.6-49.9,23.2c-6.8,1-13.7,2-20.5,1.8C412.1,900.7,407.8,896,407.7,886.8z"/>
	<path fill="#6B8736" d="M686.5,859.6c19.7,26.8,47.9,33.5,79,33.6c5.8,0,10-2.6,13.8-6.4c2.3,9.8-5.1,12.2-11.7,13.8
		c-24.4,5.9-65.9-11.4-79.3-32.6C686.8,865.6,683.1,863.2,686.5,859.6z"/>
	<path fill="#FDFCFC" d="M578.8,396.2c-3.9-14.3-3.9-29.2-6.9-43.7c4.2-2.8,8.8-1.9,13.4-1.9c0,6.5,0,13.1,0,19.6c0.5,0,1.1,0,1.6,0
		c1.6-6.6,3.2-13.1,4.8-19.7c6,0.3,12.2-1.4,17.9,2.1c-3.7,14.5-7.3,29.1-11,43.6C591.9,396.2,585.4,396.2,578.8,396.2z"/>
	<path fill="#253039" d="M591.9,525.9c-13.3-0.1-26.7-9.3-30.9-20.8c-1.2-3.2-1.5-6,2-7.4c3.2-1.4,4.5,1.3,6.1,3.5
		c14.2,21.3,32.8,21.5,46.2,0.4c1.7-2.6,3.1-5.5,6.7-3.6c3.5,1.8,2.4,4.8,1.2,7.7C618.7,517.2,605.1,526,591.9,525.9z"/>
	<path fill="#253039" d="M605.9,467.8c0,7.8-5.8,13.8-13.5,13.8c-7.6,0-13.7-6.1-13.7-13.7c0-7.4,6.3-14,13.6-14
		C599.7,453.9,605.9,460.2,605.9,467.8z"/>
	<path fill="#FDDFD1" d="M698.3,485.6c-22-5.3-38.2-18.7-50.8-36.9c-11.3-16.3-17.6-34.6-19.7-54.3c-0.7-6.3-0.1-12.5,3.2-18.1
		c9.2-4,16.2-11.5,26.5-14.2c38.9-10.3,78.5-9.9,118.2-9.4c-0.7,1.9-1.3,3.9-2,5.8c-1.6,0-3.1,0.4-4,1.9
		c-17.4-4.7-34.8-5.1-52.2,0.3c-3-0.1-6-0.4-8.9-0.1c-14,1.4-18.1,3.9-19.3,17.4c-1.5,16.9-2.4,33.9,2.4,50.9
		c4.1,14.6,12.6,26.4,20.7,38.6C707.7,473.5,703,479.5,698.3,485.6z"/>
	<path fill="#FBE6DC" d="M773.7,358.6c0.7-1.9,1.3-3.9,2-5.9c9.4,0.2,18.5,2.2,27.7,3.8c9.9,1.7,15,11,24,13.7
		c9.1,18.8,3.8,37.3-1.4,55.7c-4.2-0.8-6.4,1.3-8.4,4.9c-6.3,11.7-12.8,23.3-19.6,34.7c-1.8,2.9-2.3,5.1-0.5,7.9
		c-7.3,7.2-16.5,11.1-26.1,13.2c-24.3,5.4-48.8,7.5-73-1c4.7-6.1,9.4-12.1,14.1-18.2c1,0.2,2.2,0.1,2.8,0.7
		c24.4,22.1,53.4,6.8,67.3-13.9c15.5-23.1,16.2-48.7,14.4-75c-0.8-11.6-6-18.1-17.9-18.6C777,360.5,775,360.5,773.7,358.6z"/>
	<g>
		<path fill="#242F38" d="M690.5,579.7c-2.5-1.8-4.5,0.2-6.4,1c-59.4,27.1-118.9,25.9-178.5,0.8c-2.8-1.2-5.5-3.9-9.1-2.1
			c-1.9-1-3.7-2.2-5.9-1.5c-30.5-5-61.1-9.8-90.6-19.6c-51.8-17.1-97-43.6-126.4-91.1c-6.7-10.9-13.3-13.6-25.7-13
			c-81.2,4.4-161.6,14.4-240.3,35.6c-1.8,0.5-3.7,1.8-5.8-0.9c1.5-3.8,5.6-3.4,8.7-4.3c69-18.8,139.5-28.4,210.7-33.1
			c11.5-0.8,23.1-1.5,34.6-1.7c6-0.1,5.8-1.7,4.2-7c-3.5-11.6-9.8-15.6-22.5-15.8c-76.7-1.2-153,2.4-228.6,16.5
			c-1,0.2-2,0.4-2.9,0.4c-2,0.1-5.1,2.4-5.8-1.1c-0.7-3.5,2.9-2.8,4.9-3.1c21.2-3.4,42.3-7.2,63.5-9.7c58.1-6.8,116.4-9.3,174.9-6.8
			c7.5,0.3,7.7-1.5,5.8-8.1c-13.9-46.3-18.4-93.7-13.7-141.8c5.2-0.9,4-5.8,4.7-8.8c9-38,27.8-70.5,54.1-98.9
			c5.6-6.1,4.7-9.1-4.2-13.3c1.8-3.3,0.3-6.3-0.7-9.4c-14.5-46.3-10.1-91.6,6.4-136.5c1.6-4.4,3.7-6.8,8.6-6
			c0.1,4.1,3.5,5.2,6.3,6.8C337.6,21.9,364,37.4,386.9,58c15,13.5,29.5,17.1,50,10.4c42.5-13.8,86.6-20.5,131.6-21.5
			c15.4-0.3,30.7,1.6,46.1,0.9c10.4-0.4,21,0.6,31.4,2.1c31.5,4.4,62.8,10.6,93,20.9c11.7,4,21.2,2.1,30.9-5.9
			c26.9-22.2,55.3-42.4,86.3-58.5c2.5-1.3,4.5-2.8,4.6-5.9c6.6-1.2,7.5,4,9,8.3c15,42.3,19.6,85.1,7.2,129c-0.3,0.9-0.2,2-0.2,2.9
			c-8.2,5-6.8,10.3-0.8,16.2c21.6,21,38.6,45.2,50.6,73c3.4,7.9,3.6,17.3,10.5,23.7c2.3,7.6,3,15.4,3.4,23.3
			c2.5,46.6,0.8,93-10.1,138.6c-2,8.6,1.9,8.2,7.9,7.9c69.7-2.9,139.1,0.3,208.2,10.4c11.7,1.7,23.4,3.9,35.1,6
			c2,0.4,5.7-0.3,5.3,2.8c-0.6,4.3-4.3,1.7-6.4,1.3c-42.9-7.9-86.1-12.7-129.6-15.1c-39.2-2.1-78.5-2.1-117.7-1
			c-4.3,0.1-6.5,1.3-7.6,5.7c-1.2,5-3.3,9.8-5.4,15.7c90.3,3.5,178.8,13.5,265.6,38c-2.3,5.5-5.1,3-7.3,2.4
			c-80.3-21.6-162.3-31.3-245.2-35.6c-10.7-0.6-16.5,1.6-21.8,12.2c-21.9,43.5-59.1,69.7-103.6,86.8
			c-32.5,12.4-66.4,19.1-100.8,23.6c-3.6,0.5-7.1,1.2-10.7,1.9C694.2,577.6,692.4,578.6,690.5,579.7z M839.1,334.7
			C839.1,334.7,839.1,334.7,839.1,334.7c-0.1-1.3,0.3-2.9-0.4-3.9c-14.5-22-30.8-42.3-56.6-51.5c-27.9-10-56.8-10.5-86.3-8.5
			c-34.7,2.3-69.4,5.4-104.4,4.8c-25.7-0.4-51.3-0.9-76.9-2.8c-32.1-2.4-64-5.5-96,0.6c-36.6,7.1-61.2,29.5-78.7,61.2
			c-5.6,3.1-12.1,3.1-18,3.6c-8,0.6-8.7,4.2-10,11c-3.3,17.4,6.5,30.6,12.5,45c0.5,5.6,0.9,11.1,1.4,16.7
			c4.8,52.4,29.6,91.3,77.9,114.1c28.3,13.4,58.6,19.8,89.5,23.4c59.5,7,119.1,5.4,178.8,3.3c29-1,57.8-4.6,85.8-13
			c47.9-14.3,80.3-44,92.1-93.7c2.6-10.9,3.9-22,5.7-33.1c7.2-6.4,1.8-14.7,3.2-22c0.5-2.4-1.9-5.3,0.9-7.3
			c12-8.6,8.1-21.6,8.7-33.1c0.2-3.9-0.5-10.1-6.7-10.6c-6.9-0.5-13.5-3.3-20.5-2.3C840.4,336,839.7,335.4,839.1,334.7z"/>
		<path fill="#122332" d="M860.8,0.5c-0.1,3-2.1,4.5-4.6,5.9c-31.1,16.1-59.5,36.3-86.3,58.5c-9.8,8.1-19.3,9.9-30.9,5.9
			c-30.2-10.3-61.4-16.5-93-20.9c-10.4-1.4-21-2.5-31.4-2.1c-15.4,0.7-30.6-1.2-46.1-0.9c-45.1,1-89.1,7.7-131.6,21.5
			c-20.4,6.6-34.9,3.1-50-10.4C364,37.4,337.6,21.9,310.7,7.2c-2.9-1.6-6.2-2.6-6.3-6.8c27.9-2.2,53.2,7.4,78.1,18.2
			c20.9,9.1,40.5,20.6,59.4,33.2c4.8,3.2,9,3.7,14.7,2.5c84.3-17.6,168.7-18.8,253.1-0.3c5.8,1.3,9.9,0.3,14.6-2.8
			c32.1-21,65.6-39.3,103.3-48.2C838.5,0.6,849.5-0.8,860.8,0.5z"/>
		<path fill="#162634" d="M290,152.4c8.8,4.2,9.8,7.2,4.2,13.3c-26.3,28.5-45.1,61-54.1,98.9c-0.7,3,0.6,7.9-4.7,8.8
			C240.2,227,258.1,186.5,290,152.4z"/>
		<path fill="#162634" d="M937.1,253.5c-6.9-6.3-7.1-15.8-10.5-23.7c-12-27.8-29-52-50.6-73c-6.1-5.9-7.4-11.2,0.8-16.2
			C908.5,172,929.1,209.4,937.1,253.5z"/>
		<path fill="#0D2234" d="M343.9,336.7c-1.6-0.1-3.2-0.4-4-2c17.4-31.7,42-54.2,78.7-61.2c32-6.2,63.9-3,96-0.6
			c25.6,1.9,51.2,2.4,76.9,2.8c34.9,0.5,69.7-2.5,104.4-4.8c29.6-1.9,58.4-1.5,86.3,8.5c25.7,9.2,42.1,29.5,56.6,51.5
			c0.6,1,0.3,2.6,0.4,3.9c-0.7,0-1.3,0-2,0c-2.2-2.9-4.4-5.7-6.6-8.6c-21-28.4-48.6-44.4-84.2-47.4c-26.8-2.3-53.4-0.4-80,1.6
			c-42.5,3.2-84.9,4.4-127.6,1.7c-35.5-2.3-71-6.6-106.7-2.8C392.6,283.4,363.4,302.4,343.9,336.7z"/>
		<path fill="#FDDFD1" d="M585.3,350.6c-4.5,0.1-9.2-0.8-13.4,1.9c-29.6-4.6-59.1-9.5-88.7-13.6c-38.6-5.3-77.5-4.6-116.3-3.1
			c-5.6,0.2-11.2,0.3-16.8,0.4c8.7-16.6,22.6-27.7,38.5-36.8c19.5-11.1,41.3-13.4,62.9-13.9c33.2-0.8,66.3,3.4,99.4,5.3
			c46.8,2.7,93.5-0.8,140.2-4.1c27.5-2,54.6-2.6,81.2,4.7c25.4,7,45,22.3,58.6,44.9c-33.5-0.7-67-2.7-100.5-0.5
			c-40.7,2.6-80.9,9.6-120.9,16.9c-5.6-3.4-11.9-1.7-17.9-2.1C589.5,350.6,587.4,350.6,585.3,350.6z"/>
		<path fill="#C4AEA3" d="M831,336.3c-13.7-22.6-33.3-38-58.6-44.9c-26.6-7.3-53.8-6.7-81.2-4.7c-46.6,3.4-93.4,6.9-140.2,4.1
			c-33.1-1.9-66.2-6-99.4-5.3c-21.7,0.5-43.4,2.8-62.9,13.9c-15.9,9.1-29.8,20.2-38.5,36.8c-2,0.2-4.1,0.3-6.1,0.5
			c19.4-34.3,48.7-53.4,88-57.5c35.7-3.8,71.2,0.5,106.7,2.8c42.6,2.8,85.1,1.5,127.6-1.7c26.6-2,53.2-3.8,80-1.6
			c35.6,3,63.3,19,84.2,47.4c2.1,2.9,4.4,5.8,6.6,8.6C835.6,337.7,833.2,336.7,831,336.3z"/>
	</g>
	<path fill="#DEC6B9" d="M827.4,370.3c-9-2.8-14.1-12.1-24-13.7c-9.2-1.6-18.3-3.6-27.7-3.8c-39.7-0.5-79.3-0.9-118.2,9.4
		c-10.3,2.7-17.3,10.2-26.5,14.2c4.3-12.7,15.6-16.1,26.6-19.4c20-6,40.6-8,61.4-9.1c24-1.3,48.1-2,72,1.1
		C806,350.8,820.2,354.8,827.4,370.3z"/>
	<path fill="#F7DBCD" d="M797.5,473.4c-1.7-2.8-1.3-5,0.5-7.9c6.9-11.4,13.3-23,19.6-34.7c1.9-3.6,4.2-5.7,8.4-4.9
		C821.3,444.7,813.9,461.8,797.5,473.4z"/>
	<path fill="#85B03D" d="M845.7,346.2c4.5,0.6,10.9,0.1,11,5.7c0.1,6.3-6.6,6.3-11.4,6.4c-4.8,0.1-11.7-0.2-11.5-6.2
		C833.9,346,840.8,346.7,845.7,346.2z"/>
	<path fill="#F7DBCD" d="M407.3,485c-13.7-2.9-25.5-9.4-34.2-20.2c-19.6-24.1-27.2-52.4-24.9-83c1.2-16.4,12.9-27.2,31.3-31
		c26.1-5.4,52.5-4.3,78.8-3c23.4,1.2,46.8,2.6,69,11c7.4,2.8,14.7,5.8,18.6,13.5c-2,0-3.9,0-5.9,0c-4.9-6.6-12.6-7.7-19.8-9.9
		c-10.7-5.3-22.6-5-33.9-7.8c-4.2-1-6,1.5-5.8,5.6c-2.5,0.1-4.9,0.1-7.4,0.2c-17.3-4.4-34.6-5.1-51.9-0.1c-0.5-0.2-0.9-0.3-1.4-0.5
		c0.3,0.4,0.6,0.8,0.9,1.2l0,0.1c-20.5-1.6-26.1,3.2-27.9,15.6c-4.8,34,0.7,64.5,24.3,90.6C413.7,473.2,409.5,478.5,407.3,485z"/>
	<path fill="#FBE6DC" d="M540,372.4c2,0,3.9,0,5.9,0c4.5,4.6,5.1,10.6,5.3,16.4c1.9,43.1-34.5,89.2-77,97.7c1.8-2.3,3.8-4.5,5.2-7
		c11.6-19.8,23.8-39.4,34.6-59.6C522.5,403.9,533.7,389.4,540,372.4z"/>
	<path fill="#FDDFD1" d="M540,372.4c-6.3,17.1-17.4,31.5-25.9,47.4c-10.8,20.3-22.9,39.8-34.6,59.6c-1.5,2.5-3.5,4.7-5.2,7
		c-8.3,2.4-16.7,3.5-25.3,2.7c0.7-3.3,1.3-6.5,2-9.8c16.8-4.1,29.1-13.7,37.8-28.8c11.1-19.5,13.3-40.7,13.8-62.4
		c10.1-5.7,11.2-17.6,17.8-25.8C527.4,364.6,535.1,365.8,540,372.4z"/>
	<path fill="#FBE6DC" d="M450.9,479.4c-0.7,3.3-1.3,6.5-2,9.8c-14.1,1.1-28,0.4-41.6-4.2c2.2-6.5,6.4-11.8,9.9-17.5
		C427.4,474.2,437.9,480.3,450.9,479.4z"/>
	<path fill="#85B03D" d="M334.8,358.5c-4.8-0.6-11.7-0.1-12-6c-0.4-6.4,6.6-6.1,11.3-6.2c4.8,0,11.5-0.4,11.6,6
		C345.7,358,339.3,357.8,334.8,358.5z"/>
	<path fill="#DEC6B9" d="M585.3,350.6c2.1,0,4.2,0,6.4,0c-1.6,6.6-3.2,13.1-4.8,19.7c-0.5,0-1.1,0-1.6,0
		C585.3,363.7,585.3,357.1,585.3,350.6z"/>
	<path fill="#FDFCFC" d="M773.7,358.6c1.3,1.9,3.4,1.9,5.3,2c11.9,0.5,17.1,7.1,17.9,18.6c1.8,26.3,1.2,51.9-14.4,75
		c-13.9,20.6-42.9,36-67.3,13.9c-0.6-0.6-1.9-0.5-2.8-0.7c-8.1-12.2-16.6-24-20.7-38.6c-4.8-16.9-3.9-34-2.4-50.9
		c1.2-13.4,5.3-16,19.3-17.4c2.9-0.3,5.9,0.1,8.9,0.1c-1.4,2.6-2.9,5.2-4.2,7.9c-12,25.2-7.4,58.2,10.6,75.3
		c12.9,11.7,26.2,12.1,38.6,1.3c19.3-16.8,24-57.4,9.1-78.8c-0.6-2-1.3-4-1.9-6C770.6,358.9,772,358.6,773.7,358.6z"/>
	<path fill="#0D2234" d="M769.6,360.5c0.6,2,1.3,4,1.9,6c-7.7,3.6-7.1,13.5-13.7,18c-5.7-10.6-14.1-11-23.8-6.1
		c-0.8-3.6,4.5-7.2,0.2-10.7c-2.4-1.9-5.9-2.6-8.2-1c-5.1,3.5-7.1,9.5-7.2,15.1c-0.1,5.4,5.9,3.5,9.3,4.5c0.2,4.2-0.8,8.2-1.6,12.4
		c-2.1,10.6,3.2,20.2,11.1,21.3c-3.7,8.5-8.1,16.6-13.8,24c-17.9-17.1-22.6-50.1-10.6-75.3c1.3-2.7,2.8-5.2,4.2-7.9
		C734.8,355.3,752.2,355.8,769.6,360.5z"/>
	<path fill="#FDFCFC" d="M450.9,479.4c-13,0.9-23.5-5.2-33.7-12c-23.6-26-29.1-56.6-24.3-90.6c1.8-12.5,7.3-17.3,27.9-15.6
		c-11,18.9-13.3,39-7.1,59.9c3,10.1,7.3,19.8,17.3,25.3c12.1,9.5,25.2,8.5,36.9-2.8c17.5-16.9,21.7-55.3,8.4-75.2
		c-1.1-2.7-2.1-5.3-3.2-8c2.5-0.1,4.9-0.1,7.4-0.2c13.2,1.1,20.5,7.6,20,21.5c-0.1,2.1,1.2,4.3,1.9,6.4
		c-0.5,21.7-2.6,42.9-13.8,62.4C480,465.7,467.7,475.3,450.9,479.4z"/>
	<path fill="#0D2234" d="M431,446.4c-10-5.5-14.3-15.2-17.3-25.3c-6.2-20.8-4-40.9,7.1-59.9c0,0,0-0.1,0-0.1c0,0,0.5-0.7,0.5-0.7
		c17.3-5.1,34.6-4.3,51.9,0.1c1.1,2.7,2.1,5.3,3.2,8c-7.5,3.7-7.2,13.3-13.4,18c-6.3-8.2-13-15.3-24.8-10c2.4-6.9,0.4-11.7-7.3-9.9
		c-6.6,1.5-7.3,8.8-8.2,14.3c-1,6,5,4.3,8.3,5.5c-1.4,7-2.9,14.1-1.8,21.3c1.1,7.6,2.7,15.4,13.4,14.4
		C440,430.7,432.1,436.9,431,446.4z"/>
	<path fill="#FBE6DC" d="M502.4,388.2c-0.7-2.1-2-4.3-1.9-6.4c0.4-13.9-6.8-20.5-20-21.5c-0.2-4.1,1.7-6.6,5.8-5.6
		c11.3,2.7,23.2,2.4,33.9,7.8C513.6,370.6,512.5,382.5,502.4,388.2z"/>
	<path fill="#FDFCFC" d="M421.2,360.4c0,0-0.5,0.7-0.5,0.7c-0.3-0.4-0.6-0.8-0.9-1.2C420.3,360.1,420.8,360.3,421.2,360.4z"/>
	<path fill="#546471" d="M723.9,443.9c5.7-7.4,10.1-15.5,13.8-24c6.7-11.8,13.5-23.7,20.2-35.5c6.5-4.5,6-14.4,13.7-18
		c14.9,21.4,10.2,62-9.1,78.8C750,456,736.8,455.6,723.9,443.9z"/>
	<path fill="#162634" d="M757.9,384.4c-6.7,11.8-13.5,23.7-20.2,35.5c-8-1.1-13.3-10.7-11.1-21.3c0.8-4.1,1.8-8.1,1.6-12.4
		c3.8-1.3,4-5.3,6-7.9C743.8,373.4,752.2,373.8,757.9,384.4z"/>
	<path fill="#FFFFFF" d="M734.1,378.3c-2,2.7-2.2,6.6-6,7.9c-3.4-1-9.3,0.9-9.3-4.5c0.1-5.6,2.1-11.6,7.2-15.1
		c2.3-1.6,5.9-0.9,8.2,1C738.6,371.1,733.4,374.7,734.1,378.3z"/>
	<path fill="#546471" d="M463,386.4c6.2-4.7,5.9-14.2,13.4-18c13.2,19.9,9,58.3-8.4,75.2c-11.7,11.3-24.8,12.3-36.9,2.8
		c1.1-9.5,9-15.7,11.6-24.5C449.4,410.1,456.2,398.2,463,386.4z"/>
	<path fill="#162634" d="M463,386.4c-6.8,11.8-13.6,23.7-20.4,35.5c-10.7,1-12.2-6.8-13.4-14.4c-1.1-7.2,0.5-14.3,1.8-21.3
		c4.9-1.5,4.8-6.6,7.1-9.9C450,371,456.7,378.2,463,386.4z"/>
	<path fill="#FDFCFC" d="M438.2,376.4c-2.4,3.3-2.3,8.4-7.1,9.9c-3.3-1.1-9.3,0.6-8.3-5.5c0.9-5.5,1.6-12.8,8.2-14.3
		C438.6,364.7,440.6,369.4,438.2,376.4z"/>
	<path fill="#FFFFFF" stroke="#253039" stroke-miterlimit="10" d="M510.2,680.2"/>
	<path fill="#FFFFFF" stroke="#253039" stroke-miterlimit="10" d="M524,729.9"/>
	<path fill="#FFFFFF" stroke="#253039" stroke-miterlimit="10" d="M731.9,651.2c-1.1,2.5-3,4.3-6.9,7.9c-2.3,2.1-6.7,6-16.2,10.9
		c-12.9,6.7-19.7,7.5-28,8.2c-2.8,0.2-5.5-1.2-6.9-3.5c-6.4-10.2-10.3-14.9-11.9-14.2c-0.3,0.1-0.5,0.5-0.7,1.2
		c-1.1,11.6-1.8,24.3-1.8,38c0,10.8,0.5,21.1,1.3,30.5c0.2,2.2-2.2,3.3-2.9,4.1c-6.8,7.9-16.5,10-24.2,11.4
		c-16.5,3-26.5,5.4-41.1,4.8c-11.5-0.5-20.9-2.3-26.7-3.5c-1.1-0.2-6-1.5-15.8-4c0,0-5.4-1.5-19.8-7.5c-1-0.4-3.2-1.4-4.3-3.5
		c-1.1-2.1-0.7-4.3-0.6-4.9c1.8-8.6,2-68.2-1.8-68.6c-0.4,0-0.8,0.4-1.3,1.4c-3.2,5.5-6.5,11-9.7,16.5c-1.4,2.4-4.1,3.9-6.9,3.7
		c-7.6-0.5-20.1-2.6-32.4-11.1c-9.1-6.2-14.8-13.6-18.1-18.9c-1.1-1.8-1.4-4-0.8-6.1c3.1-11,6.6-19.9,9.5-26.5
		c10.8-24.5,19.6-31.2,22.3-33.2c3.3-2.3,6.4-4,9.1-5.1c2-0.9,4.3-0.8,6.3,0.2c17.8,8.8,51.8,22.5,96.1,21.8
		c38.2-0.6,67.9-11.7,85.2-19.9c0.8-0.4,3.8-1.8,7.8-1.6c5.1,0.1,10.3,3.7,11,4.2c3.2,2.3,7.7,6.3,14.9,19.2c1,1.9,4.6,8.5,9.2,19.8
		C734.3,644.1,733,648.8,731.9,651.2z"/>
	<g>
		<path fill="#0170B9" d="M545.3,724.5c-0.7,1.5-0.5,3.2-0.9,4.7c-0.1,0.2,0,0.5-0.1,0.7c-0.2,0.5-0.7,0.8-1,0.8
			c-0.4-0.1-0.6-0.6-0.6-1.1c-0.1-1.9,0.4-3.8,0.7-5.6c0.2-2.1,0.6-4.1,0.9-6.2c0.3-2,0.6-4,0.8-5.9c0.3-2.2,0.6-4.3,1-6.5
			c0.1-0.9,0.1-1.8,0.4-2.6c0.2-0.7,0.5-1.2,1.3-1.2c0.8,0,1.3,0.5,1.4,1.2c0.5,2.5,1.1,4.9,1.6,7.4c0.7,3.8,1.2,7.6,1.7,11.4
			c0.3,2.4,0.6,4.8,0.9,7.2c0.1,0.7,0.2,1.3-0.1,2c-0.4,0.6-1,0.7-1.5,0.4c-0.5-0.2-0.4-0.8-0.5-1.3c-0.1-1.7-0.4-3.3-0.6-5
			c-0.1-0.4-0.3-0.7-0.7-0.6C548.3,724.5,546.8,724.3,545.3,724.5z"/>
		<path fill="#0170B9" d="M611.1,730.2c-0.1-0.1-0.2-0.2-0.3-0.3c-0.2-0.7,0.1-1.5-0.2-2.3c0-0.8,0-1.5-0.1-2.3
			c-0.2-0.7,0.1-1.4-0.2-2.1c0.1-1.3-0.2-2.5-0.5-3.8c-0.1-0.3-0.2-0.5-0.4-0.7c-0.5-0.6-1.2-1.3-2-1c-0.8,0.3-0.3,1.1-0.4,1.7
			c-0.3,1.5,0,3-0.2,4.6c0,2.1,0,4.2-0.1,6.3c-0.3,0.6,0.1,1.4-0.3,2c-1.7,0.3-1.7,0.3-1.7-1.5c0-3.8,0-7.5,0-11.3
			c0.3-1.7,0-3.4,0.2-5.1c0-1.6,0.1-3.2,0.1-4.7c0.3-1.4,0-2.9,0.2-4.4c0.3-0.8-0.4-2.1,1.1-2.3c0.8-0.1,1.5-0.1,2.3,0
			c2.5,0.5,4.1,1.8,4.6,4.4c0.1,0.9,0.1,1.8,0,2.8c-0.4,2.1-0.9,4.2-2.7,5.6c-0.3,0.2-0.3,0.5,0,0.8c2.2,2.1,2,4.8,2.1,7.5
			c0,0.2,0,0.4,0.1,0.6c0.2,1-0.1,2.1,0.2,3.1c-0.1,0.8,0.3,1.7-0.3,2.5C612.1,730.3,611.6,730.2,611.1,730.2z"/>
		<path fill="#0170B9" d="M634.7,723c-0.3,2.2-0.6,4.4-1.9,6.2c-1.9,2.6-5.7,2.6-7.5-0.1c-1.6-2.4-2.2-5.1-2.4-7.9
			c-0.2-0.5,0.1-1-0.2-1.5c0-2.3,0-4.7,0-7c0.3-0.5,0-1,0.2-1.5c0.2-2.1,0.7-4.1,1.9-5.9c1.9-2.9,6.1-2.8,7.8,0.2
			c1.3,2.2,1.6,4.7,2,7.2c0.2,0.7-0.1,1.4,0.2,2c0,2,0,4,0,6C634.6,721.5,634.9,722.3,634.7,723z"/>
		<path fill="#0170B9" d="M575.5,736.5c-2.5-0.3-4-2.1-4-4.6c0-1.8,0.3-3.5,0.5-5.3c0.3-0.5,0-1.1,0.2-1.6c-0.2-1.7-0.9-2.8-2.8-2.8
			c-0.5,0-0.4-0.5-0.3-0.8c0.1-0.5-0.4-1.3,0.3-1.4c1.9-0.2,2.7-1.3,2.8-3.1c-0.2-0.5,0.1-1.1-0.2-1.6c-0.2-1.7-0.5-3.4-0.5-5.2
			c0.1-4.2,3-5,6.1-4.9c0.4,0,0.6,0.2,0.5,0.5c-0.1,0.5,0.4,1.2-0.4,1.5c-0.2,0.1-0.3,0.1-0.5,0.1c-2.5,0.5-3,1.1-2.9,3.6
			c0.2,0.5-0.1,1,0.2,1.5c-0.1,0.9,0.2,1.7,0.3,2.5c0.1,0.9,0.1,1.8,0,2.8c-0.8,2-0.8,2-2.6,3.1c1.6,0.4,2.2,1.6,2.6,3
			c0.1,0.9,0.1,1.8,0,2.8c-0.1,0.8-0.4,1.6-0.3,2.5c-0.2,0.4,0,0.9-0.2,1.3c-0.2,2.6,0.5,3.5,3.1,3.8c0.5,0.1,0.6,0.3,0.6,0.7
			c0,0.5,0,0.9,0,1.4C577.1,736.6,576.3,736.6,575.5,736.5z"/>
		<path fill="#0170B9" d="M637.7,736.5c0-0.2,0-0.4,0-0.6c-0.1-0.9,0-1.4,1.2-1.5c1.9-0.2,2.5-1.7,2.5-3.4c-0.2-0.4,0-0.9-0.2-1.3
			c-0.1-0.8-0.2-1.6-0.3-2.5c-0.1-1.1-0.1-2.2,0-3.3c0.3-1.2,0.8-2.3,2.4-2.8c-1.6-0.5-2.1-1.6-2.4-2.8c-0.1-1.1-0.1-2.2,0-3.3
			c0.1-0.8,0.2-1.6,0.3-2.5c0.2-0.4,0-0.9,0.2-1.3c0.1-0.5-0.1-1-0.2-1.6c-0.2-1.3-1.2-2.1-2.7-2c-1.1,0.1-0.8-0.6-0.8-1.2
			c0-0.6-0.2-1.1,0.8-1.1c4-0.1,6.2,2.5,5.6,6.5c-0.2,1.1-0.5,2.2-0.3,3.3c-0.3,0.6,0,1.2-0.2,1.8c-0.3,1.8,1,2.9,2.2,3
			c1.2,0,1.1,0.6,1,1.4c0,0.2,0,0.4,0,0.6c-0.3,0.4-0.9,0-1.3,0.3c-1.6,0.5-2,1.1-2,2.8c0.2,0.5-0.1,1.1,0.2,1.5
			c0,1.2,0.3,2.3,0.4,3.4c0.3,3-0.5,5.7-3.9,6.5C639.3,736.6,638.5,736.6,637.7,736.5z"/>
		<path fill="#0170B9" d="M583.5,731.7c-1.8-0.5-2.1-2-2.5-3.5c-0.1-0.5-0.1-1-0.2-1.5c-0.2-0.6,0.1-1.3,0.8-1.4
			c0.7-0.1,1.3-0.1,1.4,0.9c0,0.8,0.2,1.7,0.4,2.4c0.4,1.3,1,1.5,2.1,0.6c0.9-0.7,1.2-1.6,1.3-2.7c0.2-1.1,0.2-2.3,0-3.4
			c-0.2-3.6-2.4-6.3-4.2-9.1c-1.8-2.8-2.5-5.7-1.3-8.9c0.4-1.1,1.1-2.2,2.4-2.4c1.8-0.2,3.4,0.4,4.5,1.8c0.2,0.2,0.3,0.4,0.4,0.6
			c0.1,0.4,0.1,0.8,0,1.2c-0.9,0.8-1.7,0.6-2.2-0.4c-0.5-1.1-1.4-1.4-2.3-1.1c-0.9,0.3-1.1,1.3-1.1,2.2c-0.2,0.8-0.2,1.5,0,2.3
			c0.1,2,1.2,3.5,2.4,5c1.9,2.5,3.3,5.3,3.8,8.4c0.1,1.1,0.1,2.2,0,3.3c-0.6,2.3-1.5,4.3-3.9,5.4
			C584.7,731.8,584.1,731.8,583.5,731.7z"/>
		<path fill="#0170B9" d="M595.2,709.7c0,2.8,0.1,5.7,0.1,8.5c0.4,0.2,0.8,0.2,1.2,0c0.9,0.1,1.7-0.3,2.6-0.3c0.5,0,1-0.1,1.1,0.5
			c0.1,0.6-0.3,0.9-0.8,1.2c-0.9,0.4-1.8,0.4-2.7,0.6c-0.4,0.1-0.9-0.1-1.3,0.4c-0.3,1.7-0.1,3.4-0.1,5.1c0,0.5,0,0.9-0.1,1.4
			c-0.1,0.8-0.1,1.7,0,2.5c0.8,0.2,1.7,0.2,2.5,0c0.5,0,1-0.1,1.5-0.1c0.5-0.1,1-0.1,1.5,0c0.9,1.1,0.7,1.5-1.3,1.9
			c-0.7,0.2-1.4-0.1-2,0.2c-0.3,0-0.6,0-1,0c-0.7-0.3-1.4,0-2-0.2c-0.4-0.2-0.8,0.1-1.1-0.3c-0.1-0.8,0.1-1.6-0.1-2.3
			c0-2.7-0.1-5.4-0.1-8c-0.2-2.3,0-4.5-0.1-6.8c0-0.5,0.1-0.9-0.1-1.4c0-2.1,0-4.3,0-6.4c0-0.6-0.1-1.3,0.8-1.5
			c2.2,0,4.4-0.2,6.5,0.1c0.9,0.7,0.5,1.3-0.2,1.8c-1.6,0.3-3.2-0.1-4.8,0.2l0,0C594.9,707.8,595,708.7,595.2,709.7z"/>
		<path fill="#0170B9" d="M617.1,718c0-1.1,0-2.2,0.1-3.3c0.3-1.2,0-2.4,0.2-3.5c0-1.2,0.1-2.3,0.1-3.5c0.3-1-0.1-2.1,0.2-3.1
			c0.4-0.8,1.1-0.6,1.6-0.4c0.6,0.1,0.7,0.7,0.6,1.2c0,0.5,0,0.9,0,1.4c-0.3,0.9,0,1.9-0.2,2.8c0,0.9,0,1.9-0.1,2.8
			c-0.3,1,0,2-0.2,3c0,0.9,0,1.8-0.1,2.8c-0.3,1,0,2-0.2,3.1c0,0.9,0,1.8-0.1,2.7c-0.3,0.9,0,1.9-0.2,2.8c0,1-0.1,2-0.1,3
			c-0.3,0.5,0,1.1-0.2,1.6c-0.2,0.2-0.4,0.5-0.6,0.6c-0.7,0.5-1.4,0.1-1.5-0.8c0-0.9,0-1.7,0-2.6c0.3-1.2,0-2.4,0.2-3.5
			c0-1.2,0.1-2.3,0.1-3.5C617.2,720.4,616.9,719.1,617.1,718z"/>
		<path fill="#FDFDFD" d="M592.9,712.6c0.2,2.7,0.2,5.4,0.2,8.1c-0.4-1.2-0.1-2.5-0.2-3.7C592.9,715.5,592.9,714.1,592.9,712.6z"/>
		<path fill="#FDFDFD" d="M600.2,704.9c-2.2-0.4-4.4-0.1-6.5-0.1C595.9,704.5,598,704.3,600.2,704.9z"/>
		<path fill="#FDFDFD" d="M595.2,727c0-2.2-0.2-4.3,0.2-6.5C595.3,722.7,595.6,724.9,595.2,727z"/>
		<path fill="#FDFDFD" d="M545.3,724.5c1.6-0.4,3.2-0.1,4.9-0.2c0.5,0,0.5,0.3,0.5,0.7c-0.3-0.4-0.7-0.5-1.2-0.5
			C548,724.5,546.6,724.5,545.3,724.5z"/>
		<path fill="#FDFDFD" d="M605,714.4c0.1,1.7,0,3.4-0.2,5.1C604.9,717.8,604.6,716.1,605,714.4z"/>
		<path fill="#FDFDFD" d="M595.2,706.8c1.6-0.5,3.2-0.1,4.8-0.2C598.4,707.1,596.8,706.7,595.2,706.8z"/>
		<path fill="#FDFDFD" d="M606.9,724c0-1.5-0.1-3,0.2-4.6C606.9,721,607.3,722.5,606.9,724z"/>
		<path fill="#FDFDFD" d="M605.2,705.3c0.1,1.5,0,2.9-0.2,4.4C605.1,708.2,604.8,706.8,605.2,705.3z"/>
		<path fill="#FDFDFD" d="M617.1,718c0,1.2,0,2.4-0.2,3.6C617,720.4,616.7,719.1,617.1,718z"/>
		<path fill="#FDFDFD" d="M617.4,711.1c0,1.2,0,2.4-0.2,3.5C617.3,713.5,617,712.3,617.4,711.1z"/>
		<path fill="#FDFDFD" d="M616.9,725.1c0,1.2,0,2.4-0.2,3.5C616.8,727.4,616.5,726.2,616.9,725.1z"/>
		<path fill="#FDFDFD" d="M589.2,726.3c0-1.1,0-2.2,0-3.3C589.5,724.1,589.5,725.2,589.2,726.3z"/>
		<path fill="#FDFDFD" d="M640.9,714.9c0,1.1,0,2.2,0,3.3C640.6,717.1,640.6,716,640.9,714.9z"/>
		<path fill="#FDFDFD" d="M640.9,723.8c0,1.1,0,2.2,0,3.3C640.6,726,640.6,724.9,640.9,723.8z"/>
		<path fill="#FDFDFD" d="M586.8,723.3c0.3,1.1,0.4,2.2,0,3.4C586.8,725.5,586.8,724.4,586.8,723.3z"/>
		<path fill="#FDFDFD" d="M619.5,715.4c0-1,0-2,0.2-3C619.6,713.4,619.9,714.4,619.5,715.4z"/>
		<path fill="#FDFDFD" d="M619.3,721.2c0-1,0-2,0.2-3.1C619.4,719.2,619.7,720.2,619.3,721.2z"/>
		<path fill="#FDFDFD" d="M612.9,727.6c-0.4-1-0.1-2-0.2-3.1C613.1,725.5,612.8,726.6,612.9,727.6z"/>
		<path fill="#FDFDFD" d="M617.7,704.6c-0.1,1-0.1,2.1-0.2,3.1C617.5,706.6,617.2,705.6,617.7,704.6z"/>
		<path fill="#FDFDFD" d="M595.2,709.7c-0.2-1-0.2-1.9,0-2.9C595.2,707.8,595.2,708.7,595.2,709.7z"/>
		<path fill="#FDFDFD" d="M619.8,709.6c0-1,0-1.9,0.2-2.8C619.9,707.7,620.2,708.7,619.8,709.6z"/>
		<path fill="#FDFDFD" d="M574.7,717.9c0-0.9,0-1.8,0-2.8C575.1,716.1,575.1,717,574.7,717.9z"/>
		<path fill="#FDFDFD" d="M613.2,710.1c0-0.9,0-1.8,0-2.8C613.5,708.3,613.5,709.2,613.2,710.1z"/>
		<path fill="#FDFDFD" d="M619,726.8c-0.1-0.9,0-1.9,0.2-2.8C619.1,724.9,619.4,725.9,619,726.8z"/>
		<path fill="#FDFDFD" d="M574.7,726.8c0-0.9,0-1.8,0-2.8C575.1,725,575.1,725.9,574.7,726.8z"/>
		<path fill="#FDFDFD" d="M597.8,729.6c-0.8,0.2-1.7,0.2-2.5,0C596.1,729.6,596.9,729.6,597.8,729.6z"/>
		<path fill="#FDFDFD" d="M634.7,723c0-0.8,0-1.5,0.2-2.3C634.8,721.5,635.1,722.3,634.7,723z"/>
		<path fill="#FDFDFD" d="M608.6,703c-0.8,0-1.5,0-2.3,0C607.1,702.7,607.8,702.7,608.6,703z"/>
		<path fill="#FDFDFD" d="M593.2,728.8c0.2,0.8,0,1.6,0.1,2.3C593,730.3,593.2,729.5,593.2,728.8z"/>
		<path fill="#FDFDFD" d="M583,709.6c-0.3-0.8-0.3-1.5,0-2.3C583,708.1,583,708.9,583,709.6z"/>
		<path fill="#FDFDFD" d="M610.6,727.6c0.2,0.7,0.2,1.5,0.2,2.3C610.4,729.1,610.7,728.3,610.6,727.6z"/>
		<path fill="#FDFDFD" d="M634.9,714.7c-0.2-0.7-0.2-1.3-0.2-2C635.1,713.3,634.8,714,634.9,714.7z"/>
		<path fill="#FDFDFD" d="M597.4,731.6c0.7-0.1,1.4-0.1,2-0.2C598.8,731.8,598.1,731.5,597.4,731.6z"/>
		<path fill="#FDFDFD" d="M594.4,731.4c0.7,0,1.4,0,2,0.2C595.8,731.5,595.1,731.8,594.4,731.4z"/>
		<path fill="#FDFDFD" d="M606.5,732.4c0.1-0.7,0.2-1.4,0.3-2C606.7,731,607.1,731.8,606.5,732.4z"/>
		<path fill="#FDFDFD" d="M553.1,730.8c0.3-0.7,0-1.3,0.1-2C553.5,729.5,553.6,730.2,553.1,730.8z"/>
		<path fill="#FDFDFD" d="M610.4,723.2c0.2,0.7,0.2,1.4,0.2,2.1C610.2,724.6,610.4,723.9,610.4,723.2z"/>
		<path fill="#FDFDFD" d="M643.5,716.9c0-0.6-0.1-1.2,0.2-1.8C643.7,715.8,643.9,716.4,643.5,716.9z"/>
		<path fill="#FDFDFD" d="M583.5,731.7c0.6,0,1.2,0,1.7,0C584.7,732,584.1,732,583.5,731.7z"/>
		<path fill="#FDFDFD" d="M622.8,719.7c0.2,0.5,0.2,1,0.2,1.5C622.6,720.8,622.8,720.2,622.8,719.7z"/>
		<path fill="#FDFDFD" d="M571.9,715.4c0.3,0.5,0.2,1,0.2,1.6C571.7,716.4,572,715.9,571.9,715.4z"/>
		<path fill="#FDFDFD" d="M643.7,726.6c-0.3-0.5-0.2-1-0.2-1.5C643.9,725.5,643.7,726.1,643.7,726.6z"/>
		<path fill="#FDFDFD" d="M574.4,712.7c-0.3-0.5-0.2-1-0.2-1.5C574.6,711.6,574.4,712.2,574.4,712.7z"/>
		<path fill="#FDFDFD" d="M611.1,730.2c0.5,0,1-0.1,1.5-0.1C612.1,730.5,611.6,730.4,611.1,730.2z"/>
		<path fill="#FDFDFD" d="M600.7,729.6c-0.5,0-1,0-1.5,0C599.7,729.3,600.2,729.2,600.7,729.6z"/>
		<path fill="#FDFDFD" d="M623,711.1c0,0.5,0,1-0.2,1.5C622.8,712.2,622.6,711.6,623,711.1z"/>
		<path fill="#FDFDFD" d="M618.7,731.4c0.1-0.5,0.1-1,0.2-1.6C618.9,730.3,619.1,730.9,618.7,731.4z"/>
		<path fill="#FDFDFD" d="M572.1,725c0,0.5,0.1,1.1-0.2,1.6C572,726.1,571.7,725.5,572.1,725z"/>
		<path fill="#FDFDFD" d="M588.6,706.6c0-0.4,0-0.8,0-1.2C588.9,705.7,588.9,706.1,588.6,706.6z"/>
		<path fill="#FDFDFD" d="M596.5,718.2c-0.4,0.2-0.8,0.5-1.2,0C595.6,718.2,596,718.2,596.5,718.2z"/>
		<path fill="#FDFDFD" d="M641.4,711.1c0,0.5,0,0.9-0.2,1.3C641.3,712,641.1,711.5,641.4,711.1z"/>
		<path fill="#FDFDFD" d="M641.2,729.5c0.2,0.4,0.2,0.9,0.2,1.3C641.1,730.4,641.3,730,641.2,729.5z"/>
		<path fill="#FDFDFD" d="M645.5,722.3c0.4-0.3,0.9-0.1,1.3-0.3C646.4,722.5,645.9,722.2,645.5,722.3z"/>
		<path fill="#FDFDFD" d="M574.2,730.6c0-0.4-0.1-0.9,0.2-1.3C574.4,729.7,574.6,730.2,574.2,730.6z"/>
		<path fill="#FDFEFE" d="M548.1,707.1c0.7,4.5,1.3,9.1,2,13.6c0.2,1.1,0,1.5-1.2,1.4c-3.1-0.1-3.1,0-2.6-3.2
			c0.5-3.8,0.9-7.6,1.4-11.4C547.8,707.5,547.6,707,548.1,707.1z"/>
		<path fill="#8FBFE0" d="M548.1,707.1c-0.2,0.2-0.3,0.3-0.5,0.5c-0.1-0.5,0-1,0.3-1.4C548.2,706.5,548.1,706.8,548.1,707.1z"/>
		<path fill="#FEFEFE" d="M611.1,708.9c-0.1,1.5-0.4,3-1.2,4.5c-0.4,0.6-0.8,1.2-1.5,1.5c-0.7,0.3-1.2,0.3-1.2-0.7
			c0.1-2.7,0.2-5.5,0.3-8.2c0-1,0.7-1,1.4-0.9C610.2,705.3,611.1,706.9,611.1,708.9z"/>
		<path fill="#FEFEFE" d="M632.8,718.4c-0.1,2.7-0.1,5.4-1,8c-0.4,1.3-0.9,2.8-2.6,2.9c-1.7,0.1-2.6-1.2-3.1-2.7
			c-0.9-2.3-1.1-4.7-1.2-7.2c-0.2-3.4-0.4-6.9,0.6-10.3c0.3-1.1,0.7-2.2,1.5-3.2c1.1-1.3,2.4-1.2,3.4,0.2c0.8,1.1,1.1,2.3,1.5,3.6
			C632.5,712.5,632.8,715.4,632.8,718.4z"/>
		<g>
			<path fill="#0170B9" d="M600.1,634c2.3-0.7,4.3-2,6-3.6c0.3-0.6,0-1.3,0.2-1.9c0.1-4.6,2.4-8.4,4.3-12.3c0.3-0.6,0.6-0.2,0.8,0
				c1,0.6,1.6,1.4,2.3,2.2c0.1,0.5,0.1,1,0,1.5c-0.9,2.2-2.3,4.2-3.3,6.4c-0.8,1.6-1,3.3-0.8,5c0.1,0.7,0.3,1.4,1.2,1.6
				c0.5,0.1,1,0.2,1.5,0c2.3-0.8,3.4-2.8,4.6-4.7c0.2-0.3,0-0.4-0.1-0.6c-0.6-0.7-0.8-1.5-1-2.3c-0.1-1-0.1-2,0-3
				c0.2-1.9,0.8-3.6,2.8-4.4c0.4-0.1,0.8-0.1,1.2,0c1.5,1.5,1,3.3,0.6,4.9c-0.3,1.6-0.8,3.1-1.3,4.7c-0.4,1.1,0.6,1,1.1,1.2
				c0.8,0.3,0.8-0.3,0.8-0.8c0.1-2.7,1.5-4.9,3-7c0.7-0.9,1.4-1.7,2.4-2.3c0.4-0.2,0.9-0.7,1.3-0.1c0.5,0.8,0.9,0.6,1.7,0.3
				c2.6-1.1,4.8,0.1,5.6,2.9c0.8,3.1-0.2,5.9-1.8,8.6c-0.3,0.4-0.8,0.8-0.7,1.4c0.4,0.2,0.8,0.2,1.3,0c0.6-0.3,1.3-0.7,1.9-1
				c0.3-0.2,0.5-0.3,0.8,0c0.2,0.2,0.1,0.5,0,0.7c-0.4,1.2-2.1,2.5-3.5,2.4c-1.7-0.1-3.1,0.4-4.5,1.4c-2.2,1.6-5.3,0.7-6.5-1.7
				c-0.4-0.8-0.8-1.6-0.8-2.6c0-0.6-0.2-1.3-1.1-1.4c-0.8,0-1.4-0.3-1.9,0.8c-0.8,2-2.1,3.7-4.1,4.9c-2.5,1.5-6.3,0.5-7.2-2.2
				c-0.4-1-0.5-0.8-1-0.2c-1.5,1.5-3.1,2.9-5.2,3.3c-3.5,0.7-5.7,0.1-7.4-3.1c-0.8,1-1.5,1.9-2.2,2.9c-0.7,0.9-1.5,1.8-2.6,2.4
				c-1.2,0.6-2.3,0.1-2.8-1.4c-0.1-1-0.1-2,0-3c0.4-3,1.3-5.9,2.1-8.9c1-3.5,2.3-7,3.5-10.4c1.1-3.1,2.5-6,3.3-9.2
				c0.1-0.4,0.3-0.3,0.6-0.2c1,0.4,2,0.9,2.7,1.7c0.5,0.6,0.8,1.3,0.5,2.2c-0.6,1.8-1.5,3.3-2.2,5c-2.5,5.7-5.2,11.3-7,17.3
				c-0.3,1.1-0.7,2.1-0.7,3.3c0,0.3-0.2,0.6,0.3,0.7c0.3,0.1,0.5,0,0.7-0.2c1-1.1,2-2,2.8-3.2c0.4-0.6,0.4-1.3,0.2-1.9
				c-0.1-0.6-0.1-1.2,0-1.8c0.3-3.7,1.8-6.8,4.6-9.2c1.8-1.5,4.4-1.9,6.4-0.9c2,1,2.6,3.2,1.7,5.5c-1.5,3.6-5.2,5.4-9,4.4
				c-0.9-0.2-1.1,0-1.2,0.8c-0.1,1.9,0.2,3.5,1.7,4.8c0.4,0.4,0.9,0.8,1.6,0.7C598.8,634.2,599.4,634.2,600.1,634z"/>
			<path fill="#0170B9" d="M555,622.8c-1.1,4.4-5.4,6.5-9.3,5.3c-0.3-0.1-0.4-0.2-0.6,0.1c-1.1,2,0.6,5.6,2.9,6
				c0.6,0.2,1.2,0.1,1.7,0c2.3-0.5,4-1.9,5.7-3.4c0.3-0.4,0-1,0.2-1.4c0.6-4.5,2.5-8.5,4.6-12.5c0.3-0.6,0.5-0.3,0.8-0.2
				c1,0.5,1.6,1.4,2.3,2.3c0.1,0.4,0.1,0.8,0,1.3c-1.3,2.9-3.2,5.5-4.2,8.5c-0.2,0.6-0.5,1.2-0.4,1.8c-0.2,0.6-0.2,1.3,0,1.9
				c0.1,0.9,0.6,1.1,1.4,0.7c2.2-1,3.4-2.8,4-5.1c0.7-3,2.1-5.7,3.3-8.5c0.3-0.8,0.7-0.8,1.3-0.4c2.2,1.4,2.6,2.5,1.4,4.9
				c-1.1,2.2-2.5,4.4-3.1,6.8c-0.2,1-0.2,1.9-0.1,2.9c0.1,1.1,0.7,1.3,1.6,0.5c1.6-1.3,2.5-3.2,3.2-5.1c0.2-0.4,0.1-1.5,0.9-1.2
				c0.7,0.3,0.2,1,0,1.5c-0.6,1.9-1.5,3.8-2.8,5.4c-0.9,1.1-2.1,1.7-3.5,1.3c-1.4-0.4-2.1-1.7-2.5-3c-0.1-0.3,0.2-0.8-0.3-0.9
				c-0.5-0.1-0.5,0.4-0.8,0.7c-0.7,0.7-1.4,1.5-2.4,1.8c-2.3,0.8-3.4,0.2-4.7-2.5c-0.8,0.6-1.5,1.3-2.3,1.9c-2,1.6-4.4,1.9-6.8,1.5
				c-1.7-0.2-3.9-3.1-4-5c-0.2-3.3,0.3-6.3,2.3-9.1c1.9-2.7,4.9-4.1,7.6-3.3c1.3,0.4,2.1,1.3,2.6,2.6
				C555.1,621.7,555.1,622.2,555,622.8z"/>
			<path fill="#85AF3D" d="M555.1,676.5c0-0.7,0.1-1.3,0.1-2c0.3-0.7,0-1.4,0.2-2.1c1.1-0.6,2.3-0.1,3.4-0.2c0.4,0,0.4,0.4,0.5,0.6
				c0.9,2.5,1.8,5.1,2.7,7.6c0.1,0.3,0.1,0.7,0.5,0.8c0.5,0,0.3-0.5,0.4-0.8c0.9-2.4,1.9-4.7,2.5-7.2c0.2-0.8,0.6-1.3,1.5-1.1
				c0.9,0.2,1.9-0.3,2.8,0.3c0.2,0.8-0.1,1.6,0.2,2.3c0,0.7,0,1.3,0.1,2c0.2,0.8-0.1,1.6,0.2,2.3c0,0.7,0.1,1.5,0.1,2.2
				c0.2,0.7-0.1,1.4,0.2,2.1c0,0.7,0.1,1.5,0.1,2.2c0.2,0.7-0.1,1.4,0.2,2.1c-1,0.4-2.1,0.2-3.2,0.1c-1-0.1-0.3-1.2-0.6-1.7
				c-0.2-0.8,0.1-1.6-0.2-2.3c0-0.5,0-1.1,0-1.6c-0.1,0-0.2,0-0.3,0c-0.6,1.6-1.2,3.1-1.6,4.7c-0.2,0.8-0.6,1.1-1.5,1.1
				c-2.7,0-2.7,0-3.5-2.7c-0.3-1-0.7-2.1-1-3.1c-0.4,0.3-0.3,0.7-0.3,1c-0.3,0.7,0,1.4-0.2,2.1c0,0.1,0,0.2,0,0.2
				c-0.2,3.3,0,2.4-3.2,2.5c-1.1,0-0.3-1-0.6-1.4c0.3-0.7,0-1.4,0.2-2.1c0-0.7,0-1.3,0.1-2c0.2-0.6,0-1.2,0.2-1.8c0-0.7,0-1.3,0.1-2
				C555.2,677.9,554.9,677.2,555.1,676.5z"/>
			<path fill="#85AF3D" d="M592.4,672.2c1.1,0.1,2.6-0.5,3.3,0.2c0.7,0.7,0.2,2.1,0.2,3.3c0,3.7,0,7.4,0,11.1c0,0.9-0.3,1-1.1,1.1
				c-2.1,0.3-3.5-0.4-4.3-2.5c-0.8-2.1-2.1-3.9-3.2-5.9c-0.7,0.1-0.3,0.7-0.3,1c0,2,0,4.1,0,6.1c0,0.4,0.1,0.8-0.1,1.2
				c-0.9,0-1.9,0-2.8,0c-0.5,0-0.7-0.2-0.7-0.7c0-4.7,0-9.3,0-14c0-0.5,0.1-0.7,0.6-0.7c0.1,0,0.3,0,0.4,0c2-0.3,3.3,0.2,4.2,2.3
				c0.9,2.1,2.2,3.9,3.4,5.8c0.7-0.1,0.3-0.7,0.3-1c0-2,0-4.1,0-6.1C592.3,673,592.1,672.6,592.4,672.2z"/>
			<path fill="#85AF3D" d="M614.8,687.9c-4.2,0.1-7.8-3.5-7.7-8c0.1-4.4,3.4-7.7,7.8-7.7c4.6,0.1,7.8,3.4,7.9,7.9
				C622.7,684.4,619,687.9,614.8,687.9z"/>
			<path fill="#85AF3D" d="M575.2,678.1c1.4,0,2.8,0.1,4.3,0.1c0.6,0,0.8,0.2,0.8,0.8c0.1,2.8,0.2,2.8-2.6,2.8
				c-0.8,0-1.7,0.1-2.5,0.1c-0.2,0.8-0.2,1.6,0,2.3c1.8,0,3.5,0.1,5.3,0.1c0.7,0,1,0.1,1,0.9c0,2.6,0.1,2.6-2.5,2.6
				c-2.2,0-4.4,0-6.6,0c-0.8,0-1-0.2-1-1c0-4.6,0-9.2,0-13.8c0-0.8,0.3-1,1-1c2.7,0,5.4,0,8.1,0c0.8,0,1,0.2,1,1
				c0,2.6,0,2.6-2.6,2.6c-1.3,0-2.5,0.1-3.8,0.1C575,676.6,575,677.4,575.2,678.1z"/>
			<path fill="#85AF3D" d="M549.9,672.9c-0.6,0.1-0.6,0.7-0.7,1.1c-1.5,4.2-2.9,8.4-4.3,12.7c-0.3,0.9-0.6,1.3-1.6,1.2
				c-2.2-0.1-2.2,0-2.8-2.1c-1.3-4.1-2.6-8.1-4-12.2c-0.1-0.5-0.3-0.9-0.4-1.4c1.2,0,2.6-0.4,3.5,0.1c1,0.5,0.9,2,1.2,3.1
				c0.7,1.9,1.2,3.8,1.9,5.7c0,0,0.1,0.1,0.2,0.2c0.6-1.6,1.1-3.1,1.7-4.7c0.2-0.5,0.3-1,0.5-1.4c1.1-3.2,1.1-3.2,4.6-2.9
				C549.8,672.4,550,672.6,549.9,672.9z"/>
			<path fill="#85AF3D" d="M617.4,650.4c0,3.7,0,7.4,0,11.1c0,0.8-0.3,1-1.1,1.1c-1.5,0.1-2.5-0.1-3.1-1.7c-0.7-1.7-1.8-3.2-3-4.8
				c0,1.8-0.1,3.6,0,5.3c0.1,1.3-0.6,1.2-1.5,1.2c-0.8,0-1.5,0.2-1.5-1.1c0.1-3.4,0.1-6.7,0-10.1c0-0.8,0.2-1.1,1.1-1.2
				c1.6-0.2,2.4,0.4,3.1,1.8c0.7,1.6,1.7,3,2.6,4.6c0.7,0,0.4-0.6,0.4-0.9c0.1-1.8-0.1-3.6,0.1-5.4c0.9,0,1.9,0,2.8,0.1
				C617.5,650.3,617.5,650.3,617.4,650.4C617.5,650.4,617.5,650.4,617.4,650.4z"/>
			<path fill="#85AF3D" d="M640.2,657.2c-1.1,3.7-3.3,5.5-7,5.3c-2.8-0.2-5.1-2.3-5.4-5.3c-0.3-2.4,0.4-4.4,2.5-5.8
				c3.5-2.6,8.3-0.7,9.6,2.9c0.1,0.4,0.3,0.8,0.4,1.2C640.4,656.1,640.4,656.7,640.2,657.2z"/>
			<path fill="#85AF3D" d="M600,675.8c-0.9,0-1.8-0.1-2.8-0.1c-0.2-1.2-0.2-2.4,0-3.5c2.8,0,5.6,0,8.5,0c0.8,0,1.2,0.2,1.1,1.1
				c0,0.2,0,0.3,0,0.5c0,2,0,2-2,2c-0.9,0-1,0.3-1,1.1c0,3.3,0,6.7,0,10c0,0.9-0.3,1.2-1.1,1.1c-0.8-0.1-1.6,0-2.4,0
				c-0.2-3.5,0-7-0.1-10.6C600.1,676.8,600.2,676.3,600,675.8z"/>
			<path fill="#85AF3D" d="M570.4,650.2c2.2,0,4.4-0.1,6.3,1.4c2,1.6,2.9,4.3,2.1,6.7c-0.8,2.5-3.1,4.3-5.7,4.3c-0.9,0-1.8,0-2.8,0
				c-0.3-0.9-0.1-1.7-0.1-2.6c0-2.9,0-5.7,0-8.6C570.3,651,570.1,650.6,570.4,650.2z"/>
			<path fill="#84AF3D" d="M606,662.6c-2.6,0-5.2,0-7.8,0c-0.3-2.5-0.1-4.9-0.1-7.4c0-1.7-0.1-3.3,0.1-5c2.6,0,5.2,0,7.8,0
				c0.2,0.9,0.2,1.8,0,2.8c-1.4,0-2.8,0-4.3,0c-0.9,0-0.8,0.5-0.8,1c0,0.6,0,1.1,0.8,1c1.1-0.1,2.2,0,3.3,0c0.2,0.9,0.2,1.9,0,2.8
				c-1,0-2.1,0.1-3.1,0c-0.8-0.1-1,0.3-1,1c0,0.7,0.1,1.1,0.9,1c1.4-0.1,2.8,0,4.1,0C606.3,660.7,606.3,661.6,606,662.6z"/>
			<path fill="#84AF3D" d="M586.6,657.8c-1,0-2.1,0.1-3.1,0c-0.8-0.1-1,0.3-1,1c0,0.7,0.1,1.1,0.9,1c1.4-0.1,2.8,0,4.1,0
				c0.2,0.9,0.2,1.8,0,2.8c-2.6,0-5.2,0-7.8,0c-0.3-2.5-0.1-4.9-0.1-7.4c0-1.7-0.1-3.3,0.1-5c2.6,0,5.2,0,7.8,0
				c0.2,0.9,0.2,1.8,0,2.8c-1.4,0-2.8,0-4.3,0c-0.9,0-0.8,0.5-0.8,1c0,0.6,0,1.1,0.8,1c1.1-0.1,2.2,0,3.3,0
				C586.8,655.9,586.8,656.8,586.6,657.8z"/>
			<path fill="#85AF3D" d="M593.7,653.3c-0.5-0.4-1.2-0.7-1.6,0c-0.4,0.8,0.5,1,1,1.2c1.2,0.5,2.5,0.7,3.3,1.9
				c0.8,1.3,0.9,2.6,0.3,3.9c-0.6,1.5-1.9,2.2-3.4,2.4c-2.3,0.2-3.7-0.8-4.5-2.9c-0.3-0.9-0.3-1.5,0.9-1.4c0.9,0.1,1.8-0.2,2.2,1
				c0.1,0.4,0.6,0.7,1.2,0.5c0.5-0.2,1-0.5,1-1.1c0-0.5-0.3-0.9-0.8-1.1c-1-0.5-2.3-0.6-3.2-1.6c-1.1-1.2-1.4-3-0.6-4.5
				c0.8-1.5,2.5-2.1,4.2-1.7c1.8,0.5,2.7,1.6,2.9,3.5C595.7,653.6,594.6,653.8,593.7,653.3z"/>
			<path fill="#85AF3D" d="M617.4,650.4c0-0.1,0-0.1,0-0.2c1.9-0.9,3-0.4,3.6,1.5c0.5,1.8,1.2,3.6,1.8,5.7c0.8-2.3,1.5-4.3,2.2-6.4
				c0.1-0.4,0.1-1,0.7-1.1c0.8-0.1,1.6-0.1,2.4,0c0.3,0,0.2,0.4,0.1,0.6c-1.3,3.8-2.5,7.6-3.8,11.3c-0.1,0.4-0.4,0.6-0.9,0.6
				c-2.1,0.1-2,0.1-2.6-1.9c-1-3.1-1.9-6.1-3-9.1C617.8,651.2,618,650.6,617.4,650.4z"/>
			<path fill="#FE931E" d="M645.3,680c-1.8-0.8-3.4-1.6-4.9-2.2c-0.6-0.2-0.6-0.4-0.4-1c1-2.7,1-2.7,3.7-1.6
				c2.1,0.9,4.1,1.9,6.2,2.8c0.5,0.2,0.8,0.5,0.7,1.1c-0.1,0.6,0,1.2,0,1.8c0,0.5-0.1,0.8-0.6,1c-2.7,1.2-5.4,2.4-8.2,3.6
				c-0.4,0.2-0.7,0.2-0.9-0.3c-0.3-0.7-0.6-1.4-0.9-2.1c-0.3-0.7,0.3-0.8,0.6-1C642,681.4,643.5,680.8,645.3,680z"/>
			<path fill="#FE931E" d="M633.1,672.1c2.1,0.6,3.8,1.6,4.4,4c0.5,2.2-0.4,3.7-1.9,5.1c-0.2,0.2-0.5,0.4-0.8,0.6
				c-0.4,0.3-0.1,1.2-0.8,1.3c-1,0.1-2,0-3,0c-0.4,0-0.3-0.2-0.2-0.5c0.2-1.8,1.3-3.1,2.5-4.3c0.5-0.4,1-0.9,0.6-1.6
				c-0.3-0.5-0.8-0.9-1.4-0.9c-0.8,0-1.2,0.4-1.3,1.2c-0.3,0.5,0.1,1.1-0.2,1.6c-0.5,0-1,0-1.5,0c-2.1,0-2.5-0.5-1.8-2.7
				c0.7-2.2,2.1-3.4,4.4-3.7C632.3,672,632.7,672.1,633.1,672.1z"/>
			<path fill="#85B03D" d="M549.9,672.9c-0.1-0.2-0.2-0.4-0.3-0.7c1.3,0,2.5,0,3.8-0.1c0.2,0.6,0.1,1.2,0.1,1.9c0,4.2,0,8.4,0,12.6
				c0,0.4,0.1,0.8-0.1,1.2c-1.1-0.1-2.6,0.5-3.3-0.2c-0.7-0.7-0.2-2.1-0.2-3.3C549.9,680.5,549.9,676.7,549.9,672.9z"/>
			<path fill="#85B03E" d="M641,656.3c0-1.7,0-3.5,0-5.2c0-0.8,0.2-1.1,1-1c0.3,0,0.7,0,1,0c0.7-0.1,0.9,0.3,0.9,0.9
				c0,2.5,0,5.1,0,7.6c0,0.9,0.3,1.2,1.1,1.1c0.7-0.1,1.4,0.1,2,0c1.2-0.2,1.5,0.3,1.5,1.4c0,1.1-0.3,1.4-1.4,1.4
				c-1.7-0.1-3.4-0.1-5.1,0c-0.9,0-1.1-0.3-1-1.1C641.1,659.8,641,658,641,656.3z"/>
			<path fill="#FE931E" d="M542,656.4c1.3,0.6,2.4,1.1,3.6,1.6c0.6,0.3,0.7,0.5,0.4,1.2c-0.9,1.9-0.8,1.9-2.7,1.1
				c-1.6-0.7-3.1-1.4-4.7-2.1c-0.7-0.3-0.8-0.8-0.7-1.4c0.1-0.7-0.5-1.7,0.7-2.2c2-0.9,4.1-1.7,6-2.7c0.8-0.4,0.8,0,1.1,0.5
				c0.9,1.9,0.9,1.9-1,2.7c-0.5,0.2-1,0.4-1.5,0.7C542.7,656,542.4,656.2,542,656.4z"/>
			<path fill="#FE931E" d="M547.9,654.9c0.2-1,0-2,0.6-3c1.1-1.8,2.7-2,4.5-1.7c1.5,0.2,2.4,1.2,2.9,2.5c0.6,1.7,0,3.1-1.1,4.3
				c-0.4,0.4-0.8,0.9-1.2,1.4c-0.6,0.8-1.7,0.4-2.6,0.3c-0.6-0.1-0.2-0.9-0.1-1.4c0.2-1,1-1.6,1.6-2.3c0.4-0.5,1-0.9,0.5-1.6
				c-0.3-0.5-0.8-0.7-1.3-0.5c-0.7,0.2-0.9,0.8-0.9,1.5c0,0.2,0,0.3,0.1,0.5C549.9,655.2,548.9,655.2,547.9,654.9z"/>
			<path fill="#FE931F" d="M562.1,655.5c-0.8,0-1.6,0-2.4,0c-1.7,0-1.7,0-1.6-1.8c0-0.4-0.1-1,0.6-0.9c2.3,0,4.6,0,6.9,0
				c0.2,0,0.5,0,0.5,0.2c0.1,0.7,0.2,1.5,0,2.2c-0.1,0.6-0.9,0.3-1.3,0.3C563.9,655.5,563,655.5,562.1,655.5z"/>
			<path fill="#FE931F" d="M562.2,660c-1,0-1.9-0.1-2.9,0c-1.2,0.1-1.2-0.5-1.2-1.4c0-0.9,0-1.5,1.2-1.4c2,0.1,4,0.1,6.1,0
				c1.3-0.1,0.9,0.8,0.9,1.4c0,0.6,0.3,1.5-0.9,1.4C564.3,660,563.2,660,562.2,660z"/>
			<path fill="#FE931E" d="M632.4,687.9c-0.9,0-1.9-0.9-1.9-1.8c0-0.9,1-1.8,1.9-1.7c1,0,1.9,0.9,1.8,1.8
				C634.3,687.1,633.5,687.9,632.4,687.9z"/>
			<path fill="#0572BA" d="M595.4,701.1c-0.5,0-0.8-0.7-0.6-1.3c0.3-0.8,1.1-1,1.7-1.5c0.3-0.3,0.8-0.4,1.2-0.7
				c0.6-0.4,1.2-0.3,1.6,0.4c0.4,0.7-0.3,0.8-0.6,1.1c-0.8,0.5-1.6,1-2.4,1.6C596.1,700.9,595.7,701,595.4,701.1z"/>
			<path fill="#FE9422" d="M552,662.6c-1-0.1-1.4-0.6-1.3-1.5c0-0.8,0.5-1.3,1.3-1.3c1,0,1.5,0.6,1.5,1.5
				C553.5,662.2,552.8,662.5,552,662.6z"/>
			<path fill="#FDFDFD" d="M553.4,687.9c0-5.2,0-10.5,0-15.7c0.3,0.3,0.2,0.7,0.2,1.1c0,4.5,0,9,0,13.6
				C553.7,687.2,553.8,687.6,553.4,687.9z"/>
			<path fill="#FDFDFD" d="M570.4,650.2c0,4.1,0,8.3,0,12.4c-0.3-0.2-0.3-0.6-0.3-0.9c0-3.5,0-7,0-10.6
				C570.1,650.8,570.1,650.4,570.4,650.2z"/>
			<path fill="#FDFDFD" d="M579.7,650.2c0,4.1,0,8.3,0,12.4c-0.3-0.3-0.2-0.6-0.2-0.9c0-3.5,0-7,0-10.5
				C579.5,650.8,579.4,650.4,579.7,650.2z"/>
			<path fill="#FDFDFD" d="M598.2,650.2c0,4.1,0,8.3,0,12.4c-0.3-0.3-0.2-0.6-0.2-0.9c0-3.5,0-7,0-10.5
				C598,650.8,597.9,650.4,598.2,650.2z"/>
			<path fill="#FDFDFD" d="M600,675.8c0.3,0.7,0.1,1.4,0.2,2.1c0,3.3,0.1,6.6,0.1,10c-0.4-0.4-0.2-0.9-0.2-1.3
				C600,683,600,679.4,600,675.8z"/>
			<path fill="#FDFDFD" d="M586.8,687.9c0-2.7,0-5.4,0.1-8.1c0,0-0.4-1.1,0.4-0.3c-0.5,1.5-0.1,3.1-0.2,4.7
				C587,685.4,587.4,686.7,586.8,687.9z"/>
			<path fill="#FDFDFD" d="M592.4,672.2c0,2.7,0,5.4-0.1,8.1c0,0.2,0.2,0.5-0.2,0.5c-0.1,0-0.1-0.2-0.2-0.3c0.5-1.6,0.1-3.3,0.2-4.9
				C592.2,674.4,591.8,673.3,592.4,672.2z"/>
			<path fill="#FDFDFD" d="M614.6,650.2c0,2.3,0,4.5,0,6.9c-0.4-0.1-0.5-0.3-0.5-0.5c0.5-0.5,0.2-1.2,0.3-1.8
				C614.6,653.2,614.1,651.7,614.6,650.2z"/>
			<path fill="#FDFDFD" d="M597.2,672.2c0,1.2,0,2.4,0,3.5C596.8,674.5,596.8,673.4,597.2,672.2z"/>
			<path fill="#FDFDFD" d="M593.7,653.3c1,0.5,2,0.2,3,0.2C595.7,653.7,594.6,654.1,593.7,653.3z"/>
			<path fill="#FDFDFD" d="M585.5,633.5c0,1,0,2,0,3C585.2,635.5,585.2,634.5,585.5,633.5z"/>
			<path fill="#FDFDFD" d="M547.9,654.9c1,0.3,2,0.3,3,0C549.9,655.4,548.9,655.4,547.9,654.9z"/>
			<path fill="#FDFDFD" d="M615.6,622.1c0,1,0,2,0,3C615.3,624.1,615.3,623.1,615.6,622.1z"/>
			<path fill="#FDFDFD" d="M606,662.6c0-0.9,0-1.8,0-2.8C606.5,660.7,606.5,661.6,606,662.6z"/>
			<path fill="#FDFDFD" d="M587.6,662.6c0-0.9,0-1.8,0-2.8C588,660.7,588,661.6,587.6,662.6z"/>
			<path fill="#FDFDFD" d="M586.6,657.8c0-0.9,0-1.9,0-2.8C587,655.9,587,656.8,586.6,657.8z"/>
			<path fill="#FDFDFD" d="M587.6,652.9c0-0.9,0-1.8,0-2.8C588,651.1,588,652,587.6,652.9z"/>
			<path fill="#FDFDFD" d="M606,652.9c0-0.9,0-1.8,0-2.8C606.5,651.1,606.5,652,606,652.9z"/>
			<path fill="#FDFDFD" d="M605,657.8c0-0.9,0-1.9,0-2.8C605.4,655.9,605.4,656.8,605,657.8z"/>
			<path fill="#FDFDFD" d="M575.2,684.2c-0.3-0.8-0.3-1.6,0-2.3C575.2,682.7,575.2,683.4,575.2,684.2z"/>
			<path fill="#FDFDFD" d="M575.2,678.1c-0.3-0.8-0.3-1.6,0-2.3C575.2,676.6,575.2,677.4,575.2,678.1z"/>
			<path fill="#FDFDFD" d="M570.1,679.1c-0.3-0.8-0.2-1.6-0.2-2.3C570.3,677.5,570.1,678.3,570.1,679.1z"/>
			<path fill="#FDFDFD" d="M566.6,683.8c0.3,0.8,0.2,1.5,0.2,2.3C566.4,685.3,566.7,684.5,566.6,683.8z"/>
			<path fill="#FDFDFD" d="M569.9,674.8c-0.3-0.8-0.2-1.5-0.2-2.3C570.1,673.2,569.8,674,569.9,674.8z"/>
			<path fill="#FDFDFD" d="M570.6,687.7c-0.3-0.7-0.2-1.4-0.2-2.1C570.8,686.3,570.6,687,570.6,687.7z"/>
			<path fill="#FDFDFD" d="M555.1,676.5c0,0.7,0.1,1.4-0.2,2.1C555,677.9,554.8,677.1,555.1,676.5z"/>
			<path fill="#FEFEFE" d="M606.3,628.4c-0.1,0.6,0.2,1.3-0.2,1.9C606.1,629.7,605.8,629,606.3,628.4z"/>
			<path fill="#FDFDFD" d="M555.4,672.4c0,0.7,0.1,1.4-0.2,2.1C555.3,673.8,555,673.1,555.4,672.4z"/>
			<path fill="#FDFDFD" d="M554.6,684.3c0,0.7,0.1,1.4-0.2,2.1C554.5,685.7,554.2,685,554.6,684.3z"/>
			<path fill="#FDFDFD" d="M570.4,683.4c-0.3-0.7-0.2-1.4-0.2-2.1C570.6,682,570.3,682.7,570.4,683.4z"/>
			<path fill="#FDFDFD" d="M558.3,685.1c0-0.7-0.1-1.4,0.2-2.1C558.4,683.7,558.7,684.4,558.3,685.1z"/>
			<path fill="#FDFDFD" d="M555,622.8c0-0.6,0-1.2,0-1.7C555.3,621.7,555.3,622.2,555,622.8z"/>
			<path fill="#FDFDFD" d="M592.3,627.9c0,0.6,0,1.2,0,1.8C592,629.1,592,628.5,592.3,627.9z"/>
			<path fill="#FEFEFE" d="M600.1,634c-0.6,0.3-1.3,0.3-1.9,0C598.8,634,599.4,634,600.1,634z"/>
			<path fill="#FDFDFD" d="M640.2,657.2c0-0.6,0-1.2,0-1.7C640.6,656.1,640.6,656.7,640.2,657.2z"/>
			<path fill="#FDFDFD" d="M558.7,632.5c-0.3-0.6-0.3-1.3,0-1.9C558.7,631.3,558.7,631.9,558.7,632.5z"/>
			<path fill="#FDFDFD" d="M554.9,680.5c0,0.6,0.1,1.2-0.2,1.8C554.8,681.8,554.5,681.1,554.9,680.5z"/>
			<path fill="#FDFDFD" d="M630.9,678.5c0.2-0.5-0.1-1.1,0.2-1.6C631,677.5,631.3,678,630.9,678.5z"/>
			<path fill="#FDFDFD" d="M613.7,619.8c0-0.5,0-1,0-1.5C614,618.8,614,619.3,613.7,619.8z"/>
			<path fill="#FEFEFE" d="M549.8,634.3c-0.6,0.3-1.2,0.3-1.7,0C548.6,634.3,549.2,634.3,549.8,634.3z"/>
			<path fill="#FDFDFD" d="M633.6,631.4c-0.4,0.3-0.8,0.2-1.2,0.2c0,0-0.1,0-0.1-0.1c0,0,0-0.1,0.1-0.1
				C632.8,631.4,633.2,631.4,633.6,631.4z"/>
			<path fill="#FEFEFE" d="M555.7,629.4c-0.1,0.5,0.2,1-0.2,1.4C555.5,630.4,555.3,629.9,555.7,629.4z"/>
			<path fill="#FDFDFD" d="M612.2,632.7c-0.5,0.3-1,0.3-1.5,0C611.2,632.7,611.7,632.7,612.2,632.7z"/>
			<path fill="#FDFDFD" d="M619.7,617.7c-0.4,0-0.8,0-1.2,0C618.9,617.4,619.3,617.4,619.7,617.7z"/>
			<path fill="#FDFDFD" d="M633.1,672.1c-0.4,0-0.8,0-1.2,0C632.3,671.8,632.7,671.8,633.1,672.1z"/>
			<path fill="#FDFDFD" d="M563.3,620.3c0-0.4,0-0.8,0-1.3C563.7,619.5,563.7,619.9,563.3,620.3z"/>
			<path fill="#FDFDFE" d="M625.9,624.7c-0.1,1.6,0,3,0.4,4.4c0.3,1.1,0.8,2.1,1.7,2.7c0.7,0.5,0.4,0.7-0.1,1.1
				c-1.7,1.3-3.8,0.6-4.3-1.4C623,629.3,624,626.3,625.9,624.7z"/>
			<path fill="#FDFDFE" d="M631.9,624.8c0.1,1.9-0.5,3.6-1.3,5.2c-0.4,0.9-0.8,0.6-1.2,0c-1-1.7-0.3-5.7,1.3-7.1
				c0.2-0.2,0.5-0.4,0.8-0.3c0.4,0.1,0.4,0.5,0.4,0.8C631.9,623.9,631.9,624.3,631.9,624.8z"/>
			<path fill="#FCFDFE" d="M596.5,626.1c-0.3-0.1-1,0.1-0.7-0.5c0.8-1.7,1.7-3.3,3.5-4.2c0.6-0.3,1.3-0.7,1.9,0
				c0.5,0.5,0.1,1.2-0.2,1.7C599.9,624.8,598.4,625.9,596.5,626.1z"/>
			<path fill="#F9FBFD" d="M617.6,626.6c-1.2-2.3-0.6-4.2,0.3-6.1c0.2-0.3,0.4-0.7,0.9-0.6c0.4,0.1,0.4,0.6,0.4,1
				C619.1,622.9,618.3,624.6,617.6,626.6z"/>
			<path fill="#FBFDFD" d="M545.6,626.8c0.8-1.8,1.7-3.4,3.4-4.4c0.6-0.3,1.3-0.7,1.8-0.1c0.6,0.6,0.1,1.2-0.2,1.7
				C549.5,625.8,548,627,545.6,626.8z"/>
			<path fill="#FEFEFE" d="M619,680c0,2.4-1.8,4.3-4.2,4.3c-2.3,0-4.2-2-4.2-4.3c0-2.4,1.9-4.3,4.2-4.3
				C617.2,675.7,619,677.6,619,680z"/>
			<path fill="#FEFEFE" d="M634.1,652.9c1.8,0,3.3,1.6,3.3,3.4c0,1.9-1.6,3.5-3.5,3.4c-1.8,0-3.3-1.6-3.3-3.5
				C630.7,654.5,632.2,652.9,634.1,652.9z"/>
			<path fill="#FDFDFC" d="M573.2,656.3c0-0.9,0-1.8,0-2.7c0-0.6,0.2-0.7,0.8-0.5c1.3,0.4,2.3,1.7,2.3,3.1c0,1.4-0.7,2.7-2,3.2
				c-0.6,0.3-1.1,0.4-1.1-0.6C573.2,657.9,573.2,657.1,573.2,656.3z"/>
		</g>
	</g>
</g>
<path fill="#FFFFFF" stroke="#253039" stroke-miterlimit="10" d="M333.7,203.2"/>
</svg>
