<?xml version="1.0" encoding="utf-8"?>
<!-- Generator: Adobe Illustrator 19.0.0, SVG Export Plug-In . SVG Version: 6.00 Build 0)  -->
<svg version="1.1" xmlns="http://www.w3.org/2000/svg" xmlns:xlink="http://www.w3.org/1999/xlink" x="0px" y="0px"
	 viewBox="0 0 287.2 577.8" style="enable-background:new 0 0 287.2 577.8;" xml:space="preserve">
<style type="text/css">
	.st0{opacity:0.2;fill:#BC8542;}
	.st1{fill:#F7DEBF;}
	.st2{fill:#BC8542;}
	.st3{fill:#E9BF9E;}
	.st4{fill:#493F3E;}
	.st5{fill:#833741;}
	.st6{fill:#FFFFFF;}
	.st7{fill:#323526;}
	.st8{fill:#44484F;}
	.st9{fill:#65646B;}
	.st10{opacity:0.3;}
	.st11{opacity:0.4;fill:#493F3E;}
	.st12{fill:#CA4E46;}
	.st13{fill:#DBDEDC;}
</style>
<g id="Background">
</g>
<g id="Objects">
	<g>
		<g>
			<path class="st0" d="M248.2,544.8c-9.5-7.7-25.2-7.9-36.7-8.8c-19-1.5-37.9-2.6-56.9-2.7c-11.2-0.1-22.3,0.2-33.4,0.7
				c-6.5,0.3-13.6,0.8-20.3,2.2c-2.8,0.3-5.6,0.6-8.4,0.9c-13.7,1.6-27.6,0.6-41,4.6c-10.5,3.1-26.5,12-17.3,24.8
				c5.1,7.1,19,7.2,26.8,8c16.4,1.7,33,1,49.5,0.9c17.3-0.2,34.5,1.3,51.8,2c17.4,0.7,34.8,0.6,52.2-0.3c9-0.5,18.8-0.8,27.5-3.5
				c5.8-1.9,11.1-4.8,13.3-10.9C257.7,555.7,253.3,549,248.2,544.8z"/>
			<g>
				<g>
					<path class="st1" d="M241.7,268.4c0.5-0.2,0.8-0.3,0.8-0.3c8.1-55,0.1-98.9-18-124.8c-43.1-61.7-139-45-168.4-5.3
						c-33.7,45.5-14.5,136.6-14.5,136.6c0.1,0,0.3,0.1,0.4,0.1C139.1,301.2,232.5,271.5,241.7,268.4z"/>
					<path class="st2" d="M35.8,220.9c0,0,6.5-13.3,16.6-4.8c10.1,8.5,1.1,27.7,1.1,27.7l12.6,0.5c0,0,5.1-26.6,0-45.2
						c-5.1-18.6-4.6-40.5,7.2-52.2c11.7-11.7,28.7,0,69.2,0c40.5,0,45.8-14.4,61.7,0c16,14.4,18.1,35.6,16.5,51
						c-1.6,15.4,1.6,39.3,1.6,39.3h8.5c0,0-5.8-38.8,14.1-27.6c0,0-5.1-43.4-5.1-62.2c0-22.9-11.2-46.8-30.3-52.1
						c-7.7-2.1-14.8,2.6-21.8,0c-10.5-3.8-20.4-10.9-29.3-11.2c-14.9-0.5-16.5,6.9-34.1,4.8c-4.8-0.6-19.2-4.8-29.8-1.6
						c-10.6,3.2-17,19.7-25,22.9c-8,3.2-11.9,0.5-20.8,11.2C40,132,39,154.9,38.5,160.8C37.9,166.6,32.9,207,35.8,220.9z"/>
					<g>
						<path class="st3" d="M142,204.4c0,0-13.8,27.7-5.9,34.1c8,6.4,14.9,2.1,17-3.7C155.3,228.9,142,204.4,142,204.4z"/>
						<g>
							<path class="st4" d="M124,197.8c-0.5-0.3-1-0.6-1.5-0.8c-1.2-0.4-2.4-0.4-3.5,0c-0.6,0.1-1.2,0.3-2,0.6
								c-1.5,0.6-2.7,2.2-3.2,3.7c-0.5,1.6-0.4,3.4,0.3,4.9c1.7,3.4,6.1,4.9,9.5,3.1c2.1-1.1,3.5-3,3.6-5.4
								C127.4,201.4,126.1,199.1,124,197.8z"/>
							<path class="st4" d="M160,198.2c-5.2,0-5.9,8.1-0.6,8.1C164.6,206.3,165.2,198.2,160,198.2z"/>
						</g>
						<path class="st5" d="M146.4,252.4c-2-1-3.8,0.3-4.5,2.2c-0.7,2,0,4.7,1.8,5.9c0.1,0.1,0.2,0.1,0.4,0.2
							c-0.5,0.8-1.2,1.5-1.9,2.1c-1.3,1,0.2,2.8,1.5,2.3c2.6-0.9,4.4-3.4,4.9-6.1C148.9,257,148.5,253.5,146.4,252.4z"/>
						<path class="st6" d="M163,169.8c-5.5,5.2-12.5,6.8-19.9,5.7c-0.4-0.1-0.7-0.1-1.1-0.2c3.7-4.4,5-9.7,2.6-15.1
							c-2.6-5.6-8.8-7.1-13.6-3.6c-3.5,2.5-5.3,7.7-4.3,11.8c1.1,4.1,4.7,6.8,8.3,8.7c-6.2,4-15.2,5.3-21.3,1.1
							c-1.1-0.8-2.3,1-1.2,1.8c7.3,5.4,18.7,4,26-1.4c9.2,3.1,21.3,1.7,26.9-6.6C166.4,170.4,164.3,168.6,163,169.8z M130.2,164.4
							c0.4-2,1.8-3.6,3.2-5c3.4-3.4,7.1,0.8,8.4,3.6c1.9,4-0.6,8.4-3.5,11.3C133.7,172.6,129.1,169.3,130.2,164.4z"/>
					</g>
				</g>
				<g>
					<path class="st7" d="M90.4,547.7c0,0-7.1,0.5-8.6,0.7c-2.3,0.3-5.1,1.3-6.1,3.6c-2.1,4.9,4.2,6.7,7.8,6.8c4.5,0.1,9-0.9,13.4-2
						c7.1-1.9,4.7-10.1,4.7-10.1L90.4,547.7z"/>
					<path class="st7" d="M180,549.3c1.3,9.2,19.6,8.1,26,6.2c4.6-1.4,6.4-6.2,1.7-9c-2.3-1.4-5.3-0.8-7.8-0.4
						c-2.6,0.4-8.1,0.8-8.1,0.8L180,549.3z"/>
					<path class="st8" d="M238.6,420.9c0,0-1.1-0.2-3.2-0.5c-94,20.1-184.3,1.7-192.5-0.1c-0.2,0.3-0.4,0.7-0.6,1.1
						c0,0,5.3,13.9,41.2,31c0,0-0.3,15.8,0.5,35.6c0.9,23.8,5,50.9,6.1,57.9c0.2,1.1,0.3,1.7,0.3,1.7l11.2-1.1c0,0,0-0.6-0.1-1.6
						c-0.4-6.8-1.6-33.9,0.1-50.9c1.6-16,6.6-33.2,6.6-33.2s33.1,6.4,58.5-0.3c0,0,8.8,31.1,10.1,44.6c1.2,11.9,3.2,44.2,3.2,44.2
						l0.4-0.1l11.5-2.4c0,0,0-0.3,0.1-1c0.4-5.2,2-30.5,0.6-46.6c-0.9-9.9,0.5-21.8-2.6-44.7C190,454.6,226.2,436.2,238.6,420.9z"/>
				</g>
				<g>
					<g>
						<path class="st7" d="M259.3,16.5C255.3,6.4,245.5,0.2,234.7,0c-8.8-0.1-22.3,5.3-18.1,16.6c0.5,1.4,2.4,1.9,3.4,0.7
							c5-5.8,11-6.9,18.6-4.9c4.9,1.3,12,7.5,9.3,13.2c-2.4,5-9.6,8-13.6,11.4c-5.7,4.8-9.8,10.8-9.3,18.5c0.2,3.1,2.4,5.5,5.4,6.2
							c1.9,0.5,3.5,0,5.1-1c1.9-1.2,3.2-3.7,3-6c-0.6-6.8,8.9-11.3,13.3-15C258.9,33.7,263.1,25.8,259.3,16.5z"/>
						<path class="st7" d="M231.5,72.7c-8.9-1.2-11.7,12.5-2.8,13.6C237.5,87.5,240.4,73.9,231.5,72.7z"/>
					</g>
					<g>
						<path class="st9" d="M183.5,63.3c1.8,5.7,6.9,9.5,12.8,10c4.8,0.4,12.4-2,10.6-8.3c-0.2-0.8-1.2-1.1-1.8-0.5
							c-3,3-6.3,3.3-10.4,1.9c-2.6-0.9-6.3-4.6-4.5-7.6c1.5-2.6,5.6-4,7.9-5.7c3.3-2.4,5.8-5.5,5.8-9.7c0-1.7-1.1-3.1-2.7-3.6
							c-1-0.4-1.9-0.2-2.9,0.3c-1.1,0.6-1.9,1.9-1.9,3.1c0.1,3.8-5.3,5.8-7.9,7.6C184.5,53.9,181.9,58,183.5,63.3z"/>
						<path class="st9" d="M201.1,33.7c4.8,1,6.9-6.3,2.1-7.3C198.4,25.4,196.3,32.7,201.1,33.7z"/>
					</g>
					<g class="st10">
						<path class="st9" d="M282.4,101.3c1.6-3.6,0.7-7.8-2-10.6c-2.2-2.3-7.1-4.4-8.9-0.5c-0.2,0.5,0.1,1.1,0.7,1.1
							c2.8-0.2,4.6,1.1,6,3.6c0.9,1.6,1.1,5-1.1,5.8c-1.9,0.6-4.5-0.4-6.4-0.6c-2.7-0.3-5.3,0.2-7.2,2.3c-0.8,0.9-0.8,2-0.3,3
							c0.4,0.6,0.9,0.9,1.6,1.1c0.8,0.2,1.8-0.1,2.3-0.8c1.6-1.9,5.2-0.6,7.3-0.4C277.8,105.6,280.9,104.7,282.4,101.3z"/>
						<path class="st9" d="M260.7,108.4c-2-2.6-6.2,0.1-4.3,2.7C258.4,113.7,262.7,111,260.7,108.4z"/>
					</g>
					<g class="st10">
						<path class="st9" d="M102.7,15.3c-3.6-5.3-10-7.6-16.2-6.4c-5.1,1-12.1,5.9-8.3,11.8c0.5,0.7,1.6,0.8,2,0
							c2.2-4,5.5-5.3,10.1-5.1c3,0.1,7.9,2.8,7,6.4c-0.7,3.1-4.5,5.8-6.4,8.3c-2.7,3.5-4.3,7.4-3,11.8c0.5,1.8,2.1,2.8,3.9,2.9
							c1.1,0,2-0.4,2.8-1.2c0.9-0.9,1.4-2.5,1-3.8c-1.2-3.8,3.7-7.6,5.8-10.3C104.7,25.2,106,20.2,102.7,15.3z"/>
						<path class="st9" d="M93.8,51.1c-5.2,0.5-5.2,8.7,0.1,8.2C99.2,58.8,99.1,50.6,93.8,51.1z"/>
					</g>
					<g class="st10">
						<path class="st9" d="M50,100.6c4.5,1.1,9.1-0.6,11.8-4.3c2.2-3,3.8-8.9-1.1-10.3c-0.6-0.2-1.2,0.3-1.1,1
							c0.7,3.2-0.4,5.5-3,7.6c-1.7,1.4-5.6,2.2-6.8-0.1c-1.1-2.1-0.3-5.3-0.5-7.5c-0.2-3.2-1.2-6-4-7.8c-1.1-0.7-2.5-0.5-3.5,0.3
							c-0.6,0.5-0.9,1.2-0.9,2c-0.1,1,0.5,2,1.3,2.5c2.5,1.5,1.6,5.9,1.8,8.3C44.2,96.1,45.9,99.5,50,100.6z"/>
						<path class="st9" d="M37.8,77c2.6-2.7-1.3-7.1-4-4.4C31.2,75.3,35.1,79.7,37.8,77z"/>
					</g>
				</g>
				<g>
					<path class="st6" d="M244.1,275.8c-0.6-2.6-1.4-5.1-2.4-7.4c-9.3,3.1-102.6,32.8-199.8,6.3c-3.5,17.1-12.8,73.5,0.3,145.5
						c0,0,0.2,0,0.6,0.1c8.3,1.8,98.6,20.2,192.5,0.1c1.1-0.2,2.1-0.5,3.2-0.7C238.6,419.8,262.4,354.8,244.1,275.8z"/>
					<g>
						<path class="st11" d="M69.6,177.9c1.5-1.5,2.9-3.4,2.1-5.2c-0.9-2.2-3.6-2.4-5.9-2.4c1.2-3.4,4.6-7.9,0.6-10.4
							c-2.5-1.5-5.2,1-7.3,3.2c-0.1-2.6-0.5-5.8-2.8-5.4c-5.5,0.9-5.5,8.5-7.1,12.8c-4.1,3.4-7.9,6.7-11.4,9.8
							c-0.4,4.5-1.4,8.9-2.2,13.4c-0.2,2-0.4,3.6-0.7,5.5c9.5-10.4,17.4-16.5,17.4-16.5s1.6,0.3,2.2,0.7c4.1,2.5,13.4,5.4,17.6,1.7
							C75.7,182,72.8,179.2,69.6,177.9z M50,171.7c0.2,0,0.4,0.1,0.4,0.1c0,0,0,0,0,0c0,0-0.1,0-0.3,0.1L50,171.7z"/>
						<g>
							<path class="st1" d="M67.5,174.7c1.5-1.5,2.9-3.4,2.1-5.2c-0.9-2.2-3.6-2.4-5.9-2.4c1.2-3.4,4.6-7.9,0.6-10.4
								c-2.5-1.5-5.2,1-7.3,3.2c-0.1-2.6-0.5-5.8-2.8-5.4c-5.8,1-5.4,9.5-7.5,13.6c0.4-0.3,2.8,7.8,5.2,10.6
								c-0.2,0.5,13.8,6.9,18.1,3.2C73.6,178.8,70.7,176.1,67.5,174.7z"/>
							<path class="st6" d="M51.9,178.7c0,0-39.1,29.2-37.5,54.9c1.6,25.7,38.4,80.6,38.4,80.6l-7.6,12.4c0,0-42.3-56.6-44.9-84.4
								c-2.6-27.8,10.8-44.9,47.1-75.1"/>
						</g>
					</g>
					<g>
						<path class="st11" d="M233.8,176.4c0,0,3.2,2.5,8.3,6.7c-0.3-3.4,0-6.7-0.3-10.1c-0.2-0.8-0.4-1.6-0.4-2.5c0-0.1,0-0.3,0-0.4
							c-0.5-1-0.7-2.2-0.8-3.6c0-0.8,0-1.6-0.1-2.5c-0.2-0.2-0.5-0.4-0.7-0.6l-0.2,0.4c-0.2-0.2-0.4-0.4-0.6-0.5
							c0.2-3-1.5-6.6-3.3-8.6c-1-1-2.3-1.6-3.5-1.4c-0.2,0-0.5,0-0.6,0.2c-0.3,0.1-0.5,0.2-0.8,0.4c-0.7,0.5-1.1,1.4-1.2,2.3
							c-2.5-2.5-6.2-5.1-8.5-2.4c-1.3,1.5,0,3.5,1.5,5.2c-2.8-0.1-5.8,0.2-6.8,2.5c-1.2,2.8,1.4,4.1,4.1,4.8
							c-2.2,0.5-3.9,1.8-2.6,4.3c1,2,3.7,2.4,5.6,3c3.5,1,7.4,2.1,11.1,2.6L233.8,176.4z"/>
						<g>
							<path class="st1" d="M238.8,160.2c0.2-3-1.5-6.6-3.3-8.6c-1-1-2.3-1.6-3.5-1.4c-0.2,0-0.5,0-0.6,0.2
								c-0.3,0.1-0.5,0.2-0.8,0.4c-0.7,0.5-1.1,1.4-1.2,2.3c-2.5-2.5-6.2-5.1-8.5-2.4c-1.3,1.5,0,3.5,1.5,5.2
								c-2.8-0.1-5.8,0.2-6.8,2.5c-1.2,2.8,1.4,4.1,4.1,4.8c-2.2,0.5-3.9,1.8-2.6,4.3c1,2,3.7,2.4,5.6,3c3.5,1,7.4,2.1,11.1,2.6
								l5.7-12.4C239.3,160.5,239.1,160.4,238.8,160.2z"/>
							<path class="st6" d="M239.7,160.3l-0.2,0.4l-5.7,12.4l0,0.1c0,0,40.7,27.3,39.1,53c-1.6,25.7-39.5,88-39.5,88l7.6,12.4
								c0,0,43.3-64,46-91.8C289.5,207,275.9,190.5,239.7,160.3z"/>
						</g>
					</g>
					<g>
						<path class="st12" d="M144.4,302.1c0,0-8.6,40.2-7,49.5c1.7,9.3,12.4,45,15.6,45.5c3.2,0.5,13.1-40.1,12.5-46.5
							c-0.6-6.5-13.1-48.8-13.1-48.8s4.2-2.8,5-7.1c1-5.2-3.2-10-10.2-9.5C140.3,285.8,135.1,294.4,144.4,302.1z"/>
						<g>
							<path class="st13" d="M41.4,271.3l-1.3,13.3c0,0,59.1,13.8,82,28.3c0,0,7.2-26.8,24.9-27.8
								C147.1,285.1,88.2,287.7,41.4,271.3z"/>
							<path class="st13" d="M155.9,284.5c0,0,33.8,4,38.5,24.1c0,0,26.3-23.2,50.9-27.7c0,0-1.2-10.2-2.8-12.8
								C242.5,268.2,196.5,279.7,155.9,284.5z"/>
						</g>
					</g>
				</g>
			</g>
		</g>
	</g>
</g>
</svg>
