<?xml version="1.0" encoding="utf-8"?>
<!-- Generator: Adobe Illustrator 19.0.0, SVG Export Plug-In . SVG Version: 6.00 Build 0)  -->
<svg version="1.1" id="Camada_1" xmlns="http://www.w3.org/2000/svg" xmlns:xlink="http://www.w3.org/1999/xlink" x="0px" y="0px"
	 viewBox="0 0 647.7 340.2" style="enable-background:new 0 0 647.7 340.2;" xml:space="preserve">
<style type="text/css">
	.st0{fill:#FFFFFF;}
</style>
<g id="XMLID_3_">
	<path id="XMLID_4_" class="st0" d="M168.4,34c0,5.5-1.2,10.3-3.7,14.6c-2.4,4.3-5.7,8-9.7,11c-4,3-8.5,5.5-13.3,7.5
		c-4.9,2-9.6,3.4-14.2,4.3c-0.6,32.4-1.8,63.7-3.7,93.9c-1.9,30.1-4.8,61.3-8.8,93.4h2.6c4.6,0,9.1,0.5,13.6,1.5
		c4.4,1,8.5,2.7,12.1,5.2c3.6,2.4,6.5,5.5,8.6,9c2.2,3.6,3.2,8,3.2,13.1c0,6.6-2.1,12.3-6.2,17.2c-4.2,4.9-9.6,9-16.4,12.5
		c-6.7,3.4-14.3,6.3-22.6,8.6c-8.3,2.3-16.7,4.1-25,5.4c-8.3,1.3-16.2,2.2-23.7,2.8c-7.5,0.6-13.5,0.9-18.1,0.9
		c-3.4,0-7.7-0.1-12.7-0.4c-5-0.3-9.8-1.2-14.2-2.6c-4.5-1.4-8.3-3.6-11.4-6.5c-3.2-2.9-4.7-6.7-4.7-11.6c0-6,1.2-11.4,3.7-16.1
		c2.4-4.7,5.7-9,9.7-12.7c4-3.7,8.5-6.7,13.6-9c5-2.3,10.1-4,15.3-5.2c2-15.8,3.9-31.5,5.6-47.2c1.7-15.6,2.9-31.5,3.4-47.6
		c0.6-16.4,1.1-32.5,1.7-48.4c0.6-15.9,1.1-31.9,1.7-48c-2,0.3-3.9,0.5-5.6,0.6c-1.7,0.1-3.3,0.2-4.7,0.2c-4,0-8.3-0.4-12.9-1.3
		c-4.6-0.9-8.9-2.4-12.9-4.5c-4-2.2-7.4-4.8-10.1-8c-2.7-3.2-4.1-7.2-4.1-12.1c0-9.8,4.1-17.8,12.3-24.1
		c8.2-6.3,17.9-11.2,29.3-14.6c11.3-3.4,22.9-5.8,34.7-7.1c11.8-1.3,21.2-1.9,28.4-1.9c4,0,9.3,0.3,15.9,0.9
		c6.6,0.6,13.1,1.9,19.6,3.9c6.5,2,12.1,4.7,16.8,8.2C166,23.3,168.4,28,168.4,34z"/>
	<path id="XMLID_6_" class="st0" d="M408.5,267c0,7.2-2.9,13.9-8.8,20.2c-5.9,6.3-13.5,12.1-22.8,17.2c-9.3,5.2-19.7,9.7-31.2,13.6
		c-11.5,3.9-22.8,7.2-34,9.9c-11.2,2.7-21.7,4.8-31.7,6.2c-9.9,1.4-17.7,2.2-23.5,2.2c-5.5,0-11.3-0.5-17.4-1.5
		c-6.2-1-11.3-3.2-15.3-6.7c-2.3-1.7-4.3-5.6-6-11.6c-1.7-6-3.4-13.2-5-21.5c-1.6-8.3-2.9-17.3-4.1-26.9c-1.2-9.6-2.1-19-2.8-28.2
		c-0.7-9.2-1.3-17.7-1.7-25.4c-0.4-7.8-0.6-13.8-0.6-18.1c0-7.2,0.2-15.9,0.6-26.1c0.4-10.2,1.1-21.1,1.9-32.7s2-23.5,3.4-35.5
		c1.4-12.1,3.1-23.5,5-34.2c1.9-10.8,4.2-20.5,6.9-29.1c2.7-8.6,5.7-15.4,8.8-20.2c5.5-7.8,12.3-11.6,20.7-11.6
		c5.7,0,10.6,1.9,14.6,5.8c4,3.9,7.2,8.9,9.7,15.1c2.4,6.2,4.3,13.1,5.6,20.7c1.3,7.6,2.2,15.1,2.8,22.6c0.6,7.5,0.9,14.4,0.9,20.7
		c0,6.3,0,11.3,0,15.1c0,22.4-0.5,44.6-1.5,66.5c-1,22-1.5,44.1-1.5,66.5v16.8c12.9-4,27-7.8,42.2-11.4c15.2-3.6,29.7-5.4,43.5-5.4
		c4.9,0,9.8,0.3,14.9,0.9c5,0.6,9.5,1.8,13.3,3.7c3.9,1.9,7,4.6,9.5,8.2C407.2,256.2,408.5,261,408.5,267z"/>
	<path id="XMLID_8_" class="st0" d="M647.7,95.6c0,15.5-3.4,30.7-10.1,45.6c-6.8,14.9-15.7,28.4-26.9,40.3
		c-11.2,11.9-24,21.7-38.3,29.3c-14.4,7.6-29.1,11.8-44.4,12.7c-0.3,5.2-0.5,11.7-0.6,19.6c-0.1,7.9-0.6,16.1-1.5,24.8
		c-0.9,8.6-2.1,17.2-3.7,25.8c-1.6,8.6-3.9,16.4-6.9,23.3c-3,6.9-6.9,12.5-11.6,16.8c-4.7,4.3-10.6,6.5-17.4,6.5
		c-8,0-14.4-2.7-19.2-8c-4.7-5.3-8.3-11.7-10.8-19.2c-2.4-7.5-4.1-15.3-5-23.5c-0.9-8.2-1.4-15.1-1.7-20.9
		c-0.6-8.3-0.9-16.5-1.1-24.5c-0.1-8-0.2-16.2-0.2-24.5c0-3.7,0-10.7,0-20.9c0-10.2,0.1-21.8,0.2-34.9c0.1-13.1,0.4-26.7,0.6-40.9
		c0.3-14.2,0.7-27.4,1.3-39.6c0.6-12.2,1.2-22.6,1.9-31.2c0.7-8.6,1.6-13.6,2.8-15.1c0.3-0.3,1.1-0.9,2.6-1.9c1.4-1,3-2,4.7-3
		c1.7-1,3.3-1.9,4.7-2.8c1.4-0.9,2.4-1.4,3-1.7c13.2-7.5,27.7-13.9,43.5-19.4C529.6,2.7,545.2,0,560.7,0c13.2,0,25.2,2.7,36,8
		c10.8,5.3,19.9,12.3,27.6,21.1c7.6,8.8,13.4,18.9,17.4,30.6C645.7,71.3,647.7,83.3,647.7,95.6z M573.2,105.5
		c0-5.7-1.4-10.8-4.1-15.1c-2.7-4.3-7.3-6.5-13.6-6.5c-5.5,0-10.9,1.1-16.4,3.2c-5.5,2.2-10.5,4.4-15.1,6.7
		c0.9,10.1,1.6,19.8,2.4,29.3c0.7,9.5,0.8,19.2,0.2,29.3c4.6-2.3,9.6-5,15.1-8c5.5-3,10.5-6.4,15.1-10.1c4.6-3.7,8.5-8,11.6-12.7
		C571.6,116.9,573.2,111.5,573.2,105.5z"/>
</g>
</svg>
