<?xml version="1.0" encoding="utf-8"?>
<!-- Generator: Adobe Illustrator 19.0.0, SVG Export Plug-In . SVG Version: 6.00 Build 0)  -->
<svg version="1.1" id="Camada_1" xmlns="http://www.w3.org/2000/svg" xmlns:xlink="http://www.w3.org/1999/xlink" x="0px" y="0px"
	 viewBox="0 0 425 278" style="enable-background:new 0 0 425 278;" xml:space="preserve">
<style type="text/css">
	.st0{fill:#15845F;}
</style>
<g id="XMLID_5_">
	<path id="XMLID_6_" class="st0" d="M154.2,65.2v1.1l6,6l-7.5,162.7c-2.6-0.3-4.8-1.1-6.4-2.3c-1.6-1.3-3.1-2.5-4.4-3.9
		c-0.6-0.4-1.3-1.1-2.2-2h-0.2c-0.4-0.3-1-0.7-1.5-1.3l-0.7-0.7c-0.3,0.4-0.9,1.3-1.8,2.4c-0.3,0.4-0.7,0.9-1.1,1.3
		c-0.4,0.4-0.9,1-1.3,1.5c-2.5,3.1-5.1,6.1-7.7,9.1c-2.6,3-4.8,4.5-6.6,4.5c-1.3,0-2.2-0.2-2.6-0.7l-5.5-5.3h0.2
		c-1.8-0.4-2.6-1.9-2.6-4.4c0-1.6,0.6-4,1.8-7.3c0.4-1.5,0.9-3.1,1.3-4.8c0.4-1.8,0.7-3.5,0.7-5.1c0-1.2-0.2-2.2-0.7-3.1l-4-38.1
		H107c-1.2,0.7-2.2,1.7-3.2,2.8c-1,1.1-1.9,2.5-3,4.1c-0.4,1.3-1,2.6-1.5,3.9c-0.6,1.3-1.3,2.2-2.2,2.8v-0.2c-0.1,0.4-0.3,1-0.3,1.5
		c-0.1,0.6-0.2,1.3-0.3,2c-0.1,0.7-0.3,1.4-0.4,2c-0.1,0.6-0.3,1.3-0.4,2c-0.4,2.5-1,5-1.8,7.4c-0.7,2.4-1.7,4.6-2.9,6.5
		c-0.7-0.3-1.2-0.5-1.3-0.7c-0.1-0.1-0.3-0.3-0.4-0.4l-4.6-4.6v0.4c-1.9-1.2-3.4-2.9-4.5-5.2c-1.1-2.3-2-4.8-2.8-7.6v0.2l-0.2-0.2
		c-0.7,0.9-1.6,1.3-2.6,1.3c-0.6,0-1.2-0.3-1.8-0.9l-5.1-5.1c-1.3-0.1-2.5-1.1-3.4-2.8c-1-1.7-1.7-3.3-2.3-4.7l-4.6,39.5
		c-1.2,6.3-2.4,10.6-3.5,12.8c-1.2,2.2-2.6,3.3-4.4,3.3c-1.2,0-2.1-0.2-2.6-0.7c-0.4-0.3-1-0.6-1.5-1c-0.6-0.4-1-0.6-1.3-0.6
		c-0.6,0.6-1,1.4-1.1,2.4c-0.1,1-0.2,2.2-0.2,3.5v4.2c0,3.5-1.2,5.3-3.7,5.3c-1.2,0-2.4-0.7-3.7-2l-4.2-4.2
		c-1.3-0.4-2.5-1.3-3.6-2.5c-1.1-1.2-2.2-2.7-3.2-4.3c-0.3,0-0.4-0.1-0.4-0.4c-0.1-0.1-0.2-0.4-0.2-0.7h-0.4l-6-6h-1.3l-9-166v-2.2
		c0-1.8,1.3-3.2,4-4.2c2.6-1,5.1-1.6,7.3-1.8l15.4-1.1c1,0.9,2.1,1.4,3.1,1.5c1,0.1,2.1,0.2,3.3,0.2c2.2,0,4.3,0.3,6.3,0.8
		c2,0.5,3.6,2.2,5,5v-0.2l4.2,4.2c0.3,0.3,0.6,0.7,1,1.2c0.4,0.5,0.7,1.3,1,2.3c0.6,1.6,1.5,3.3,2.8,5c1.2,1.7,2.6,3.3,4.1,5l1.3,2
		c0.3,0.3,0.6,0.6,0.8,1c0.2,0.4,0.5,0.7,0.8,1l3.5-0.9l1.3,2.4V83l4.8,4.8l7.1,15.2L87,100v0.2c0.1-1.2,0.4-2.6,0.7-4.4
		c0.3-1.8,0.7-3.4,1.1-4.8l-0.4-0.4c0.9-2.1,1.9-4,3.2-6c1.2-1.9,2.7-3.7,4.3-5.5c0.6-0.9,1.2-1.6,1.8-2.2c2.1-2.3,3.9-4.7,5.6-7.1
		c1.7-2.3,2.9-4.5,3.6-6.4c0.7-2.8,2.3-4.6,4.7-5.3c2.4-0.7,5.1-1.3,8-1.8h0.7c0.1,0,0.3,0,0.3-0.1c0.1-0.1,0.2-0.1,0.3-0.1
		c1.5-0.3,2.9-0.6,4.4-1c1.5-0.4,2.9-1.1,4.4-2.3l15.9,7.3L154.2,65.2z M140.7,223.4c1.2,1,2.1,1.7,2.9,2l7.3-158.1l-9.5-5.5
		l-11-4.8c-1,0.7-2.4,1.3-4.2,1.5c-1.8,0.3-3.5,0.6-5.1,0.9c-2.5,0.3-4.8,0.7-7.1,1.2c-2.2,0.5-3.6,1.7-4.2,3.6
		c-0.7,2.5-2,5-3.9,7.4c-1.8,2.4-3.8,4.9-5.8,7.4c-1.9,2.2-3.7,4.4-5.3,6.6c-1.6,2.2-2.9,4.4-3.7,6.6c-0.1,0.3-0.3,0.9-0.3,1.8
		c-0.1,0.9-0.1,1.8-0.2,2.9c-0.1,1-0.1,2-0.2,3c-0.1,1-0.1,1.6-0.1,1.9l-9.9,8.2L68.2,84.3c-0.1,0.9-0.5,2.2-1,4
		c-0.5,1.8-1.3,2.7-2.3,2.9c-0.1-0.9-0.5-2-1.1-3.4c-0.6-1.4-1.1-2.6-1.5-3.6v0.2c-0.1-0.1-0.2-0.4-0.2-0.9c-0.7-1.8-1.7-3.5-3-5.2
		c-1.3-1.7-2.6-3.4-4.1-5.2c-1.5-1.6-2.8-3.3-4.1-5c-1.2-1.7-2.2-3.8-3-6.3c-0.7-1.9-1.9-3-3.4-3.4c-1.5-0.4-3.2-0.6-5-0.6
		c-1.6,0-3.1-0.1-4.3-0.2c-1.2-0.1-2.4-0.7-3.4-1.5L18,57.2c-1.6,0.1-3.4,0.4-5.3,0.9c-1.9,0.4-2.9,1-2.9,1.8v2l9,162.9
		c1.2,0,2.4,0.8,3.6,2.4c1.2,1.6,2.5,3.3,3.6,5.1c1.2,1.6,2.3,3.1,3.3,4.5c1,1.4,1.9,2.1,2.6,2.1c0.7,0,1.1-0.9,1.1-2.6V232
		c0-1.8,0.1-3.3,0.3-4.6c0.2-1.3,0.7-2.3,1.4-3.1c0.4-0.6,1.2-0.9,2.2-0.9c0.9,0,1.7,0.2,2.5,0.7c0.8,0.4,1.5,0.8,2.1,1.1h-0.2
		c0.6,0.3,1,0.4,1.3,0.4c1,0,1.9-1,2.5-2.9c0.7-1.9,1.5-5.6,2.5-11l6-47l-5.3-18.3H49c1.6,3.8,3.1,6.8,4.5,8.8
		c1.4,2.1,2.9,4,4.5,5.7c1.2,1.3,2.4,2.8,3.6,4.4c1.2,1.6,2.7,3.7,4.3,6.4l-1.5,4.6c0,0.1,0.1,0.6,0.2,1.3c0.1,0.7,0.4,1.5,0.8,2.4
		c0.4,0.9,0.7,1.7,1.1,2.3c0.4,0.7,0.8,1,1.2,1c0.3,0,0.6-0.3,0.8-0.8c0.2-0.5,0.5-1.1,0.8-1.9c0.3-1.2,0.7-2.1,1.1-2.6l1.5,2.9
		c0.3,0.6,0.5,1.1,0.7,1.4c0.1,0.4,0.4,0.8,0.7,1.2c1.6-1,2.8-2.1,3.5-3.2c0.7-1.1,1.2-2.3,1.5-3.6h0.2c0,0.3,0.1,0.8,0.2,1.7
		c0.1,0.8,0.3,1.4,0.4,1.9c0.1,1.6,0.3,3.4,0.6,5.4c0.2,2,0.5,3.9,0.9,5.7c0.4,1.8,0.7,3.5,1.1,4.8c0.4,1.4,0.8,2.4,1.4,3
		c0.6-0.9,1.1-2.4,1.7-4.5c0.5-2.1,1-4.2,1.4-6.3c0.4-2.1,0.8-4,1.2-5.8c0.4-1.8,0.7-2.9,1-3.2h0.4c0.4,0,0.9-0.5,1.4-1.5
		c0.5-1,0.9-2.1,1.2-3.3c1.5-2.5,2.7-4.4,3.7-5.6c1-1.2,2.1-2.2,3.3-3c1.5-1.2,2.9-2.6,4.2-4.3c1.3-1.7,2.8-4.4,4.4-8.3l2.6,12.3
		l4.6,46.5c0.4,1.2,0.7,2.4,0.7,3.7c0,1.6-0.2,3.4-0.7,5.4c-0.4,2-1,3.8-1.5,5.4c-0.4,1.3-0.8,2.5-1.1,3.6c-0.3,1.1-0.4,2-0.4,2.8
		c0,0.7,0.2,1.1,0.7,1.1c0.4,0,1.1-0.4,2.1-1.2c1-0.8,2-1.8,3.1-3.1c1.1-1.3,2.2-2.6,3.4-4.1c1.2-1.5,2.3-2.9,3.5-4.4
		c1.5-1.8,2.8-3.3,3.9-4.6c1.1-1.3,1.9-2,2.3-2c0.9,0,1.9,0.5,3.1,1.5c1.2,1,2.4,2.2,3.7,3.5C138.4,221.3,139.6,222.4,140.7,223.4z
		 M24.1,186.8c0.1,0,0.5,0.6,1,1.9c0.5,1.3,1,2.7,1.5,4.3c0.5,1.6,1,3.1,1.3,4.5c0.4,1.4,0.6,2.2,0.6,2.3c0,0.7-0.4,1.2-1.1,1.5h0.2
		l-0.4,0.4c-0.3-0.3-0.4-0.6-0.4-0.9v-1.1c0-0.4-0.4-1.9-1.1-4.4c-0.1-0.7-0.3-1.6-0.6-2.6c-0.2-1-0.4-2-0.6-2.9
		c-0.1-0.9-0.3-1.6-0.4-2.1c-0.1-0.5-0.2-0.7-0.2-0.6v-0.2L24.1,186.8z M48.2,113.2l-6.4-28.4c0.1,0,0.7,1.4,1.5,4.2
		c0.9,2.8,1.9,5.9,3,9.3c1.1,3.4,2.1,6.5,3,9.3c0.9,2.8,1.3,4.3,1.3,4.4c0,0.1-0.3,0.7-0.9,1.8c-0.6,1-1,1.5-1.3,1.5
		c-0.4,0-0.7-0.3-0.7-0.9c0-0.4,0.1-0.7,0.2-0.9L48.2,113.2z M57.9,135.9c-0.1-1.5-0.4-2.9-0.7-4.4c-0.1-1.2-0.2-1.9-0.2-2.2
		c0-0.3-0.1-0.9-0.4-1.8H57c0.3,0.3,0.7,0.9,1.3,1.9c0.6,1,1.2,2,2,3.2c1.5,2.2,2.8,4.4,4.1,6.6c1.2,2.2,1.9,4.1,1.9,5.7
		c0,0.3,0,0.5-0.1,0.7c-0.1,0.1-0.1,0.4-0.1,0.7v1.1h-0.4c-0.3-0.7-0.8-1.4-1.5-2c-0.7-0.6-1.5-1.2-2.2-1.8c-1-0.7-1.9-1.5-2.6-2.3
		c-0.7-0.8-1.1-1.8-1.1-3C58.1,138.2,58,137.4,57.9,135.9z M78.6,176.7v0.2h0.2C78.8,176.8,78.7,176.7,78.6,176.7z M89.2,155.5h-0.4
		c0-0.1,0-0.3-0.1-0.4c-0.1-0.1-0.1-0.4-0.1-0.7v-1.3c0-2.1,0.2-3.9,0.7-5.4c0.4-1.5,1.2-3.4,2.4-5.6H92v0.9c0,0.3,0,0.6,0.1,1
		c0.1,0.4,0.1,0.7,0.1,1C92.2,148.2,91.2,151.7,89.2,155.5z M93.6,138.8c0.4,0,0.7,0.4,0.7,1.1c0,0.7-0.2,1.1-0.7,1.1
		c-0.7,0-1.1-0.4-1.1-1.1c0-0.4,0.3-0.8,0.9-1.1H93.6z M134.8,198.7c0.6-0.6,0.9,0,0.9,1.8v1.1c0,0.3-0.1,0.6-0.4,0.9l-0.4-0.4h0.2
		c-0.7-0.3-1.1-0.8-1.1-1.5c0-1.2,0.4-1.8,1.1-1.8H134.8z M141.6,103.3c0,0.1,0,0.3,0.1,0.6c0.1,0.2,0.1,0.5,0.1,0.8
		c0,1-0.1,2.4-0.3,4.2c-0.2,1.8-0.5,3.7-0.9,6c-0.4,2.2-0.7,4.5-1.1,6.8c-0.4,2.4-0.8,4.6-1.2,6.8c-0.6,3.2-1.1,6.1-1.5,8.5
		c-0.4,2.4-0.7,4.2-0.7,5.2c-0.9,0-1.3-1.2-1.3-3.7c0-2.6,0.3-6.2,0.9-10.6c0.6-4.4,1.1-8.3,1.5-11.7c0.3-1.8,0.5-3.4,0.7-5
		c0.1-1.5,0.2-2.2,0.2-1.9c0-2.5,1-4.6,3.1-6.2L141.6,103.3z"/>
	<path id="XMLID_80_" class="st0" d="M201.4,232.5h0.2c-2.5-0.7-4-2.1-4.4-4.2c-0.4-2.1-0.7-4.3-0.7-6.8c0-0.1,0-0.5-0.1-1
		c-0.1-0.5-0.2-1.1-0.3-1.9l-24.5-90.8v-14.5l-10.4-38.6c-0.1-0.9-0.2-1.5-0.2-1.8c0-0.3,0-1,0-2v-2.6c0-2.5,0.9-4.1,2.6-4.8v-2.2
		c0-0.3,0-0.5,0.1-0.6c0.1-0.1,0.1-0.3,0.1-0.6c0-1.2,0.1-2.1,0.2-2.9c0.1-0.7,0.7-1.1,1.8-1.1c0.3,0,0.6,0.1,0.9,0.2
		c0.1,0,0.2,0.1,0.2,0.2h0.4v-3.1l15.4,1.1l9-2h1.3c0.9,0,2,0.2,3.3,0.6c1.3,0.4,2.8,0.8,4.4,1.4c0.3,0.1,0.5,0.2,0.7,0.2
		c0.1,0,0.4,0.1,0.7,0.2c0.6,0.3,1,0.4,1.3,0.4l7.3,2.4l0.2,1.8v-0.2l5.7,5.5l6.8,29.3l3.1,33.1v4.2l5.3,25.8
		c2.1-6.2,3.9-12.3,5.4-18.5c1.5-6.2,2.8-12.3,3.9-18.3v-0.4c-0.1-0.9-0.3-2.2-0.4-4c-0.1-1.8-0.2-3.9-0.2-6.4c0-3.2,0.1-7,0.4-11.4
		c0.3-4.3,1-8.7,2.2-13.1c2.3,0,3.7-1.1,4.1-3.3c0.4-2.2,0.6-4.7,0.8-7.5c0.1-3.7,0.5-7.4,1.1-11.1c0.6-3.7,2.4-6.6,5.5-8.7
		l10.4-0.2c0.9,1,2.1,1.5,3.5,1.5h2.6c0.1,0,0.3,0,0.3-0.1c0.1-0.1,0.3-0.1,0.6-0.1h1.5c0.7,0,1.6-0.1,2.5-0.2c1-0.1,1.9-0.4,3-0.7
		c0.7-0.1,1.5-0.3,2.3-0.3c0.8-0.1,1.7-0.1,2.5-0.1c1.3,0,2.5,0.2,3.5,0.7c1,0.4,1.8,1.5,2.2,3.1v-0.2l5.1,4.8
		c0.6,0.6,1,1.4,1.1,2.4l2,9.9v4.8c0,4.7-0.4,9.2-1.3,13.6c-0.9,4.3-1.8,8.6-2.9,12.9c-0.1,0.3-0.2,0.6-0.2,0.9
		c0,0.1-0.1,0.4-0.2,0.7c-0.1,0.4-0.3,0.9-0.3,1.4c-0.1,0.5-0.2,1-0.3,1.4c-0.9,3.7-1.7,7.2-2.4,10.7c-0.7,3.5-1.2,7.1-1.3,10.9
		c-0.6,2.5-1.6,6.6-3,12.2c-1.4,5.7-2.9,11.9-4.5,18.8c-0.3,1.5-0.7,2.9-1.1,4.2c-0.4,1.3-0.8,2.7-1.1,4.2c-1,4.1-2.1,8.2-3.1,12.2
		c-1,4-2,7.8-2.9,11.4c-0.9,3.5-1.7,6.7-2.3,9.4c-0.7,2.7-1.1,4.8-1.4,6.3c0,0.4-0.1,0.7-0.2,0.9v-0.2c0,0.3-0.1,0.4-0.2,0.4h0.2
		c-0.3,0.7-0.6,1.5-0.9,2.3c-0.3,0.8-0.6,1.8-0.9,3c-1,2.9-2.1,6.1-3.1,9.6c-1,3.5-2,6.2-2.9,8.3c-0.1,0-0.4,0-0.9,0
		c-0.4,0-0.8,0.1-1.1,0.2c-0.3,0.1-0.7,0.2-1.1,0.2c-0.6,0-1.7,1.2-3.2,3.5c-1.5,2.3-3.1,4.7-4.5,7.1c-0.3,0.3-0.5,0.6-0.6,1
		c-0.1,0.4-0.3,0.7-0.6,1c-0.9,1.3-1.6,2.5-2.1,3.5c-0.5,1-0.9,1.9-1.2,2.6c-1,2.6-1.8,4-2.4,4h-0.4l-6-6h-0.2
		c-1.2,0-1.8-2.1-1.8-6.4c-0.6-0.6-1-1.4-1.2-2.5c-0.2-1.1-0.4-2.5-0.6-4.1v-0.7c0-0.4-0.1-0.7-0.2-0.9c-1.8,1-3.4,1.9-5,2.6
		c-1.5,0.7-3.1,1.1-4.7,1.1c-1.5,0-2.6-0.4-3.3-1.1l-4.8-4.8c-1.2,1.9-2.9,2.9-5.1,2.9c-2.1,0-3.7-0.6-4.8-1.8L201.4,232.5z
		 M244.6,120.9c-1.5,8.8-3.6,18-6.3,27.4c-2.7,9.5-5.6,18.3-8.7,26.6l-1.8-1.8l-10.4-47.8v-4.4l-3.1-32.6l-6.6-28l-5.1-1.8
		c-1.9-0.7-3.7-1.4-5.4-1.9c-1.7-0.5-3.1-0.8-4.1-0.8h-0.7l-9,2L170.7,57c0,0.7-0.2,1.5-0.6,2.2c-0.4,0.7-1,1.1-1.9,1.1
		c-0.1,0-0.4-0.1-0.9-0.2c-0.1,0.9-0.3,1.7-0.4,2.4c-0.1,0.7-0.3,1.5-0.4,2.4c-0.1,0.9-0.4,1.3-0.7,1.3h-0.2c-0.9,0.3-1.3,1-1.3,2
		v2.6c0,0.3,0,0.6,0,0.9c0,0.1,0.1,0.7,0.2,1.8l10.4,38.6v14.8l24.2,90.6v0.7c0.1,0.7,0.3,1.4,0.3,1.9c0.1,0.5,0.1,1,0.1,1.4
		c0,2.1,0.2,3.9,0.7,5.5c0.4,1.6,1.7,2.4,3.7,2.4c0.7,0,1.4-0.4,2-1.1c0.6-0.7,1.2-1.5,2-2.4c0.7-0.9,1.4-1.7,2.1-2.4
		c0.7-0.7,1.5-1.1,2.5-1.1c0.9,0,1.4,0.5,1.7,1.4c0.2,1,0.4,2.1,0.6,3.4c0.1,1.3,0.3,2.5,0.6,3.6c0.2,1.1,0.8,1.7,1.9,1.7
		c1.2,0,2.6-0.4,4.2-1.1c1.6-0.7,3.2-1.5,4.8-2.4c1.2-0.7,2.3-1.4,3.4-1.9c1.1-0.5,2-0.8,2.8-1h0.4c0.9,0,1.5,0.4,2,1.2
		c0.4,0.8,0.8,1.8,1.1,3.1c0.3,1.2,0.5,2.6,0.7,4.1c0.1,1.5,0.3,2.9,0.4,4.2c0.1,1.3,0.3,2.5,0.3,3.5c0.1,1,0.2,1.5,0.3,1.5h1.1
		c0-0.4,0.1-0.9,0.4-1.3c0.3-0.4,0.8-1.2,1.5-2.2c0.7-1.3,1.6-2.8,2.6-4.3c1-1.5,2-3,3-4.4c1-1.4,1.9-2.6,2.9-3.5
		c1-1,1.8-1.4,2.5-1.4c0.1,0,0.4-0.1,0.7-0.2c0.1,0,0.3,0,0.3-0.1c0.1-0.1,0.2-0.1,0.3-0.1c0.4-0.9,1-2.2,1.5-4.1
		c0.6-1.8,1.2-3.8,2-5.8c0.7-2.1,1.4-4.1,2-6.2c0.6-2.1,1.1-3.7,1.5-4.8c0.1-0.3,0.2-0.7,0.2-1.1c0.3-1.5,0.8-3.6,1.4-6.3
		c0.7-2.7,1.4-5.8,2.2-9.4c0.8-3.5,1.7-7.3,2.8-11.4c1-4,2.1-8.1,3.1-12.2c1-4.1,2.1-8.2,3.1-12.3c1-4.1,2-7.9,2.9-11.4
		c0.9-3.5,1.7-6.5,2.3-9.3c0.7-2.7,1.1-4.9,1.4-6.5c0.1-4.3,0.7-8.4,1.5-12.3c0.9-4,1.8-8,2.9-12.1c1.2-4.4,2.2-8.9,3.2-13.4
		c1-4.6,1.4-9.2,1.4-13.9v-4.4l-2-10.1c-0.1-0.9-1-1.3-2.6-1.3c-0.6,0-1.3,0-2,0.1c-0.7,0.1-1.5,0.2-2.2,0.3c-1,0.3-2.1,0.5-3.1,0.7
		c-1,0.1-2.1,0.2-3.1,0.2h-1.5c-0.6,0-1.2,0-1.8,0.1c-0.6,0.1-1.2,0.1-1.8,0.1c-2.5,0-4.2-0.5-5.1-1.5l-7.7,0.2h0.2
		c-2.1,1.5-3.3,3.7-3.7,6.8c-0.4,3.1-0.7,6.3-0.9,9.7c-0.1,3.8-0.4,7.1-0.9,9.8c-0.4,2.7-1.9,4.2-4.4,4.3c-0.9,3.7-1.5,7.4-1.8,11.1
		c-0.3,3.7-0.4,7.1-0.4,10c0,2.4,0.1,4.4,0.2,6.2c0.1,1.8,0.3,3.1,0.4,4V120.9z M203.3,208c-0.1,0-0.2,0.1-0.2,0.2h-0.2h-0.4
		c-1,0-2.1-1.5-3.2-4.5c-1.1-3-2.1-6.4-3.1-10.2c-1-3.8-1.7-7.4-2.3-10.7c-0.6-3.3-0.9-5.3-0.9-6.1c0-0.3,0.4-0.7,1.1-1.1h-0.2
		l0.7-0.7h1.1c0.7,0,1.5,1.9,2.3,5.6c0.8,3.7,1.7,8,2.5,12.7c0.6,2.9,1.1,5.7,1.7,8.3c0.5,2.6,1,4.7,1.4,6.3L203.3,208z
		 M246.6,150.3c-0.3,0.6-0.5,1.1-0.7,1.7c-0.1,0.5-0.4,1.1-0.7,1.9c-0.1,0.3-0.3,0.6-0.3,0.9c-0.1,0.3-0.2,0.6-0.3,0.9l-0.7,1.3
		l-0.9,2.2c-0.3,0.7-0.5,1.3-0.7,1.8c-0.1,0.4-0.4,0.9-0.7,1.3c-0.1,0.3-0.3,0.6-0.4,0.9c-0.1,0.3-0.3,0.6-0.4,0.9l-0.7,1.8
		c-0.7,1.2-1.2,2.1-1.5,2.6v-0.2c-1,2.4-2,3.5-2.9,3.5l-1.3-0.4l0.4-1.5l9.9-20.5l2.6-0.9L246.6,150.3z"/>
	<path id="XMLID_85_" class="st0" d="M400.6,56.6c0-0.1,0.2-0.2,0.7-0.2c1,0,1.9,0.4,2.8,1.3c0.8,0.9,1.6,2,2.3,3.3l4,4
		c0.9,0.9,1.6,2,2.2,3.3c0.6,1.3,1.1,2.6,1.4,4c0.4,1.3,0.6,2.5,0.8,3.5c0.1,1,0.2,1.7,0.2,2c0,0.6-0.6,1.3-1.7,2.1
		c-1.1,0.8-2.5,1.7-4.1,2.8l1.8,0.7l-1.8,0.4l6,6l-2,0.2c-0.7,0.6-1.2,1-1.3,1.1c-0.1,0.1-0.4,0.6-0.9,1.3l3.5,1.5v1.3l6,5.7
		c0,0.3,0,0.7,0.1,1.1c0.1,0.4,0.1,0.8,0.1,1.1v2c0,3.1-0.6,5.2-1.7,6.3c-1.1,1.1-2.7,1.7-4.7,1.7c-1.2,0-2.4-0.1-3.7-0.4
		c-1.3-0.3-2.7-0.7-4.2-1.1c-2.1-0.6-4.2-1.1-6.5-1.7c-2.3-0.5-4.5-0.8-6.7-0.8c-2.4,0-5,0.8-7.9,2.4c-4.8,0-8.9,1.2-12,3.6
		c-3.2,2.4-5.7,5.5-7.7,9.1c-2,3.7-3.4,7.7-4.2,12.1c-0.8,4.4-1.2,8.7-1.2,12.8c0,5.7,0.3,10.8,1,15.2c0.7,4.4,1.9,8.2,3.6,11.5
		c4.3,3.2,10.7,4.8,19.4,4.8c1,0,2.3,0,4-0.1c1.6-0.1,3.1-0.2,4.4-0.3c0.3,0,0.6,0,0.8-0.1c0.2-0.1,0.5-0.1,0.8-0.1h1.1v1.3l5.1,5.1
		c0.6-0.1,1.5-0.2,2.6-0.2c1.9,0,4.8,1.1,8.8,3.3c-0.3,0.1-0.4,0.3-0.4,0.4l-0.2,0.2l6.2,6l-1.3,0.9l4.8,4.6c-1.6,2.2-3.5,4.2-5.6,6
		c-2.1,1.8-4.3,3.3-6.5,4.6c0.7,0.4,1.2,0.8,1.5,1.1c0.3,0.3,0.6,0.6,0.9,0.9v0.7h-0.4l6.4,6.2v0.7l0.2,0.2
		c-0.3,0.7-1.3,1.8-3.1,3.3c-1.8,1.5-3.7,2.9-6,4.4c-2.2,1.5-4.3,2.8-6.3,4c-2,1.2-3.2,1.8-3.6,1.8H398c-0.9,0-1.6-0.3-2.2-0.9
		l-0.7-0.7h-2.6c-1.8,0-3.7,0.6-5.7,1.8c-0.1,0.1-0.3,0.2-0.3,0.1c-0.1-0.1-0.2,0-0.3,0.1h0.2c-1.2,0.7-2.4,1.3-3.6,1.7
		c-1.3,0.4-2.7,0.6-4.3,0.6c-10,0-18.9-1.7-26.8-5.2c-7.9-3.5-14.7-8-20.6-13.8c-5.4-4.1-10.2-9-14.3-14.8
		c-4.1-5.7-7.5-11.9-10.2-18.6c-2.7-6.7-4.7-13.7-6.1-21.1c-1.3-7.3-2-14.8-2-22.3c0-5.7,0.6-11.8,1.7-18.3
		c1.1-6.5,2.8-12.8,5.1-19.1c2.3-6.2,5.1-12.2,8.6-17.9c3.5-5.7,7.5-10.7,12-15c4.6-4.3,9.7-7.8,15.5-10.4
		c5.8-2.6,12.2-3.9,19.1-3.9c1.2,0,2.5-0.1,4.1-0.4c1.5-0.3,3.1-0.6,4.7-0.9c0.3,0,0.5,0,0.6-0.1c0.1-0.1,0.3-0.1,0.6-0.1
		c0.4,0,0.8-0.1,1.1-0.2c1.8-0.4,4-0.7,6.6-0.7c1.2,0,2.4,0.2,3.6,0.6c1.2,0.4,2.6,1.1,4.1,2.1c0.7-0.3,1.4-0.6,1.9-1
		c0.5-0.4,0.8-0.6,1-0.6H400.6z M388.5,59c-0.3,0-0.8,0.1-1.5,0.4c-0.7,0.3-1.3,0.6-1.5,0.9c-1.8-1.6-4.3-2.4-7.5-2.4
		c-1.3,0-2.6,0.1-4,0.3c-1.3,0.2-2.7,0.5-4.2,0.8c-1.6,0.3-3.2,0.6-4.7,0.9c-1.5,0.3-3.1,0.4-4.7,0.4c-6.8,0-12.9,1.3-18.4,3.7
		c-5.5,2.5-10.5,5.8-14.9,10c-4.4,4.2-8.3,9.1-11.6,14.7c-3.3,5.6-6,11.4-8.2,17.4c-2.1,6-3.7,12.2-4.8,18.4
		c-1.1,6.2-1.7,12.2-1.7,17.7c0,10.9,1.5,21.6,4.4,32.1c2.9,10.5,7.3,19.8,13.2,28c5.9,8.2,13.3,14.7,22.2,19.7
		c8.9,5,19.3,7.5,31.2,7.5c1.5,0,2.7-0.2,3.7-0.6c1-0.4,2.1-0.8,3.3-1.4c1.2-0.6,2.3-1.1,3.4-1.5c1.1-0.4,2.4-0.7,3.9-0.7h2.6
		c0.3,0,0.7,0.2,1.1,0.7c0.3,0.3,0.6,0.5,0.8,0.7c0.2,0.1,0.6,0.2,1,0.2h0.2c0.4,0,1.5-0.5,3.3-1.5c1.8-1,3.7-2.2,5.7-3.4
		c2.1-1.2,3.9-2.5,5.5-3.7c1.6-1.2,2.4-2.1,2.4-2.5l-0.2-0.2v-0.7c-1.2-1-2.5-1.7-4.1-2.1c-1.5-0.4-3.3-0.6-5.2-0.6
		c-1.5,0-3,0.1-4.5,0.2c-1.5,0.1-3.1,0.4-4.5,0.7c-1.6,0.3-3.2,0.5-4.6,0.7c-1.5,0.1-3,0.2-4.6,0.2c-3.1,0-5.7-0.6-7.9-1.8h1.5
		c6.3,0,12.9-1.2,19.6-3.6c6.8-2.4,12.2-6.3,16.3-11.6h-2.2l-7.5,1.3c0.3,0-0.1,0.1-1.1,0.3c-1,0.2-2,0.5-2.9,0.8
		c-0.7,0.3-1.5,0.5-2.2,0.7c-0.7,0.1-1.3,0.2-1.5,0.2c0-1.6,0.7-2.9,2.2-3.9c1.5-1,3.2-1.9,5.3-3c1.2-0.7,2.5-1.5,4.1-2.3
		c1.5-0.8,2.5-1.3,2.8-1.4c-1.2-0.7-2.7-1.1-4.6-1.1c-1.6,0-3.3,0.2-5.2,0.7c-1.8,0.4-3.6,1-5.4,1.5c-1.6,0.6-3.2,1.1-4.7,1.4
		c-1.5,0.4-3,0.6-4.3,0.6c0-1.6,0.6-2.8,1.7-3.4c1.1-0.7,2.3-1.3,3.6-1.9c1.2-0.4,2.2-0.9,3.1-1.4c0.9-0.5,1.3-1.4,1.3-2.8l-0.2-0.2
		v-0.7c-1.5,0.1-2.9,0.3-4.4,0.3c-1.5,0.1-2.9,0.1-4.2,0.1c-12.2,0-20.6-3.2-25.3-9.6c-4.7-6.4-7.1-16.6-7.1-30.7
		c0-4.3,0.4-8.7,1.3-13.3c0.9-4.6,2.3-8.9,4.4-12.8c2.1-3.9,4.7-7.1,8-9.6c3.3-2.5,7.5-3.7,12.5-3.7c2.9-1.6,5.9-2.4,8.8-2.4
		c2.5,0,4.9,0.3,7.2,0.8c2.3,0.5,4.4,1.1,6.5,1.7c1.5,0.4,2.8,0.8,4.1,1.1c1.2,0.3,2.3,0.4,3.2,0.4c1.6,0,2.8-0.4,3.5-1.2
		c0.7-0.8,1.1-2.5,1.1-5c0-0.4,0-0.9-0.1-1.4c-0.1-0.5-0.1-1.1-0.1-1.7l-15.4-5.5l5.5-2.2c1.3-0.6,3.3-1.5,6-2.9h0.2L394,79.1
		c0.3-0.1,1.1-0.6,2.4-1.2s2.6-1.4,4-2.3c1.6-1,3-1.9,4.3-2.8c1.2-0.8,1.9-1.4,1.9-1.7c0-0.3-0.1-1.1-0.2-2.4
		c-0.1-1.3-0.4-2.7-0.9-4.2c-0.4-1.5-1-2.8-1.7-4c-0.7-1.2-1.5-1.8-2.5-1.8c-0.1,0-0.2,0.1-0.2,0.2h-0.2H388.5z M309.2,146.5
		c0,0.3,0.1,0.6,0.4,0.9v-0.9H309.2z M312.7,171.4c-1.2-1.5-1.9-2.7-2.1-3.7c-0.2-1-0.3-2.3-0.3-3.7c0-0.1,0-1.1-0.1-2.9
		c-0.1-1.8-0.2-3.7-0.3-5.7c-0.1-1.8-0.2-3.4-0.2-4.8c0-1.5,0-2.5,0-3.1c0.4,1.2,0.8,2.9,1.2,5.2c0.4,2.3,0.7,4.6,1,7.1
		c0.3,2.4,0.5,4.7,0.7,6.7c0.1,2.1,0.2,3.5,0.2,4.2V171.4z M313.1,171.9l-0.4-0.4v0.7L313.1,171.9z M346,130.9
		c-0.3,0.3-0.4,0.5-0.4,0.7l0.4,0.2V130.9z M346,128.9c0-2.9,0.6-6.3,1.7-10c1.1-3.7,2.9-6.6,5.4-8.7c0,0.1,0,0.3,0.1,0.4
		c0.1,0.1,0.1,0.3,0.1,0.4c0,2.9-0.8,6.3-2.4,10.1c-1.6,3.8-3.2,7.1-4.8,9.7V128.9z M348.6,71.3c0-0.1,0.1-0.3,0.2-0.4h-0.4
		L348.6,71.3z M348.8,70.9c1.2-1.6,2.8-2.5,5-2.8c2.1-0.2,4.1-0.3,5.8-0.3h0.4v1.3c-0.9,0-1.7,0.1-2.5,0.2c-0.8,0.1-1.6,0.4-2.3,0.7
		c-0.9,0.3-1.7,0.5-2.5,0.7c-0.8,0.1-1.7,0.2-2.8,0.2H348.8z M353,110.1l0.4-0.4l-0.4-0.2v0.4V110.1z M360.1,67.8h0.2l-0.2-0.2V67.8
		z M360.1,69.4l0.2-0.2h-0.2V69.4z M373.1,212.2c-0.1,0-0.4-0.1-0.7-0.4l-0.2,0.4H373.1z M383,192.8l0.2,0.2v-0.2H383z M385.2,60.5
		h0.4c-0.1,0-0.2-0.1-0.2-0.2L385.2,60.5z M393.4,65.6l-0.2-0.2l-0.2,0.4l0.4,0.2V65.6z M392.9,200.3l0.2,0.2v-0.2H392.9z
		 M395.1,180v-0.2l0.2,0.2H395.1z M395.8,89.4c-0.6,0.6-0.3,0.7,0.9,0.4L395.8,89.4z M411,83.2l0.7-0.2v0.4L411,83.2z M411,214.8
		h0.2v0.2L411,214.8z M412.1,189.7c-0.1,0-0.3-0.1-0.4-0.2c0.3,0,0.5-0.1,0.7-0.2L412.1,189.7z M414.5,93.8v-0.2l0.2,0.2H414.5z
		 M415.2,89.6l0.7-0.2l-0.2,0.4L415.2,89.6z M417.2,196.1l0.2-0.2v0.4L417.2,196.1z M420.7,201.6l0.2-0.2v0.4L420.7,201.6z"/>
</g>
</svg>
