<?xml version="1.0" encoding="UTF-8" standalone="no"?>
<!-- Generator: Adobe Illustrator 16.0.0, SVG Export Plug-In . SVG Version: 6.00 Build 0)  -->
<svg xmlns:dc="http://purl.org/dc/elements/1.1/" xmlns:cc="http://creativecommons.org/ns#" xmlns:rdf="http://www.w3.org/1999/02/22-rdf-syntax-ns#" xmlns:svg="http://www.w3.org/2000/svg" xmlns="http://www.w3.org/2000/svg" xmlns:sodipodi="http://sodipodi.sourceforge.net/DTD/sodipodi-0.dtd" xmlns:inkscape="http://www.inkscape.org/namespaces/inkscape" version="1.1" id="svg2" sodipodi:docname="infojr-ico.svg" inkscape:version="0.91 r" x="0px" y="0px" width="263.31299" height="265.259" viewBox="34.197 309.039 263.31301 265.259" enable-background="new 34.197 309.039 647.592 265.259" xml:space="preserve"><metadata id="metadata13"><rdf:RDF><cc:Work rdf:about=""><dc:format>image/svg+xml</dc:format><dc:type rdf:resource="http://purl.org/dc/dcmitype/StillImage"/><dc:title/></cc:Work></rdf:RDF></metadata><defs id="defs11"/><sodipodi:namedview id="base" inkscape:window-y="0" inkscape:window-x="0" inkscape:window-height="716" inkscape:window-width="1366" inkscape:current-layer="layer1" inkscape:document-units="px" inkscape:pageshadow="2" inkscape:pageopacity="0.0" inkscape:window-maximized="1" inkscape:cy="67.946259" inkscape:cx="301.56567" inkscape:zoom="0.71230469" borderopacity="1.0" bordercolor="#666666" showgrid="false" pagecolor="#ffffff"/><g id="layer1" inkscape:label="Camada 1" inkscape:groupmode="layer"><path id="path72" inkscape:connector-curvature="0" d="m 297.51,377.235 c -1.634,-91.409 -259.464,-92.06 -263.236,4.907 -2.399,61.664 52.246,102.268 53.413,156.705 1.065,49.668 163.689,45.781 160.311,-3.113 -4.969,-71.912 44.295,-103.762 49.512,-158.499" style="fill:#85b03d"/><path id="path124" inkscape:connector-curvature="0" d="m 158.632,386.875 11.09,0 c 12.199,0 22.18,9.395 22.18,20.879 l 0,143.306 c 0,11.482 -9.98,20.879 -22.18,20.879 l -11.09,0 c -12.199,0 -22.18,-9.396 -22.18,-20.879 l 0,-143.306 c 0.001,-11.484 9.982,-20.879 22.18,-20.879" style="fill:#ffffff"/><path id="path126" inkscape:connector-curvature="0" d="m 164.177,314.125 c 17.032,0 30.844,14.47 30.844,32.313 0,17.842 -13.812,32.313 -30.844,32.313 -17.031,0 -30.844,-14.47 -30.844,-32.313 0,-17.843 13.813,-32.313 30.844,-32.313" style="fill:#ffffff"/></g></svg>