<?xml version="1.0" encoding="utf-8"?>
<!-- Generator: Adobe Illustrator 19.0.0, SVG Export Plug-In . SVG Version: 6.00 Build 0)  -->
<svg version="1.1" id="Camada_1" xmlns="http://www.w3.org/2000/svg" xmlns:xlink="http://www.w3.org/1999/xlink" x="0px" y="0px"
	 viewBox="0 0 482.9 620.6" style="enable-background:new 0 0 482.9 620.6;" xml:space="preserve">
<style type="text/css">
	.st0{fill:#135A99;stroke:#000000;stroke-width:1.8224;stroke-miterlimit:10;}
	.st1{fill:#FFFFFF;stroke:#FFFFFF;stroke-width:1.6143;stroke-miterlimit:10;}
	.st2{fill:#FFFFFF;}
</style>
<g id="XMLID_3_">
	<rect id="XMLID_1_" x="0.9" y="0.9" class="st0" width="481.1" height="618.8"/>
	<line id="XMLID_2_" class="st1" x1="26.5" y1="66.5" x2="445.7" y2="66.5"/>
	<g id="XMLID_77_">
		<path id="XMLID_78_" class="st2" d="M126.5,134.1c1.5-0.3,3.6-0.5,5.7-0.5c3.2,0,5.2,0.6,6.6,1.9c1.2,1,1.8,2.6,1.8,4.3
			c0,3-1.9,5-4.3,5.8v0.1c1.8,0.6,2.8,2.2,3.4,4.6c0.7,3.2,1.3,5.4,1.8,6.3h-3.1c-0.4-0.6-0.9-2.6-1.5-5.5c-0.7-3.2-1.9-4.3-4.6-4.4
			h-2.8v9.9h-2.9V134.1z M129.5,144.5h3c3.2,0,5.2-1.7,5.2-4.3c0-2.9-2.1-4.2-5.3-4.3c-1.4,0-2.4,0.1-2.9,0.3V144.5z"/>
		<path id="XMLID_81_" class="st2" d="M146.5,148.9c0.1,4,2.6,5.7,5.6,5.7c2.1,0,3.4-0.4,4.5-0.8l0.5,2.1c-1.1,0.5-2.8,1-5.5,1
			c-5.1,0-8.1-3.3-8.1-8.3c0-4.9,2.9-8.8,7.7-8.8c5.4,0,6.8,4.7,6.8,7.7c0,0.6-0.1,1.1-0.1,1.4H146.5z M155.2,146.8
			c0-1.9-0.8-4.8-4.1-4.8c-3,0-4.3,2.8-4.6,4.8H155.2z"/>
		<path id="XMLID_84_" class="st2" d="M162.1,156.6v-14.1h-2.3v-2.3h2.3v-0.8c0-2.3,0.5-4.4,1.9-5.7c1.1-1.1,2.6-1.5,4-1.5
			c1.1,0,2,0.2,2.5,0.5l-0.4,2.3c-0.4-0.2-1.1-0.4-1.9-0.4c-2.5,0-3.2,2.2-3.2,4.7v0.9h4v2.3h-4v14.1H162.1z"/>
		<path id="XMLID_86_" class="st2" d="M172.9,148.9c0.1,4,2.6,5.7,5.6,5.7c2.1,0,3.4-0.4,4.5-0.8l0.5,2.1c-1.1,0.5-2.8,1-5.5,1
			c-5.1,0-8.1-3.3-8.1-8.3c0-4.9,2.9-8.8,7.7-8.8c5.4,0,6.8,4.7,6.8,7.7c0,0.6-0.1,1.1-0.1,1.4H172.9z M181.7,146.8
			c0-1.9-0.8-4.8-4.1-4.8c-3,0-4.3,2.8-4.6,4.8H181.7z"/>
		<path id="XMLID_89_" class="st2" d="M191.6,135.6c0,1-0.7,1.8-1.9,1.8c-1.1,0-1.8-0.8-1.8-1.8c0-1.1,0.8-1.9,1.9-1.9
			C190.8,133.7,191.6,134.5,191.6,135.6z M188.2,156.6v-16.4h3v16.4H188.2z"/>
		<path id="XMLID_92_" class="st2" d="M207.9,156c-0.7,0.4-2.3,0.9-4.2,0.9l-0.9,1.4c1.3,0.2,2.4,1.1,2.4,2.3c0,2-1.7,2.7-3.5,2.7
			c-0.8,0-1.7-0.2-2.3-0.6l0.5-1.5c0.5,0.3,1.2,0.5,1.8,0.5c0.7,0,1.5-0.3,1.5-1.1c0-0.9-1.1-1.3-2.6-1.4l1.4-2.5
			c-4.2-0.5-6.9-3.7-6.9-8.3c0-5.1,3.5-8.7,8.8-8.7c1.8,0,3.3,0.4,4.1,0.8l-0.7,2.3c-0.7-0.4-1.8-0.8-3.5-0.8
			c-3.8,0-5.8,2.8-5.8,6.2c0,3.8,2.4,6.1,5.7,6.1c1.7,0,2.8-0.4,3.7-0.8L207.9,156z"/>
		<path id="XMLID_94_" class="st2" d="M220.4,156.6l-0.2-2.1h-0.1c-0.9,1.3-2.7,2.4-5,2.4c-3.3,0-5-2.3-5-4.7c0-4,3.5-6.1,9.9-6.1
			v-0.3c0-1.4-0.4-3.8-3.7-3.8c-1.5,0-3.1,0.5-4.3,1.2l-0.7-2c1.4-0.9,3.3-1.5,5.4-1.5c5,0,6.2,3.4,6.2,6.7v6.1
			c0,1.4,0.1,2.8,0.3,3.9H220.4z M212.8,137.4c-0.1-2.2,0.8-3.5,2.3-3.5c0.7,0,1.3,0.3,2.1,0.7c0.5,0.3,1,0.6,1.4,0.6
			c0.5,0,0.8-0.3,0.9-1.5h1.6c0.1,2.3-0.7,3.4-2.3,3.4c-0.7,0-1.4-0.3-2.1-0.7c-0.7-0.4-1.1-0.6-1.5-0.6c-0.5,0-0.8,0.6-0.9,1.5
			H212.8z M220,148.2c-3.3-0.1-6.9,0.5-6.9,3.7c0,1.9,1.3,2.8,2.8,2.8c2.1,0,3.5-1.4,4-2.7c0.1-0.3,0.2-0.6,0.2-0.9V148.2z"/>
		<path id="XMLID_98_" class="st2" d="M242.5,148.3c0,6.1-4.2,8.7-8.2,8.7c-4.4,0-7.9-3.3-7.9-8.4c0-5.5,3.6-8.7,8.1-8.7
			C239.4,139.8,242.5,143.3,242.5,148.3z M229.5,148.4c0,3.6,2.1,6.3,5,6.3c2.8,0,5-2.7,5-6.4c0-2.8-1.4-6.3-4.9-6.3
			C231.1,142.1,229.5,145.3,229.5,148.4z"/>
		<path id="XMLID_101_" class="st2" d="M126.1,234.4c1.3,0.8,3.3,1.5,5.3,1.5c3,0,4.8-1.6,4.8-3.9c0-2.1-1.2-3.4-4.3-4.5
			c-3.7-1.3-6-3.3-6-6.5c0-3.6,2.9-6.2,7.4-6.2c2.3,0,4,0.5,5.1,1.1l-0.8,2.4c-0.7-0.4-2.3-1.1-4.3-1.1c-3.1,0-4.3,1.9-4.3,3.4
			c0,2.1,1.4,3.2,4.5,4.4c3.9,1.5,5.8,3.4,5.8,6.7c0,3.5-2.6,6.6-8,6.6c-2.2,0-4.6-0.6-5.8-1.5L126.1,234.4z"/>
		<path id="XMLID_103_" class="st2" d="M158.2,229.6c0,6.1-4.2,8.7-8.2,8.7c-4.4,0-7.9-3.3-7.9-8.4c0-5.5,3.6-8.7,8.1-8.7
			C155,221.2,158.2,224.6,158.2,229.6z M145.2,229.8c0,3.6,2.1,6.3,5,6.3c2.8,0,5-2.7,5-6.4c0-2.8-1.4-6.3-4.9-6.3
			C146.7,223.4,145.2,226.7,145.2,229.8z"/>
		<path id="XMLID_106_" class="st2" d="M161.8,238c0.1-1.1,0.1-2.8,0.1-4.2v-19.8h2.9v10.3h0.1c1.1-1.8,2.9-3,5.6-3
			c4.1,0,6.9,3.4,6.9,8.4c0,5.9-3.7,8.8-7.4,8.8c-2.4,0-4.3-0.9-5.5-3.1h-0.1l-0.1,2.7H161.8z M164.9,231.4c0,0.4,0.1,0.7,0.1,1.1
			c0.6,2.1,2.3,3.5,4.5,3.5c3.1,0,5-2.5,5-6.3c0-3.3-1.7-6.1-4.9-6.1c-2,0-3.9,1.4-4.5,3.7c-0.1,0.3-0.2,0.7-0.2,1.2V231.4z"/>
		<path id="XMLID_109_" class="st2" d="M181.3,226.7c0-1.9,0-3.6-0.1-5.1h2.6l0.1,3.2h0.1c0.7-2.2,2.5-3.6,4.5-3.6
			c0.3,0,0.6,0,0.8,0.1v2.8c-0.3-0.1-0.6-0.1-1-0.1c-2.1,0-3.6,1.6-4,3.8c-0.1,0.4-0.1,0.9-0.1,1.4v8.7h-2.9V226.7z"/>
		<path id="XMLID_111_" class="st2" d="M193.7,230.3c0.1,4,2.6,5.7,5.6,5.7c2.1,0,3.4-0.4,4.5-0.8l0.5,2.1c-1.1,0.5-2.8,1-5.5,1
			c-5.1,0-8.1-3.3-8.1-8.3c0-4.9,2.9-8.8,7.7-8.8c5.4,0,6.8,4.7,6.8,7.7c0,0.6-0.1,1.1-0.1,1.4H193.7z M202.4,228.2
			c0-1.9-0.8-4.8-4.1-4.8c-3,0-4.3,2.8-4.6,4.8H202.4z"/>
		<path id="XMLID_114_" class="st2" d="M209,226c0-1.7,0-3.1-0.1-4.4h2.6l0.1,2.6h0.1c0.9-1.6,2.4-3,5.2-3c2.2,0,3.9,1.4,4.6,3.3
			h0.1c0.5-0.9,1.2-1.6,1.8-2.1c1-0.7,2.1-1.2,3.6-1.2c2.2,0,5.4,1.4,5.4,7.1v9.7h-2.9v-9.3c0-3.2-1.2-5.1-3.6-5.1
			c-1.7,0-3,1.3-3.5,2.7c-0.1,0.4-0.2,0.9-0.2,1.5V238h-2.9v-9.8c0-2.6-1.2-4.5-3.4-4.5c-1.9,0-3.2,1.5-3.7,3
			c-0.2,0.4-0.2,0.9-0.2,1.5v9.9H209V226z"/>
		<path id="XMLID_116_" class="st2" d="M238.9,230.3c0.1,4,2.6,5.7,5.6,5.7c2.1,0,3.4-0.4,4.5-0.8l0.5,2.1c-1.1,0.5-2.8,1-5.5,1
			c-5.1,0-8.1-3.3-8.1-8.3c0-4.9,2.9-8.8,7.7-8.8c5.4,0,6.8,4.7,6.8,7.7c0,0.6-0.1,1.1-0.1,1.4H238.9z M247.7,228.2
			c0-1.9-0.8-4.8-4.1-4.8c-3,0-4.3,2.8-4.6,4.8H247.7z"/>
		<path id="XMLID_119_" class="st2" d="M253.8,234.9c0.9,0.6,2.4,1.2,3.9,1.2c2.2,0,3.2-1.1,3.2-2.4c0-1.4-0.8-2.2-3.1-3
			c-2.9-1.1-4.3-2.7-4.3-4.6c0-2.6,2.1-4.8,5.7-4.8c1.7,0,3.1,0.5,4,1l-0.7,2.2c-0.6-0.4-1.8-0.9-3.4-0.9c-1.8,0-2.7,1-2.7,2.2
			c0,1.4,1,2,3.1,2.8c2.8,1.1,4.3,2.5,4.3,4.9c0,2.9-2.2,4.9-6.1,4.9c-1.8,0-3.5-0.4-4.6-1.1L253.8,234.9z"/>
		<path id="XMLID_121_" class="st2" d="M276.7,238l-0.2-2.1h-0.1c-0.9,1.3-2.7,2.4-5,2.4c-3.3,0-5-2.3-5-4.7c0-4,3.5-6.1,9.9-6.1
			v-0.3c0-1.4-0.4-3.8-3.7-3.8c-1.5,0-3.1,0.5-4.3,1.2l-0.7-2c1.4-0.9,3.3-1.5,5.4-1.5c5,0,6.2,3.4,6.2,6.7v6.1
			c0,1.4,0.1,2.8,0.3,3.9H276.7z M276.3,229.6c-3.3-0.1-6.9,0.5-6.9,3.7c0,1.9,1.3,2.8,2.8,2.8c2.1,0,3.5-1.4,4-2.7
			c0.1-0.3,0.2-0.6,0.2-0.9V229.6z"/>
		<path id="XMLID_124_" class="st2" d="M126.5,296.8c1.5-0.3,3.6-0.5,5.7-0.5c3.2,0,5.2,0.6,6.6,1.9c1.2,1,1.8,2.6,1.8,4.3
			c0,3-1.9,5-4.3,5.8v0.1c1.8,0.6,2.8,2.2,3.4,4.6c0.7,3.2,1.3,5.4,1.8,6.3h-3.1c-0.4-0.6-0.9-2.6-1.5-5.5c-0.7-3.2-1.9-4.3-4.6-4.4
			h-2.8v9.9h-2.9V296.8z M129.5,307.2h3c3.2,0,5.2-1.7,5.2-4.3c0-2.9-2.1-4.2-5.3-4.3c-1.4,0-2.4,0.1-2.9,0.3V307.2z"/>
		<path id="XMLID_127_" class="st2" d="M146.5,311.7c0.1,4,2.6,5.7,5.6,5.7c2.1,0,3.4-0.4,4.5-0.8l0.5,2.1c-1.1,0.5-2.8,1-5.5,1
			c-5.1,0-8.1-3.3-8.1-8.3c0-4.9,2.9-8.8,7.7-8.8c5.4,0,6.8,4.7,6.8,7.7c0,0.6-0.1,1.1-0.1,1.4H146.5z M155.2,309.5
			c0-1.9-0.8-4.8-4.1-4.8c-3,0-4.3,2.8-4.6,4.8H155.2z"/>
		<path id="XMLID_130_" class="st2" d="M162.1,319.3v-14.1h-2.3v-2.3h2.3v-0.8c0-2.3,0.5-4.4,1.9-5.7c1.1-1.1,2.6-1.5,4-1.5
			c1.1,0,2,0.2,2.5,0.5l-0.4,2.3c-0.4-0.2-1.1-0.4-1.9-0.4c-2.5,0-3.2,2.2-3.2,4.7v0.9h4v2.3h-4v14.1H162.1z"/>
		<path id="XMLID_132_" class="st2" d="M171.7,308c0-1.9,0-3.6-0.1-5.1h2.6l0.1,3.2h0.1c0.7-2.2,2.5-3.6,4.5-3.6
			c0.3,0,0.6,0,0.8,0.1v2.8c-0.3-0.1-0.6-0.1-1-0.1c-2.1,0-3.6,1.6-4,3.8c-0.1,0.4-0.1,0.9-0.1,1.4v8.7h-2.9V308z"/>
		<path id="XMLID_134_" class="st2" d="M186.2,298.3c0,1-0.7,1.8-1.9,1.8c-1.1,0-1.8-0.8-1.8-1.8c0-1.1,0.8-1.9,1.9-1.9
			C185.5,296.5,186.2,297.3,186.2,298.3z M182.9,319.3v-16.4h3v16.4H182.9z"/>
		<path id="XMLID_137_" class="st2" d="M205,302.9c-0.1,1.2-0.1,2.5-0.1,4.5v9.5c0,3.8-0.7,6.1-2.3,7.5c-1.6,1.5-3.9,2-6,2
			c-2,0-4.1-0.5-5.5-1.4l0.7-2.3c1.1,0.7,2.8,1.3,4.8,1.3c3.1,0,5.3-1.6,5.3-5.7v-1.8h-0.1c-0.9,1.5-2.7,2.7-5.2,2.7
			c-4.1,0-7-3.5-7-8c0-5.6,3.6-8.7,7.4-8.7c2.8,0,4.4,1.5,5.1,2.8h0.1l0.1-2.5H205z M201.9,309.4c0-0.5,0-0.9-0.2-1.4
			c-0.5-1.7-2-3.2-4.2-3.2c-2.8,0-4.9,2.4-4.9,6.2c0,3.2,1.6,5.9,4.8,5.9c1.8,0,3.5-1.2,4.1-3.1c0.2-0.5,0.2-1.1,0.2-1.6V309.4z"/>
		<path id="XMLID_140_" class="st2" d="M211.5,311.7c0.1,4,2.6,5.7,5.6,5.7c2.1,0,3.4-0.4,4.5-0.8l0.5,2.1c-1.1,0.5-2.8,1-5.5,1
			c-5.1,0-8.1-3.3-8.1-8.3c0-4.9,2.9-8.8,7.7-8.8c5.4,0,6.8,4.7,6.8,7.7c0,0.6-0.1,1.1-0.1,1.4H211.5z M220.2,309.5
			c0-1.9-0.8-4.8-4.1-4.8c-3,0-4.3,2.8-4.6,4.8H220.2z"/>
		<path id="XMLID_143_" class="st2" d="M226.8,308c0-1.9,0-3.6-0.1-5.1h2.6l0.1,3.2h0.1c0.7-2.2,2.5-3.6,4.5-3.6
			c0.3,0,0.6,0,0.8,0.1v2.8c-0.3-0.1-0.6-0.1-1-0.1c-2.1,0-3.6,1.6-4,3.8c-0.1,0.4-0.1,0.9-0.1,1.4v8.7h-2.9V308z"/>
		<path id="XMLID_145_" class="st2" d="M246.8,319.3l-0.2-2.1h-0.1c-0.9,1.3-2.7,2.4-5,2.4c-3.3,0-5-2.3-5-4.7c0-4,3.5-6.1,9.9-6.1
			v-0.3c0-1.4-0.4-3.8-3.7-3.8c-1.5,0-3.1,0.5-4.3,1.2l-0.7-2c1.4-0.9,3.3-1.5,5.4-1.5c5,0,6.2,3.4,6.2,6.7v6.1
			c0,1.4,0.1,2.8,0.3,3.9H246.8z M246.3,311c-3.3-0.1-6.9,0.5-6.9,3.7c0,1.9,1.3,2.8,2.8,2.8c2.1,0,3.5-1.4,4-2.7
			c0.1-0.3,0.2-0.6,0.2-0.9V311z"/>
		<path id="XMLID_148_" class="st2" d="M254,307.4c0-1.7,0-3.1-0.1-4.4h2.6l0.2,2.7h0.1c0.8-1.6,2.7-3.1,5.4-3.1
			c2.3,0,5.8,1.4,5.8,7v9.8h-3v-9.5c0-2.6-1-4.8-3.8-4.8c-2,0-3.5,1.4-4,3.1c-0.1,0.4-0.2,0.9-0.2,1.4v9.9h-3V307.4z"/>
		<path id="XMLID_150_" class="st2" d="M276.3,298.2v4.7h4.3v2.3h-4.3v8.8c0,2,0.6,3.2,2.2,3.2c0.8,0,1.4-0.1,1.7-0.2l0.1,2.2
			c-0.6,0.2-1.5,0.4-2.6,0.4c-1.4,0-2.5-0.4-3.2-1.3c-0.8-0.9-1.2-2.3-1.2-4.3v-8.9h-2.5v-2.3h2.5V299L276.3,298.2z"/>
		<path id="XMLID_152_" class="st2" d="M285.4,311.7c0.1,4,2.6,5.7,5.6,5.7c2.1,0,3.4-0.4,4.5-0.8l0.5,2.1c-1.1,0.5-2.8,1-5.5,1
			c-5.1,0-8.1-3.3-8.1-8.3c0-4.9,2.9-8.8,7.7-8.8c5.4,0,6.8,4.7,6.8,7.7c0,0.6-0.1,1.1-0.1,1.4H285.4z M294.1,309.5
			c0-1.9-0.8-4.8-4.1-4.8c-3,0-4.3,2.8-4.6,4.8H294.1z"/>
		<path id="XMLID_155_" class="st2" d="M322.1,295.3v19.8c0,1.5,0,3.1,0.1,4.2h-2.7l-0.1-2.8h-0.1c-0.9,1.8-2.9,3.2-5.6,3.2
			c-4,0-7-3.4-7-8.3c0-5.5,3.4-8.8,7.4-8.8c2.5,0,4.2,1.2,4.9,2.5h0.1v-9.8H322.1z M319.1,309.6c0-0.4,0-0.9-0.1-1.3
			c-0.4-1.9-2.1-3.5-4.3-3.5c-3.1,0-4.9,2.7-4.9,6.3c0,3.3,1.6,6.1,4.8,6.1c2,0,3.8-1.3,4.4-3.6c0.1-0.4,0.1-0.8,0.1-1.3V309.6z"/>
		<path id="XMLID_158_" class="st2" d="M328.7,311.7c0.1,4,2.6,5.7,5.6,5.7c2.1,0,3.4-0.4,4.5-0.8l0.5,2.1c-1.1,0.5-2.8,1-5.5,1
			c-5.1,0-8.1-3.3-8.1-8.3c0-4.9,2.9-8.8,7.7-8.8c5.4,0,6.8,4.7,6.8,7.7c0,0.6-0.1,1.1-0.1,1.4H328.7z M337.4,309.5
			c0-1.9-0.8-4.8-4.1-4.8c-3,0-4.3,2.8-4.6,4.8H337.4z"/>
		<path id="XMLID_161_" class="st2" d="M350.2,319.3v-1.8l2.3-2.3c5.6-5.4,8.2-8.2,8.2-11.5c0-2.2-1.1-4.3-4.4-4.3
			c-2,0-3.7,1-4.7,1.9l-0.9-2.1c1.5-1.3,3.7-2.2,6.2-2.2c4.7,0,6.7,3.3,6.7,6.4c0,4.1-2.9,7.4-7.6,11.8l-1.8,1.6v0.1h9.9v2.5H350.2z
			"/>
		<path id="XMLID_163_" class="st2" d="M368.6,295.3h3v24.1h-3V295.3z"/>
		<path id="XMLID_165_" class="st2" d="M126.5,378.2c1.5-0.3,3.6-0.5,5.7-0.5c3.2,0,5.2,0.6,6.6,1.9c1.2,1,1.8,2.6,1.8,4.3
			c0,3-1.9,5-4.3,5.8v0.1c1.8,0.6,2.8,2.2,3.4,4.6c0.7,3.2,1.3,5.4,1.8,6.3h-3.1c-0.4-0.6-0.9-2.6-1.5-5.5c-0.7-3.2-1.9-4.3-4.6-4.4
			h-2.8v9.9h-2.9V378.2z M129.5,388.6h3c3.2,0,5.2-1.7,5.2-4.3c0-2.9-2.1-4.2-5.3-4.3c-1.4,0-2.4,0.1-2.9,0.3V388.6z"/>
		<path id="XMLID_168_" class="st2" d="M146.5,393c0.1,4,2.6,5.7,5.6,5.7c2.1,0,3.4-0.4,4.5-0.8l0.5,2.1c-1.1,0.5-2.8,1-5.5,1
			c-5.1,0-8.1-3.3-8.1-8.3s2.9-8.8,7.7-8.8c5.4,0,6.8,4.7,6.8,7.7c0,0.6-0.1,1.1-0.1,1.4H146.5z M155.2,390.9c0-1.9-0.8-4.8-4.1-4.8
			c-3,0-4.3,2.8-4.6,4.8H155.2z"/>
		<path id="XMLID_171_" class="st2" d="M162.1,400.7v-14.1h-2.3v-2.3h2.3v-0.8c0-2.3,0.5-4.4,1.9-5.7c1.1-1.1,2.6-1.5,4-1.5
			c1.1,0,2,0.2,2.5,0.5l-0.4,2.3c-0.4-0.2-1.1-0.4-1.9-0.4c-2.5,0-3.2,2.2-3.2,4.7v0.9h4v2.3h-4v14.1H162.1z"/>
		<path id="XMLID_173_" class="st2" d="M171.7,389.4c0-1.9,0-3.6-0.1-5.1h2.6l0.1,3.2h0.1c0.7-2.2,2.5-3.6,4.5-3.6
			c0.3,0,0.6,0,0.8,0.1v2.8c-0.3-0.1-0.6-0.1-1-0.1c-2.1,0-3.6,1.6-4,3.8c-0.1,0.4-0.1,0.9-0.1,1.4v8.7h-2.9V389.4z"/>
		<path id="XMLID_175_" class="st2" d="M186.2,379.7c0,1-0.7,1.8-1.9,1.8c-1.1,0-1.8-0.8-1.8-1.8c0-1.1,0.8-1.9,1.9-1.9
			C185.5,377.8,186.2,378.6,186.2,379.7z M182.9,400.7v-16.4h3v16.4H182.9z"/>
		<path id="XMLID_178_" class="st2" d="M205,384.3c-0.1,1.2-0.1,2.5-0.1,4.5v9.5c0,3.8-0.7,6.1-2.3,7.5c-1.6,1.5-3.9,2-6,2
			c-2,0-4.1-0.5-5.5-1.4l0.7-2.3c1.1,0.7,2.8,1.3,4.8,1.3c3.1,0,5.3-1.6,5.3-5.7v-1.8h-0.1c-0.9,1.5-2.7,2.7-5.2,2.7
			c-4.1,0-7-3.5-7-8c0-5.6,3.6-8.7,7.4-8.7c2.8,0,4.4,1.5,5.1,2.8h0.1l0.1-2.5H205z M201.9,390.8c0-0.5,0-0.9-0.2-1.4
			c-0.5-1.7-2-3.2-4.2-3.2c-2.8,0-4.9,2.4-4.9,6.2c0,3.2,1.6,5.9,4.8,5.9c1.8,0,3.5-1.2,4.1-3.1c0.2-0.5,0.2-1.1,0.2-1.6V390.8z"/>
		<path id="XMLID_181_" class="st2" d="M211.5,393c0.1,4,2.6,5.7,5.6,5.7c2.1,0,3.4-0.4,4.5-0.8l0.5,2.1c-1.1,0.5-2.8,1-5.5,1
			c-5.1,0-8.1-3.3-8.1-8.3s2.9-8.8,7.7-8.8c5.4,0,6.8,4.7,6.8,7.7c0,0.6-0.1,1.1-0.1,1.4H211.5z M220.2,390.9c0-1.9-0.8-4.8-4.1-4.8
			c-3,0-4.3,2.8-4.6,4.8H220.2z"/>
		<path id="XMLID_184_" class="st2" d="M226.8,389.4c0-1.9,0-3.6-0.1-5.1h2.6l0.1,3.2h0.1c0.7-2.2,2.5-3.6,4.5-3.6
			c0.3,0,0.6,0,0.8,0.1v2.8c-0.3-0.1-0.6-0.1-1-0.1c-2.1,0-3.6,1.6-4,3.8c-0.1,0.4-0.1,0.9-0.1,1.4v8.7h-2.9V389.4z"/>
		<path id="XMLID_186_" class="st2" d="M246.8,400.7l-0.2-2.1h-0.1c-0.9,1.3-2.7,2.4-5,2.4c-3.3,0-5-2.3-5-4.7c0-4,3.5-6.1,9.9-6.1
			v-0.3c0-1.4-0.4-3.8-3.7-3.8c-1.5,0-3.1,0.5-4.3,1.2l-0.7-2c1.4-0.9,3.3-1.5,5.4-1.5c5,0,6.2,3.4,6.2,6.7v6.1
			c0,1.4,0.1,2.8,0.3,3.9H246.8z M246.3,392.3c-3.3-0.1-6.9,0.5-6.9,3.7c0,1.9,1.3,2.8,2.8,2.8c2.1,0,3.5-1.4,4-2.7
			c0.1-0.3,0.2-0.6,0.2-0.9V392.3z"/>
		<path id="XMLID_189_" class="st2" d="M254,388.7c0-1.7,0-3.1-0.1-4.4h2.6l0.2,2.7h0.1c0.8-1.6,2.7-3.1,5.4-3.1
			c2.3,0,5.8,1.4,5.8,7v9.8h-3v-9.5c0-2.6-1-4.8-3.8-4.8c-2,0-3.5,1.4-4,3.1c-0.1,0.4-0.2,0.9-0.2,1.4v9.9h-3V388.7z"/>
		<path id="XMLID_191_" class="st2" d="M276.3,379.6v4.7h4.3v2.3h-4.3v8.8c0,2,0.6,3.2,2.2,3.2c0.8,0,1.4-0.1,1.7-0.2l0.1,2.2
			c-0.6,0.2-1.5,0.4-2.6,0.4c-1.4,0-2.5-0.4-3.2-1.3c-0.8-0.9-1.2-2.3-1.2-4.3v-8.9h-2.5v-2.3h2.5v-3.9L276.3,379.6z"/>
		<path id="XMLID_193_" class="st2" d="M285.4,393c0.1,4,2.6,5.7,5.6,5.7c2.1,0,3.4-0.4,4.5-0.8l0.5,2.1c-1.1,0.5-2.8,1-5.5,1
			c-5.1,0-8.1-3.3-8.1-8.3s2.9-8.8,7.7-8.8c5.4,0,6.8,4.7,6.8,7.7c0,0.6-0.1,1.1-0.1,1.4H285.4z M294.1,390.9c0-1.9-0.8-4.8-4.1-4.8
			c-3,0-4.3,2.8-4.6,4.8H294.1z"/>
		<path id="XMLID_196_" class="st2" d="M322.1,376.6v19.8c0,1.5,0,3.1,0.1,4.2h-2.7l-0.1-2.8h-0.1c-0.9,1.8-2.9,3.2-5.6,3.2
			c-4,0-7-3.4-7-8.3c0-5.5,3.4-8.8,7.4-8.8c2.5,0,4.2,1.2,4.9,2.5h0.1v-9.8H322.1z M319.1,391c0-0.4,0-0.9-0.1-1.3
			c-0.4-1.9-2.1-3.5-4.3-3.5c-3.1,0-4.9,2.7-4.9,6.3c0,3.3,1.6,6.1,4.8,6.1c2,0,3.8-1.3,4.4-3.6c0.1-0.4,0.1-0.8,0.1-1.3V391z"/>
		<path id="XMLID_199_" class="st2" d="M328.7,393c0.1,4,2.6,5.7,5.6,5.7c2.1,0,3.4-0.4,4.5-0.8l0.5,2.1c-1.1,0.5-2.8,1-5.5,1
			c-5.1,0-8.1-3.3-8.1-8.3s2.9-8.8,7.7-8.8c5.4,0,6.8,4.7,6.8,7.7c0,0.6-0.1,1.1-0.1,1.4H328.7z M337.4,390.9c0-1.9-0.8-4.8-4.1-4.8
			c-3,0-4.3,2.8-4.6,4.8H337.4z"/>
		<path id="XMLID_202_" class="st2" d="M362.8,380.8c-0.6,0-1.4,0-2.2,0.1c-4.7,0.8-7.2,4.2-7.7,7.8h0.1c1.1-1.4,2.9-2.5,5.3-2.5
			c3.9,0,6.6,2.8,6.6,7.1c0,4-2.7,7.8-7.3,7.8c-4.7,0-7.8-3.7-7.8-9.4c0-4.3,1.6-7.8,3.7-9.9c1.8-1.8,4.3-2.9,7-3.3
			c0.9-0.1,1.6-0.2,2.2-0.2V380.8z M362,393.5c0-3.2-1.8-5.1-4.5-5.1c-1.8,0-3.5,1.1-4.3,2.7c-0.2,0.3-0.3,0.8-0.3,1.3
			c0.1,3.6,1.7,6.3,4.8,6.3C360.2,398.8,362,396.6,362,393.5z"/>
		<path id="XMLID_205_" class="st2" d="M382.3,389.4c0,7.5-2.8,11.6-7.7,11.6c-4.3,0-7.2-4-7.3-11.3c0-7.4,3.2-11.5,7.7-11.5
			C379.6,378.3,382.3,382.4,382.3,389.4z M370.3,389.8c0,5.7,1.8,9,4.5,9c3.1,0,4.5-3.6,4.5-9.2c0-5.4-1.4-9-4.5-9
			C372.2,380.6,370.3,383.8,370.3,389.8z"/>
		<path id="XMLID_208_" class="st2" d="M399.7,389.4c0,7.5-2.8,11.6-7.7,11.6c-4.3,0-7.2-4-7.3-11.3c0-7.4,3.2-11.5,7.7-11.5
			C397,378.3,399.7,382.4,399.7,389.4z M387.7,389.8c0,5.7,1.8,9,4.5,9c3.1,0,4.5-3.6,4.5-9.2c0-5.4-1.4-9-4.5-9
			C389.6,380.6,387.7,383.8,387.7,389.8z"/>
		<path id="XMLID_211_" class="st2" d="M403.4,388.7c0-1.7,0-3.1-0.1-4.4h2.6l0.1,2.6h0.1c0.9-1.6,2.4-3,5.2-3
			c2.2,0,3.9,1.4,4.6,3.3h0.1c0.5-0.9,1.2-1.6,1.8-2.1c1-0.7,2.1-1.2,3.6-1.2c2.2,0,5.4,1.4,5.4,7.1v9.7h-2.9v-9.3
			c0-3.2-1.2-5.1-3.6-5.1c-1.7,0-3,1.3-3.5,2.7c-0.1,0.4-0.2,0.9-0.2,1.5v10.1h-2.9v-9.8c0-2.6-1.2-4.5-3.4-4.5
			c-1.9,0-3.2,1.5-3.7,3c-0.2,0.4-0.2,0.9-0.2,1.5v9.9h-2.9V388.7z"/>
		<path id="XMLID_213_" class="st2" d="M431.6,376.6h3v24.1h-3V376.6z"/>
		<path id="XMLID_215_" class="st2" d="M126.5,459.5c1.5-0.3,3.6-0.5,5.7-0.5c3.2,0,5.2,0.6,6.6,1.9c1.2,1,1.8,2.6,1.8,4.3
			c0,3-1.9,5-4.3,5.8v0.1c1.8,0.6,2.8,2.2,3.4,4.6c0.7,3.2,1.3,5.4,1.8,6.3h-3.1c-0.4-0.6-0.9-2.6-1.5-5.5c-0.7-3.2-1.9-4.3-4.6-4.4
			h-2.8v9.9h-2.9V459.5z M129.5,469.9h3c3.2,0,5.2-1.7,5.2-4.3c0-2.9-2.1-4.2-5.3-4.3c-1.4,0-2.4,0.1-2.9,0.3V469.9z"/>
		<path id="XMLID_218_" class="st2" d="M146.5,474.4c0.1,4,2.6,5.7,5.6,5.7c2.1,0,3.4-0.4,4.5-0.8l0.5,2.1c-1.1,0.5-2.8,1-5.5,1
			c-5.1,0-8.1-3.3-8.1-8.3c0-4.9,2.9-8.8,7.7-8.8c5.4,0,6.8,4.7,6.8,7.7c0,0.6-0.1,1.1-0.1,1.4H146.5z M155.2,472.3
			c0-1.9-0.8-4.8-4.1-4.8c-3,0-4.3,2.8-4.6,4.8H155.2z"/>
		<path id="XMLID_221_" class="st2" d="M162.1,482.1v-14.1h-2.3v-2.3h2.3v-0.8c0-2.3,0.5-4.4,1.9-5.7c1.1-1.1,2.6-1.5,4-1.5
			c1.1,0,2,0.2,2.5,0.5l-0.4,2.3c-0.4-0.2-1.1-0.4-1.9-0.4c-2.5,0-3.2,2.2-3.2,4.7v0.9h4v2.3h-4v14.1H162.1z"/>
		<path id="XMLID_223_" class="st2" d="M171.7,470.8c0-1.9,0-3.6-0.1-5.1h2.6l0.1,3.2h0.1c0.7-2.2,2.5-3.6,4.5-3.6
			c0.3,0,0.6,0,0.8,0.1v2.8c-0.3-0.1-0.6-0.1-1-0.1c-2.1,0-3.6,1.6-4,3.8c-0.1,0.4-0.1,0.9-0.1,1.4v8.7h-2.9V470.8z"/>
		<path id="XMLID_225_" class="st2" d="M186.2,461c0,1-0.7,1.8-1.9,1.8c-1.1,0-1.8-0.8-1.8-1.8c0-1,0.8-1.9,1.9-1.9
			C185.5,459.2,186.2,460,186.2,461z M182.9,482.1v-16.4h3v16.4H182.9z"/>
		<path id="XMLID_228_" class="st2" d="M205,465.6c-0.1,1.2-0.1,2.5-0.1,4.5v9.5c0,3.8-0.7,6.1-2.3,7.5c-1.6,1.5-3.9,2-6,2
			c-2,0-4.1-0.5-5.5-1.4l0.7-2.3c1.1,0.7,2.8,1.3,4.8,1.3c3.1,0,5.3-1.6,5.3-5.7v-1.8h-0.1c-0.9,1.5-2.7,2.7-5.2,2.7
			c-4.1,0-7-3.5-7-8c0-5.6,3.6-8.7,7.4-8.7c2.8,0,4.4,1.5,5.1,2.8h0.1l0.1-2.5H205z M201.9,472.1c0-0.5,0-0.9-0.2-1.4
			c-0.5-1.7-2-3.2-4.2-3.2c-2.8,0-4.9,2.4-4.9,6.2c0,3.2,1.6,5.9,4.8,5.9c1.8,0,3.5-1.2,4.1-3c0.2-0.5,0.2-1.1,0.2-1.6V472.1z"/>
		<path id="XMLID_231_" class="st2" d="M211.5,474.4c0.1,4,2.6,5.7,5.6,5.7c2.1,0,3.4-0.4,4.5-0.8l0.5,2.1c-1.1,0.5-2.8,1-5.5,1
			c-5.1,0-8.1-3.3-8.1-8.3c0-4.9,2.9-8.8,7.7-8.8c5.4,0,6.8,4.7,6.8,7.7c0,0.6-0.1,1.1-0.1,1.4H211.5z M220.2,472.3
			c0-1.9-0.8-4.8-4.1-4.8c-3,0-4.3,2.8-4.6,4.8H220.2z"/>
		<path id="XMLID_234_" class="st2" d="M230.4,460.9v4.7h4.3v2.3h-4.3v8.8c0,2,0.6,3.2,2.2,3.2c0.8,0,1.4-0.1,1.7-0.2l0.1,2.2
			c-0.6,0.2-1.5,0.4-2.6,0.4c-1.4,0-2.5-0.4-3.2-1.3c-0.8-0.9-1.2-2.3-1.2-4.3v-8.9h-2.5v-2.3h2.5v-3.9L230.4,460.9z"/>
		<path id="XMLID_236_" class="st2" d="M247.1,482.1l-0.2-2.1h-0.1c-0.9,1.3-2.7,2.4-5,2.4c-3.3,0-5-2.3-5-4.7c0-4,3.5-6.1,9.9-6.1
			v-0.3c0-1.4-0.4-3.8-3.7-3.8c-1.5,0-3.1,0.5-4.3,1.2l-0.7-2c1.4-0.9,3.3-1.5,5.4-1.5c5,0,6.2,3.4,6.2,6.7v6.1
			c0,1.4,0.1,2.8,0.3,3.9H247.1z M246.6,473.7c-3.3-0.1-6.9,0.5-6.9,3.7c0,1.9,1.3,2.8,2.8,2.8c2.1,0,3.5-1.4,4-2.7
			c0.1-0.3,0.2-0.6,0.2-0.9V473.7z"/>
		<path id="XMLID_239_" class="st2" d="M254.3,470.1c0-1.7,0-3.1-0.1-4.4h2.6l0.2,2.7h0.1c0.8-1.6,2.7-3.1,5.4-3.1
			c2.3,0,5.8,1.4,5.8,7v9.8h-3v-9.5c0-2.6-1-4.8-3.8-4.8c-2,0-3.5,1.4-4,3.1c-0.1,0.4-0.2,0.9-0.2,1.4v9.9h-3V470.1z"/>
		<path id="XMLID_241_" class="st2" d="M276.6,460.9v4.7h4.3v2.3h-4.3v8.8c0,2,0.6,3.2,2.2,3.2c0.8,0,1.4-0.1,1.7-0.2l0.1,2.2
			c-0.6,0.2-1.5,0.4-2.6,0.4c-1.4,0-2.5-0.4-3.2-1.3c-0.8-0.9-1.2-2.3-1.2-4.3v-8.9h-2.5v-2.3h2.5v-3.9L276.6,460.9z"/>
		<path id="XMLID_243_" class="st2" d="M285.7,474.4c0.1,4,2.6,5.7,5.6,5.7c2.1,0,3.4-0.4,4.5-0.8l0.5,2.1c-1.1,0.5-2.8,1-5.5,1
			c-5.1,0-8.1-3.3-8.1-8.3c0-4.9,2.9-8.8,7.7-8.8c5.4,0,6.8,4.7,6.8,7.7c0,0.6-0.1,1.1-0.1,1.4H285.7z M294.4,472.3
			c0-1.9-0.8-4.8-4.1-4.8c-3,0-4.3,2.8-4.6,4.8H294.4z"/>
		<path id="XMLID_246_" class="st2" d="M308.2,458h3v24.1h-3V458z"/>
		<path id="XMLID_248_" class="st2" d="M325.3,482.1l-0.2-2.1H325c-0.9,1.3-2.7,2.4-5,2.4c-3.3,0-5-2.3-5-4.7c0-4,3.5-6.1,9.9-6.1
			v-0.3c0-1.4-0.4-3.8-3.7-3.8c-1.5,0-3.1,0.5-4.3,1.2l-0.7-2c1.4-0.9,3.3-1.5,5.4-1.5c5,0,6.2,3.4,6.2,6.7v6.1
			c0,1.4,0.1,2.8,0.3,3.9H325.3z M324.9,473.7c-3.3-0.1-6.9,0.5-6.9,3.7c0,1.9,1.3,2.8,2.8,2.8c2.1,0,3.5-1.4,4-2.7
			c0.1-0.3,0.2-0.6,0.2-0.9V473.7z"/>
		<path id="XMLID_251_" class="st2" d="M336,460.9v4.7h4.3v2.3H336v8.8c0,2,0.6,3.2,2.2,3.2c0.8,0,1.4-0.1,1.7-0.2l0.1,2.2
			c-0.6,0.2-1.5,0.4-2.6,0.4c-1.4,0-2.5-0.4-3.2-1.3c-0.8-0.9-1.2-2.3-1.2-4.3v-8.9h-2.5v-2.3h2.5v-3.9L336,460.9z"/>
		<path id="XMLID_253_" class="st2" d="M352.7,482.1l-0.2-2.1h-0.1c-0.9,1.3-2.7,2.4-5,2.4c-3.3,0-5-2.3-5-4.7c0-4,3.5-6.1,9.9-6.1
			v-0.3c0-1.4-0.4-3.8-3.7-3.8c-1.5,0-3.1,0.5-4.3,1.2l-0.7-2c1.4-0.9,3.3-1.5,5.4-1.5c5,0,6.2,3.4,6.2,6.7v6.1
			c0,1.4,0.1,2.8,0.3,3.9H352.7z M352.3,473.7c-3.3-0.1-6.9,0.5-6.9,3.7c0,1.9,1.3,2.8,2.8,2.8c2.1,0,3.5-1.4,4-2.7
			c0.1-0.3,0.2-0.6,0.2-0.9V473.7z"/>
		<path id="XMLID_256_" class="st2" d="M142.5,562.7c-1.1,0.5-3.3,1.1-6,1.1c-6.4,0-11.3-4.1-11.3-11.6c0-7.2,4.8-12,11.9-12
			c2.8,0,4.6,0.6,5.4,1l-0.7,2.4c-1.1-0.5-2.7-0.9-4.6-0.9c-5.4,0-8.9,3.4-8.9,9.4c0,5.6,3.2,9.2,8.8,9.2c1.8,0,3.6-0.4,4.8-0.9
			L142.5,562.7z"/>
		<path id="XMLID_258_" class="st2" d="M147.4,555.8c0.1,4,2.6,5.7,5.6,5.7c2.1,0,3.4-0.4,4.5-0.8l0.5,2.1c-1.1,0.5-2.8,1-5.5,1
			c-5.1,0-8.1-3.3-8.1-8.3s2.9-8.8,7.7-8.8c5.4,0,6.8,4.7,6.8,7.7c0,0.6-0.1,1.1-0.1,1.4H147.4z M156.1,553.6c0-1.9-0.8-4.8-4.1-4.8
			c-3,0-4.3,2.8-4.6,4.8H156.1z"/>
		<path id="XMLID_261_" class="st2" d="M162.7,552.1c0-1.9,0-3.6-0.1-5.1h2.6l0.1,3.2h0.1c0.7-2.2,2.5-3.6,4.5-3.6
			c0.3,0,0.6,0,0.8,0.1v2.8c-0.3-0.1-0.6-0.1-1-0.1c-2.1,0-3.6,1.6-4,3.8c-0.1,0.4-0.1,0.9-0.1,1.4v8.7h-2.9V552.1z"/>
		<path id="XMLID_263_" class="st2" d="M175.8,547l3.2,9.2c0.5,1.5,1,2.8,1.3,4.2h0.1c0.4-1.4,0.8-2.7,1.4-4.2l3.2-9.2h3.1
			l-6.4,16.4h-2.8l-6.2-16.4H175.8z"/>
		<path id="XMLID_265_" class="st2" d="M192.3,555.8c0.1,4,2.6,5.7,5.6,5.7c2.1,0,3.4-0.4,4.5-0.8l0.5,2.1c-1.1,0.5-2.8,1-5.5,1
			c-5.1,0-8.1-3.3-8.1-8.3s2.9-8.8,7.7-8.8c5.4,0,6.8,4.7,6.8,7.7c0,0.6-0.1,1.1-0.1,1.4H192.3z M201,553.6c0-1.9-0.8-4.8-4.1-4.8
			c-3,0-4.3,2.8-4.6,4.8H201z"/>
		<path id="XMLID_268_" class="st2" d="M203.6,568.2c1.4-0.1,2.5-0.5,3.3-1.3c0.8-0.9,1.1-2.2,1.1-6.2V547h3v14.9
			c0,3.2-0.5,5.3-2,6.7c-1.3,1.3-3.5,1.9-5.1,1.9L203.6,568.2z M211.3,542.4c0,1-0.7,1.8-1.9,1.8c-1.1,0-1.8-0.8-1.8-1.8
			c0-1,0.8-1.9,1.9-1.9C210.6,540.5,211.3,541.3,211.3,542.4z"/>
		<path id="XMLID_271_" class="st2" d="M224.9,563.4l-0.2-2.1h-0.1c-0.9,1.3-2.7,2.4-5,2.4c-3.3,0-5-2.3-5-4.7c0-4,3.5-6.1,9.9-6.1
			v-0.3c0-1.4-0.4-3.8-3.7-3.8c-1.5,0-3.1,0.5-4.3,1.2l-0.7-2c1.4-0.9,3.3-1.5,5.4-1.5c5,0,6.2,3.4,6.2,6.7v6.1
			c0,1.4,0.1,2.8,0.3,3.9H224.9z M224.5,555c-3.3-0.1-6.9,0.5-6.9,3.7c0,1.9,1.3,2.8,2.8,2.8c2.1,0,3.5-1.4,4-2.7
			c0.1-0.3,0.2-0.6,0.2-0.9V555z"/>
	</g>
	<rect id="XMLID_5_" x="44.7" y="121.2" class="st2" width="48.8" height="47.6"/>
	<rect id="XMLID_7_" x="44.7" y="202.4" class="st2" width="48.8" height="47.6"/>
	<rect id="XMLID_8_" x="44.7" y="283.7" class="st2" width="48.8" height="47.6"/>
	<rect id="XMLID_11_" x="44.7" y="365.6" class="st2" width="48.8" height="47.6"/>
	<rect id="XMLID_10_" x="44.7" y="446.8" class="st2" width="48.8" height="47.6"/>
	<rect id="XMLID_9_" x="44.7" y="528.1" class="st2" width="48.8" height="47.6"/>
	<g id="XMLID_67_">
		<path id="XMLID_68_" class="st2" d="M66.5,36.5c-0.2-3.2-0.4-7-0.3-9.9h-0.1c-0.8,2.7-1.7,5.5-2.9,8.7l-4,11.1h-2.2l-3.7-10.9
			c-1.1-3.2-2-6.2-2.6-8.9h-0.1c-0.1,2.8-0.2,6.7-0.4,10.1l-0.6,9.8h-2.8l1.6-22.8H52l3.9,11c0.9,2.8,1.7,5.3,2.3,7.7h0.1
			c0.6-2.3,1.4-4.8,2.4-7.7l4.1-11h3.8L70,46.5h-2.9L66.5,36.5z"/>
		<path id="XMLID_70_" class="st2" d="M86.4,35.8h-8.9V44h9.9v2.5H74.5V23.7h12.3v2.5h-9.4v7.2h8.9V35.8z"/>
		<path id="XMLID_72_" class="st2" d="M90.8,42.9c1.3,0.8,3.3,1.5,5.3,1.5c3,0,4.8-1.6,4.8-3.9c0-2.1-1.2-3.4-4.3-4.5
			c-3.7-1.3-6-3.3-6-6.5c0-3.6,2.9-6.2,7.4-6.2c2.3,0,4,0.5,5.1,1.1l-0.8,2.4c-0.7-0.4-2.3-1.1-4.3-1.1c-3.1,0-4.3,1.9-4.3,3.4
			c0,2.1,1.4,3.2,4.5,4.4c3.9,1.5,5.8,3.4,5.8,6.7c0,3.5-2.6,6.6-8,6.6c-2.2,0-4.6-0.6-5.8-1.5L90.8,42.9z"/>
		<path id="XMLID_74_" class="st2" d="M111.6,39.3l-2.4,7.2h-3.1l7.8-22.8h3.6l7.8,22.8h-3.2l-2.4-7.2H111.6z M119.1,37l-2.2-6.6
			c-0.5-1.5-0.8-2.8-1.2-4.2h-0.1c-0.3,1.4-0.7,2.7-1.2,4.1l-2.2,6.6H119.1z"/>
	</g>
	<rect id="XMLID_14_" x="143.2" y="12.6" class="st2" width="302.5" height="47.6"/>
	<g id="XMLID_51_">
		<path id="XMLID_52_" d="M80.8,153.7c0,0.4-0.1,0.7-0.2,0.8c-0.6,0.3-1.3,0.5-2,0.7c-0.7,0.1-1.5,0.3-2.2,0.4
			c-0.8,0.1-1.5,0.2-2.3,0.4c-0.8,0.1-1.5,0.3-2.1,0.6c0,0.1,0,0.3,0,0.5s0,0.4,0,0.5c0,0.6-0.7,0.9-2.2,0.9c-0.1,0-0.3-0.1-0.4-0.2
			c-0.1-0.1-0.2-0.2-0.3-0.4c-0.1-0.1-0.2-0.2-0.3-0.3c-0.1-0.1-0.2-0.1-0.3-0.1c-0.2,0-0.8,0.1-1.8,0.4c-0.5,0.1-1,0.3-1.3,0.4
			c-0.3,0.1-0.5,0.2-0.7,0.2c-1.3,0.4-2.3,0.6-2.8,0.6c-0.5,0-0.8-0.1-1.1-0.4c-0.4-0.4-0.6-0.8-0.6-1.1c0-0.5,0.4-0.9,1.2-1.2
			c0.8-0.3,1.8-0.5,2.9-0.7c0.7-0.1,1.4-0.3,2.2-0.4c0.7-0.2,1.4-0.4,2-0.6c0-0.7,0.1-1.3,0.1-1.9c0-0.6,0.1-1.1,0.1-1.6
			s0.1-1,0.2-1.7c0.1-0.6,0.2-1.4,0.3-2.2c0.2-1.6,0.4-2.9,0.5-4c0.1-0.5,0.1-1.1,0.2-1.5c0.1-0.5,0.1-1,0.2-1.4
			c-0.6,0-1.5,0.4-2.7,1.2c-0.4,0.3-0.7,0.5-1,0.6c-0.3,0.2-0.6,0.3-0.8,0.4c-0.4,0.2-1.1,0.4-1.9,0.7c-0.6,0.2-1.2,0.3-1.6,0.3
			c-0.3,0-0.5-0.1-0.6-0.3c-0.1-0.2-0.1-0.4-0.1-0.8c0-0.5,0.2-0.9,0.5-1c0.4-0.2,1-0.5,1.7-0.8c0.4-0.2,0.7-0.3,0.9-0.4
			c0.2-0.1,0.4-0.2,0.5-0.2c0.5-0.2,0.9-0.5,1.3-0.7c0.4-0.2,0.8-0.4,1.2-0.7c0.4-0.2,0.9-0.5,1.4-0.8c0.6-0.3,1.2-0.7,2-1.2
			c0.9-0.5,1.4-0.8,1.6-0.8c0.4,0,0.6,0.2,0.9,0.7c0.3,0.5,0.4,0.9,0.4,1.3c0,0.3-0.2,0.6-0.5,0.9c-0.3,1.1-0.5,2.3-0.7,3.4
			c-0.2,1.2-0.5,2.4-0.7,3.6c-0.4,2.4-0.6,4.4-0.6,5.9c0,0.1,0,0.2,0,0.3c0,0.1,0,0.2,0,0.4c0,0.1,0,0.3,0,0.4c0,0.1,0,0.3,0,0.4
			c0,0.2,0,0.4,0,0.5c0,0.1,0,0.3,0.1,0.4c0.8,0,2-0.3,3.6-0.7c0.7-0.2,1.4-0.4,1.9-0.5c0.5-0.1,0.9-0.2,1.2-0.2
			c0.4-0.1,0.8-0.1,1.1-0.1c0.4,0,0.7,0,1.1,0C80.6,152.9,80.8,153.4,80.8,153.7z"/>
		<path id="XMLID_54_" d="M81.6,236.7c0,0.2-0.1,0.5-0.2,0.8c-0.1,0.4-0.6,0.7-1.2,1c-0.7,0.3-1.2,0.4-1.7,0.4h-0.6
			c-1,0-1.8-0.1-2.3-0.2c-1.6-0.4-3.5-0.6-5.7-0.6c-0.5,0-0.9,0-1.4,0c-0.5,0-1,0.1-1.5,0.2c-1,0.1-1.9,0.3-2.6,0.6
			c-1.3,0.5-2.2,1-2.5,1.4c-0.4,0.5-0.8,0.9-1,1c-0.3,0.2-0.6,0.3-1.1,0.3c-0.9,0-1.3-0.4-1.3-1.1c0-0.8,0.2-1.5,0.6-2
			c0.6-0.8,1.3-1.5,2.2-2.1c0.4-0.3,0.9-0.6,1.5-0.9c0.6-0.3,1.2-0.7,1.9-1.1c0.5-0.3,1.1-0.5,1.6-0.9c0.5-0.3,1-0.7,1.5-1.1
			c0.4-0.4,0.8-0.7,1.2-1.1c0.4-0.4,0.8-0.8,1.3-1.2c0.9-0.8,1.6-1.5,2.1-2.3c0.6-0.7,1-1.4,1.4-2.1c0.4-0.7,0.6-1.4,0.6-2.1
			c0-0.5-0.2-1-0.6-1.6c-0.4-0.6-0.9-1-1.6-1.4c-0.6-0.4-1.2-0.6-1.7-0.6c-0.6,0-1.5,0.3-2.6,1c-0.6,0.3-1.1,0.7-1.5,1
			c-0.4,0.3-0.8,0.6-1.2,0.9c-0.1,0.1-0.2,0.2-0.4,0.4c-0.1,0.1-0.3,0.3-0.4,0.4c-0.1,0.1-0.2,0.3-0.4,0.4s-0.3,0.2-0.4,0.2
			c-0.1,0.1-0.3,0.1-0.5,0.1c-0.2,0-0.4,0-0.7,0c-0.2,0-0.4-0.2-0.7-0.7c-0.2-0.5-0.3-0.8-0.3-1.1s0.1-0.5,0.2-0.6
			c0.2-0.2,0.4-0.3,0.8-0.6c0.3-0.2,0.7-0.5,1.1-0.7c0.5-0.4,1-0.7,1.5-1.1c0.5-0.3,0.9-0.6,1.3-0.9c0.4-0.3,0.8-0.5,1.3-0.7
			c0.4-0.2,0.9-0.4,1.3-0.5c0.7-0.2,1.7-0.3,2.9-0.3c1.1,0,2.1,0.4,3.1,1.3c1,0.9,1.8,1.9,2.4,3.1c0.4,0.8,0.6,1.2,0.6,1.3
			c0,0.9-0.4,1.9-1.1,3.1c-0.4,0.6-0.7,1.2-1.2,1.8c-0.4,0.6-0.9,1.2-1.4,1.7c-1,1.1-1.9,2-2.7,2.7c-1.5,1.3-3,2.4-4.4,3.1
			c0.3,0,0.6,0,1.1,0c0.4,0,0.9,0,1.5,0c1.2,0,2.9,0.1,5.2,0.2c0.3,0,0.6,0,1,0.1c0.3,0,0.7,0,1,0.1c0.7,0,1.3,0,1.7,0
			c0.3,0,0.6-0.1,1.1-0.3c0.5-0.2,0.8-0.3,1-0.3c0.2,0,0.4,0.1,0.6,0.4C81.5,236.2,81.6,236.5,81.6,236.7z"/>
		<path id="XMLID_56_" d="M80.8,316.4c0,0.4-0.1,0.7-0.2,0.8c-0.6,0.3-1.3,0.5-2,0.7c-0.7,0.1-1.5,0.3-2.2,0.4
			c-0.8,0.1-1.5,0.2-2.3,0.4c-0.8,0.1-1.5,0.3-2.1,0.6c0,0.1,0,0.3,0,0.5c0,0.2,0,0.4,0,0.5c0,0.6-0.7,0.9-2.2,0.9
			c-0.1,0-0.3-0.1-0.4-0.2c-0.1-0.1-0.2-0.2-0.3-0.4c-0.1-0.1-0.2-0.2-0.3-0.3c-0.1-0.1-0.2-0.1-0.3-0.1c-0.2,0-0.8,0.1-1.8,0.4
			c-0.5,0.1-1,0.3-1.3,0.4c-0.3,0.1-0.5,0.2-0.7,0.2c-1.3,0.4-2.3,0.6-2.8,0.6c-0.5,0-0.8-0.1-1.1-0.4c-0.4-0.4-0.6-0.8-0.6-1.1
			c0-0.5,0.4-0.9,1.2-1.2c0.8-0.3,1.8-0.5,2.9-0.7c0.7-0.1,1.4-0.3,2.2-0.4c0.7-0.2,1.4-0.4,2-0.6c0-0.7,0.1-1.3,0.1-1.9
			c0-0.6,0.1-1.1,0.1-1.6s0.1-1,0.2-1.7c0.1-0.6,0.2-1.4,0.3-2.2c0.2-1.6,0.4-2.9,0.5-4c0.1-0.5,0.1-1.1,0.2-1.5
			c0.1-0.5,0.1-1,0.2-1.4c-0.6,0-1.5,0.4-2.7,1.2c-0.4,0.3-0.7,0.5-1,0.6c-0.3,0.2-0.6,0.3-0.8,0.4c-0.4,0.2-1.1,0.4-1.9,0.7
			c-0.6,0.2-1.2,0.3-1.6,0.3c-0.3,0-0.5-0.1-0.6-0.3c-0.1-0.2-0.1-0.4-0.1-0.8c0-0.5,0.2-0.9,0.5-1c0.4-0.2,1-0.5,1.7-0.8
			c0.4-0.2,0.7-0.3,0.9-0.4c0.2-0.1,0.4-0.2,0.5-0.2c0.5-0.2,0.9-0.5,1.3-0.7c0.4-0.2,0.8-0.4,1.2-0.7c0.4-0.2,0.9-0.5,1.4-0.8
			c0.6-0.3,1.2-0.7,2-1.2c0.9-0.5,1.4-0.8,1.6-0.8c0.4,0,0.6,0.2,0.9,0.7c0.3,0.5,0.4,0.9,0.4,1.3c0,0.3-0.2,0.6-0.5,0.9
			c-0.3,1.1-0.5,2.3-0.7,3.4c-0.2,1.2-0.5,2.4-0.7,3.6c-0.4,2.4-0.6,4.4-0.6,5.9c0,0.1,0,0.2,0,0.3c0,0.1,0,0.2,0,0.4
			c0,0.1,0,0.3,0,0.4c0,0.1,0,0.3,0,0.4c0,0.2,0,0.4,0,0.5c0,0.1,0,0.3,0.1,0.4c0.8,0,2-0.3,3.6-0.7c0.7-0.2,1.4-0.4,1.9-0.5
			c0.5-0.1,0.9-0.2,1.2-0.2c0.4-0.1,0.8-0.1,1.1-0.1c0.4,0,0.7,0,1.1,0C80.6,315.6,80.8,316.1,80.8,316.4z"/>
		<path id="XMLID_58_" d="M82.1,389.8c0,1.4-0.5,2.9-1.4,4.4c-0.9,1.5-2.2,2.8-3.7,4c-1.5,1.2-3.1,2.2-4.8,3.1
			c-1.7,0.8-3.2,1.3-4.6,1.5c-1.7,0.2-3,0.3-3.8,0.3c-1.8,0-3.1-0.6-4.1-1.8c-1-1.2-1.4-2.7-1.4-4.5c0-1.4,0.3-2.9,0.8-4.5
			c0.6-1.6,1.3-3.2,2.3-4.6c1-1.4,2-2.6,3.1-3.5c1.3-1,2.7-1.9,4.2-2.7c1.5-0.7,2.9-1.1,4.2-1.1c1.1,0,2.2,0.3,3.4,0.8
			c1.2,0.5,2.2,1.2,3.1,2c0.5,0.5,0.9,0.8,1,1C81.6,385.5,82.1,387.4,82.1,389.8z M79.3,390.3c0-0.6-0.1-1.4-0.3-2.2
			c-0.2-0.9-0.5-1.5-0.8-1.8c-0.2-0.3-0.4-0.5-0.7-0.8c-0.2-0.3-0.5-0.5-0.8-0.8c-0.5-0.5-1-0.9-1.3-1c-0.3,0.3-0.7,0.5-1.2,0.5
			c-0.1,0-0.3-0.1-0.6-0.4c-0.3-0.3-0.7-0.4-1-0.4c-0.6,0-1.3,0.1-1.9,0.2c-0.7,0.1-1.2,0.3-1.6,0.6c-0.6,0.4-1.3,0.9-2.1,1.6
			c-1.6,1.4-2.9,3-4,4.7c-1.1,1.7-1.6,3.5-1.6,5.4c0,0.7,0.1,1.4,0.3,2.1c0.2,0.7,0.5,1.2,0.9,1.4c0.9,0.6,2,0.9,3.2,0.9
			c1.2,0,2.6-0.4,4.4-1.3c1.1-0.6,2.3-1.3,3.4-2c0.4-0.3,0.8-0.6,1.2-0.9c0.4-0.3,0.8-0.7,1.2-1.1c0.9-0.8,1.6-1.6,2.3-2.4
			C79,391.8,79.3,391,79.3,390.3z"/>
		<path id="XMLID_61_" d="M82.1,471.1c0,1.4-0.5,2.9-1.4,4.4c-0.9,1.5-2.2,2.8-3.7,4c-1.5,1.2-3.1,2.2-4.8,3.1
			c-1.7,0.8-3.2,1.3-4.6,1.5c-1.7,0.2-3,0.3-3.8,0.3c-1.8,0-3.1-0.6-4.1-1.8c-1-1.2-1.4-2.7-1.4-4.5c0-1.4,0.3-2.9,0.8-4.5
			c0.6-1.6,1.3-3.2,2.3-4.6c1-1.4,2-2.6,3.1-3.5c1.3-1,2.7-1.9,4.2-2.7c1.5-0.7,2.9-1.1,4.2-1.1c1.1,0,2.2,0.3,3.4,0.8
			c1.2,0.5,2.2,1.2,3.1,2c0.5,0.5,0.9,0.8,1,1C81.6,466.9,82.1,468.7,82.1,471.1z M79.3,471.7c0-0.6-0.1-1.4-0.3-2.2
			c-0.2-0.9-0.5-1.5-0.8-1.8c-0.2-0.3-0.4-0.5-0.7-0.8c-0.2-0.3-0.5-0.5-0.8-0.8c-0.5-0.5-1-0.9-1.3-1c-0.3,0.3-0.7,0.5-1.2,0.5
			c-0.1,0-0.3-0.1-0.6-0.4c-0.3-0.3-0.7-0.4-1-0.4c-0.6,0-1.3,0.1-1.9,0.2c-0.7,0.1-1.2,0.3-1.6,0.6c-0.6,0.4-1.3,0.9-2.1,1.6
			c-1.6,1.4-2.9,3-4,4.7c-1.1,1.7-1.6,3.5-1.6,5.4c0,0.7,0.1,1.4,0.3,2.1c0.2,0.7,0.5,1.2,0.9,1.4c0.9,0.6,2,0.9,3.2,0.9
			c1.2,0,2.6-0.4,4.4-1.3c1.1-0.6,2.3-1.3,3.4-2c0.4-0.3,0.8-0.6,1.2-0.9c0.4-0.3,0.8-0.7,1.2-1.1c0.9-0.8,1.6-1.6,2.3-2.4
			C79,473.1,79.3,472.3,79.3,471.7z"/>
		<path id="XMLID_64_" d="M82.1,552.5c0,1.4-0.5,2.9-1.4,4.4c-0.9,1.5-2.2,2.8-3.7,4c-1.5,1.2-3.1,2.2-4.8,3.1
			c-1.7,0.8-3.2,1.3-4.6,1.5c-1.7,0.2-3,0.3-3.8,0.3c-1.8,0-3.1-0.6-4.1-1.8c-1-1.2-1.4-2.7-1.4-4.5c0-1.4,0.3-2.9,0.8-4.5
			c0.6-1.6,1.3-3.2,2.3-4.6c1-1.4,2-2.6,3.1-3.5c1.3-1,2.7-1.9,4.2-2.7c1.5-0.7,2.9-1.1,4.2-1.1c1.1,0,2.2,0.3,3.4,0.8
			c1.2,0.5,2.2,1.2,3.1,2c0.5,0.5,0.9,0.8,1,1C81.6,548.2,82.1,550.1,82.1,552.5z M79.3,553c0-0.6-0.1-1.4-0.3-2.2
			c-0.2-0.9-0.5-1.5-0.8-1.8c-0.2-0.3-0.4-0.5-0.7-0.8c-0.2-0.3-0.5-0.5-0.8-0.8c-0.5-0.5-1-0.9-1.3-1c-0.3,0.3-0.7,0.5-1.2,0.5
			c-0.1,0-0.3-0.1-0.6-0.4c-0.3-0.3-0.7-0.4-1-0.4c-0.6,0-1.3,0.1-1.9,0.2c-0.7,0.1-1.2,0.3-1.6,0.6c-0.6,0.4-1.3,0.9-2.1,1.6
			c-1.6,1.4-2.9,3-4,4.7c-1.1,1.7-1.6,3.5-1.6,5.4c0,0.7,0.1,1.4,0.3,2.1c0.2,0.7,0.5,1.2,0.9,1.4c0.9,0.6,2,0.9,3.2,0.9
			c1.2,0,2.6-0.4,4.4-1.3c1.1-0.6,2.3-1.3,3.4-2c0.4-0.3,0.8-0.6,1.2-0.9c0.4-0.3,0.8-0.7,1.2-1.1c0.9-0.8,1.6-1.6,2.3-2.4
			C79,554.5,79.3,553.7,79.3,553z"/>
	</g>
	<rect id="XMLID_17_" x="251.9" y="121.2" class="st2" width="193.8" height="47.6"/>
	<g id="XMLID_41_">
		<path id="XMLID_42_" d="M193.7,46c0,0.4-0.1,0.8-0.4,1.1c-0.3,0.3-0.6,0.5-1.1,0.5c-0.2,0-0.4,0-0.5-0.1c-0.2-0.1-0.3-0.3-0.5-0.5
			c-0.2-0.2-0.4-0.5-0.6-0.8c-0.4-0.6-0.8-1.3-1.1-2c-0.3-0.7-0.6-1.3-0.8-1.8c-0.1-0.2-0.1-0.3-0.2-0.4c-0.1-0.1-0.1-0.3-0.2-0.4
			c-0.1-0.1-0.1-0.3-0.2-0.4c-0.1-0.2-0.1-0.4-0.2-0.6c-0.3-0.9-0.6-1.6-0.7-1.9c-0.2,0.2-0.3,0.3-0.4,0.4c-0.1,0.1-0.3,0.1-0.5,0.2
			c-0.2,0-0.3,0.1-0.5,0.1c-0.2,0-0.4,0-0.6,0c-0.1,0-0.2,0-0.4,0.1c-0.2,0-0.3,0.1-0.5,0.1c-0.2,0.1-0.4,0.1-0.6,0.2
			c-0.2,0.1-0.4,0.1-0.5,0.2c-0.6,0.2-1.1,0.3-1.7,0.4c-0.6,0.1-1.1,0.2-1.7,0.4c-0.6,0.1-1.2,0.2-1.9,0.3s-1.3,0.2-2.1,0.3
			c-0.3,0.1-0.6,0.3-0.9,0.6c-0.3,0.4-0.9,1.2-1.8,2.5c-0.9,1.3-1.6,2.2-2.3,2.8c-0.6,0.6-1.2,0.9-1.8,0.9c-0.7,0-1.3-0.1-1.8-0.4
			c-0.6-0.4-0.8-0.7-0.8-1.1c0-0.2,0.1-0.4,0.4-0.5c0.2-0.1,0.6-0.2,1-0.3c0.1,0,0.4-0.3,0.9-0.8c0.5-0.5,0.8-0.9,1-1.3
			c0.5-0.6,0.9-1.3,1.4-1.9c0.5-0.7,1-1.5,1.6-2.3c0.3-0.4,0.5-0.8,0.8-1.1c0.2-0.3,0.4-0.6,0.5-0.8c0.2-0.2,0.3-0.5,0.5-0.7
			c0.2-0.3,0.4-0.6,0.7-0.9c0.1-0.2,0.2-0.3,0.4-0.6c0.2-0.2,0.3-0.5,0.5-0.7c0.2-0.3,0.4-0.5,0.6-0.8c0.2-0.2,0.3-0.4,0.4-0.6
			c0.1-0.2,0.3-0.4,0.5-0.7c0.2-0.3,0.4-0.6,0.7-0.9c0.1-0.1,0.3-0.4,0.5-0.8c0.3-0.4,0.6-1,1.1-1.7c0.6-1,1-1.8,1.2-2.3
			c1.3-3.1,2.3-4.7,2.9-4.7c0.3,0,0.5,0,0.7,0.1c0.2,0,0.3,0.1,0.4,0.2c0.1,0.1,0.2,0.3,0.2,0.5c0,0.2,0,0.4,0,0.7
			c0,0.2,0,0.4,0,0.5s0,0.3,0,0.3c0,0.2,0,0.4,0,0.7c0,0.3,0,0.6,0,1c0.6,1.2,1.1,2.4,1.6,3.7c0.3,0.7,0.5,1.4,0.8,2.2
			c0.3,0.8,0.6,1.7,0.9,2.6c0.3,0.9,0.6,1.8,0.8,2.4c0.2,0.7,0.4,1.2,0.6,1.6c0.2,0.4,0.3,0.9,0.6,1.4c0.2,0.5,0.5,1.2,0.8,1.8
			c0.1,0.3,0.5,0.9,1.2,1.8C193.3,44.9,193.7,45.5,193.7,46z M186.4,36.2c-0.2-0.6-0.4-1.3-0.6-2c-0.2-0.7-0.5-1.4-0.7-2.1
			c-0.2-0.7-0.5-1.4-0.8-2c-0.3-0.7-0.5-1.2-0.8-1.7c-0.6,0.8-1.2,1.6-1.8,2.4c-0.6,0.8-1.1,1.5-1.6,2.3c-0.5,0.8-1,1.6-1.5,2.4
			c-0.5,0.8-1,1.7-1.5,2.6c0.1,0,0.2,0.1,0.3,0.1c0.2,0,0.4,0,0.6,0c0.3,0,0.5-0.1,0.8-0.1c0.3,0,0.5-0.1,0.8-0.1
			c0.2,0,0.4-0.1,0.6-0.1c0.3-0.1,0.5-0.1,0.7-0.2c0.2,0,0.4-0.1,0.6-0.1c0.2,0,0.4-0.1,0.6-0.1c0.2-0.1,0.4-0.1,0.7-0.2
			c0.6-0.2,1.3-0.3,1.9-0.5C185.3,36.5,185.9,36.3,186.4,36.2z"/>
		<path id="XMLID_45_" d="M215,37.7c0,0.2,0,0.3-0.1,0.5c-0.1,0.2-0.2,0.3-0.3,0.4c-0.1,0.1-0.4,0.1-1,0.1c-0.2,0-0.6-0.1-1-0.2
			c-0.5-0.1-0.8-0.2-1.1-0.2c-0.1,0-0.2,0-0.3,0c-0.1,0-0.3,0-0.4,0s-0.3,0-0.4,0c-0.1,0-0.3,0-0.3,0c-0.4,0-0.9,0-1.6-0.1
			c-0.8-0.1-1.3-0.1-1.7-0.1c-0.5,0-1.3,0-2.3,0.1c-1,0.1-1.8,0.1-2.3,0.1s-1-0.1-1.3-0.2c-0.3-0.1-0.5-0.4-0.5-0.8
			c0-0.2,0.1-0.5,0.3-0.7c0.2-0.2,0.4-0.3,0.7-0.4c1.2-0.2,2-0.3,2.6-0.3c0.2,0,0.4,0,0.7,0.1c0.2,0,0.3,0,0.4,0.1
			c0.1,0,0.2,0,0.2,0h1.2c1,0,1.9,0,2.6,0c0.8,0,1.4-0.1,1.9-0.2c0.5-0.1,1-0.1,1.5-0.1c0.2,0,0.6,0.1,1.1,0.3
			c0.5,0.2,0.9,0.4,1.1,0.5c0.1,0.1,0.2,0.2,0.3,0.4C215,37.3,215,37.5,215,37.7z"/>
		<path id="XMLID_47_" d="M223.7,26.1c0.6-0.2,1.2-0.4,1.7-0.5c0.5-0.1,1-0.2,1.5-0.3c0.5-0.1,1-0.1,1.4-0.2c0.5,0,1,0,1.6,0
			c0.6,0,1.2,0.1,1.8,0.3c0.6,0.2,1,0.5,1.4,0.9c0.4,0.4,0.7,0.9,1,1.4c0.2,0.6,0.4,1.1,0.4,1.8c0,1-0.3,2-0.9,3.1
			c-0.6,1.1-1.4,2.2-2.5,3.4c-1.1,1.2-2.4,2.6-3.8,4c-1.5,1.4-3.1,3-4.9,4.8l0.3,0.3c0.4-0.1,0.8-0.3,1.4-0.4
			c0.6-0.2,1.2-0.3,1.8-0.5c0.6-0.2,1.2-0.3,1.8-0.5c0.6-0.1,1-0.2,1.4-0.3c1.2-0.2,2.2-0.4,3-0.5c0.9-0.1,1.5-0.2,1.9-0.2
			c2.2,0,3.8,0.2,4.9,0.5c1,0.4,1.5,0.9,1.5,1.7c0,0.3-0.1,0.5-0.2,0.7c-0.1,0.2-0.3,0.4-0.4,0.5c-0.2,0.1-0.4,0.2-0.6,0.3
			s-0.4,0.1-0.6,0.1c-0.2,0-0.4,0-0.6-0.1c-0.2-0.1-0.5-0.2-0.8-0.3c-0.3-0.1-0.8-0.2-1.3-0.3c-0.5-0.1-1.2-0.1-2-0.1
			c-0.9,0-1.8,0.1-2.7,0.2c-0.9,0.1-1.8,0.3-2.6,0.5s-1.6,0.4-2.4,0.6c-0.8,0.2-1.5,0.4-2.2,0.6s-1.3,0.3-1.9,0.5
			c-0.6,0.1-1.1,0.2-1.6,0.2c-0.1,0-0.3,0-0.4,0c-0.2,0-0.4,0-0.6,0c-0.2,0-0.4,0-0.6-0.1c-0.2,0-0.3-0.1-0.4-0.2
			c-0.3-0.2-0.4-0.4-0.5-0.6c-0.1-0.2-0.1-0.4-0.1-0.6c0-0.2,0.1-0.5,0.4-0.9c0.3-0.4,0.7-0.9,1.1-1.4c0.4-0.5,0.9-1,1.5-1.6
			c0.5-0.6,1.1-1.1,1.6-1.6c0.5-0.5,0.9-0.9,1.3-1.3c0.4-0.4,0.7-0.6,0.8-0.8c0.7-0.7,1.4-1.3,1.9-1.8c0.6-0.6,1.1-1.1,1.5-1.6
			c0.4-0.5,0.8-1,1.2-1.4c0.3-0.4,0.7-0.9,0.9-1.2c0.4-0.5,0.7-1.1,0.9-1.6c0.3-0.6,0.4-1.1,0.4-1.5c0-0.5-0.1-0.9-0.3-1.3
			c-0.2-0.3-0.5-0.6-0.9-0.7c-0.1-0.1-0.3-0.1-0.5-0.2c-0.2-0.1-0.5-0.1-0.9-0.1c-0.4,0-0.8,0-1.4,0.1c-0.5,0.1-1.2,0.2-1.9,0.5
			c-0.1,0-0.4,0.1-0.7,0.3s-0.7,0.3-1,0.4c-0.4,0.2-0.7,0.3-1.1,0.5c-0.3,0.1-0.6,0.3-0.8,0.4c-0.3,0.2-0.6,0.4-0.9,0.6
			c-0.3,0.2-0.6,0.4-0.9,0.6c-0.3,0.2-0.6,0.4-0.8,0.5c-0.3,0.1-0.5,0.2-0.7,0.2c-0.1,0-0.2-0.1-0.3-0.2c-0.1-0.1-0.2-0.3-0.3-0.4
			c-0.1-0.2-0.2-0.4-0.2-0.6c-0.1-0.2-0.1-0.5-0.1-0.7c0-0.1,0.1-0.3,0.3-0.5c0.2-0.2,0.5-0.4,0.8-0.7c0.3-0.2,0.7-0.5,1.2-0.7
			c0.4-0.2,0.9-0.5,1.3-0.7c0.5-0.2,0.9-0.4,1.3-0.6C223,26.3,223.4,26.2,223.7,26.1z"/>
		<path id="XMLID_49_" d="M264.6,43.8c0,0.2-0.1,0.5-0.2,0.8c-0.1,0.4-0.6,0.7-1.2,1c-0.7,0.3-1.2,0.4-1.7,0.4h-0.6
			c-1,0-1.8-0.1-2.3-0.2c-1.6-0.4-3.5-0.6-5.7-0.6c-0.5,0-0.9,0-1.4,0c-0.5,0-1,0.1-1.5,0.2c-1,0.1-1.9,0.3-2.6,0.6
			c-1.3,0.5-2.2,1-2.5,1.4c-0.4,0.5-0.8,0.9-1,1c-0.3,0.2-0.6,0.3-1.1,0.3c-0.9,0-1.3-0.4-1.3-1.1c0-0.8,0.2-1.5,0.6-2
			c0.6-0.8,1.3-1.5,2.2-2.1c0.4-0.3,0.9-0.6,1.5-0.9c0.6-0.3,1.2-0.7,1.9-1.1c0.5-0.3,1.1-0.5,1.6-0.9c0.5-0.3,1-0.7,1.5-1.1
			c0.4-0.4,0.8-0.7,1.2-1.1c0.4-0.4,0.8-0.8,1.3-1.2c0.9-0.8,1.6-1.5,2.1-2.3c0.6-0.7,1-1.4,1.4-2.1c0.4-0.7,0.6-1.4,0.6-2.1
			c0-0.5-0.2-1-0.6-1.6c-0.4-0.6-0.9-1-1.6-1.4c-0.6-0.4-1.2-0.6-1.7-0.6c-0.6,0-1.5,0.3-2.6,1c-0.6,0.3-1.1,0.7-1.5,1
			c-0.4,0.3-0.8,0.6-1.2,0.9c-0.1,0.1-0.2,0.2-0.4,0.4c-0.1,0.1-0.3,0.3-0.4,0.4c-0.1,0.1-0.2,0.3-0.4,0.4c-0.1,0.1-0.3,0.2-0.4,0.2
			c-0.1,0.1-0.3,0.1-0.5,0.1c-0.2,0-0.4,0-0.7,0c-0.2,0-0.4-0.2-0.7-0.7c-0.2-0.5-0.3-0.8-0.3-1.1c0-0.3,0.1-0.5,0.2-0.6
			c0.2-0.2,0.4-0.3,0.8-0.6c0.3-0.2,0.7-0.5,1.1-0.7c0.5-0.4,1-0.7,1.5-1.1c0.5-0.3,0.9-0.6,1.3-0.9c0.4-0.3,0.8-0.5,1.3-0.7
			c0.4-0.2,0.9-0.4,1.3-0.5c0.7-0.2,1.7-0.3,2.9-0.3c1.1,0,2.1,0.4,3.1,1.3c1,0.9,1.8,1.9,2.4,3.1c0.4,0.8,0.6,1.2,0.6,1.3
			c0,0.9-0.4,1.9-1.1,3.1c-0.4,0.6-0.7,1.2-1.2,1.8c-0.4,0.6-0.9,1.2-1.4,1.7c-1,1.1-1.9,2-2.7,2.7c-1.5,1.3-3,2.4-4.4,3.1
			c0.3,0,0.6,0,1.1,0c0.4,0,0.9,0,1.5,0c1.2,0,2.9,0.1,5.2,0.2c0.3,0,0.6,0,1,0.1c0.3,0,0.7,0,1,0.1c0.7,0,1.3,0,1.7,0
			c0.3,0,0.6-0.1,1.1-0.3c0.5-0.2,0.8-0.3,1-0.3c0.2,0,0.4,0.1,0.6,0.4C264.5,43.3,264.6,43.6,264.6,43.8z"/>
	</g>
	<g id="XMLID_22_">
		<path id="XMLID_23_" d="M281.4,135.1c0,0.4-0.2,1-0.5,1.8c-0.2,0.4-0.3,0.7-0.4,1c-0.1,0.3-0.3,0.5-0.4,0.7
			c-0.8,1.1-2.1,2.3-3.8,3.5c-1.8,1.2-3.6,2.3-5.3,3.2c-1.2,0.6-2.3,1.2-3.5,1.6c-1.2,0.5-2.3,0.9-3.5,1.3c-0.1,0.1-0.1,0.3-0.1,0.6
			v0.5c0,0.3,0,0.7,0.1,1.3c0,0.5,0.1,1.2,0.1,2c0.1,0.8,0.1,1.5,0.1,2.1c0,0.6,0,1.2,0,1.6c0,0.4-0.1,0.8-0.4,1
			c-0.3,0.2-0.6,0.4-1,0.4c-1.2,0-1.8-2.6-1.8-7.9v-0.5c0-0.6,0-1.3,0.1-2c0.1-0.7,0.2-1.6,0.3-2.6c0.1-0.3,0.1-0.7,0.2-1
			c0-0.3,0.1-0.7,0.2-1.1c0.1-0.8,0.2-1.4,0.3-2c0.1-0.6,0.2-1.1,0.4-1.6c0-0.1,0.1-0.3,0.1-0.5c0-0.2,0.1-0.4,0.1-0.7
			c0.1-0.5,0.2-1,0.3-1.3c0.1-0.4,0.3-0.7,0.5-1.1c0.2-0.4,0.4-0.7,0.7-1c0.2-0.1,0.4-0.1,0.6-0.1c0.4,0,0.7,0.1,0.9,0.4
			c0.2,0.2,0.3,0.6,0.3,1c0,0.1,0,0.2-0.1,0.5c-0.1,0.3-0.2,0.6-0.3,0.9c-0.1,0.3-0.2,0.6-0.3,0.9c-0.1,0.3-0.2,0.5-0.2,0.5
			c-0.1,0.2-0.2,0.5-0.2,0.9c-0.1,0.3-0.1,0.6-0.2,1c-0.1,0.3-0.1,0.7-0.2,1.1c-0.1,0.4-0.1,0.7-0.2,1.1c0,0.4-0.1,0.7-0.1,1.1
			c0,0.3-0.1,0.7-0.1,0.9c0,0.3,0,0.5-0.1,0.8c0.4-0.2,0.8-0.3,1.3-0.5c0.5-0.2,1.1-0.5,1.7-0.7c1.3-0.5,2.5-1.1,3.5-1.5
			c1-0.5,2-1,3-1.6c0.6-0.4,1.3-0.8,1.9-1.3c0.6-0.5,1.2-1,1.8-1.6c1.1-1.2,1.7-2.3,1.7-3.3c0-0.5-0.5-0.8-1.4-1.1
			c-0.5-0.1-0.9-0.2-1.4-0.3c-0.5-0.1-0.9-0.1-1.4-0.2c-0.5,0-0.9-0.1-1.3-0.1c-0.4,0-0.8,0-1.2,0c-2.2,0-4.5,0.2-6.9,0.7
			c-1.2,0.3-2.9,0.8-5,1.5c-0.3,0.1-0.4,0.1-0.6,0.1c-0.2,0-0.4-0.1-0.6-0.2c-0.2-0.1-0.2-0.3-0.2-0.6c0-0.5,0.2-1,0.5-1.3
			c0.3-0.3,0.8-0.6,1.4-0.9c0.6-0.3,1.6-0.6,3-0.8c0.7-0.1,1.3-0.3,2-0.4c0.7-0.1,1.4-0.2,2.1-0.3c1.4-0.2,2.4-0.2,3.1-0.2
			c0.6,0,1.2,0,1.7,0c0.6,0,1.1,0,1.6,0.1c0.5,0,1.1,0.1,1.6,0.2c0.5,0.1,1.1,0.2,1.6,0.3c1.1,0.3,2,0.7,2.8,1.3
			C281.1,133.3,281.4,134.1,281.4,135.1z"/>
		<path id="XMLID_25_" d="M302.1,133.8c-0.1,0.1-0.4,0.2-0.6,0.2c-0.3,0-0.6,0-0.9,0c-0.3,0-0.6-0.1-0.9-0.1c-0.3,0-0.5,0-0.7,0
			c-0.2,0-0.6,0-1.1,0c-0.5,0-1,0.1-1.7,0.2c-0.6,0.1-1.3,0.2-1.9,0.3c-0.7,0.1-1.3,0.2-1.9,0.3c-0.6,0.1-1.1,0.2-1.5,0.4
			c-0.4,0.1-0.7,0.2-0.8,0.4c0,0.1-0.1,0.2-0.2,0.5c-0.1,0.3-0.2,0.7-0.3,1.2c-0.1,0.5-0.2,1-0.4,1.6c-0.1,0.6-0.2,1.3-0.3,1.9
			c-0.1,0.7-0.2,1.3-0.2,2s-0.1,1.3,0,1.9c0.8-0.2,1.5-0.4,2.3-0.6c0.8-0.2,1.6-0.3,2.6-0.5c0.4-0.1,0.9-0.2,1.4-0.3
			c0.5-0.2,1-0.3,1.5-0.5c0.5-0.1,1-0.3,1.4-0.4s0.8-0.2,1.2-0.2c0.3,0,0.5,0,0.7,0.1s0.4,0.1,0.5,0.3c0.1,0.1,0.2,0.3,0.3,0.4
			c0.1,0.2,0.1,0.4,0.2,0.7c0,0.1,0,0.2-0.1,0.3c-0.1,0.1-0.2,0.2-0.3,0.3c-0.1,0.1-0.2,0.2-0.3,0.3c-0.1,0.1-0.2,0.2-0.2,0.2
			c-0.1,0.1-0.3,0.2-0.7,0.3c-0.3,0.1-0.6,0.2-1,0.3c-0.4,0.1-0.7,0.1-1,0.2c-0.3,0.1-0.6,0.1-0.8,0.1c-0.6,0.1-1.2,0.2-1.8,0.3
			c-0.6,0.1-1.2,0.2-1.8,0.4c-0.6,0.1-1.2,0.3-1.7,0.4c-0.5,0.1-1,0.2-1.4,0.4c-0.4,0.1-0.8,0.2-1,0.3c-0.3,0.1-0.4,0.2-0.5,0.3
			c-0.1,0.2-0.2,0.5-0.2,0.8c-0.1,0.3-0.1,0.7-0.1,1c0,0.4-0.1,0.8-0.1,1.2c0,0.4,0,0.8,0,1.2c0,0.4,0,0.8,0,1.2s0,0.7,0,1
			c0,0.4,0,0.7,0,1.1c0,0.4,0,0.7-0.1,1c-0.1,0.2-0.2,0.4-0.4,0.6c-0.2,0.1-0.5,0.2-0.9,0.1c-0.1,0-0.2-0.1-0.4-0.1
			s-0.4-0.2-0.6-0.3c-0.2-0.2-0.4-0.4-0.6-0.6c-0.2-0.2-0.3-0.5-0.3-0.9c0-1.3,0.1-2.6,0.2-3.8c0.1-1.2,0.3-2.4,0.4-3.5
			c0.1-0.9,0.2-1.9,0.4-2.9c0.1-1,0.3-2,0.4-3.1c0.1-1,0.3-2,0.5-3.1c0.2-1,0.3-2,0.4-2.9c0-0.2,0-0.4,0-0.5c0-0.2-0.1-0.4-0.1-0.5
			c-0.1-0.2-0.1-0.4-0.2-0.5c-0.1-0.2-0.1-0.4-0.1-0.5c0-0.2,0-0.3,0.1-0.5c0.1-0.2,0.2-0.4,0.4-0.5c0.2-0.2,0.3-0.3,0.5-0.4
			c0.2-0.1,0.3-0.2,0.5-0.1c0.2,0,0.4,0,0.6,0.1c0.2,0,0.4,0.1,0.5,0.1c0.2,0,0.3,0,0.5,0.1c0.2,0,0.3,0,0.5,0c0.3,0,0.7,0,1.1-0.1
			c0.4-0.1,0.8-0.1,1.3-0.2c0.4-0.1,0.9-0.2,1.4-0.3c0.5-0.1,0.9-0.2,1.3-0.3c1.2-0.2,2.3-0.4,3.4-0.6c1-0.1,2-0.2,2.8-0.2
			c0.1,0,0.3,0,0.5,0.1c0.2,0.1,0.4,0.1,0.6,0.2c0.2,0.1,0.3,0.2,0.5,0.3c0.1,0.1,0.2,0.3,0.2,0.4c0,0.3,0,0.6-0.2,1
			C302.9,133.2,302.6,133.5,302.1,133.8z"/>
		<path id="XMLID_27_" d="M319.5,147.2c-0.2,0.3-0.7,0.4-1.5,0.4c-0.1,0-0.3,0-0.6,0c-0.3,0-0.6-0.1-0.9-0.1s-0.6-0.1-0.9-0.1
			c-0.3,0-0.5,0-0.6,0c-0.4,0-0.7,0-0.9,0c-0.2,0-0.4,0-0.6,0c-0.2,0-0.4,0-0.6,0c-0.2,0-0.5,0-0.8,0c-0.2,0.5-0.4,1.2-0.4,2.3
			c0,0.2,0,0.4,0,0.6c0,0.2,0,0.4,0,0.7c0,0.4,0,0.7-0.1,1.1c0,0.4-0.1,0.7-0.1,1.1c0,0.4-0.1,0.7-0.2,0.8s-0.4,0.2-0.7,0.2
			c-0.5,0-0.8-0.1-0.9-0.3c-0.1-0.2-0.2-0.5-0.2-1c0-0.2,0-0.5,0.1-0.9c0.1-0.4,0.1-1,0.2-1.7c0-0.4,0.1-0.8,0.1-1.3
			c0-0.5,0.1-1,0.1-1.7c-0.2,0-0.4,0-0.7,0c-0.3,0-0.6,0-1,0c-0.3,0-0.7,0-1.1,0c-0.4,0-0.7,0-1.1,0c-0.2,0-0.5,0.1-1,0.2
			c-0.4,0.1-0.7,0.1-0.8,0.1c-0.3,0-0.6-0.1-0.8-0.3c-0.2-0.2-0.4-0.5-0.4-0.8c0-0.1,0-0.2,0.1-0.3c0-0.1,0.1-0.2,0.2-0.4
			c0.1-0.1,0.2-0.2,0.2-0.3c0.1-0.1,0.2-0.1,0.3-0.1c0.1,0,0.3,0,0.5,0c0.2,0,0.4,0,0.6,0.1c0.2,0,0.4,0.1,0.6,0.1
			c0.2,0,0.3,0,0.4,0c0,0,0.1,0,0.3,0c0.1,0,0.3,0,0.5,0c0.2,0,0.4,0,0.6,0c0.2,0,0.4,0,0.6,0c0.4,0,0.7,0,1.1-0.1
			c0.3,0,0.6,0,0.9,0c0.1-0.4,0.2-0.8,0.2-1.3c0-0.2,0-0.4,0-0.7c0-0.3,0-0.7-0.1-1.1c0-0.4,0-0.7-0.1-1.1c0-0.3,0-0.6,0-0.7
			c0-0.2,0-0.4,0-0.5c0-0.1,0-0.3,0-0.5c0-0.4,0.1-0.8,0.3-1.1c0.2-0.4,0.5-0.6,0.9-0.6c0.1,0,0.2,0.1,0.3,0.2
			c0.1,0.1,0.2,0.3,0.3,0.4c0.1,0.2,0.2,0.3,0.2,0.5c0.1,0.2,0.1,0.3,0.1,0.3c0,0.6-0.1,1.3-0.1,2.3c-0.1,1-0.1,1.6-0.1,2
			c0,0.6,0,1.1,0.1,1.7c0.4,0.1,0.9,0.1,1.4,0.1c0.5,0,1.1,0,1.8,0c0.4,0,0.8,0,1.1,0c0.3,0,0.6,0,0.8,0c1.2,0,1.9,0.2,2.2,0.5
			C319.4,146.2,319.5,146.6,319.5,147.2z"/>
		<path id="XMLID_29_" d="M345.5,146.8c0,0.3,0,0.6-0.1,1.1c-0.1,0.5-0.1,0.8-0.1,0.8c-0.1,0.6-0.4,1.2-0.8,1.9
			c-0.4,0.7-0.8,1.3-1.3,2c-0.5,0.6-1,1.2-1.4,1.6c-0.5,0.5-0.9,0.8-1.2,1.1c-0.4,0.3-0.8,0.5-1.3,0.8c-0.5,0.2-1.2,0.5-1.9,0.7
			c-1.4,0.5-2.7,0.7-3.8,0.7c-0.9,0-1.8-0.2-2.5-0.5c-0.8-0.3-1.2-0.9-1.2-1.8c0-0.5,0.1-0.9,0.4-1.2c0.3-0.2,0.8-0.4,1.5-0.4
			c0.8,0,1.5,0.1,2.1,0.4c0.6,0.3,1.1,0.4,1.6,0.4c0.2,0,0.7-0.1,1.5-0.2c0.7-0.2,1.3-0.4,1.7-0.7c0.5-0.3,0.9-0.7,1.4-1.2
			c0.5-0.5,1-1,1.4-1.6c0.4-0.6,0.7-1.1,1-1.7c0.3-0.6,0.4-1.1,0.4-1.7c0-0.8-0.3-1.4-0.9-2c-0.6-0.6-1.3-1.1-2.1-1.4
			c-0.8-0.3-1.5-0.5-2.1-0.5c-0.9,0-1.6,0.1-2,0.2c-0.5,0.1-0.9,0.3-1.4,0.5c-0.4,0.2-0.8,0.3-1.1,0.3c-0.4,0-0.7-0.1-1.1-0.3
			c-0.4-0.2-0.6-0.5-0.6-0.9c0-0.3,0-0.6,0.1-0.8c0.1-0.2,0.2-0.4,0.4-0.6c0.2-0.2,0.3-0.3,0.5-0.4c0.2-0.1,0.4-0.2,0.6-0.2
			c0.2-0.1,0.5-0.1,0.7-0.1c0.3,0,0.5-0.1,0.8-0.1c0.6,0,0.9-0.1,1-0.2c0.8-0.4,1.5-1,2.3-1.6c0.4-0.3,0.8-0.6,1.2-1
			c0.4-0.3,0.7-0.7,1-1c0.6-0.7,1-1.2,1-1.7c0-0.6-0.2-1-0.7-1.3c-0.5-0.3-1.3-0.4-2.4-0.4c-0.4,0-0.8,0-1.2,0
			c-0.4,0-0.9,0.1-1.3,0.2c-0.4,0.1-0.9,0.2-1.3,0.3c-0.4,0.1-0.9,0.2-1.3,0.4c-0.4,0.1-0.8,0.3-1.2,0.4s-0.8,0.3-1.1,0.5
			c-0.3,0.2-0.6,0.4-0.9,0.6c-0.3,0.2-0.5,0.5-0.6,0.7c-0.1,0.1-0.2,0.4-0.2,0.7c0,0.3-0.1,0.8-0.1,1.5c0,0.3,0,0.7,0,1.1
			c0,0.4,0,0.9,0,1.3c0,0.5,0,0.9-0.1,1.3c0,0.4,0,0.7-0.1,0.9c0,0.2-0.1,0.5-0.1,0.8c0,0.3-0.1,0.7-0.1,1.1
			c-0.1,0.8-0.2,1.5-0.3,2.1c-0.1,0.6-0.1,1.1-0.1,1.7c0,0.2,0,0.4,0,0.6c0,0.2,0,0.5,0.1,0.9c0,0.3,0,0.6,0.1,0.9
			c0,0.2,0,0.5,0,0.6c0,1-0.1,1.7-0.4,2.1c-0.3,0.4-0.7,0.7-1.3,0.7c-1.3,0-2-1.1-2-3.4c0-0.3,0.1-1.2,0.4-2.7
			c0.3-1.5,0.4-2.4,0.4-2.8c0.1-0.5,0.1-1,0.1-1.4c0-0.5,0.1-0.9,0.1-1.3c0-0.4,0.1-0.9,0.1-1.4s0.1-1.2,0.2-1.9
			c0.1-0.4,0.1-0.8,0.1-1.1c0-0.3,0-0.5,0-0.6c0-0.3,0-0.6-0.1-0.9c0-0.2-0.1-0.3-0.1-0.5c0-0.1,0-0.2,0-0.3c0-0.8,0.1-1.5,0.4-2.1
			c0.4-0.8,0.7-1.2,0.9-1.2c0.4-0.1,0.8-0.1,1.1-0.2c0.3-0.1,0.7-0.2,1-0.3c1.4-0.5,2.6-0.9,3.4-1.1c0.8-0.3,1.4-0.5,1.6-0.5
			c0.5-0.2,1-0.3,1.6-0.3c0.3,0,0.6-0.1,1-0.1c0.4,0,0.9,0,1.4,0h0.9c0.2,0,0.5,0,0.9,0.2c0.4,0.1,0.8,0.3,1.2,0.5
			c0.4,0.2,0.8,0.4,1.1,0.7c0.3,0.2,0.6,0.5,0.7,0.8c0.2,0.2,0.3,0.6,0.4,1.1c0.1,0.2,0.1,0.5,0.1,0.7c0,0.2,0.1,0.4,0.1,0.5
			c0,0.9-0.4,1.8-1.2,2.7c-0.8,0.9-1.9,2-3.4,3.2c0.8,0.2,1.6,0.4,2.4,0.8c0.8,0.4,1.4,0.8,2,1.3c0.6,0.5,1,1,1.4,1.6
			C345.3,145.6,345.5,146.2,345.5,146.8z"/>
		<path id="XMLID_31_" d="M373.8,144.3c0,0.1,0,0.3,0,0.5c0,0.2-0.1,0.4-0.1,0.6c-0.1,0.2-0.1,0.4-0.2,0.5c-0.1,0.2-0.1,0.3-0.2,0.4
			c-0.1,0.1-0.2,0.2-0.3,0.4c-0.1,0.1-0.3,0.3-0.4,0.5c-0.2,0.2-0.3,0.4-0.5,0.6c-0.2,0.2-0.4,0.4-0.6,0.6c-0.7,0.6-1.4,1.2-2,1.8
			c-0.7,0.6-1.3,1.1-2,1.6c-0.7,0.5-1.4,0.8-2.2,1.1c-0.8,0.3-1.6,0.4-2.5,0.4c-0.4,0-0.8-0.1-1.2-0.2c-0.4-0.1-0.8-0.4-1.2-0.6
			s-0.7-0.6-0.9-1c-0.3-0.4-0.5-0.8-0.6-1.3c-0.3,0.3-0.7,0.7-1,1c-0.4,0.4-0.7,0.7-1.1,1.1c-0.4,0.4-0.8,0.7-1.2,1.1
			c-0.4,0.3-0.8,0.7-1.3,0.9c-0.2,0.2-0.5,0.3-0.9,0.5c-0.3,0.2-0.7,0.3-1.1,0.5c-0.4,0.1-0.7,0.3-1.1,0.4c-0.4,0.1-0.7,0.1-1,0.1
			c-0.5,0-0.8-0.1-1.2-0.4c-0.3-0.3-0.6-0.6-0.8-1c-0.2-0.4-0.4-0.8-0.5-1.3c-0.1-0.5-0.2-0.9-0.2-1.2c0-0.7,0.1-1.5,0.3-2.2
			c0.2-0.8,0.5-1.5,0.8-2.2c0.3-0.7,0.7-1.4,1.1-2.1c0.4-0.7,0.8-1.2,1.2-1.7c0.4-0.5,0.9-1.1,1.5-1.6c0.6-0.5,1.2-1,1.8-1.4
			c0.6-0.4,1.2-0.7,1.8-1c0.6-0.3,1.1-0.4,1.6-0.4c0.2,0,0.5,0,0.7,0c0.3,0,0.5,0,0.8,0s0.5,0.1,0.7,0.1s0.5,0.2,0.7,0.3
			c0.1,0.1,0.2,0.2,0.3,0.4c0.1,0.2,0.3,0.4,0.4,0.6c0.1,0.2,0.2,0.5,0.3,0.7c0.1,0.2,0.1,0.4,0.1,0.5c0,0.4-0.1,0.8-0.2,1.5
			c-0.2,0.8-0.3,1.5-0.5,2.1c-0.1,0.6-0.2,1.3-0.2,1.9c0,0.4,0.1,0.8,0.2,1.2c0.1,0.4,0.3,0.7,0.5,1.1c0.2,0.3,0.5,0.6,0.8,0.8
			c0.3,0.2,0.7,0.3,1.1,0.3c0.7,0,1.4-0.1,2.1-0.4c0.7-0.3,1.4-0.7,2.1-1.2c0.7-0.5,1.4-1.1,2.2-1.7c0.7-0.6,1.4-1.3,2.1-2.1
			c0.1-0.1,0.2-0.2,0.3-0.3c0.1-0.2,0.3-0.3,0.4-0.5c0.1-0.2,0.3-0.3,0.4-0.4s0.2-0.2,0.3-0.2C373.7,143.7,373.8,143.9,373.8,144.3z
			 M359.1,143c0-0.2,0-0.4,0-0.7c0-0.3-0.1-0.5-0.2-0.7c-0.1-0.2-0.3-0.3-0.4-0.3c-0.2,0-0.4,0-0.5,0c-0.4,0-0.8,0.1-1.1,0.2
			c-0.4,0.1-0.7,0.3-1,0.5c-0.3,0.2-0.7,0.5-1,0.7c-0.3,0.3-0.6,0.6-0.9,0.9c-0.3,0.3-0.5,0.6-0.8,0.9c-0.3,0.4-0.6,0.8-0.8,1.2
			c-0.3,0.4-0.5,0.9-0.8,1.4c-0.3,0.5-0.5,1-0.7,1.5c-0.2,0.5-0.3,0.9-0.4,1.4c-0.1,0.4-0.2,0.9-0.2,1.2c0,0.1,0,0.3,0,0.4
			c0,0.2,0.1,0.4,0.1,0.5c0.1,0.2,0.1,0.3,0.2,0.4c0.1,0.1,0.2,0.2,0.4,0.2c0.5,0,1.1-0.2,1.9-0.5c1-0.4,2-1,2.8-1.8
			c0.8-0.8,1.6-1.7,2.2-2.7C358.7,146.4,359.1,144.7,359.1,143z"/>
		<path id="XMLID_34_" d="M392.2,144.2c0,0.4-0.1,0.8-0.4,1.1c-0.1,0.1-0.3,0.3-0.5,0.4c-0.2,0.2-0.4,0.4-0.6,0.5l-1.5,1.5
			c-0.3,0.3-0.6,0.5-0.8,0.8c-0.2,0.2-0.5,0.4-0.7,0.6c-0.3,0.3-0.7,0.6-1.1,1c-0.4,0.4-1,0.8-1.5,1.3c-1.1,0.9-2.2,1.7-3.2,2.3
			c-1,0.6-2,1.1-3.1,1.4c-1.1,0.4-2.3,0.5-3.5,0.5c-0.8,0-1.4-0.1-2-0.4c-0.6-0.3-1.1-0.7-1.5-1.2c-0.4-0.5-0.7-1.1-0.9-1.7
			c-0.2-0.7-0.3-1.4-0.3-2.1c0-1.5,0.3-2.9,0.9-4.4c0.6-1.5,1.5-2.9,2.5-4.3c0.6-0.8,1.2-1.5,2-2.2c0.8-0.7,1.5-1,2.1-1
			c0.3,0,0.7,0.3,1.2,0.9c0.2,0.3,0.4,0.6,0.6,0.9s0.4,0.7,0.5,1c0.3,0.7,0.5,1.2,0.5,1.6s-0.1,0.7-0.3,1.2
			c-0.2,0.5-0.4,0.8-0.7,0.8c-0.4,0-0.7-0.3-1-0.8c-0.1-0.3-0.2-0.5-0.3-0.7c-0.1-0.2-0.1-0.4-0.2-0.6c-0.3-0.7-0.5-1.1-0.6-1.4
			c-0.7,0.1-1.3,0.5-1.8,1.1c-0.2,0.3-0.5,0.6-0.7,1c-0.2,0.4-0.5,0.9-0.8,1.4c-0.2,0.4-0.4,0.8-0.6,1.3c-0.2,0.5-0.3,1-0.5,1.5
			c-0.1,0.5-0.2,1-0.3,1.6c-0.1,0.5-0.1,1-0.1,1.5c0,0.6,0.3,1.3,0.8,1.9c0.6,0.6,1.2,0.9,1.8,0.9c1.4,0,2.8-0.2,4-0.7
			c1.3-0.5,2.5-1.2,3.7-2c1.2-0.8,2.3-1.7,3.5-2.8c0.6-0.5,1.2-1.1,1.7-1.5c0.5-0.5,1-0.9,1.5-1.4c0.8-0.7,1.5-1.1,2-1.1
			C392.1,143.8,392.2,143.9,392.2,144.2z"/>
		<path id="XMLID_36_" d="M412.1,141c0,0.2-0.1,0.4-0.2,0.6s-0.3,0.4-0.5,0.7c-0.2,0.2-0.4,0.4-0.7,0.7c-0.3,0.2-0.5,0.4-0.8,0.6
			c-0.3,0.2-0.5,0.3-0.8,0.5c-0.2,0.1-0.4,0.2-0.6,0.3c-0.3,0.1-0.7,0.2-1.1,0.3c-0.5,0.1-1,0.2-1.5,0.2c-0.5,0.1-1,0.1-1.5,0.2
			c-0.5,0-0.9,0.1-1.2,0.1c-0.1,0-0.3,0-0.5-0.1c-0.2,0-0.5-0.1-0.7-0.2s-0.5-0.1-0.7-0.2c-0.2-0.1-0.4-0.2-0.5-0.3
			c0.1,0.4,0.2,0.8,0.3,1.3c0.1,0.4,0.1,0.9,0.1,1.3c0,0.2,0,0.4-0.1,0.7c0,0.3-0.1,0.6-0.2,0.9c-0.1,0.3-0.2,0.6-0.3,0.8
			c-0.1,0.3-0.2,0.5-0.3,0.7c-0.3,0.5-0.6,0.9-0.9,1.3c-0.3,0.4-0.6,0.8-1,1.1c-0.4,0.3-0.8,0.7-1.3,1c-0.5,0.3-1,0.6-1.6,0.9
			c-0.7,0.3-1.3,0.5-2,0.6c-0.7,0.1-1.4,0.2-2.1,0.2c-0.5,0-0.9-0.1-1.2-0.4c-0.4-0.3-0.7-0.6-0.9-1.1c-0.2-0.4-0.4-1-0.6-1.5
			c-0.1-0.6-0.2-1.2-0.2-1.8c0-0.2,0-0.4,0-0.6c0-0.2,0.1-0.5,0.1-0.7c0.1-0.3,0.1-0.5,0.2-0.7s0.1-0.4,0.2-0.6
			c0.2-0.5,0.4-1,0.7-1.6c0.3-0.6,0.6-1.2,1-1.8c0.4-0.6,0.8-1.2,1.3-1.8s1-1.1,1.5-1.6c0.5-0.5,1.1-0.9,1.6-1.1
			c0.6-0.3,1.1-0.4,1.7-0.4c0.2,0,0.3,0,0.5,0.1c0.1,0.1,0.2,0.1,0.3,0.2c0.1,0.1,0.2,0.2,0.2,0.3c0.1,0.1,0.1,0.2,0.2,0.3
			c0,0.1,0.1,0.1,0.1,0.1c0.1,0,0.2,0,0.3-0.1s0.3-0.1,0.4-0.1c0.2,0,0.5,0.1,0.8,0.4c0.3,0.3,0.6,0.6,1,0.9c0.3,0.3,0.7,0.6,1,0.9
			c0.3,0.3,0.6,0.4,0.9,0.4c0.3,0,0.6,0,1,0c0.3,0,0.7,0,1-0.1s0.7-0.1,1-0.1s0.7-0.1,0.9-0.1c0.1,0,0.3-0.1,0.5-0.1
			c0.3-0.1,0.6-0.2,1-0.3c0.4-0.1,0.8-0.2,1.2-0.3c0.4-0.1,0.8-0.2,1.2-0.3c0.4-0.1,0.7-0.2,0.9-0.3c0.2-0.1,0.4-0.1,0.4-0.1
			c0.1,0,0.1,0,0.2,0C412,140.9,412.1,140.9,412.1,141z M399.2,143.7c-0.1-0.2-0.2-0.4-0.4-0.6c-0.2-0.2-0.4-0.4-0.7-0.6
			c-0.2-0.2-0.5-0.3-0.8-0.4c-0.3-0.1-0.5-0.2-0.8-0.2c-0.2,0-0.4,0-0.6,0.1c-0.2,0.1-0.4,0.2-0.6,0.3c-0.2,0.1-0.4,0.2-0.5,0.3
			s-0.3,0.2-0.5,0.4c-0.4,0.4-0.8,0.9-1.2,1.5c-0.4,0.7-0.7,1.4-1,2.1c-0.3,0.8-0.5,1.5-0.7,2.3c-0.2,0.8-0.3,1.4-0.3,2
			c0,0.2,0,0.5,0.1,0.7c0.1,0.2,0.2,0.4,0.4,0.6c0.2,0.2,0.3,0.3,0.5,0.4c0.2,0.1,0.4,0.2,0.7,0.2c0.7,0,1.3-0.1,1.8-0.4
			c0.6-0.2,1.1-0.6,1.5-1c0.5-0.4,0.9-0.9,1.2-1.5s0.7-1.2,0.9-1.9c0.2-0.7,0.4-1.4,0.6-2.1C399.1,145.2,399.1,144.4,399.2,143.7z"
			/>
		<path id="XMLID_39_" d="M431.9,150.7c0,0.4-0.1,0.8-0.4,1.3c-0.3,0.5-0.7,0.9-1.2,1.3c-0.5,0.4-1.1,0.7-1.9,1
			c-0.8,0.3-1.6,0.4-2.6,0.4c-1,0-1.9-0.2-2.6-0.5c-0.8-0.3-1.4-0.9-1.9-1.6c-0.5-0.7-0.9-1.7-1.2-2.8c-0.3-1.1-0.4-2.5-0.4-4.1
			c-0.2,0.1-0.4,0.3-0.8,0.7c-0.3,0.3-0.7,0.7-1.2,1.2c-0.4,0.5-0.9,1-1.3,1.5c-0.5,0.5-0.9,1-1.3,1.5c-0.4,0.5-0.8,0.9-1.1,1.4
			c-0.3,0.4-0.6,0.7-0.7,1c-0.3,0.4-0.5,0.8-0.7,1.1c-0.2,0.3-0.3,0.5-0.5,0.7c-0.1,0.2-0.3,0.3-0.5,0.4c-0.2,0.1-0.4,0.1-0.6,0.1
			c-0.2,0-0.4,0-0.6-0.1c-0.2-0.1-0.4-0.2-0.5-0.3c-0.1-0.1-0.3-0.2-0.3-0.4s-0.1-0.3-0.1-0.4c0-0.2,0-0.4,0-0.7
			c0-0.3,0.1-0.5,0.1-0.8c0-0.3,0.1-0.5,0.1-0.8c0-0.3,0.1-0.5,0.1-0.7c0.1-0.6,0.2-1.3,0.4-2.1s0.2-1.7,0.3-2.9
			c0.1-0.7,0.1-1.4,0.2-2c0-0.6,0.1-1.3,0.1-2c0-0.3,0-0.7,0.1-1c0.1-0.3,0.2-0.6,0.4-0.8c0.2-0.2,0.4-0.4,0.6-0.6
			c0.2-0.1,0.5-0.2,0.9-0.2c0.2,0,0.4,0,0.6,0.1c0.2,0.1,0.3,0.2,0.4,0.3c0.1,0.1,0.1,0.2,0.2,0.4c0,0.1,0,0.3,0,0.4
			c0,0.2,0,0.3,0,0.5c0,0.2,0,0.3,0,0.4c0,0,0,0.2-0.1,0.4c0,0.2-0.1,0.5-0.1,0.8c-0.1,0.3-0.1,0.7-0.2,1.1
			c-0.1,0.4-0.2,0.8-0.3,1.2c-0.2,0.8-0.3,1.5-0.4,2c-0.1,0.5-0.1,1-0.2,1.3c0,0.4-0.1,0.7-0.1,1c0,0.3-0.1,0.7-0.1,1.2
			c0.2-0.3,0.6-0.7,1-1.2c0.4-0.5,0.9-1,1.4-1.5c0.5-0.5,0.9-1,1.4-1.5c0.4-0.5,0.8-0.9,1-1.2c0.3-0.4,0.7-0.8,1-1.2
			c0.3-0.4,0.7-0.7,1.1-0.9c0.4-0.3,0.7-0.5,1.2-0.6c0.4-0.1,0.8-0.2,1.3-0.2c0.3,0,0.5,0.1,0.6,0.2c0.1,0.2,0.1,0.3,0.1,0.6
			c0,0.1,0,0.2,0,0.3c0,0.1,0,0.2,0,0.3c0,0.1,0,0.2-0.1,0.5c0,0.2-0.1,0.5-0.1,0.7c0,0.3-0.1,0.5-0.1,0.7c0,0.2,0,0.4,0,0.5
			c0,1,0.1,1.8,0.2,2.6c0.1,0.8,0.4,1.5,0.7,2.1c0.3,0.6,0.7,1,1.3,1.3s1.2,0.5,2,0.5c0.5,0,0.9,0,1.3-0.1c0.4-0.1,0.7-0.2,1.1-0.3
			c0.3-0.1,0.7-0.3,1.1-0.5c0.4-0.2,0.8-0.5,1.2-0.8c0.1-0.1,0.2-0.2,0.3-0.2c0.1-0.1,0.2-0.1,0.3-0.2c0.1-0.1,0.2-0.1,0.2-0.1
			L431.9,150.7z"/>
	</g>
</g>
</svg>
