<?xml version="1.0" encoding="utf-8"?>
<!-- Generator: Adobe Illustrator 19.0.0, SVG Export Plug-In . SVG Version: 6.00 Build 0)  -->
<svg version="1.1" id="Camada_1" xmlns="http://www.w3.org/2000/svg" xmlns:xlink="http://www.w3.org/1999/xlink" x="0px" y="0px"
	 viewBox="0 0 457.7 262.9" style="enable-background:new 0 0 457.7 262.9;" xml:space="preserve">
<style type="text/css">
	.st0{fill:#FFFFFF;}
</style>
<g id="XMLID_3_">
	<path id="XMLID_4_" class="st0" d="M99.6,116.4c0,2.7-0.3,5.5-1,8.5c-0.6,3-1.7,5.8-3.1,8.3c-1.4,2.6-3.3,4.7-5.5,6.4
		c-2.3,1.7-5,2.6-8.3,2.6c-5,0-8.7-0.9-11.1-2.7c-2.4-1.8-4.1-4-5.1-6.7c-1-2.7-1.5-5.6-1.6-8.6c-0.1-3.1-0.2-5.9-0.3-8.6
		c-0.1-2.7-0.6-4.9-1.4-6.7c-0.8-1.8-2.5-2.7-5-2.7c-2.8,0-5.3,1-7.5,3.1c-2.1,2.1-4,4.7-5.5,8c-1.6,3.3-2.9,7-3.9,11.1
		c-1.1,4.1-1.9,8.2-2.6,12.3s-1.1,7.9-1.4,11.5c-0.3,3.6-0.4,6.6-0.4,8.8c0,3,0.1,6.5,0.3,10.7c0.2,4.1,0.9,8.1,2,11.8
		c1.1,3.8,2.8,7,5.1,9.6c2.3,2.6,5.5,3.9,9.8,3.9c2.8,0,5.6-0.4,8.3-1.1c2.7-0.7,5.4-1.5,8.1-2.5c2.7-0.9,5.4-1.7,8.2-2.5
		c2.8-0.7,5.6-1.1,8.4-1.1c3.3,0,6,1.3,8.1,3.9c2.1,2.6,3.2,5.6,3.2,8.8c0,4.6-1.4,8.8-4.3,12.7c-2.8,3.9-6.4,7.4-10.6,10.3
		c-4.2,3-8.7,5.3-13.6,7c-4.9,1.7-9.3,2.6-13.3,2.6c-10.2,0-18.9-2.3-26-6.9c-7.1-4.6-12.9-10.6-17.3-17.9C8,203.2,4.8,195,2.9,186
		C1,177,0,168,0,159c0-6,0.6-12.5,1.7-19.6c1.1-7.1,2.8-14.2,5.1-21.4c2.3-7.2,5.1-14.1,8.6-20.8c3.5-6.7,7.6-12.6,12.3-17.7
		s10-9.2,15.9-12.4c5.9-3.1,12.4-4.7,19.5-4.7c7,0,12.8,1.7,17.5,5.2c4.7,3.5,8.5,7.9,11.3,13.2c2.8,5.3,4.8,11.2,6,17.5
		C99,104.7,99.6,110.7,99.6,116.4z"/>
	<path id="XMLID_6_" class="st0" d="M212.1,112.8c0,9.8-2.3,18.6-6.8,26.4c-4.6,7.8-10.6,14.7-18.1,20.7c2.3,3.4,4.6,7.4,7,11.9
		c2.4,4.6,4.6,9.3,6.5,14.4c1.9,5,3.5,10.1,4.7,15.1c1.2,5,1.8,9.7,1.8,14c0,4.6-1.1,8.6-3.3,12.3c-2.2,3.6-5.9,5.4-11.2,5.4
		c-4.4,0-8.2-2.1-11.4-6.4c-3.2-4.3-6-9.3-8.5-15.2c-2.5-5.9-4.8-11.9-6.8-18c-2.1-6.1-4-11-5.9-14.7c-2.6,0.9-5,1.8-7.5,2.9
		c-2.4,1.1-4.9,2.1-7.5,3.1c-0.1,3.1-0.4,7.4-0.7,12.9c-0.4,5.5-1.1,10.9-2.3,16.3c-1.2,5.4-3,10.1-5.4,14.1c-2.4,4-5.8,6-10,6
		c-4.7,0-8.3-1.9-10.9-5.8c-2.6-3.8-4.4-8.4-5.4-13.6c-1.1-5.3-1.7-10.6-1.8-16.1c-0.1-5.5-0.2-9.8-0.2-12.9
		c0-6.7,0.1-13.3,0.4-19.7c0.3-6.5,0.4-13,0.4-19.7c0-6.1-0.1-12.2-0.3-18.3c-0.2-6.1-0.3-12.3-0.3-18.5c0-1.4,0-3.2,0-5.4
		c0-2.2,0.1-4.5,0.3-6.8c0.2-2.3,0.5-4.6,0.7-6.7c0.3-2.1,0.8-3.8,1.5-5.1c1.4-3,4.7-5.8,9.7-8.5c5-2.7,10.6-5.1,16.6-7.1
		c6-2.1,11.9-3.7,17.7-4.9c5.8-1.2,10.1-1.8,12.9-1.8c7.2,0,13.6,1.4,19.2,4.1c5.5,2.7,10.2,6.4,13.9,11c3.7,4.6,6.5,10,8.3,16
		C211.2,99.7,212.1,106.1,212.1,112.8z M172.7,115.8c0-3.7-0.9-6.5-2.6-8.4c-1.7-1.9-4.5-2.9-8.3-2.9c-2.8,0-5.7,0.5-8.6,1.5
		c-2.9,1-5.6,2.1-8,3.4c0.6,11.2,0.8,22.4,0.6,33.5c3-1,6-2.3,9.2-3.8c3.1-1.6,6-3.5,8.6-5.8c2.6-2.3,4.8-4.8,6.5-7.7
		C171.8,122.7,172.7,119.5,172.7,115.8z"/>
	<path id="XMLID_9_" class="st0" d="M333.9,150.1c0,5.8-0.3,11.8-0.9,18c-0.6,6.2-1.6,12.2-3,18c-1.4,5.8-3.4,11.3-5.9,16.5
		c-2.5,5.2-5.6,9.7-9.5,13.6c-3.8,3.9-8.5,7-13.9,9.3c-5.4,2.3-11.7,3.4-19,3.4c-10.7,0-19.9-2.5-27.8-7.5
		c-7.9-5-14.5-11.3-19.7-19.1c-5.3-7.7-9.2-16.4-11.7-26c-2.6-9.6-3.8-19.1-3.8-28.5c0-1,0-1.9,0-2.8s0.1-1.6,0.2-2.3
		c0.1-3,0.4-7,0.7-12.2c0.4-5.1,1-10.6,1.8-16.4c0.9-5.8,2-11.8,3.3-17.9c1.3-6.1,3.1-11.6,5.3-16.4c2.2-4.8,4.9-8.8,8-11.9
		c3.1-3.1,6.8-4.7,11.1-4.7c3.1,0,5.8,0.9,7.9,2.8c2.1,1.8,3.9,4.2,5.2,6.9c1.3,2.8,2.3,5.7,2.9,8.7c0.6,3.1,0.9,5.9,0.9,8.4
		c0,3.8-0.4,7.7-1.2,11.6c-0.8,3.9-1.5,7.8-2.2,11.6c-1.1,6.1-2.1,12.2-2.8,18.3c-0.7,6.1-1.1,12.4-1.1,18.8c0,3.3,0.2,7.2,0.5,11.9
		c0.4,4.7,1.2,9.2,2.7,13.5c1.4,4.3,3.4,8,6.1,11.1c2.6,3.1,6.2,4.6,10.8,4.6c4.4,0,7.9-1.5,10.6-4.5c2.6-3,4.6-6.5,5.9-10.7
		c1.3-4.1,2.1-8.5,2.5-13c0.4-4.5,0.5-8.5,0.5-11.7c0-9.4-0.8-18.7-2.3-27.8c-1.6-9.2-3.6-18.3-6.2-27.4c-0.7-2.4-1.3-4.8-1.8-7.2
		c-0.5-2.4-0.7-4.8-0.7-7.2c0-4,1.2-7.5,3.5-10.4c2.3-3,5.6-4.5,9.9-4.5c3.6,0,6.9,1.4,9.9,4.2c3.1,2.8,5.8,6.4,8.2,10.9
		c2.4,4.5,4.5,9.5,6.3,15c1.8,5.5,3.3,11.1,4.6,16.5c1.3,5.5,2.2,10.7,2.9,15.7c0.6,5,1,9,1.2,12.2c0.1,1.4,0.2,2.8,0.2,4.2
		C333.9,147.1,333.9,148.5,333.9,150.1z"/>
	<path id="XMLID_11_" class="st0" d="M457.7,129c0,12.5-2.6,24.6-7.7,36.1c-5.1,11.6-12,21.9-20.6,30.8c-8.6,9-18.6,16.1-30.1,21.4
		c-11.4,5.3-23.5,8-36.1,8h-0.4c-2.6,0-4.7-1.2-6.3-3.5c-1.6-2.3-3-5.3-4.2-8.8c-1.1-3.6-2-7.5-2.6-11.9c-0.6-4.4-1-8.7-1.3-12.9
		c-0.3-4.2-0.4-8-0.4-11.3c0-3.3,0-5.9,0-7.6c0-4.8,0.1-9.6,0.2-14.4c0.1-4.8,0.4-9.6,0.6-14.4c0-1.6,0.1-3.9,0.3-6.9
		c0.2-3.1,0.5-6.5,0.7-10.3c0.3-3.8,0.6-7.9,1.1-12c0.4-4.2,0.9-8.1,1.4-11.7c0.5-3.6,1-6.8,1.5-9.6c0.5-2.8,1.1-4.7,1.8-5.6
		c1.8-3.1,4.7-5.9,8.5-8.3c3.8-2.4,8-4.4,12.5-6c4.5-1.6,9-2.7,13.6-3.5c4.6-0.8,8.6-1.2,12-1.2c9.4,0,17.5,1.7,24.4,5.2
		c6.9,3.5,12.6,8.2,17.3,14.1c4.6,5.9,8,12.7,10.2,20.4C456.6,112.6,457.7,120.6,457.7,129z M421.9,135.2c0-3.1-0.6-6.3-1.7-9.6
		c-1.1-3.3-2.7-6.3-4.8-9c-2.1-2.7-4.6-4.9-7.5-6.5c-2.9-1.6-6.1-2.5-9.7-2.5c-3,0-6,0.7-9.2,2.1c-0.7,0.4-1.4,1.7-1.9,3.9
		c-0.6,2.2-1,4.9-1.4,8c-0.4,3.1-0.7,6.5-1,10.2c-0.3,3.7-0.5,7.2-0.5,10.6c-0.1,3.3-0.1,6.3-0.2,8.8c-0.1,2.6-0.1,4.3-0.1,5.1
		c0,1.4,0,3.5,0,6.3c0,2.8,0.1,5.5,0.3,8.2c0.2,2.7,0.5,5,0.7,7c0.3,2,0.8,3,1.5,3c4.3,0,8.5-1.7,12.7-5c4.2-3.3,8-7.4,11.4-12.3
		c3.4-4.8,6.1-9.9,8.2-15.1C420.9,143.3,421.9,138.9,421.9,135.2z"/>
</g>
</svg>
